<?xml version="1.0" encoding="UTF-8"?><svg id="Layer_2" xmlns="http://www.w3.org/2000/svg" viewBox="0 0 481.56 486.91"><defs><style>.cls-1{fill:#7bff47;}.cls-2{fill:none;stroke:#7bff47;stroke-miterlimit:10;stroke-width:1.38px;}</style></defs><g id="Layer_1-2"><path class="cls-1" d="M444.55,222.68c9.79-20.82,14.95-43.51,14.95-66.39C459.5,70.1,389.4,0,303.21,0H111.56v486.91h208.46c89.07,0,161.55-72.17,161.55-160.93,0-37.53-13.3-74.43-37.01-103.3ZM460.94,325.98c0,6.51-.6,12.86-1.47,19.13h-88.49v-108.78h58.03c19.85,24.35,31.93,55.98,31.93,89.64ZM132.18,184.53h30.24v31.19h-30.24v-31.19ZM132.18,236.34h30.24v54.46h-30.24v-54.46ZM162.42,311.41v117.76h-30.24v-117.76h30.24ZM172.73,311.41h84.85v154.88h-84.85v-154.88ZM267.89,310.52h46.76c7.83,0,14.74,7.22,14.74,15.46s-6.8,14.85-14.74,14.85h-46.76v-30.31ZM257.58,290.79h-84.85v-54.46h84.85v54.46ZM172.73,215.72v-31.19h84.85v31.19h-84.85ZM267.89,146.19h30.06c4.54,0,8.76,4.85,8.76,10.1,0,4.64-4.13,8.76-8.76,8.76h-30.06v-18.87ZM257.58,163.91h-84.85V20.62h84.85v143.29ZM267.89,185.67h30.06c15.98,0,29.38-13.4,29.38-29.38s-13.4-30.72-29.38-30.72h-30.06v-28.67h127.68v118.82h-127.68v-30.05ZM370.99,355.42h24.59v88.77c-7.72,4.91-15.95,9.08-24.59,12.44v-101.2ZM424.91,215.72h-19.03v-118.82h19.14c8.79,17.96,13.86,38.07,13.86,59.39s-5.2,41.56-13.97,59.43ZM419.41,86.59h-13.53v-18.76c5.04,5.84,9.53,12.12,13.53,18.76ZM395.57,57.16v29.42h-127.68V20.62h35.32c35.7,0,68.12,13.95,92.36,36.55ZM162.42,20.62v143.29h-30.24V20.62h30.24ZM132.18,439.48h30.24v26.81h-30.24v-26.81ZM267.89,466.29v-104.85h46.76c19.38,0,35.36-16.08,35.36-35.46s-15.98-36.08-35.36-36.08h-46.76v-53.56h92.78v223.93c-12.9,3.89-26.54,6.02-40.66,6.02h-52.13ZM405.88,436.95v-81.53h51.89c-7.12,33-25.97,61.6-51.89,81.53Z"/><rect class="cls-2" x="-191.28" y="192.72" width="484.61" height="100.67" transform="translate(-192.03 294.08) rotate(-90)"/><path class="cls-1" d="M65.65,249.34v-15.11h12.91v28.75H23.67v-13.64h41.98Z"/><path class="cls-1" d="M23.67,164.83v-12.25h54.93v7.76l-25.16,18.14h25.16v12.25H23.67v-7.4l25.61-18.49h-25.61Z"/><path class="cls-1" d="M51.08,107.58c15.14,0,27.49,11.11,27.49,24.69v16.05H23.67v-16.05c0-13.58,12.35-24.69,27.41-24.69ZM51.08,122.23c-7.9,0-14.41,4.61-14.41,10.37v1.98h28.89v-1.98c0-5.76-6.5-10.37-14.49-10.37Z"/><path class="cls-1" d="M23.67,104.06v-33.01h13.01v19.26h7.9v-19.26h13.01v19.26h7.98v-19.26h13.01v33.01H23.67Z"/><path class="cls-1" d="M78.59,27.91v15.28l-13.8,6.66c.08.66.08,1.32.08,2.05v.66h13.72v13.72H23.78v-14.38c0-11.34,9.28-20.62,20.54-20.62,5.67,0,10.93,2.38,14.71,6.16l19.55-9.53ZM51.88,52.56c0-4.11-3.45-7.56-7.56-7.56s-7.56,3.45-7.56,7.56h15.12Z"/><polygon class="cls-1" points="23.67 332.85 78.59 311.19 78.59 307.4 65.13 302.17 23.67 318.45 23.67 332.85"/><polygon class="cls-1" points="23.67 280.01 41.36 286.99 60.06 279.97 23.67 265.68 23.67 280.01"/><polygon class="cls-1" points="23.67 298.36 23.67 312.83 78.59 291.19 78.59 287.17 78.52 287.14 65.78 282.13 65.72 282.11 65.72 282.11 23.67 298.36"/><path class="cls-1" d="M78.59,209.07h-14.3v6.86h14.3v13.64h-37.5c-10.21,0-17.64-7.68-17.64-17.07s7.43-17.07,17.64-17.07h37.5v13.64ZM41.09,209.07c-2.61,0-4.08,1.55-4.08,3.43s1.47,3.43,4.08,3.43h10.29v-6.86h-10.29Z"/><path class="cls-1" d="M78.59,372.43v15.28l-13.8,6.66c.08.66.08,1.32.08,2.05v.66h13.72v13.72H23.78v-14.38c0-11.34,9.28-20.62,20.54-20.62,5.67,0,10.93,2.38,14.71,6.16l19.55-9.53ZM51.88,397.08c0-4.11-3.45-7.56-7.56-7.56s-7.56,3.45-7.56,7.56h15.12Z"/><path class="cls-1" d="M23.67,368.7v-33.01h13.01v19.26h7.9v-19.26h13.01v19.26h7.98v-19.26h13.01v33.01H23.67Z"/><path class="cls-1" d="M40.46,417.09c3.13,0,6.09.91,8.56,2.39,3.13-3.13,7.57-5.1,12.34-5.1,9.55,0,17.28,7.82,17.28,17.36v23.13H23.75v-21.07c0-9.22,7.49-16.71,16.71-16.71ZM40.46,430.83c-2.06,0-3.79,1.65-3.79,3.62v6.67h7.41v-6.67c0-1.98-1.65-3.62-3.62-3.62ZM61.36,428.04c-2.39,0-4.44,1.97-4.44,4.36v8.72h8.81v-8.72c0-2.39-1.97-4.36-4.36-4.36Z"/></g></svg>