<?xml version="1.0" encoding="UTF-8"?>
<svg xmlns="http://www.w3.org/2000/svg" version="1.1" viewBox="0 0 777.6 551.5">
  <defs>
    <style>
      .cls-1 {
        fill: #7bff47;
      }
    </style>
  </defs>
  <!-- Generator: Adobe Illustrator 28.6.0, SVG Export Plug-In . SVG Version: 1.2.0 Build 709)  -->
  <g>
    <g id="Layer_2">
      <g id="Layer_1-2">
        <path class="cls-1" d="M140.2,376.8H58c-5.1,0-7.3-2.4-7.3-7.9V47.7c0-12.7,14.4-11.8,23.2-11.8h31.2c55.3,0,133.6-3.3,176.1,40.1-62.4,149.4,148.5,148.7,147.1,191.6-1.5,43.5-57.6,32.3-86.5,12.6-6.7-4.6-14.8-4.4-19.9,4.8-35.7,64.4-103.8,91.6-181.7,91.6h0ZM153.8,112.8c-5.4,0-12.4.2-19.4.5v181.2c159,22.1,168-184.2,19.4-181.7Z"/>
        <path class="cls-1" d="M716.3,221.8h-62.4c-4.7.3-6.7,2.7-6.7,7.8v61.9c-44.9,16.8-95.9-2.5-115.6-47.5-37.2-87.2,49.6-166.2,130.2-118.4l5.8,3.7c4.9,3.1,8.3,2.3,11.4-2.6l34.9-55.6c2.3-4.3,1.5-7.8-3.2-10.3-22.2-11.8-56-24.8-97.6-24.8s-106.9,20.3-137.4,62.1h0c-5.5,6.8-9.9,13.8-14.5,21.3-2.9,4.8-10.6,13.5-22.4,4.4-23.4-18-57.5-31.4-77.1-10.2-16.7,18.1,9.4,33.5,31,41.4,44.8,16.4,94.7,25.6,118.4,71.3,15,33.3,8.8,79.5-14.1,106.2,28.6,28.2,72.3,44.3,120.2,44.3,30.1,0,97.3-11.2,107-36.7v-110.4c0-5.5-2.3-7.9-7.8-7.9h0Z"/>
        <path class="cls-1" d="M508.8,450.5c-1.1-1-2.4-1.6-4.1-1.6h-8.5v11.4h8.5c1.6,0,3-.5,4.1-1.6,1.1-1,1.6-2.4,1.6-4.1s-.5-3.1-1.6-4.1h0Z"/>
        <path class="cls-1" d="M434.6,448.9h-8.6v11.4h8.6c1.6,0,3-.5,4-1.6s1.6-2.4,1.6-4.1-.5-3.1-1.6-4.1-2.4-1.6-4-1.6h0Z"/>
        <path class="cls-1" d="M387.4,450.5c-1.1-1-2.4-1.6-4.1-1.6h-8.5v11.4h8.5c1.6,0,3-.5,4.1-1.6,1.1-1,1.6-2.4,1.6-4.1s-.5-3.1-1.6-4.1h0Z"/>
        <path class="cls-1" d="M652.7,450.5c-1.1-1-2.4-1.6-4.1-1.6h-8.5v11.4h8.5c1.6,0,3-.5,4.1-1.6s1.6-2.4,1.6-4.1-.5-3.1-1.6-4.1h0Z"/>
        <path class="cls-1" d="M148.3,450c-1.8-1.1-3.8-1.7-6.1-1.7s-4.3.6-6,1.7c-1.8,1.1-3.1,2.7-4,4.7-.9,2-1.4,4.2-1.4,6.7s.5,4.7,1.4,6.7c.9,2,2.3,3.6,4,4.7,1.8,1.1,3.8,1.7,6,1.7s4.3-.6,6.1-1.7,3.1-2.7,4.1-4.7c.9-2,1.4-4.2,1.4-6.7s-.5-4.7-1.4-6.7c-.9-2-2.3-3.6-4.1-4.7Z"/>
        <path class="cls-1" d="M61,407c-4.2,0-7.6,3.4-7.6,7.6v101.1h666c4.2,0,7.6-3.4,7.6-7.6v-101.1H61ZM93.1,468.2c1,2,2.4,3.6,4.2,4.7s3.8,1.7,5.9,1.7,3.9-.5,5.5-1.5,2.9-2.4,3.7-4l6.9,3.4c-3.6,5.8-9,8.6-16.2,8.6s-7-.8-10.1-2.5c-3-1.6-5.4-4-7.2-7s-2.7-6.4-2.7-10.2.9-7.2,2.7-10.2c1.8-3,4.2-5.3,7.2-7,3-1.6,6.4-2.5,10.1-2.5s7.3.8,9.9,2.3c2.6,1.6,4.7,3.6,6.3,6.2l-6.9,3.4c-.8-1.6-2.1-2.9-3.7-4s-3.5-1.6-5.5-1.6-4.1.6-5.9,1.7c-1.8,1.1-3.2,2.7-4.2,4.7-1,2-1.5,4.2-1.5,6.7s.5,4.7,1.5,6.7h0ZM159.5,471.6c-1.7,3-4.1,5.3-7.1,7s-6.4,2.5-10.2,2.5-7.1-.8-10.2-2.5c-3-1.7-5.4-4-7.1-7s-2.6-6.4-2.6-10.1.8-7.1,2.6-10.1c1.7-3,4.1-5.3,7.1-7s6.4-2.5,10.2-2.5,7.2.9,10.2,2.5c3,1.7,5.4,4,7.1,7s2.6,6.4,2.6,10.1-.8,7.1-2.6,10.1ZM201.8,480.4h-7.8l-18.1-25.5v25.5h-8.1v-38h8.3l17.6,24.6v-24.6h8.1v38ZM234.1,477.8c-2.6,2.2-6.4,3.4-11.3,3.4s-12.1-1.9-16.1-5.5l4.4-6.1c1.4,1.5,3.2,2.8,5.3,3.7s4.3,1.4,6.8,1.4,3.7-.5,4.9-1.5c1.2-1,1.7-2.2,1.7-3.6s-.6-2.7-1.9-3.5-3.2-1.6-5.8-2.3c-3-.6-5.4-1.3-7.2-1.9s-3.5-1.7-4.9-3.2-2.1-3.4-2.1-5.9.6-3.9,1.8-5.5c1.2-1.7,2.9-3,5-3.9,2.2-1,4.7-1.4,7.6-1.4,6,0,11,1.6,14.8,4.9l-4.5,5.8c-1.5-1.4-3.2-2.4-5.1-3.1-1.9-.7-3.8-1-5.8-1s-3.2.4-4.1,1.1c-1,.8-1.4,1.8-1.4,3s.6,2.2,1.8,2.8c1.2.6,3.1,1.2,5.8,1.9,2.9.6,5.3,1.3,7.2,2.1s3.6,1.9,4.9,3.5c1.4,1.6,2.1,3.6,2.1,6.2s-1.3,6.6-3.9,8.8h0ZM277.4,465.2c0,4.9-1.4,8.8-4.3,11.6s-7.1,4.3-12.6,4.3-9.9-1.4-12.7-4.3c-2.9-2.9-4.3-6.7-4.3-11.6v-22.9h8.2v23.1c0,2.8.8,5,2.2,6.7,1.5,1.6,3.7,2.5,6.6,2.5s5-.8,6.5-2.5c1.5-1.6,2.2-3.9,2.2-6.7v-23.1h8.2v22.8h0ZM326.1,480.4h-8.1v-27.3l-10.7,27.3h-3.5l-10.7-27.3v27.3h-8.1v-38h11.3l9.2,23.7,9.2-23.7h11.4v38h0ZM360.4,448.9h-18.8v8.7h18.4v6.5h-18.4v9.8h18.8v6.5h-26.9v-38h26.9v6.5h0ZM388.2,480.4l-7.5-13.6h-5.9v13.6h-8.1v-38h17.8c2.6,0,4.8.5,6.8,1.6,1.9,1,3.4,2.5,4.4,4.4,1,1.9,1.5,4,1.5,6.3s-.8,5.6-2.4,7.6c-1.6,1.9-3.6,3.2-5.9,3.7l8.5,14.5h-9.3ZM442.5,465.2c-1.9,1.1-4.2,1.6-6.9,1.6h-9.7v13.6h-8.1v-38h17.8c2.7,0,5,.5,6.9,1.6s3.4,2.6,4.4,4.4c1,1.8,1.5,3.9,1.5,6.2s-.5,4.3-1.5,6.1-2.5,3.3-4.4,4.4h0ZM475.8,480.4l-2.4-6.5h-17l-2.4,6.5h-8.9l14.7-38h10.1l14.6,38h-8.8ZM509.6,480.4l-7.5-13.6h-5.9v13.6h-8.1v-38h17.8c2.6,0,4.8.5,6.8,1.6s3.4,2.5,4.4,4.4c1,1.9,1.5,4,1.5,6.3s-.8,5.6-2.4,7.6c-1.6,1.9-3.6,3.2-5.9,3.7l8.5,14.5h-9.3ZM552.1,448.9h-11v31.5h-8.1v-31.5h-11.1v-6.5h30.3v6.5h0ZM591.3,480.4h-7.8l-18.1-25.5v25.5h-8.1v-38h8.3l17.6,24.6v-24.6h8.1v38h0ZM625.7,448.9h-18.8v8.7h18.4v6.5h-18.4v9.8h18.8v6.5h-26.9v-38h26.9v6.5h0ZM653.5,480.4l-7.5-13.6h-5.9v13.6h-8.1v-38h17.8c2.6,0,4.8.5,6.8,1.6s3.4,2.5,4.4,4.4c1,1.9,1.5,4,1.5,6.3s-.8,5.6-2.4,7.6c-1.6,1.9-3.6,3.2-5.9,3.7l8.5,14.5h-9.3,0ZM693.4,477.8c-2.6,2.2-6.4,3.4-11.3,3.4s-12.1-1.9-16.1-5.5l4.4-6.1c1.4,1.5,3.2,2.8,5.3,3.7,2.1,1,4.3,1.4,6.8,1.4s3.7-.5,4.9-1.5,1.7-2.2,1.7-3.6-.6-2.7-1.9-3.5c-1.2-.8-3.2-1.6-5.8-2.3-3-.6-5.4-1.3-7.2-1.9s-3.5-1.7-4.9-3.2-2.1-3.4-2.1-5.9.6-3.9,1.8-5.5c1.2-1.7,2.9-3,5-3.9s4.7-1.4,7.6-1.4c6,0,11,1.6,14.8,4.9l-4.5,5.8c-1.5-1.4-3.2-2.4-5.1-3.1-1.9-.7-3.8-1-5.8-1s-3.2.4-4.1,1.1c-1,.8-1.5,1.8-1.5,3s.6,2.2,1.8,2.8,3.1,1.2,5.8,1.9c2.9.6,5.3,1.3,7.2,2.1s3.6,1.9,5,3.5c1.4,1.6,2.1,3.6,2.1,6.2s-1.3,6.6-3.9,8.8h0Z"/>
        <polygon class="cls-1" points="458.4 467.4 471.2 467.4 464.9 449.9 458.4 467.4"/>
      </g>
    </g>
  </g>
</svg>