<?xml version="1.0" encoding="UTF-8"?>
<svg xmlns="http://www.w3.org/2000/svg" version="1.1" viewBox="0 0 605.5 173.4">
  <defs>
    <style>
      .cls-1 {
        fill: #7bff47;
      }
    </style>
  </defs>
  <!-- Generator: Adobe Illustrator 28.6.0, SVG Export Plug-In . SVG Version: 1.2.0 Build 709)  -->
  <g>
    <g id="Layer_1">
      <path class="cls-1" d="M64.2,132h15.9c0,7-1.7,14-5,20.2-1.4,2.4-3,4.8-4.7,6.9-1.6,1.9-3.3,3.7-5.2,5.2-1.3,1.1-2.8,2.1-4.2,3.1-6.1,3.9-13.2,6-20.5,6h-.8c-7.7,0-15.2-2.4-21.6-6.7-1.3-1-2.5-1.9-3.6-2.8-1.7-1.4-3.3-3-4.6-4.7-1.2-1.4-2.3-2.8-3.2-4.3-1-1.7-2-3.4-2.8-5.2-2.5-5.4-3.8-11.3-3.9-17.3v-.5h16c0,6,2,11.9,5.8,16.5,1.2,1.4,2.5,2.7,4,3.8,4,3.2,9.1,5,14.2,5,6.3,0,11.9-2.4,16.7-7.2,1.6-1.6,2.9-3.4,4.1-5.3,2.2-3.9,3.4-8.3,3.4-12.8h0ZM69.2,53.9c3.5,3.8,6.3,8.3,8.1,13.2,4.5,11.7,3.7,24.7-2.1,35.8-1.4,2.4-3,4.7-4.7,6.9-1.6,1.9-3.3,3.7-5.2,5.2-1.3,1.1-2.8,2.1-4.2,3.1-6.1,3.9-13.2,6-20.5,6h-.7c-7.7,0-15.2-2.4-21.6-6.7-1.3-1-2.5-1.9-3.6-2.8-1.7-1.4-3.3-2.9-4.6-4.7-1.2-1.4-2.3-2.8-3.2-4.3-1-1.7-2-3.4-2.8-5.2-2.5-5.4-3.9-11.3-3.9-17.3v-1.2c0-6.5,1.7-12.9,4.6-18.8.9-1.8,2-3.6,3.2-5.2,1.3-1.8,2.7-3.5,4.2-5.1,1.8-1.8,3.7-3.4,5.8-4.8,6.5-4.6,14.3-7,22.2-7,9,0,17.7,3.1,24.6,8.8,1.6,1.3,3.1,2.7,4.5,4.2h0ZM64.2,82.5c0-6.4-2.3-12.5-6.5-17.3-1.9-2-4.1-3.8-6.4-5.3-3.4-1.9-7.3-2.9-11.2-2.9-5.8,0-11.2,2.2-16,6.6-1.2,1.1-2.3,2.4-3.2,3.8-3.2,4.4-4.9,9.7-4.8,15.2,0,6,2,11.8,5.8,16.5,1.2,1.4,2.5,2.7,4,3.8,4,3.2,9.1,5,14.2,5,6.3,0,12.3-2.6,16.7-7.2,1.6-1.6,2.9-3.4,4.1-5.3,2.2-3.9,3.4-8.3,3.4-12.8v-.2ZM86,34.9v.5c0,2.6-1,5.1-2.8,7-1.9,2-4.6,3.2-7.4,3.2h-.5c-2.6,0-5.1-1.1-6.9-2.9-1-.9-1.7-2-2.3-3.2-.6-1.3-.9-2.6-.9-4v-.7c0-2.7,1.2-5.3,3.1-7.2l1.2-1.1c1.7-1.2,3.7-1.9,5.8-1.9h.7c2.6,0,5,1.1,6.9,2.8,2,1.9,3.2,4.6,3.2,7.4h0Z"/>
      <path class="cls-1" d="M168.3,42.4v79.5l-.2.2h-15.6l-.2-.2v-8.1c-6.2,6.9-14.1,10.3-23.8,10.3h0c-12.1,0-22.3-4.9-30.8-14.8-6.2-7.6-9.5-17-9.4-26.8h0c0-12.3,4.7-22.9,14.1-31.8,7.3-6.4,16.7-9.9,26.4-9.8,9.2,0,17.1,3.5,23.6,10.6v-9.2l.2-.2h15.6l.2.2ZM152.3,82.5h0c0-9-3.7-16.1-11.2-21.6-3.6-2.4-7.9-3.8-12.3-3.9h-1.3c-6.6,0-12.6,3.1-17.9,9.2-3.4,4.7-5.3,10.3-5.4,16.1,0,8.8,3.7,16,11.2,21.6,4.2,2.5,8.2,3.8,11.9,3.8h1.8c5.3,0,10.4-2.2,15.4-6.5,5-5,7.8-11.8,7.8-18.8h0Z"/>
      <path class="cls-1" d="M261,82.5c0,7.1-1.8,14-5.1,20.3-1.3,2.4-2.9,4.8-4.6,6.9-1.6,1.9-3.3,3.6-5.2,5.2-1.4,1.1-2.8,2.1-4.3,3-6.1,3.9-13.2,6.1-20.4,6.1h-1.1c-3.6-.1-7.2-.7-10.7-1.8-2-.7-3.8-1.5-5.6-2.6-1.5-1-3-2.1-4.4-3.2-.9-.8-1.8-1.8-2.7-2.8v8.3h-16V0h0C180.9,0,196.8,0,196.8,0h0v51.6h0c1-1.3,2.1-2.4,3.4-3.4,5.8-4.8,13.1-7.3,20.6-7.3h0c9,0,17.6,3.1,24.6,8.8,1.5,1.3,3,2.6,4.4,4.1,3.5,3.9,6.2,8.4,8.1,13.3,1.9,4.9,2.9,10.2,2.9,15.5ZM245,82.7v-.3c0-6.2-2.2-12.2-6.2-17-4.5-5.3-11.2-8.4-18.2-8.3-3.6.1-7.1,1-10.3,2.7-1.8.9-3.5,2.1-5,3.5-1,1-2,2-2.9,3.1-3.6,4.6-5.6,10.2-5.5,16v.4c0,5.4,1.7,10.7,4.9,15.1.9,1.2,2,2.4,3.1,3.5l1.5,1.3c1.4,1.1,2.9,2.1,4.5,2.9,3.1,1.5,6.5,2.3,10,2.3,6.7,0,12.6-2.6,17.5-7.8,1.7-1.9,3.1-4.1,4.2-6.4,1.6-3.5,2.4-7.2,2.4-11h0Z"/>
      <path class="cls-1" d="M346.8,82.6c0,7-1.7,14-5,20.2-1.4,2.4-3,4.7-4.7,6.9-1.6,1.9-3.3,3.7-5.2,5.2-1.4,1.1-2.8,2.2-4.3,3.1-6.1,3.9-13.2,6-20.5,6h-.7c-7.7,0-15.2-2.4-21.5-6.7-1.3-1-2.5-1.9-3.6-2.8-1.7-1.4-3.3-3-4.6-4.7-1.2-1.4-2.3-2.8-3.2-4.3-1-1.7-2-3.4-2.8-5.2-2.5-5.4-3.9-11.3-3.9-17.3v-1.2c0-6.5,1.7-12.9,4.6-18.8.9-1.8,2-3.6,3.1-5.2,1.3-1.8,2.7-3.5,4.2-5.1,1.8-1.8,3.7-3.4,5.8-4.8,6.5-4.6,14.3-7,22.2-7,9,0,17.7,3.1,24.6,8.8,5.7,4.6,10,10.6,12.6,17.4,1.9,5,2.9,10.2,2.9,15.5ZM330.8,82.5c0-6.4-2.3-12.5-6.5-17.3-1.9-2-4.1-3.8-6.5-5.3-3.4-1.9-7.3-2.9-11.2-2.9-5.8,0-11.2,2.2-16,6.6-1.2,1.1-2.3,2.4-3.2,3.8-3.2,4.4-4.8,9.7-4.8,15.2,0,6,2.1,11.9,5.9,16.5,1.2,1.4,2.5,2.7,4,3.8,4,3.2,9.1,5,14.2,5,6.3,0,12.3-2.6,16.7-7.2,1.6-1.6,2.9-3.4,4-5.3,2.2-3.9,3.3-8.3,3.3-12.8v-.2Z"/>
      <path class="cls-1" d="M426.4,73.5v48.3l-.2.2h-15.6l-.2-.2v-48.4c0-6.8-2.8-11.3-8.5-13.5-2.9-1.2-6-1.7-9.1-1.6h-1.3c-6.7,0-11.5,1.1-14.3,3.2-3.6,2.2-5.5,6.3-5.5,12.3v48l-.2.2h-15.5l-.2-.2V42.8l.2-.2h15.5l.2.2v4.5h0c3.5-1.8,7.2-3.3,11.1-4.3,2.9-.6,5.9-.9,8.9-.8h.7c14.2,0,24.4,5.4,30.6,16.3,2.3,4.7,3.4,9.9,3.2,15.2Z"/>
      <path class="cls-1" d="M499.6,132h16c0,7-1.7,14-5,20.2-1.4,2.4-3,4.7-4.8,6.9-1.6,1.9-3.3,3.7-5.2,5.2-1.3,1.1-2.8,2.1-4.2,3.1-6.1,3.9-13.2,6-20.5,6h-.8c-7.7,0-15.2-2.4-21.6-6.7-1.3-1-2.5-1.9-3.6-2.8-1.7-1.4-3.3-3-4.6-4.7-1.2-1.4-2.2-2.8-3.2-4.3-1-1.7-2-3.4-2.8-5.2-2.5-5.4-3.8-11.3-3.9-17.3v-.5h16c0,6,2.1,11.9,5.9,16.5,1.2,1.4,2.5,2.7,4,3.8,4,3.2,9.1,5,14.2,5,6.3,0,11.8-2.4,16.7-7.2,1.6-1.6,2.9-3.4,4.1-5.3,2.2-3.9,3.3-8.3,3.3-12.7h0ZM504.6,53.9c3.5,3.8,6.3,8.3,8.1,13.2,4.5,11.7,3.7,24.7-2.2,35.8-1.4,2.4-3,4.7-4.7,6.9-1.6,1.9-3.3,3.7-5.2,5.2-1.3,1.1-2.8,2.1-4.2,3.1-6.1,3.9-13.2,6-20.5,6h-.7c-7.7,0-15.2-2.4-21.6-6.7-1.3-1-2.5-1.9-3.6-2.8-1.7-1.4-3.3-3-4.6-4.7-1.2-1.4-2.3-2.8-3.2-4.3-1-1.7-2-3.4-2.8-5.2-2.5-5.4-3.9-11.3-3.9-17.3v-1.2c0-6.5,1.7-12.9,4.6-18.8.9-1.8,2-3.6,3.1-5.2,1.3-1.8,2.7-3.5,4.2-5.1,1.8-1.8,3.7-3.4,5.8-4.8,6.5-4.6,14.3-7,22.2-7,9,0,17.7,3.1,24.6,8.8,1.6,1.3,3.1,2.7,4.5,4.2h0ZM499.6,82.5c0-6.4-2.3-12.5-6.5-17.3-1.9-2-4.1-3.8-6.5-5.3-3.4-1.9-7.3-2.9-11.2-2.9-5.8,0-11.2,2.2-16,6.6-1.2,1.1-2.3,2.4-3.2,3.8-3.2,4.4-4.8,9.7-4.8,15.2,0,6,2.1,11.9,5.9,16.5,1.2,1.4,2.5,2.7,4,3.8,4,3.2,9.1,5,14.2,5,6.3,0,12.3-2.6,16.7-7.2,1.6-1.6,2.9-3.4,4-5.3,2.2-3.9,3.4-8.3,3.4-12.8v-.2ZM521.5,34.9v.5c0,2.6-1,5.1-2.8,7-1.9,2-4.6,3.2-7.4,3.2h-.5c-2.6,0-5.1-1.1-7-2.9-1-.9-1.7-2-2.3-3.2-.6-1.3-.9-2.6-.9-4v-.7c0-2.7,1.2-5.3,3.1-7.2l1.2-1.1c1.7-1.2,3.7-1.9,5.8-1.9h.7c2.6,0,5,1.1,6.9,2.8,2,1.9,3.2,4.6,3.3,7.4Z"/>
      <path class="cls-1" d="M605.5,82.6c0,7-1.7,14-5,20.2-1.4,2.4-3,4.7-4.7,6.9-1.6,1.9-3.3,3.7-5.2,5.2-1.4,1.1-2.8,2.2-4.3,3.1-6.1,3.9-13.2,6-20.5,6h-.8c-7.7,0-15.2-2.4-21.6-6.7-1.3-1-2.5-1.9-3.6-2.8-1.7-1.4-3.3-2.9-4.6-4.7-1.2-1.4-2.3-2.8-3.2-4.3-1-1.7-2-3.4-2.8-5.2-2.5-5.4-3.8-11.3-3.9-17.3v-1.2c0-6.5,1.7-12.9,4.6-18.8.9-1.8,2-3.6,3.1-5.2,1.3-1.8,2.7-3.5,4.2-5.1,1.8-1.8,3.7-3.4,5.8-4.8,6.5-4.6,14.3-7,22.2-7,9,0,17.7,3.1,24.6,8.8,1.6,1.3,3.1,2.7,4.5,4.2,3.5,3.8,6.3,8.3,8.1,13.2,1.9,5,2.9,10.3,2.9,15.6ZM589.5,82.5c0-6.4-2.3-12.5-6.5-17.3-1.9-2-4.1-3.8-6.4-5.3-3.4-1.9-7.3-2.9-11.2-2.9-5.8,0-11.2,2.2-16,6.6-1.2,1.1-2.3,2.4-3.2,3.8-3.2,4.4-4.9,9.7-4.8,15.2,0,6,2.1,11.9,5.9,16.5,1.2,1.4,2.5,2.7,4,3.8,4,3.2,9.1,5,14.2,5,6.3,0,12.4-2.6,16.7-7.2,1.6-1.6,2.9-3.4,4-5.3,2.2-3.9,3.4-8.3,3.4-12.8v-.2Z"/>
    </g>
  </g>
</svg>