<?xml version="1.0" encoding="UTF-8"?><svg id="Layer_2" xmlns="http://www.w3.org/2000/svg" viewBox="0 0 902.38 52.13"><defs><style>.cls-1{fill:#7bff47;}</style></defs><g id="Layer_1-2"><polygon class="cls-1" points="53.76 51.01 48.11 51.01 48.11 13.63 28.45 51.01 25.39 51.01 5.66 13.63 5.66 51.01 0 51.01 0 1.12 5.14 1.12 26.88 42.22 48.62 1.12 53.76 1.12 53.76 51.01"/><rect class="cls-1" x="96.65" y="1.11" width="5.88" height="49.89"/><path class="cls-1" d="M179.45,51.01l-19.06-21.37h-9.16s0,21.37,0,21.37h-5.88V1.11h23.08c9.76,0,16.31,5.66,16.31,14.23,0,8.56-6.55,14.3-16.31,14.3h-.89l19.29,21.37h-7.37ZM168.43,24.28c6.26,0,10.43-3.58,10.43-8.94s-4.17-8.94-10.43-8.94h-17.2s0,17.87,0,17.87h17.2Z"/><path class="cls-1" d="M225.02,51.01l19.29-21.37h-.89c-9.76,0-16.31-5.74-16.31-14.3,0-8.57,6.55-14.23,16.31-14.23h23.08v49.9h-5.88v-21.37s-9.16,0-9.16,0l-19.06,21.37h-7.37ZM260.62,24.28V6.4s-17.2,0-17.2,0c-6.25,0-10.43,3.58-10.43,8.94,0,5.36,4.17,8.94,10.43,8.94h17.2Z"/><path class="cls-1" d="M353.1,26.06c0,14.52-11.32,25.91-25.77,25.91-14.52,0-25.84-11.39-25.84-25.91,0-14.45,11.32-25.91,25.84-25.91,14.45,0,25.77,11.47,25.77,25.91M347.14,26.06c0-11.47-8.72-20.41-19.81-20.41-11.17,0-19.88,8.94-19.88,20.41,0,11.54,8.71,20.33,19.88,20.33,11.09,0,19.81-8.79,19.81-20.33"/><path class="cls-1" d="M423.31,51.01l-19.06-21.37h-9.16s0,21.37,0,21.37h-5.88V1.11h23.08c9.76,0,16.31,5.66,16.31,14.23,0,8.56-6.55,14.3-16.31,14.3h-.89l19.29,21.37h-7.37ZM412.29,24.28c6.25,0,10.43-3.58,10.43-8.94,0-5.36-4.17-8.94-10.43-8.94h-17.2s0,17.87,0,17.87h17.2Z"/><polygon class="cls-1" points="524.41 51.01 514.58 51.01 514.58 22.34 498.94 51.01 494.4 51.01 478.69 22.34 478.69 51.01 468.86 51.01 468.86 1.12 477.72 1.12 496.64 35.6 515.63 1.12 524.41 1.12 524.41 51.01"/><rect class="cls-1" x="564.62" y="1.11" width="10.13" height="49.89"/><path class="cls-1" d="M646.82,51.01l-16.46-18.32h-5.29s0,18.32,0,18.32h-10.13V1.11h23.9c10.72,0,17.87,6.33,17.87,15.79,0,8.34-5.59,14.3-14.3,15.56l16.76,18.54h-12.36ZM638.86,23.53c4.69,0,7.82-2.68,7.82-6.63s-3.13-6.63-7.82-6.63h-13.78s0,13.25,0,13.25h13.78Z"/><path class="cls-1" d="M694.92,51.01l16.75-18.54c-8.71-1.26-14.3-7.22-14.3-15.56,0-9.46,7.15-15.79,17.87-15.79h23.9v49.9h-10.13v-18.32s-5.29,0-5.29,0l-16.46,18.32h-12.36ZM729.03,23.53v-13.25s-13.78,0-13.78,0c-4.69,0-7.82,2.68-7.82,6.63,0,3.95,3.13,6.63,7.82,6.63h13.78Z"/><path class="cls-1" d="M824.49,26.14c0,14.52-11.54,25.99-26.29,25.99-14.74,0-26.29-11.47-26.29-25.99,0-14.52,11.55-26.14,26.29-26.14,14.74,0,26.29,11.62,26.29,26.14M814.29,26.14c0-9.53-7.07-16.61-16.08-16.61-9.01,0-16.09,7.07-16.09,16.61s7.07,16.46,16.09,16.46c9.01,0,16.08-6.93,16.08-16.46"/><path class="cls-1" d="M890.02,51.01l-16.46-18.32h-5.28s0,18.32,0,18.32h-10.13V1.11h23.9c10.72,0,17.87,6.33,17.87,15.79,0,8.34-5.59,14.3-14.3,15.56l16.76,18.54h-12.36ZM882.05,23.53c4.69,0,7.82-2.68,7.82-6.63,0-3.95-3.13-6.63-7.82-6.63h-13.78s0,13.25,0,13.25h13.78Z"/></g></svg>