<?xml version="1.0" encoding="UTF-8"?><svg id="Layer_1" xmlns="http://www.w3.org/2000/svg" viewBox="0 0 161.22 39"><defs><style>.cls-1{fill:#1d1d1b;fill-rule:evenodd;}.cls-1,.cls-2{stroke-width:0px;}.cls-2{fill:#e54d6a;}</style></defs><rect class="cls-2" y="31.21" width="161.22" height="7.8"/><path class="cls-1" d="m121.98.61h4.89c2.68,0,6.5.24,7.63.72,1.14.47,2.06,1.26,2.75,2.37.69,1.11,1.04,2.42,1.04,3.93,0,1.59-.38,2.92-1.15,4-.76,1.06-1.76,1.87-3.3,2.42l6.56,10.73h-5.16l-5.36-9.06h-3.77v9.1h-4.12V.61Zm4.16,11.45h2.1c2.13,0,3.59-.29,4.39-.89.81-.59,1.22-1.57,1.22-2.93,0-.81-.2-1.51-.6-2.1-.4-.61-.93-1.04-1.6-1.29-.67-.27-1.89-.4-3.67-.4h-1.84v7.61ZM102.31.61h14.19v3.69h-9.62v6.53h8.64v3.72h-8.64v6.8h9.56v3.48h-14.13v-10.28h-3.12v-3.69h3.12V.61Zm-27.01,0h5.94c3.83,0,6.68.44,8.54,1.32,1.86.87,3.4,2.29,4.6,4.26,1.21,1.97,1.81,4.27,1.81,6.9,0,1.87-.34,3.59-1.02,5.17-.67,1.56-1.6,2.86-2.79,3.9-1.18,1.04-2.46,1.75-3.85,2.15-1.38.4-3.78.59-7.2.59h-6.03V.61Zm4.51,3.88v16.95h2.46c2.43,0,4.18-.27,5.27-.8,1.1-.54,2-1.44,2.69-2.71.7-1.27,1.04-2.83,1.04-4.68,0-2.85-.83-5.06-2.48-6.64-1.49-1.41-3.89-2.12-7.19-2.12h-1.8ZM52.78.61h4.89c2.68,0,6.5.24,7.63.72,1.14.47,2.06,1.26,2.75,2.37.69,1.11,1.04,2.42,1.04,3.93,0,1.59-.38,2.92-1.15,4-.76,1.06-1.76,1.87-3.3,2.42l6.56,10.73h-5.16l-5.35-9.06h-3.77v9.1h-4.12V.61Zm4.15,11.45h2.1c2.13,0,3.59-.29,4.39-.89.81-.59,1.22-1.57,1.22-2.93,0-.81-.2-1.51-.6-2.1-.4-.61-.93-1.04-1.6-1.29-.67-.27-1.89-.4-3.67-.4h-1.84v7.61ZM2.5,24.81v-10.3H.03v-3.69h2.47V.61h4.35c2.52,0,4.37.14,5.54.43,1.66.38,2.98,1.1,3.96,2.14.98,1.04,1.47,2.27,1.47,3.69,0,.92-.23,1.76-.68,2.52-.44.75-1.16,1.45-2.17,2.11,1.68.69,2.91,1.56,3.69,2.6.78,1.03,1.17,2.25,1.17,3.67,0,1.36-.4,2.6-1.21,3.72-.8,1.12-1.84,1.96-3.11,2.52-1.27.55-3.02.82-5.25.82H2.5ZM7.11,4.22v6.58h1.52c1.69,0,2.94-.3,3.76-.91.83-.61,1.24-1.43,1.24-2.48,0-.98-.39-1.75-1.17-2.31-.78-.58-1.96-.87-3.56-.87h-1.79Zm0,10.37v6.85h1.5c2.48,0,4.16-.27,5.01-.8.87-.53,1.31-1.31,1.31-2.33,0-1.15-.51-2.06-1.52-2.72-1.01-.67-2.7-1-5.05-1h-1.24Zm135.51,8.66c2.24,1.68,5.24,2.41,8.07,2.41,4.68,0,8.18-3.74,8.12-7.6-.11-7.18-10.93-7.53-10.93-11.49,0-2.28,2.27-2.97,4.21-2.79,2.6.25,3.29.79,5.32,2.12V1.75c-2.25-1.23-3.18-1.63-5.68-1.6-5.49.05-8.24,2.98-8.24,7.4,0,6.87,10.79,6.58,10.79,11.36,0,1.71-1.46,3.04-3.7,3.04-2.9,0-3.61-.29-6.33-1.9l-1.62,3.2ZM35.24,4.5c-2.21,0-4.06.78-5.56,2.33-1.5,1.55-2.25,3.53-2.25,5.92,0,2.67.95,4.78,2.84,6.33,1.47,1.21,3.16,1.82,5.06,1.82,2.15,0,3.98-.79,5.5-2.36,1.51-1.58,2.27-3.52,2.27-5.83,0-2.3-.76-4.24-2.29-5.83-1.52-1.6-3.38-2.4-5.56-2.4Zm.05-4.5c3.37,0,6.27,1.24,8.69,3.71,2.43,2.47,3.65,5.49,3.65,9.04s-1.2,6.5-3.6,8.94c-2.39,2.44-5.29,3.66-8.71,3.66-3.58,0-6.55-1.25-8.92-3.76-2.37-2.51-3.55-5.48-3.55-8.93,0-2.31.55-4.43,1.65-6.37,1.1-1.94,2.62-3.47,4.54-4.6C30.97.57,33.06,0,35.28,0Z"/></svg>