<?xml version="1.0" encoding="utf-8"?>
<!-- Generator: Adobe Illustrator 27.9.0, SVG Export Plug-In . SVG Version: 6.00 Build 0)  -->
<svg version="1.1"
	 id="svg2" xmlns:svg="http://www.w3.org/2000/svg" xmlns:inkscape="http://www.inkscape.org/namespaces/inkscape" xmlns:sodipodi="http://sodipodi.sourceforge.net/DTD/sodipodi-0.dtd" inkscape:version="1.2.1 (9c6d41e410, 2022-07-14)" sodipodi:docname="Budweiser 2016.svg"
	 xmlns="http://www.w3.org/2000/svg" xmlns:xlink="http://www.w3.org/1999/xlink" x="0px" y="0px" viewBox="0 0 1000 319.7"
	 style="enable-background:new 0 0 1000 319.7;" xml:space="preserve">
<style type="text/css">
	.st0{fill:#DC0019;}
</style>
<g>
	<path class="st0" d="M193.9,78.8c1.7-2.3,3.1-4.1,4.5-6l22.9-1c-2.1,2.9-5.9,8.1-10.3,14.2c4.1,2,8.3,4.1,12.4,6.2
		c14.1-17.8,27.2-25.9,44.4-25.9c18.5,0,25.4,10.5,25.4,21.2c0,9.7-5.7,20.9-12.5,27.6c-9.1,9.1-21.6,13.3-31.8,15.5
		c5.6,3.1,15.9,7.5,15.9,23.7c0,13.6-7.4,26-16.1,35.8c16.8-9.6,41.1-32.6,51.8-45.6c2.5-3,6.9-9.1,9.2-12.4l19.9-1.2
		c0,0-25.4,38.3-30.9,47.7c-3.1,5.3-3.9,7.7-3.9,9.5c0,1.2,0.8,2.5,3,2.5c7.7,0,22.3-13,32.6-26.3c4.7-6.1,21.8-31.9,21.8-31.9
		l20.2-1.2c-16.4,25.1-21.8,33.5-21.8,33.5c-5.3,8.5-9.7,16.1-10.9,20.1c-0.4,1.2-0.5,2.3-0.5,3.1c0,1.9,1,2.9,2.9,2.9
		c11.8,0,32.8-27.7,39.5-36.1c12.3-15.5,27.3-26.2,43.4-26.2c7.3,0,12.1,2.8,14.3,7.6c7.7-12.6,27.8-45.4,37.1-60.5L207.1,0
		l-45.9,70.2C174,72.1,184.8,75.4,193.9,78.8z"/>
	<path class="st0" d="M428.4,134c-7.5,0-14.9,5.1-25.2,17.9c-8.8,11-17.8,27.4-17.8,34.5c0,1.9,0.5,4,4.3,4c3.8,0,10-2.7,19-12.7
		c8.5-9.3,18.1-21.7,25.4-34.1c0.6-1.1,1-2.5,1-3.6C435.2,136.2,432.7,134,428.4,134z"/>
	<path class="st0" d="M501.4,82.3V66.3c-15.1,24.5-50.1,81.3-52.4,85.1c-12,20.1-18,30.4-18,35.9c0,2,0.8,3.3,3.2,3.3
		c6.6,0,19.5-9.7,46.4-43.5c2.4-3.1,8.8-11.8,11-15.1l19.2-1c-10.7,16-25.5,37.7-31.7,49.2c-1.9,3.6-3,5.9-3,7.7
		c0,1.8,1.1,2.8,3.2,2.8c7.3,0,20.9-10.9,41-39.1c4.8-6.7,8.6-12.7,13.1-19.6l19-1c-5.4,8.5-16.1,26.3-17.3,28.2
		c-9,14.6-13.9,24.1-13.9,28.3c0,2,1,3.3,3.6,3.3c13.9,0,33.3-25,37.9-38.3c-0.3-9,1.7-17.1,4.6-21.3c1.4-2.1,3.8-4,7.6-4
		c3,0,5.2,1.4,5.2,3.3c0,3.6-4,13.6-11.1,25.4c2,4.7,6.1,7.6,11,9c7.4-14.3,25.7-37,48.7-37c8.2,0,12,3,12,9.4
		c0,12-18.7,28.8-44.1,32.4c-2,4.2-4.2,9.4-4.2,14.1c0,4.3,2,7.5,8.3,7.5c20.3,0,45-30.7,58.4-48.2c1-1.3,6.2-8.5,7.7-10.8l19.1-1.1
		c-16.1,25.4-21.4,33.9-21.4,33.9c-5.2,8.2-11.1,18.6-11.1,22.8c0,2.2,1.2,3.2,3.2,3.2c7.6,0,21.5-12.5,41.9-33.1
		c8.5-8.7,18-18.5,23.9-24.9c2-8,6.2-11.6,11-11.6c3.9,0,5.9,2.4,5.9,5.5c0,4.2-3.3,6.9-7.2,7.7c-0.1,0.8-0.2,2.4-0.2,3.3
		c0,7.7,0.8,13.7,0.8,21.5c0,8-1.3,14.8-6,21.8c9.9-7.9,29.7-26.5,41.5-37.5c12.2-11.3,23.7-15.7,33-15.7c7.7,0,12.2,2.7,12.2,9.4
		c0,15.7-25.9,30.3-44,32.3c-1.9,3.4-4.4,9.7-4.4,14.9c0,4.2,2.5,6.7,7.4,6.7c14,0,28.4-14.6,39.4-28.4
		c17.4-21.9,25.7-33.7,38.9-33.7c7.1,0,10.4,3.7,10.4,8.7c0,6.4-3.1,11.7-9.2,22.9c20.5-26.1,30.4-31.8,37.7-31.8
		c5.3,0,8.6,2.5,8.6,6c-7.3,2.3-14.3,11.7-14.3,19.3c0,3.3,1.3,6.2,5.5,6.2c2.4,0,4.5-0.7,6.9-2l0,0c0,0,0,0,0,0
		C896.5,158.4,1000,0,1000,0L501.4,82.3z M694.6,112.5c-5.4,0-8.1-3.2-8.1-7.8c0-5.8,4.5-12.6,11.9-12.6c4.2,0,7.8,2.7,7.8,8.1
		C706.2,106.4,701.1,112.5,694.6,112.5z"/>
	<path class="st0" d="M802,132.8c-7.8,0-18.7,11.8-29.9,32.1c15-2.5,32.9-17.8,32.9-28.9C805,134.1,804.2,132.8,802,132.8z"/>
	<path class="st0" d="M629.2,132.8c-9,0-20.9,16-29.8,32.2c15-2.4,33-17,33-29C632.4,134.1,631.3,132.8,629.2,132.8z"/>
	<path class="st0" d="M896.9,162.6c-0.1,0-0.1,0.1-0.2,0.1c-1.3,0.6-2.6,1.1-3.9,1.4c0,0-0.1,0-0.1,0l0,0c-2.1,0.6-4.3,0.9-6.9,0.9
		c-9.2,0-13.8-4.4-13.8-11.5c0-4,1.8-9.1,4.9-13.4c-12.1,10.3-36.5,42-45.4,56.4l-19.2,0.7c2.6-4.3,18.9-28.4,30.2-48
		c3.5-6.1,5.4-9.3,5.4-11.9c0-1.4-0.8-2.1-2.2-2.1c-6.1,0-16.3,12.7-29.6,29.7c-9.7,12.4-27.6,33.9-51,33.9
		c-12.1,0-17.7-6.4-17.7-14.9c0-7.7,3.1-14.7,6.7-21c-5.9,5.2-11.3,10.2-16.7,15c-10.8,9.6-24.4,21.4-43.5,21.4
		c-10.1,0-15.8-4.3-15.8-9.1c0-2.6,1.9-4.6,4.3-4.6c6.3,0,4.2,9.1,12.6,9.1c9.5,0,17.3-8.8,22.5-37.1c0.7-3.8,2.2-11.4,3.2-16.1
		c-14.9,15.8-25.2,26.2-29.8,30.6c-12.9,12.5-27.8,26.8-41.9,26.8c-8.1,0-12.5-4-12.5-10.8c0-4.5,1.9-10.2,7.3-19.5
		c-11.1,11.8-29,30.2-50.6,30.2c-12.8,0-18.7-6.2-18.7-15.7c0-4.3,1.3-9.4,3.4-14c-4.9-1.5-9.1-4.2-11.8-8.6
		c-5.7,8.8-12.9,18.1-22.3,26.4c-10.2,9.1-19.4,11.8-26.6,11.8c-8,0-12.8-3.7-12.8-10.7c0-5.3,2.7-10.3,5.2-15.2
		c-10.3,12.9-23.9,26-38.6,26c-6.5,0-11.7-3.1-11.7-10.4c0-5,2.7-10.2,7.1-17.4c-9,9.9-24.1,27.7-40.8,27.7c-7.7,0-11.7-4-11.7-10.5
		c0-5.5,2.5-10.9,4.6-15.2c-2.1,2.5-4.5,5.2-6,6.9c-11.9,13.3-22.2,18.9-32.5,18.9c-7.9,0-12.9-4.3-12.9-11.7
		c0-3.6,1.5-8.3,3.1-12.1c-11,11.7-24,24-37.7,24c-7.8,0-11-4.4-11-9.6c0-3.6,1.5-7.9,4.3-13.5l-4.3,4.5
		c-9.6,9.8-21.7,18.6-32.8,18.6c-7.3,0-11.8-3.9-11.8-10.3c0-5.1,3.6-13.5,12.5-25.7l-5.9,5.6c-27.9,26.4-56.4,42.5-87.1,42.5
		c-22.5,0-29.7-9.9-29.7-21.7c0-2.5,0.6-5.3,0.6-5.3l-3.9,5.2c-11.1,14-19.9,21.8-30.8,21.8c-9,0-16.9-4.4-16.9-12.3
		c0-4.7,2.7-9.7,6.4-15.9c7.6-12.5,28.7-43.6,44.6-66.3c-10.2,6.3-24.2,11.6-42.2,11.6c-0.4,0-0.9,0-1.3,0l0,0c0,0,0,0,0,0
		c-4.7-0.1-9-0.5-12.8-1.2c0,0,0,0,0,0c-0.6-0.1-1.3-0.3-1.9-0.4c0,0,0,0,0,0c-0.6-0.1-1.2-0.3-1.8-0.4c0,0,0,0-0.1,0
		c-0.6-0.2-1.1-0.3-1.7-0.5c0,0-0.1,0-0.1,0c-0.5-0.2-1.1-0.3-1.6-0.5c0,0-0.1,0-0.1,0c-0.5-0.2-1-0.4-1.5-0.6c0,0-0.1,0-0.1-0.1
		c-0.5-0.2-0.9-0.4-1.4-0.6c-0.1,0-0.1,0-0.2-0.1c-0.4-0.2-0.9-0.4-1.3-0.6c-0.1,0-0.1-0.1-0.2-0.1c-0.4-0.2-0.8-0.4-1.2-0.6
		c-0.1,0-0.1-0.1-0.2-0.1c-0.4-0.2-0.7-0.4-1.1-0.7c-0.1,0-0.2-0.1-0.2-0.1c-0.3-0.2-0.7-0.4-1-0.7c-0.1-0.1-0.2-0.1-0.2-0.2
		c-0.3-0.2-0.6-0.5-0.9-0.7c-0.1-0.1-0.2-0.1-0.3-0.2c-0.3-0.2-0.5-0.5-0.8-0.7c-0.1-0.1-0.2-0.2-0.3-0.3c-0.2-0.2-0.5-0.5-0.7-0.7
		c-0.1-0.1-0.2-0.2-0.3-0.3c-0.2-0.2-0.4-0.5-0.6-0.7c-0.1-0.1-0.2-0.2-0.3-0.3c-0.2-0.2-0.4-0.5-0.6-0.7c-0.1-0.1-0.2-0.3-0.3-0.4
		c-0.2-0.2-0.3-0.5-0.5-0.7c-0.1-0.1-0.2-0.3-0.3-0.4c-0.1-0.2-0.3-0.4-0.4-0.7c-0.1-0.2-0.2-0.3-0.3-0.5c-0.1-0.2-0.2-0.4-0.4-0.6
		c-0.1-0.2-0.2-0.4-0.3-0.6c-0.1-0.2-0.2-0.4-0.3-0.6c-0.1-0.2-0.2-0.4-0.3-0.7c-0.1-0.2-0.2-0.4-0.2-0.6c-0.1-0.2-0.2-0.5-0.2-0.7
		c-0.1-0.2-0.1-0.3-0.2-0.5c-0.1-0.3-0.2-0.6-0.2-0.9c0-0.1-0.1-0.3-0.1-0.4c-0.1-0.3-0.1-0.7-0.2-1.1c0-0.1,0-0.2-0.1-0.3
		c-0.2-1.3-0.3-2.7-0.3-4.2v7.7c0,14.2,11,24.2,32.9,25.8L0,316.8l500-82.6l292.9,82.6l94.2-144.1c4.2-0.2,7.6-1.2,10.9-2.9v-7.7
		C897.7,162.3,897.3,162.5,896.9,162.6z"/>
	<path class="st0" d="M135.9,200.1c0,1.4,0.8,2.5,2.7,2.5c2.3,0,4.8-1.5,8.2-4.5c8.9-7.7,20.3-23.7,35.9-46.5
		c14-20.3,27.9-42.2,37.5-55.2c-4.1-2.1-8.2-4.1-12.3-6c-4.6,6.4-63.7,93-67.8,99.8C136.7,196,135.9,198.5,135.9,200.1z"/>
	<path class="st0" d="M246.7,121.8c16.7-7.9,25.5-26.4,25.5-36.1c0-6.6-2.6-12-11.2-12c-12.9,0-24.5,12.4-32,21.9
		c6.5,3.9,11,7.2,14.2,9.7l-3.1,4c-4.1-3.2-8.9-6.5-14.3-9.6c-8.1,10.8-26.6,39.3-39.4,57.9c8.4-5.5,19.2-7.3,26.2-7.3v5.2
		c-24.5,0.4-39.7,16.8-39.7,33.8c0,9.1,4.9,15.5,18.2,15.5c30.7,0,51.8-32.7,51.8-54.2c0-9.7-3.5-18.4-19-18.4h-7.3
		c-2.5,0-4.5,0.2-5.7,0.4l4.6-6.8C228.8,125.6,239.2,125.3,246.7,121.8z"/>
	<path class="st0" d="M178.3,100.4c0,0,12.3-16.9,12.5-17.2c-8.3-3.2-19.5-6.5-32.8-8.1c-1.2-0.1-2.4-0.3-3.7-0.4
		c-0.2,0-0.3,0-0.5,0c-1.1-0.1-2.2-0.2-3.3-0.3c-0.3,0-0.6,0-0.9-0.1c-1-0.1-2-0.1-3-0.1c-0.4,0-0.8,0-1.3-0.1c-1.1,0-2.1,0-3.2-0.1
		c-0.3,0-0.6,0-0.9,0c-14.5,0-26.1,2.9-34.2,7.9c-8,5-12.5,12.1-12.5,20.4c0,0.6,0,1.2,0.1,1.8c0,0.1,0,0.2,0,0.3
		c0.1,0.6,0.1,1.1,0.2,1.7c0,0,0,0,0,0.1c2.6-14.5,19.7-24.3,46.3-24.3c4.2,0,8.3,0.2,12.2,0.6l-26.5,40.6
		C155.5,122.4,172.1,107.3,178.3,100.4z"/>
</g>
</svg>
