<?xml version="1.0" encoding="UTF-8"?><svg id="Layer_2" xmlns="http://www.w3.org/2000/svg" viewBox="0 0 277.45 127.42"><defs><style>.cls-1{fill:#2b2523;}.cls-1,.cls-2,.cls-3{stroke-width:0px;}.cls-2{fill:#b19e6b;}.cls-3{fill:#e52616;}</style></defs><g id="katman_1"><path class="cls-2" d="m61.64,99.21l.71-.6c.21-.18.43-.11.75.03l1.3.56c.36.16.63.24.87.19l-.71.6c-.21.17-.43.1-.76-.04l-1.29-.55c-.38-.16-.66-.23-.88-.19"/><path class="cls-2" d="m73.41,105.68l-2.27-.72c.46-.1.68-.41.86-.99l1.3-4.1c.18-.57.14-.96-.15-1.27l3.33,1.06c1,.31,1.73.56,2.2,1.14.45.54.58,1.18.37,1.84-.46,1.45-1.74,1.81-3.86,1.13l-1.58-.5-.35,1.1c-.19.59-.17.97.14,1.3m1.95-2.85c1.31.42,2.05.31,2.33-.56.29-.88-.29-1.33-1.58-1.74l-1.47-.47-.73,2.3,1.46.47Z"/><path class="cls-2" d="m82.72,108.37l-2.31-.57c.45-.13.66-.45.8-1.04l1.03-4.17c.15-.58.09-.98-.23-1.27l3.87.96c.97.23,1.67.44,2.07.79.55.45.74,1.11.56,1.83-.22.93-1.03,1.43-2.28,1.35.53.4.78.92,1.01,1.6.25.72.39,1.35.79,1.84l-2.31-.58c.14-.06.19-.15.22-.3.08-.32.01-.84-.29-1.45-.37-.79-.79-1.2-1.64-1.42l-1.18-.29-.36,1.43c-.15.6-.1.98.22,1.29m2.43-3.13c1.18.3,1.79.18,1.98-.6.21-.85-.29-1.16-1.43-1.44l-2.11-.52-.51,2.04,2.07.51Z"/><path class="cls-2" d="m91.06,109.11l.8-4.25c.12-.6.03-.99-.29-1.26l6.75,1.29c-.08.15-.13.27-.15.36-.04.17.07.53.11,1.11-.55-.49-1.32-.75-2.33-.94l-2.74-.52-.33,1.77,3.08.59c.32.06.62.06.91,0l-.59.67c-.18.19-.42.27-.73.21l-2.86-.55-.38,2,2.83.53c1.16.23,2.12.15,2.72-.14-.33.55-.63.88-.67,1.1-.01.09-.03.21-.02.4l-6.86-1.31c.41-.14.62-.46.74-1.05"/><path class="cls-2" d="m101.86,111.01c-.08.6,0,.99.36,1.26l-2.21-.3c.41-.17.6-.52.68-1.12l.58-4.24c.08-.61,0-.99-.36-1.26l2.73.37c-.06.08-.09.14-.1.2,0,.05,0,.13.03.25l1.33,5.24,2.74-4.7c.05-.08.08-.16.08-.2.01-.07-.01-.15-.04-.25l2.78.38c-.42.16-.6.51-.68,1.12l-.58,4.24c-.07.54-.03.88.32,1.25l-2.23-.3c.46-.26.57-.59.64-1.12l.61-4.45-2.99,4.91c-.04.09-.09.15-.1.21,0,.05,0,.12.04.21l-1.55-.22c.05-.08.08-.14.08-.17,0-.07-.01-.15-.04-.26l-1.5-5.62-.62,4.56Z"/><path class="cls-2" d="m114.62,108.24l-.41,4.26c-.06.61.02.99.4,1.25l-2.38-.24c.41-.18.58-.54.64-1.14l.41-4.25c.06-.61-.04-1-.41-1.25l2.38.23c-.41.18-.58.53-.64,1.14"/><path class="cls-2" d="m120.1,107.5c-.42.19-.57.55-.61,1.17l-.19,2.8c-.08,1.24.51,1.85,1.84,1.93,1.34.09,1.98-.43,2.07-1.67l.19-2.82c.03-.58-.01-.95-.43-1.22l2.36.15c-.38.16-.58.55-.62,1.16l-.19,2.85c-.12,1.9-1.2,2.7-3.49,2.54-2.2-.14-3.17-1.11-3.05-2.97l.19-2.86c.04-.62-.08-1-.44-1.23l2.37.16Z"/><path class="cls-2" d="m129.26,113.48c0,.61.11.98.5,1.21l-2.23-.05c.4-.22.54-.58.56-1.19l.1-4.27c.01-.62-.11-.99-.5-1.21l2.75.06c-.04.08-.07.14-.07.21,0,.05.02.13.06.25l1.91,5.05,2.2-4.97c.04-.09.06-.17.06-.22,0-.07-.03-.14-.07-.24l2.81.07c-.4.2-.54.57-.56,1.19l-.1,4.28c0,.54.06.89.46,1.2l-2.25-.05c.43-.32.5-.65.52-1.19l.1-4.49-2.43,5.21c-.03.08-.07.15-.07.22,0,.04.02.11.06.21l-1.56-.04c.03-.09.06-.16.06-.17,0-.07-.03-.15-.07-.26l-2.12-5.42-.11,4.6Z"/><path class="cls-2" d="m145.37,111.48c-.08-2.12,1.34-3.62,3.82-3.73,2.33-.09,3.82,1.22,3.91,3.25.08,1.66-.81,3.06-2.22,3.44.46.35.85.51,1.24.5.27,0,.5-.11.75-.3.02.3.24.66.42.77-.38.34-.78.51-1.23.54-.55.02-.99-.22-1.5-.51-.54-.32-1-.6-1.58-.57-.59.02-1.19.38-1.84,1.06,0,0,0-.02,0-.04,0-.2-.31-.54-.68-.67.29-.31.58-.55.89-.75-1.24-.58-1.92-1.6-1.98-2.99m6.32-.39c-.06-1.51-1.02-2.38-2.5-2.32-1.57.06-2.48,1.08-2.41,2.69.06,1.48,1.03,2.35,2.51,2.28,1.57-.06,2.47-1.06,2.4-2.66"/><path class="cls-2" d="m157.8,107.41c-.38.25-.48.63-.43,1.24l.24,2.81c.11,1.24.79,1.75,2.11,1.64,1.34-.12,1.9-.74,1.8-1.97l-.24-2.8c-.05-.6-.16-.95-.62-1.16l2.36-.2c-.34.22-.49.63-.44,1.24l.25,2.85c.15,1.91-.79,2.86-3.07,3.05-2.21.19-3.31-.63-3.47-2.49l-.24-2.85c-.05-.62-.23-.99-.63-1.16l2.38-.2Z"/><path class="cls-2" d="m174.12,112.32l-2.2.28c.13-.18.2-.35.18-.53-.02-.17-.08-.33-.14-.42l-.32-.49-4.2.55-.15.45c-.04.14-.07.3-.04.49.03.22.14.4.31.51l-2.21.28c.32-.41.5-.82.63-1.23l1.89-5.33c.04-.13.06-.22.05-.28,0-.03-.03-.11-.1-.2l2.25-.29c-.03.1-.06.18-.05.24,0,.06.04.13.11.24l3.08,4.72c.27.4.57.75.92,1.02m-3.05-2.08l-2.12-3.17-1.18,3.59,3.3-.43Z"/><path class="cls-2" d="m175.1,105.4l2.36-.4c-.35.26-.43.67-.33,1.25l.77,4.49,2.03-.35c1.13-.2,1.95-.55,2.48-1.1-.11.63-.28,1.04-.23,1.27.02.08.05.21.13.38l-6.07,1.05c.34-.27.42-.65.32-1.26l-.73-4.26c-.11-.6-.32-.93-.73-1.07"/><path class="cls-2" d="m185.66,104.67l.87,4.19c.12.59.32.93.76,1.07l-2.33.48c.34-.3.39-.69.27-1.28l-.86-4.19c-.13-.6-.33-.93-.76-1.07l2.33-.48c-.34.29-.39.68-.27,1.28"/><path class="cls-2" d="m192.09,107.6l-1.09-4.4-.46.12c-.99.24-1.76.54-2.29,1.06.02-.58.1-.96.05-1.13-.02-.06-.07-.18-.16-.33l6.55-1.61c0,.16,0,.28,0,.38.04.17.28.45.56.95-.7-.2-1.49-.12-2.5.13l-.48.12,1.08,4.39c.14.58.44.94.81,1.04l-2.3.57c.39-.38.34-.74.2-1.29"/><path class="cls-2" d="m198.84,100.12c-.13.1-.14.24-.08.45.06.18.21.31.42.46l2.49,1.85,1.05-3c.08-.23.1-.43.06-.59-.06-.16-.15-.27-.3-.3l2.22-.68c-.29.45-.49.96-.7,1.52l-1.45,3.9.27.89c.19.59.45.9.88.99l-2.28.71c.32-.35.31-.74.13-1.3l-.27-.87-3.49-2.56c-.55-.4-.97-.66-1.37-.71l2.41-.76Z"/><path class="cls-2" d="m212.51,100.47l.06-.93c.02-.27.21-.38.54-.52l1.3-.56c.36-.15.61-.3.74-.5l-.05.93c-.02.27-.23.39-.55.53l-1.29.55c-.37.16-.62.3-.75.5"/><path class="cls-1" d="m231.23,52.16c-1.17,0-2.28-.46-3.12-1.29-.83-.83-1.28-1.92-1.28-3.1,0-2.43,1.98-4.39,4.4-4.39,1.17,0,2.27.45,3.1,1.28.83.83,1.29,1.94,1.29,3.11s-.46,2.26-1.28,3.1c-.84.83-1.94,1.29-3.11,1.29m-3.77-4.38c.02.99.41,1.94,1.1,2.65.73.7,1.66,1.09,2.67,1.09,2.07,0,3.74-1.68,3.74-3.75,0-1-.38-1.95-1.09-2.65-.71-.71-1.65-1.1-2.66-1.1s-1.94.39-2.66,1.1c-.69.71-1.08,1.65-1.1,2.66m4.57-1.59c-.11-.07-.29-.09-.52-.09h-1.26v1.4h1.22c.25,0,.44-.03.56-.09.22-.11.32-.29.32-.59,0-.3-.1-.52-.31-.63m-2.83-.99h2.53c.37,0,.65.04.84.13.2.1.37.2.51.37.11.13.2.27.26.44.08.14.11.34.1.54,0,.25-.06.48-.18.73-.13.23-.33.4-.62.51.25.09.41.23.51.4.11.17.17.44.15.81v.34c.02.23.02.39.03.48.04.14.1.23.2.3v.12h-1.2c-.02-.11-.04-.21-.06-.28-.03-.15-.04-.29-.04-.45v-.47c0-.33-.08-.56-.2-.65-.11-.12-.32-.17-.64-.17h-1.13s0,2.03,0,2.03h-1.05v-5.18"/><path class="cls-3" d="m114.33,76.35c.02.21-7.26,4.83-13.01,4.27-1.52-.14-9.84-.39-9.73-8.18.12-9.29,19.66-8.74,21.5-11.81.93-1.56,1.11-7.37-3.6-7.19-6.28.24-6.33,5.4-9.36,7.88-3.56,2.89-9.1.6-5.32-4.35,5.67-7.43,16.26-6.86,16.48-6.88,8.42-.51,14.67,4.21,14.63,9.48-.02,3.85-.03,13.32-.03,13.81,0,1.23.79,4.07,3.1,4.23,1.71.13,2.08,2.45,0,2.57,0,0-9.37,0-9.39.01-2.08-.07-4.98-1.43-5.26-3.85m-.42-11.28c-4.34.42-9.82,2.91-9.51,6.02.51,5.13,9.52,4.21,9.55-1.92.02-4.39-.04-4.1-.04-4.1m58.19,15.99s-14.01-24.73-14.44-25.4c-.44-.69-.96-1.43-3.35-1.55-2.38-.13-2.07-2.53.26-2.53,1.06,0,18.57,0,19.76,0,2.38,0,2.04,2.48-.25,2.48-1.8,0-2.2.86-2.2,1.92,0,2.42,5.55,12.38,5.55,12.38,0,0,5.91-11.63,5.94-11.76.53-1.74-.1-2.17-2.29-2.36-2.21-.17-1.95-2.53-.06-2.66,1.18-.08,9.37.04,11.46,0,2.34-.05,2.2,2.54-.06,2.48-1.85-.06-3.66,1.29-4.15,2.23-.5.93-13.14,23.41-13.82,24.71-.68,1.31-1.91.94-2.35.07m40.57-4.59c5.16.59,10.61-2.08,12.02-3.97,1.46-1.94,3.02.33,1.74,1.8-3.68,4.2-7.4,6.93-16.06,7.12-25.78.55-25.03-30.72.99-30.59,13.71.06,15.91,9.67,16.18,11.7.17,1.2-.78,3.29-2.91,3.29s-19.7.04-19.7.04c-.47,7.28,4.52,10.24,7.74,10.62m-6.5-15.93c.13.72.43,1.38,1.37,1.49.5.07,7.31,0,7.31,0,0,0,1.05-.25,1.18-1.18.12-.92-.13-6.5-5.14-6.5-2.42,0-5.15,3.66-4.71,6.18m-117.44-13.19c4.15,10.13-6.5,9.67-8.58,3.53-.59-1.73-.55-4.09-1.92-5.76-2-2.46-4.4-2.36-5.83-2.41-10.85-.36-16.16,29.83-.12,32.99,5.93,1.18,10.86-3.01,12.71-4.88,1.92-1.96,3.55.25,2.27,2.27-5.02,7.86-14.57,8.53-18.16,8.5-25.2-.25-30.98-38.79-.41-43.28,8.45-1.25,17.69,3.31,20.05,9.04m65.1,30.37c2.29-.09,2.37,2.43.29,2.45h-19.91c-1.52,0-1.54-2.35.06-2.38,1.25-.03,4.25-.71,4.25-3.06v-27.25s.09-2.41-3.26-.99c-1.92.81-2.91-1.43-.96-2.33l13.58-5.88s2.02-.96,2.03,1.54l-.02,34.83c.07,1.7,2.62,3.13,3.93,3.08m52.57-34.95s8.48-9.57,15.84-10.39c2.92-.33,6.36-.09,6.92,2.97.55,2.97-1.19,4.36-3.95,4.45-4.46.16-9.48.35-13.67,2.69-1.57.86-6.59,3.81-5.14.28"/><path class="cls-2" d="m277.45,65.04c0,43.97-76.48,62.36-138.69,62.38C73.43,127.43.01,107.66,0,65.1,0,42.82,22.43,26.34,43.83,16.81c22.72-10.12,44.19,10.81,58.43,7.9,11.61-2.39,16.76-22.03,26.38-23.48C135.43.21,148.84.05,155.17,0c51.69-.37,122.27,23.45,122.28,65.04m-138.69,59.34c57.05-.01,118.58-18.78,118.57-59.34,0-33.38-51.42-52.73-70.14-57.45-10.89-2.75-31.88-4.78-40.95-2.11-12.39,3.62-27.8,25.7-37.84,28.75-16.74,5.07-30.03-23.02-49.09-14.64-10.94,4.81-39.19,23.73-39.18,45.51,0,37.89,54.85,59.3,118.63,59.29"/></g></svg>