<?xml version="1.0" encoding="utf-8"?>
<!-- Generator: Adobe Illustrator 28.3.0, SVG Export Plug-In . SVG Version: 6.00 Build 0)  -->
<svg version="1.1" id="Layer_2_00000103967288920154758820000009879280523660608446_"
	 xmlns="http://www.w3.org/2000/svg" xmlns:xlink="http://www.w3.org/1999/xlink" x="0px" y="0px" viewBox="0 0 277.5 127.4"
	 style="enable-background:new 0 0 277.5 127.4;" xml:space="preserve">
<style type="text/css">
	.st0{fill:#7BFF47;}
</style>
<g id="katman_1">
	<path class="st0" d="M61.6,99.2l0.7-0.6c0.2-0.2,0.4-0.1,0.8,0l1.3,0.6c0.4,0.2,0.6,0.2,0.9,0.2l-0.7,0.6c-0.2,0.2-0.4,0.1-0.8,0
		l-1.3-0.6C62.1,99.2,61.9,99.2,61.6,99.2"/>
	<path class="st0" d="M73.4,105.7l-2.3-0.7c0.5-0.1,0.7-0.4,0.9-1l1.3-4.1c0.2-0.6,0.1-1-0.2-1.3l3.3,1.1c1,0.3,1.7,0.6,2.2,1.1
		c0.4,0.5,0.6,1.2,0.4,1.8c-0.5,1.4-1.7,1.8-3.9,1.1l-1.6-0.5l-0.3,1.1C73.1,105,73.1,105.3,73.4,105.7 M75.4,102.8
		c1.3,0.4,2.1,0.3,2.3-0.6c0.3-0.9-0.3-1.3-1.6-1.7l-1.5-0.5l-0.7,2.3L75.4,102.8L75.4,102.8z"/>
	<path class="st0" d="M82.7,108.4l-2.3-0.6c0.4-0.1,0.7-0.4,0.8-1l1-4.2c0.2-0.6,0.1-1-0.2-1.3l3.9,1c1,0.2,1.7,0.4,2.1,0.8
		c0.6,0.4,0.7,1.1,0.6,1.8c-0.2,0.9-1,1.4-2.3,1.3c0.5,0.4,0.8,0.9,1,1.6c0.2,0.7,0.4,1.3,0.8,1.8l-2.3-0.6c0.1-0.1,0.2-0.2,0.2-0.3
		c0.1-0.3,0-0.8-0.3-1.4c-0.4-0.8-0.8-1.2-1.6-1.4l-1.2-0.3l-0.4,1.4C82.3,107.7,82.4,108.1,82.7,108.4 M85.1,105.2
		c1.2,0.3,1.8,0.2,2-0.6c0.2-0.8-0.3-1.2-1.4-1.4l-2.1-0.5l-0.5,2L85.1,105.2L85.1,105.2z"/>
	<path class="st0" d="M91.1,109.1l0.8-4.2c0.1-0.6,0-1-0.3-1.3l6.8,1.3c-0.1,0.2-0.1,0.3-0.2,0.4c0,0.2,0.1,0.5,0.1,1.1
		c-0.6-0.5-1.3-0.8-2.3-0.9l-2.7-0.5l-0.3,1.8l3.1,0.6c0.3,0.1,0.6,0.1,0.9,0l-0.6,0.7c-0.2,0.2-0.4,0.3-0.7,0.2l-2.9-0.6l-0.4,2
		l2.8,0.5c1.2,0.2,2.1,0.2,2.7-0.1c-0.3,0.6-0.6,0.9-0.7,1.1c0,0.1,0,0.2,0,0.4l-6.9-1.3C90.7,110,90.9,109.7,91.1,109.1"/>
	<path class="st0" d="M101.9,111c-0.1,0.6,0,1,0.4,1.3L100,112c0.4-0.2,0.6-0.5,0.7-1.1l0.6-4.2c0.1-0.6,0-1-0.4-1.3l2.7,0.4
		c-0.1,0.1-0.1,0.1-0.1,0.2c0,0.1,0,0.1,0,0.2l1.3,5.2l2.7-4.7c0.1-0.1,0.1-0.2,0.1-0.2c0-0.1,0-0.2,0-0.2l2.8,0.4
		c-0.4,0.2-0.6,0.5-0.7,1.1l-0.6,4.2c-0.1,0.5,0,0.9,0.3,1.2l-2.2-0.3c0.5-0.3,0.6-0.6,0.6-1.1l0.6-4.4l-3,4.9
		c0,0.1-0.1,0.2-0.1,0.2c0,0.1,0,0.1,0,0.2l-1.6-0.2c0.1-0.1,0.1-0.1,0.1-0.2c0-0.1,0-0.2,0-0.3l-1.5-5.6L101.9,111L101.9,111z"/>
	<path class="st0" d="M114.6,108.2l-0.4,4.3c-0.1,0.6,0,1,0.4,1.2l-2.4-0.2c0.4-0.2,0.6-0.5,0.6-1.1l0.4-4.2c0.1-0.6,0-1-0.4-1.2
		l2.4,0.2C114.8,107.3,114.7,107.6,114.6,108.2"/>
	<path class="st0" d="M120.1,107.5c-0.4,0.2-0.6,0.6-0.6,1.2l-0.2,2.8c-0.1,1.2,0.5,1.8,1.8,1.9c1.3,0.1,2-0.4,2.1-1.7l0.2-2.8
		c0-0.6,0-0.9-0.4-1.2l2.4,0.2c-0.4,0.2-0.6,0.6-0.6,1.2l-0.2,2.8c-0.1,1.9-1.2,2.7-3.5,2.5c-2.2-0.1-3.2-1.1-3.1-3l0.2-2.9
		c0-0.6-0.1-1-0.4-1.2L120.1,107.5L120.1,107.5z"/>
	<path class="st0" d="M129.3,113.5c0,0.6,0.1,1,0.5,1.2l-2.2-0.1c0.4-0.2,0.5-0.6,0.6-1.2l0.1-4.3c0-0.6-0.1-1-0.5-1.2l2.8,0.1
		c0,0.1-0.1,0.1-0.1,0.2c0,0.1,0,0.1,0.1,0.2l1.9,5.1l2.2-5c0-0.1,0.1-0.2,0.1-0.2c0-0.1,0-0.1-0.1-0.2l2.8,0.1
		c-0.4,0.2-0.5,0.6-0.6,1.2l-0.1,4.3c0,0.5,0.1,0.9,0.5,1.2l-2.2-0.1c0.4-0.3,0.5-0.7,0.5-1.2l0.1-4.5l-2.4,5.2
		c0,0.1-0.1,0.2-0.1,0.2c0,0,0,0.1,0.1,0.2l-1.6,0c0-0.1,0.1-0.2,0.1-0.2c0-0.1,0-0.2-0.1-0.3l-2.1-5.4L129.3,113.5L129.3,113.5z"/>
	<path class="st0" d="M145.4,111.5c-0.1-2.1,1.3-3.6,3.8-3.7c2.3-0.1,3.8,1.2,3.9,3.2c0.1,1.7-0.8,3.1-2.2,3.4
		c0.5,0.3,0.9,0.5,1.2,0.5c0.3,0,0.5-0.1,0.8-0.3c0,0.3,0.2,0.7,0.4,0.8c-0.4,0.3-0.8,0.5-1.2,0.5c-0.6,0-1-0.2-1.5-0.5
		c-0.5-0.3-1-0.6-1.6-0.6c-0.6,0-1.2,0.4-1.8,1.1c0,0,0,0,0,0c0-0.2-0.3-0.5-0.7-0.7c0.3-0.3,0.6-0.6,0.9-0.8
		C146.1,113.9,145.4,112.9,145.4,111.5 M151.7,111.1c-0.1-1.5-1-2.4-2.5-2.3c-1.6,0.1-2.5,1.1-2.4,2.7c0.1,1.5,1,2.3,2.5,2.3
		C150.9,113.7,151.8,112.7,151.7,111.1"/>
	<path class="st0" d="M157.8,107.4c-0.4,0.2-0.5,0.6-0.4,1.2l0.2,2.8c0.1,1.2,0.8,1.8,2.1,1.6c1.3-0.1,1.9-0.7,1.8-2l-0.2-2.8
		c-0.1-0.6-0.2-0.9-0.6-1.2l2.4-0.2c-0.3,0.2-0.5,0.6-0.4,1.2l0.2,2.8c0.1,1.9-0.8,2.9-3.1,3.1c-2.2,0.2-3.3-0.6-3.5-2.5l-0.2-2.8
		c-0.1-0.6-0.2-1-0.6-1.2C155.4,107.6,157.8,107.4,157.8,107.4z"/>
	<path class="st0" d="M174.1,112.3l-2.2,0.3c0.1-0.2,0.2-0.3,0.2-0.5c0-0.2-0.1-0.3-0.1-0.4l-0.3-0.5l-4.2,0.6l-0.1,0.4
		c0,0.1-0.1,0.3,0,0.5c0,0.2,0.1,0.4,0.3,0.5l-2.2,0.3c0.3-0.4,0.5-0.8,0.6-1.2l1.9-5.3c0-0.1,0.1-0.2,0.1-0.3c0,0,0-0.1-0.1-0.2
		l2.2-0.3c0,0.1-0.1,0.2-0.1,0.2c0,0.1,0,0.1,0.1,0.2l3.1,4.7C173.5,111.7,173.8,112.1,174.1,112.3 M171.1,110.2l-2.1-3.2l-1.2,3.6
		L171.1,110.2L171.1,110.2z"/>
	<path class="st0" d="M175.1,105.4l2.4-0.4c-0.4,0.3-0.4,0.7-0.3,1.2l0.8,4.5l2-0.3c1.1-0.2,1.9-0.6,2.5-1.1c-0.1,0.6-0.3,1-0.2,1.3
		c0,0.1,0.1,0.2,0.1,0.4l-6.1,1.1c0.3-0.3,0.4-0.7,0.3-1.3l-0.7-4.3C175.7,105.9,175.5,105.5,175.1,105.4"/>
	<path class="st0" d="M185.7,104.7l0.9,4.2c0.1,0.6,0.3,0.9,0.8,1.1l-2.3,0.5c0.3-0.3,0.4-0.7,0.3-1.3l-0.9-4.2
		c-0.1-0.6-0.3-0.9-0.8-1.1l2.3-0.5C185.6,103.7,185.6,104.1,185.7,104.7"/>
	<path class="st0" d="M192.1,107.6l-1.1-4.4l-0.5,0.1c-1,0.2-1.8,0.5-2.3,1.1c0-0.6,0.1-1,0.1-1.1c0-0.1-0.1-0.2-0.2-0.3l6.6-1.6
		c0,0.2,0,0.3,0,0.4c0,0.2,0.3,0.4,0.6,0.9c-0.7-0.2-1.5-0.1-2.5,0.1l-0.5,0.1l1.1,4.4c0.1,0.6,0.4,0.9,0.8,1l-2.3,0.6
		C192.2,108.5,192.2,108.1,192.1,107.6"/>
	<path class="st0" d="M198.8,100.1c-0.1,0.1-0.1,0.2-0.1,0.4c0.1,0.2,0.2,0.3,0.4,0.5l2.5,1.8l1.1-3c0.1-0.2,0.1-0.4,0.1-0.6
		c-0.1-0.2-0.1-0.3-0.3-0.3l2.2-0.7c-0.3,0.4-0.5,1-0.7,1.5l-1.4,3.9l0.3,0.9c0.2,0.6,0.4,0.9,0.9,1l-2.3,0.7
		c0.3-0.3,0.3-0.7,0.1-1.3l-0.3-0.9l-3.5-2.6c-0.6-0.4-1-0.7-1.4-0.7L198.8,100.1L198.8,100.1z"/>
	<path class="st0" d="M212.5,100.5l0.1-0.9c0-0.3,0.2-0.4,0.5-0.5l1.3-0.6c0.4-0.2,0.6-0.3,0.7-0.5l-0.1,0.9c0,0.3-0.2,0.4-0.6,0.5
		l-1.3,0.6C212.9,100.1,212.6,100.3,212.5,100.5"/>
	<path class="st0" d="M231.2,52.2c-1.2,0-2.3-0.5-3.1-1.3c-0.8-0.8-1.3-1.9-1.3-3.1c0-2.4,2-4.4,4.4-4.4c1.2,0,2.3,0.5,3.1,1.3
		c0.8,0.8,1.3,1.9,1.3,3.1s-0.5,2.3-1.3,3.1C233.5,51.7,232.4,52.2,231.2,52.2 M227.5,47.8c0,1,0.4,1.9,1.1,2.7
		c0.7,0.7,1.7,1.1,2.7,1.1c2.1,0,3.7-1.7,3.7-3.8c0-1-0.4-2-1.1-2.7c-0.7-0.7-1.6-1.1-2.7-1.1s-1.9,0.4-2.7,1.1
		C227.9,45.8,227.5,46.8,227.5,47.8 M232,46.2c-0.1-0.1-0.3-0.1-0.5-0.1h-1.3v1.4h1.2c0.2,0,0.4,0,0.6-0.1c0.2-0.1,0.3-0.3,0.3-0.6
		S232.2,46.3,232,46.2 M229.2,45.2h2.5c0.4,0,0.6,0,0.8,0.1c0.2,0.1,0.4,0.2,0.5,0.4c0.1,0.1,0.2,0.3,0.3,0.4
		c0.1,0.1,0.1,0.3,0.1,0.5c0,0.2-0.1,0.5-0.2,0.7c-0.1,0.2-0.3,0.4-0.6,0.5c0.2,0.1,0.4,0.2,0.5,0.4c0.1,0.2,0.2,0.4,0.1,0.8v0.3
		c0,0.2,0,0.4,0,0.5c0,0.1,0.1,0.2,0.2,0.3v0.1h-1.2c0-0.1,0-0.2-0.1-0.3c0-0.2,0-0.3,0-0.5v-0.5c0-0.3-0.1-0.6-0.2-0.7
		c-0.1-0.1-0.3-0.2-0.6-0.2h-1.1v2h-1.1L229.2,45.2"/>
	<path class="st0" d="M114.3,76.3c0,0.2-7.3,4.8-13,4.3c-1.5-0.1-9.8-0.4-9.7-8.2c0.1-9.3,19.7-8.7,21.5-11.8
		c0.9-1.6,1.1-7.4-3.6-7.2c-6.3,0.2-6.3,5.4-9.4,7.9c-3.6,2.9-9.1,0.6-5.3-4.3c5.7-7.4,16.3-6.9,16.5-6.9c8.4-0.5,14.7,4.2,14.6,9.5
		c0,3.8,0,13.3,0,13.8c0,1.2,0.8,4.1,3.1,4.2c1.7,0.1,2.1,2.4,0,2.6c0,0-9.4,0-9.4,0C117.5,80.1,114.6,78.8,114.3,76.3 M113.9,65.1
		c-4.3,0.4-9.8,2.9-9.5,6c0.5,5.1,9.5,4.2,9.6-1.9C114,64.8,113.9,65.1,113.9,65.1 M172.1,81.1c0,0-14-24.7-14.4-25.4
		c-0.4-0.7-1-1.4-3.4-1.5c-2.4-0.1-2.1-2.5,0.3-2.5c1.1,0,18.6,0,19.8,0c2.4,0,2,2.5-0.2,2.5c-1.8,0-2.2,0.9-2.2,1.9
		c0,2.4,5.6,12.4,5.6,12.4s5.9-11.6,5.9-11.8c0.5-1.7-0.1-2.2-2.3-2.4c-2.2-0.2-1.9-2.5-0.1-2.7c1.2-0.1,9.4,0,11.5,0
		c2.3,0,2.2,2.5-0.1,2.5c-1.9-0.1-3.7,1.3-4.1,2.2c-0.5,0.9-13.1,23.4-13.8,24.7C173.8,82.3,172.5,81.9,172.1,81.1 M212.7,76.5
		c5.2,0.6,10.6-2.1,12-4c1.5-1.9,3,0.3,1.7,1.8c-3.7,4.2-7.4,6.9-16.1,7.1c-25.8,0.6-25-30.7,1-30.6c13.7,0.1,15.9,9.7,16.2,11.7
		c0.2,1.2-0.8,3.3-2.9,3.3s-19.7,0-19.7,0C204.5,73.1,209.5,76.1,212.7,76.5 M206.2,60.5c0.1,0.7,0.4,1.4,1.4,1.5
		c0.5,0.1,7.3,0,7.3,0s1.1-0.2,1.2-1.2c0.1-0.9-0.1-6.5-5.1-6.5C208.5,54.4,205.8,58,206.2,60.5 M88.8,47.3
		c4.2,10.1-6.5,9.7-8.6,3.5c-0.6-1.7-0.6-4.1-1.9-5.8c-2-2.5-4.4-2.4-5.8-2.4c-10.8-0.4-16.2,29.8-0.1,33c5.9,1.2,10.9-3,12.7-4.9
		c1.9-2,3.6,0.2,2.3,2.3c-5,7.9-14.6,8.5-18.2,8.5c-25.2-0.2-31-38.8-0.4-43.3C77.2,37.1,86.4,41.6,88.8,47.3 M153.9,77.7
		c2.3-0.1,2.4,2.4,0.3,2.4h-19.9c-1.5,0-1.5-2.3,0.1-2.4c1.2,0,4.2-0.7,4.2-3.1V47.5c0,0,0.1-2.4-3.3-1c-1.9,0.8-2.9-1.4-1-2.3
		l13.6-5.9c0,0,2-1,2,1.5l0,34.8C150,76.4,152.5,77.8,153.9,77.7 M206.4,42.8c0,0,8.5-9.6,15.8-10.4c2.9-0.3,6.4-0.1,6.9,3
		c0.6,3-1.2,4.4-3.9,4.5c-4.5,0.2-9.5,0.3-13.7,2.7C210,43.4,205,46.3,206.4,42.8"/>
	<path class="st0" d="M277.5,65c0,44-76.5,62.4-138.7,62.4C73.4,127.4,0,107.7,0,65.1c0-22.3,22.4-38.8,43.8-48.3
		C66.6,6.7,88,27.6,102.3,24.7c11.6-2.4,16.8-22,26.4-23.5c6.8-1,20.2-1.2,26.5-1.2C206.9-0.4,277.4,23.5,277.5,65 M138.8,124.4
		c57.1,0,118.6-18.8,118.6-59.3c0-33.4-51.4-52.7-70.1-57.5c-10.9-2.8-31.9-4.8-40.9-2.1c-12.4,3.6-27.8,25.7-37.8,28.8
		c-16.7,5.1-30-23-49.1-14.6c-10.9,4.8-39.2,23.7-39.2,45.5C20.1,103,75,124.4,138.8,124.4"/>
</g>
</svg>
