<?xml version="1.0" encoding="utf-8"?>
<!-- Generator: Adobe Illustrator 27.9.0, SVG Export Plug-In . SVG Version: 6.00 Build 0)  -->
<svg version="1.1"
	 id="svg30" xmlns:cc="http://creativecommons.org/ns#" xmlns:rdf="http://www.w3.org/1999/02/22-rdf-syntax-ns#" xmlns:dc="http://purl.org/dc/elements/1.1/"
	 xmlns="http://www.w3.org/2000/svg" xmlns:xlink="http://www.w3.org/1999/xlink" x="0px" y="0px" viewBox="0 0 1000 1211"
	 style="enable-background:new 0 0 1000 1211;" xml:space="preserve">
<style type="text/css">
	.st0{fill-rule:evenodd;clip-rule:evenodd;fill:#005CA8;}
</style>
<path class="st0" d="M470.7,738.6c-19.3,0-19.1,10.8-19.1,10.8v120c-0.1,0,0,10.5,19.3,10.5c16.3,0,18.8-6.9,19.2-9.6
	c0.1-0.6,0.1-1,0.1-1l0.1-119.7C490.3,749.6,490.4,738.6,470.7,738.6z"/>
<g>
	<path class="st0" d="M928.9,684.2L928.9,684.2c-1.2-0.4-2.5-0.6-3.7-0.5h-1.6l0,7.2l2.5-0.1c1.2,0.1,2.5-0.2,3.5-0.9
		c0.8-0.7,1.2-1.7,1.2-3C931,685.6,930.3,684.6,928.9,684.2z"/>
	<path class="st0" d="M926.8,673.2c-5.1,0-9.5,1.9-13,5.7l0,0c-3.4,3.4-5.3,8-5.2,12.7c0.1,5.1,1.9,9.4,5.6,13
		c3.4,3.4,8.1,5.3,13,5.2c5,0,9.4-1.9,13-5.5c3.5-3.6,5.3-8,5.2-13c0-4.8-2-9.3-5.5-12.6C936.5,675.1,931.7,673.1,926.8,673.2z
		 M931.4,703.7c-0.3-1.1-0.4-2.2-0.4-3.4c0-1-0.1-2-0.4-3c-0.3-0.8-1-1.5-1.9-1.8c-0.7-0.3-1.5-0.4-2.2-0.4l-1.4-0.1h-1.3l0.1,8.7
		h-6.4l-0.3-24.4c1.5,0,3.8,0,6.9,0c3.1,0,4.7,0,5.1,0c1.9,0.1,3.6,0.5,4.9,1.2c2.2,1.1,3.3,3.1,3.3,5.7c0,2.1-0.5,3.6-1.7,4.5
		c-1.2,0.9-2.7,1.5-4.3,1.6c1.3,0.2,2.4,0.7,3.5,1.3c1.5,1.2,2.2,3,2.2,5.5l0.1,2.2c0,0.3,0,0.5,0.1,0.8c0,0.2,0.1,0.5,0.2,0.7
		l0.2,0.7L931.4,703.7z"/>
</g>
<path class="st0" d="M887.9,803.6l-19.3,9c-4.3,2.2-12.2,8-12.2,16v43.4c0,6.9,9.4,11.3,15.4,10.2c0,0,16.1-0.6,16.1-18.6h0V803.6z"
	/>
<g>
	<path class="st0" d="M551.6,376L551.6,376c0,2.6,6.9,10.1,14.1,11.1c7.4,0.7,26.5,7.8,27.1,26c0.1,6.5-0.2,16.7,4.7,23.7
		c4.9,6.9,6.3,16.5,3.8,27.2c-0.7,3.7-5,13.7,1.9,24.1c4.2,6.2,24.9,7.8,28.5-5.1c4-12.6,6-41.2-1.2-51c-6.4-9.2-14.3-12.3-9.3-29.7
		c1.8-7.3-1.2-20.7-10.5-22.1c-11.9-2.2-15.8-7.2-19.6-14.6c-3.8-7.7-21.1-11-30.1-8.4C555.8,358.7,550,361.6,551.6,376z"/>
	<path class="st0" d="M582.4,348.7L582.4,348.7c4.5,0,11.1-7.2,16.3,0.5c5.3,7.7,7.5,13.2,9.8,16.1c2.7,3.3,5.9,5.3,7.8,5.3
		c1.4,0,7.6-0.3,9.9,5.7c2.7,6.2,4.2,9.8,7.2,11.7c3,1.9,8.3,8.8,5.4,14.8c-2.6,6.3-2.6,11.2-2.4,17.1c0.5,15.9,14.6,17.5,19.1,16
		c5.9-2.2,14.3-12,15.8-16.1c1.8-4.4,3.6-15.8,2.8-20.2c-0.4-4.8-7.8-13.8-13.1-17.5c-4.9-3.3-4.8-6.2-5.5-16.3
		c-0.8-9.9-6.1-20.2-14.7-21.9c-8.6-1.9-11.4,0.1-12.6-9.5c-1.2-9.5-16.1-18.5-26.2-18.4c-10.4-0.2-21.4,0.4-30.6,14.4
		C565.1,339.9,571.2,349.6,582.4,348.7z"/>
	<path class="st0" d="M508.3,216.3L508.3,216.3c-4.5-1.4-9.2-1.8-13.8-1.2c-6.7,0.6-24.3,6.6-31.7,17.6c-2.5,3.9-10.1,13.2-1.1,13.4
		c8.9,0.4,29.1-0.4,32.4-0.6c3.4-0.2,5.6-1.7,6.9-4.3c1-2.3,7.4-17.1,8.7-20.1C510.8,218.9,511.7,217.2,508.3,216.3z"/>
	<path class="st0" d="M588.8,466.9c5.5-10.3,4.3-30.6-3.6-35.4c-9.1-5.6-10.9-6.7-11.4-15.9c0-3-1.6-9.6-5.7-13.6
		c-5.3-5.1-11.6-7.2-20.5-2.3c-7,3.7-9.9,10.4-10.6,14.9c-0.7,4.3,1.3,16.8,5.1,21.1c4.1,4.8,17.6,12.4,16.3,22.6
		c-0.3,4.8,2.8,12,8.2,16.1c2.9,2.2,5.1,9.6,0.8,18.8c-4.4,9.3-6.2,22.7-5.5,27.8c1.2,7,12,10.8,21,10c8.9-0.9,15.5-11.6,16.2-14.6
		c1.1-3.3,1.1-15.9-5-26.1C588.3,480.5,583.7,476.8,588.8,466.9z"/>
	<path class="st0" d="M477.2,306.1c8.5-0.3,10.9,2.5,14.7,4.6c3.9,2.2,9-2,2.8-4.1c-6.7-2.4-5-4.3-10-4.4
		C476.3,302.1,469.3,306.4,477.2,306.1z"/>
	<path class="st0" d="M565.5,201.7c-16.4,0.2-39.1,6-47.4,29.6c-2.9,8.9,2.4,12.6,9.8,10.9v0c7.1-1.1,30.2-3.2,35.4-4.4
		c5.6-1.6,21.9-6.5,24.9-8.8c3.3-2.5,4.8-5.9,1.7-11.1C587.2,213.4,582.3,201.2,565.5,201.7z"/>
	<path class="st0" d="M999.9,600.2c-2-184.6-36.4-322.7-105.1-422.1c-39.4-56.9-90.7-100.7-152.5-130.2C675.7,16.1,594.9,0,502.2,0
		c-2.9,0-5.8,0-8.7,0C399.1,1,317.2,18.2,250.1,51c-62.2,30.4-113.5,75.2-152.3,133C30,284.9-1.9,424.5,0.1,610.7
		c2,184.7,36.4,322.7,105.2,422.1c39.4,56.9,90.7,100.7,152.5,130.2c66.6,31.8,147.4,47.9,240.1,47.9h0c2.9,0,5.7,0,8.6,0
		c94.4-1,176.3-18.1,243.4-51c62.3-30.4,113.5-75.2,152.3-133.1C970,926,1001.9,786.4,999.9,600.2z M55.6,855.3V709.8
		c0-31.1,28.5-47.7,74.3-47.8c34.4-0.1,66.3,4.4,66.3,41.3v33.8c-0.1,4.3-3.4,7.1-7.7,7.4h-23.9c-3.8-0.3-7-3.2-7.4-7v-34.7
		c0-10.8-11.6-15.9-27-15.9c-15.4,0-27.1,2.9-27.1,16.6v154.7c0.1,7.8,0.1,22.2,26.8,22.2c26.1,0,26.7-12.1,26.7-22.2v-31.6
		c0-5.6,3.4-8.5,7.2-8.9H190l-0.4,0c6.6,0,8.5,2.6,8.7,8.7v31.6c0,29.9-18.7,46.8-68,46.8C71.1,904.9,55.6,878.9,55.6,855.3z
		 M506,1165.5c-211.3,2.2-342.8-81.6-410-240.8c10.5,2.2,22.7,3.4,36.9,3.4c0.4,0,0.8,0,1.2,0c62.7,135.1,180,205.9,371.6,204h0
		c187.3-2,302.2-72.2,363-202.8c0,0,25.6,0,37.9-3.2C841.4,1080.3,712.8,1163.3,506,1165.5z M288.8,714.8c18.3,0,43.7,8.7,43.7,36.8
		l-0.1,118.3c0,0,1.5,19.5,5.8,24.4c0,0,1.5,1.7,1.6,4.3v0.4c0,0,0.4,3-2.9,3l-35.3-0.1c0,0-9.4-5.6-9.2-25.7l0.2-35.6v-86
		c0-8.9-4.3-15.1-15.2-15c-19.2,0.3-22.9,29.7-22.9,29.7l0.2,126.1c-0.6,3.7-3.6,6.5-7.4,6.8h-25.4c-3.8-0.3-7-3.2-7.5-7V697.5
		c0,0-1.1-26.1,32-30.8c4.4-0.7,7.4,0.7,7.6,4.1v67.8C265.5,717.5,282.9,714.8,288.8,714.8z M305.1,460.3c-2.3-3.3-0.9-8.9,0.3-11
		c6.2-9.6,19.2-13.3,25.2-13.9c7.7-0.7,1.2-9.8,1.1-12.3c-0.1-8.5,5-10.9,14-15c15.7-7,34.7-4.3,41.3-3.1
		c18.6,3.3,20.6,13.5,42.1,10.9c16.4-1.8,17.6-8.5,17.5-17.6c-0.1-9.2,0.5-9.8-1.8-13.6c-3.4-5.7-6.4-6.9-11.2,4.5
		c-2.5,6.3-15.1,5.7-19.3,0.1c-4.1-5.4,0.3-12.9,2.1-17.4c5.1-10.7,2.1-15-1.5-18.1c-2.9-2.5-8.1-7.9-8.9-19.2
		c-0.8-11.2-6.1-14.6-14.3-18.6c-10.9-5.3-21.9-12-27.5-17.8c-6-6.2-17.1-19.2-19.9-33.2c-2.8-13.9-12.4-7.2-19.4-4.1
		c-6.7,2.7-23.5,5.5-29.1,3.3c-15.7-6.1-11.3-21.7-5.6-32.9c4-7.9,18.7-21.1,33.8-20.1c4.7,0.3,1.4-3.4-5.8-4.6
		c-2.6-0.4-7-3.4-9.5-5.7v0c-12.1-11,1.3-23.3,10.5-25.7c15.8-4,37.3-0.4,46.4,3.1c5,1.8,11.3-1,9.1-2c-3.3-1.6-4.3-4.8-10.5-6.7
		c-0.8-0.1-0.8-1.4,1.1-1.5c2.2,0,16.7,1.8,16.7,0c-0.1-2.2,1.9-3.9-2.1-11.2c-1.4-2.6,1.8-3.3,2.9-1.8c1.5,1.8,3.8,2.5,6.4,4.7
		c3.4,2.9,2.9,0.1,5.3,0.2c0.9-7.4,7.7-11.7,8-8.7c0.4,2.9-1.4,8.8-0.2,12.8c1.2,4,1.5,4.1,10.2,4.7c8.2,1,18,6.7,20.2,8.4
		c7.5,6.2,13,0.4,16-1.5c11.5-9.4,35.6-15.9,50.6-7.5c11.6,6.2,9.6,3.8,15-1.1c1.8-1.6,1.9-3.6,9-7.2c5.9-3,6.1-9.7,16.9-8.6
		c12.3,1.1,10.2-0.4,12.8-2.6c11.8-10.8,22-3.6,24.3,0.4c7.9,13.1,3.8,26.2,1.7,38.4c-0.8,4.4,2.3,6.1,7.2,5.2
		c2.2-2.3,2.1-8.3,3.9-11.6c1.9-3.3,2.2-2.2,3-0.5c1.1,2.2,2.1,7.4,3.2,9.6c1.2,2.2,3.6,1.9,5.8,1.5c2.2-0.4,3.9-2.6,7.4-3.3
		c4.8-1,6.2-0.5,5.1,2.8c-1.1,3.3-6.8,7.3-7.3,10.2c-1.2,8.2,8.3,7.4,10,7.4c4.3,0,11.9,1.3,8.5,4.5c-6,0.9-11.9,2.1-17.7,3.7
		c-6.7,1.9-6.7,9.1-3.4,12.8c9.8,12,5,20.6,0.6,29.8c-8,18.1-27.5,35.5-37.4,43.6c-8,6.4-7.6,9.1-7.9,12.8c0,3.3,4.9,8.2,12.8-1.8
		c6.4-8,17.5-8.7,29.3-10.7c11.9-2,17-13.8,20.7-18.6c39.3-53.4,46.9-76.3,54.6-90.8c7.7-14.5,0.9-35.9,2.8-38.5
		c3.8-5.1,9.6,1.5,11,6.3c2.3,8.4,6.5,12.2,16.6,13.3c3.3,0.4,11.2-1.2,14.7-2.5c11.1-3.8,18.7-11,25.1-13.4c5.9-2.1,10.5,1.7,7.7,5
		c-8.2,10.1-25.6,20.9-29.3,22.8c-3.7,1.9-10.2,6.8-21,12c-6.9,3.2-9.2,8-12.6,13c-5.1,7.6-23.2,47.8-28.7,57.8
		c-8,14.4-18.6,38.5-19.3,40.4c-3.4,5.9-3.7,11.9-3.3,14.1c0,1.9,2.3,4,4.5,4.4c5.6,1.1,12.2,8,13.7,10.2c4.5,6.6,5.4,7.9,6.2,12.3
		c2.8,12.5,10.2,16,12.1,18.9c12.5,18.7,8,44.2,2.3,59c-5.4,14.3-25.8,16-30.6,16.7c-4.5,1.2-4,3.8-2.8,8.7c1.2,4.7,4.3,15.4,0,32
		c-3.9,17-13.5,21.7-32.1,20.9c-5.4-0.2-5.1,2.8-5,8c-0.2,18.7-3.2,18.1-6.5,22.5c-9.2,12.3-22.3,9.5-29.1,6.9
		c-11.1-4.1-22.4-6.2-27.9,1.6c-6.9,9.6-5.4,17.4-2.3,26.6c5.8,16.2,28.3,48.3,34.4,52.2c10.8,7,3.6,18.7-9.2,10.8
		c-15.7-10.2-30.1-42.8-34.5-53.4c-6.2-15.1-5.7-26.5,0.6-36.8c11.7-18.9,11.3-24.5,13.3-30.3c10-28.3,4-49.3-1-57.1
		c-5.3-8-18.1-23.7-28.4-34.9c-9.7-10.7-5-15.8-0.6-23.8c9.1-16.5,25.6-38.6,22.8-52.5c-2.8-14.7-3.4-5.2-2.7-15.4
		c0-3,10.4-5,11.1-6.5c2.2-4.5-2.6-1.2-7.1-2.6c-1.1-0.3-0.6-0.9,0-1.8c4.1-1.9,5.7-5.7,5.7-5.7s-7.1,1.7-8.4,1
		c-7-3.4,5-10.6,9.1-13.1c26.2-15.8,36.4-28.2,43.5-46.4c7.2-18.2-8.8-15.1-19.9-12.4c-49.8,13-108.5,19.5-201.4,7.9
		c-5.2-0.3-16.8-1.7-12.1,12.9c7.6,23.7,24.5,35.6,36.1,42.7c16.1,9.9,18,4.5,23,20.7c6.2,19.8,15.5,29.5,17,30.6
		c1.1,0.8,5.4,1.6,6.5,5.9c2.4,9.5,6.8,2,6.4-4.9c-0.5-20.1-2.7-17.2-1.6-25.2c1.1-7,6-38.4,27.6-38.8c4.8-0.1,27-0.7,35.2-0.8
		c7.8-0.2,14.1,2.9,16.8,6.2c2.5,3,2.2,8.5,0.8,9.9c-1.9,1.8-4.2,3.7-8.7,6.6c-2.9,1.9-10.1,12.8,3,29.7c-4.1,6.3-5.1,5.1-3.1,11.1
		c-9.3-1-13.6,0.9-15.7,2.1c-3.5,2-6.7,2.9-11.8,3.3c-7.1,0.6-4.6,2.6-1.2,7c2.3,2.9,4.5,5.4,6.8,6.5c5.3,2.8,6.6,3,8.4,3.4
		c2.9,0.6,9-0.3,9,1.2c0,1.1-0.9,3.3-1.2,4.7c-4.8,12.3-14,10.4-16.2,10c-2.3-0.3-12.6,0.2-15.9-0.2c-3.3-0.4-5.2,4.8-3.3,7
		c6.4,6.9,8.4,18.6,7.4,26c-0.7,6.9-10.1,16.2-17.5,15.7c-14.1-1.2-9.9,4.4-3.1,6.7c8.7,3,11,7.9,12.9,11.2c4.9,8.3,4,15.2-0.2,13.7
		c-9.6-3.4-11.9-0.8-11.8,5.8c0.1,6.7,6.8,9.1,10.1,14.8c12.1,21.1-2.2,50.6-16.8,51.8c-23.4,2.1-33,0.5-36.6-5.6
		c-6.2-10.4-14.3-13.8-19.4-12.8c-10.1,2-18.2,0.9-20.9-1.7c-8.7-8-11.6-5.6-15.4,2.4c-9.4,14.7,1.1,19.2,6,26.2
		c4.2,6.2,29.3,37,33.8,43c6.2,8.2,20.1,20.6,24.7,23.9c6.4,5,15.3,4.1,19.4,2.9c3.7-0.8,12.4-3.9,16.8-4.3
		c14.9-1.6,27.6,6,36.9,8.9c9.7,3.2,8.9,8.1,1.8,7.8c-21.2-0.8-30.2,4.4-41,11.2c-10.8,6.7-20.8,5.9-25.6,3.7
		c-3.8-1.7-11.4-8.1-15.2-10.3c-7.9-5.1-18.8-12.6-37.6-27.1c-28.2-21.9-49.8-43.8-66.1-67.6c-6.5-9.5-3.6-13-1.5-16.8
		c2.2-3.7,3.9-7.8,4.7-9.2c4.7-7.4,4-10.6-5.4-9.2c-6.6,1-22.7,2.2-27.2,0c-13.9-6.9-14.5-21.6-11.2-31.3
		c3.2-9.6,18.3-17.9,23.5-18.5C312.3,465.1,307.4,463.6,305.1,460.3z M804.6,717.3c3.2-0.1,6.7,2.8,6.9,6.1v12.9
		c-0.1,3.3-3.5,6-6.6,6h-10.5l0,0v127.6c0,0,0.6,18.6,5.8,24.4c1,1.2,1.6,2.7,1.6,4.3v0.4c0,0,0.4,3.1-2.9,3.1h-37.3
		c0,0-7,0.3-6.9-25.5V742.3h-10.4c-3.5,0-6.7-3.1-6.7-6.4v-12c0-3.5,3.3-6.5,6.9-6.5h10.1l0.1-19.6c0,0-2.4-27.2,31.4-30.9
		c1.6-0.1,2.4-0.1,4.3,0c2.5-0.2,4,1.3,3.9,3.1v47.4H804.6z M715.6,715c1.8-0.1,2.8-0.3,4.3-0.2c2.4-0.2,4.2,1.5,4.1,3.3l-0.1,49.6
		l0,0v101.9c0,0,1.2,18.9,5.4,24.7c1.1,1.2,1.8,2.7,1.9,4.4v0.4c0,0,0.4,3.1-2.9,3.1h-36.6c0,0-8.3,0.3-8.2-25.7V746.1
		C683.6,746.1,679.8,719.2,715.6,715z M685.9,681.5c0-17.4,2.3-25.7,19.8-25.7c14.8,0,20.5,5.1,20.5,25c0,20.9-6,25-20.5,25v0
		C692.2,705.9,685.9,702.6,685.9,681.5z M578.9,716.1c4.7-1,7.6,0.9,7.5,4.1V752h0.1v117c0,0-0.1,11.2,18.2,11.2
		c17.8,0,17.8-11.2,17.8-11.2V726c0-8.4,9.9-7.9,9.9-7.9h20.1c10.6,0,9.8,7.9,9.8,7.9v147.6c0.3,12.7,1.8,14,5.1,19.4l0,0
		c2.6,4.3,4.6,5.5,3.8,7.7c-1.3,2.7-5.6,2.3-5.6,2.3h-13.5c-11.4,0-15.3-8.8-15.3-8.8s-5.9,11.4-35.9,11.4
		c-52.2,0-52.4-28.3-52.4-28.3V752h0v-4.3C548.2,747.7,546.1,720.8,578.9,716.1z M491.4,894.1L491.4,894.1c-0.1,0-0.3,8.9-28.7,8.9
		c-48.3,0-47.9-33.7-47.9-33.7l-0.2-122.5c0,0-3.7-33.5,53.3-33.5c32.7,0,35.7,11.9,35.7,11.9s3.9-5.5,8.2-8.2
		c3.1-2,6.1-3.2,9.6-3.7c6.9-1.1,7.6,5.2,7.6,5.2l0.1,28.3v146.5h-0.1l-0.1,63c0,0,0.5,19.8,6,23.1c0,0,1.5,2.9,1.6,5.5v0.4
		c0,0,0.4,3-2.8,3h0h-35.2c0,0-7.1,2-7.2-24.1l0.1-11.5v-18.1L491.4,894.1z M386.7,715c1.8-0.1,2.8-0.3,4.3-0.2
		c2.4-0.2,4.2,1.5,4.1,3.3l-0.1,49.6l0,0v101.9c0,0,1.9,19.3,5.7,24.7c0,0,1.5,1.7,1.6,4.4v0.4c0,0,0.4,3.1-2.9,3.1h-36.6
		c0,0-8.3,0.3-8.2-25.7V746.1C354.7,746.1,350.9,719.2,386.7,715z M357,681.5c0-17.4,2.3-25.7,19.8-25.7c14.8,0,20.5,5.1,20.5,25
		c0,20.9-6,25-20.5,25C363.3,705.9,357,702.6,357,681.5z M932.4,902.2h-22.5c0,0-5.5,0.9-6.3-6.7c-12,9.8-30.6,10.1-30.6,10.1
		l-17.6-0.2c-10-0.8-34.9-3.1-37.6-31.6c-0.7-7.4-0.7-13.4-0.7-23.3c0-33.7,5.1-41.4,21.2-49.5c12.1-6.1,40.8-19.5,44.3-21.3
		c3.7-1.8,5.4-4.3,5.4-8v-21.9c0-6.2-0.3-12.5-15.8-12.6c-15.2-0.1-15.4,6.8-15.4,12.9v19.3c-0.5,3.5-3.3,6.2-6.8,6.6h-22.9
		c-3.6-0.4-6.4-3.2-6.8-6.8v-18.5c0-18.7,14.7-35.7,51.6-35.7c36.2,0,56.1,11.9,56.1,56.7v99.2c0,0,0.3,19.5,5.4,23.2
		c0,0,1.8,2.2,1.9,4.8v0.4C935.2,899.2,935.5,902.2,932.4,902.2z M942.8,707.1c-4.3,4.2-9.4,6.3-15.5,6.4
		c-5.9,0.2-11.7-2.1-15.9-6.2c-4.3-4.1-6.5-9.3-6.6-15.6c-0.1-6.4,2.2-11.8,6.8-16.1c4.4-4,9.4-6,15.3-6.1c6.1,0,11.4,2,15.8,6.4
		c4.4,4.2,6.6,9.4,6.7,15.5C949.4,697.3,947.1,703,942.8,707.1z M953.8,666.9L953.8,666.9c-5.6-7.4-12-12-24.6-12.3
		c-3.4-0.1-6.6,0.7-9.6,1.7c0.5-18,0.7-36.5,0.5-55.5C916.4,261.5,801.5,75.4,494.2,78.6C186.8,81.8,76,270.3,79.6,609.5
		c0.1,11.4,0.4,22.8,0.8,34.2c-16.4,6.8-27.9,14.7-33,29c-1.3-21.2-2-40.3-2.3-62.7C41.2,249.1,172.3,48.8,493.8,45.4
		c321.5-3.3,457,194.2,460.9,554.9C954.9,623.2,954.6,645.3,953.8,666.9z"/>
	<path class="st0" d="M468,331c2.6,1.8,11.6,2.4,15.4-4c1.4-2.4,0-8.2,2.2-9.2c6.4-0.1,7.2,4,7.8,6.3c0.4,1.4-1,7-0.5,8.8
		c0,1.5,2.6,1.9,3.2-2.6c0.2-1.9,1.2-3.8,0.5-6.6c-0.7-2.8-3.4-8.1-8.7-9c-3.9-0.9-7.1,1.6-9.1,2.2v0c-2.9,1.1-0.5,4.8-9.2,1.7
		c-1.7,1.1,2.5,4.7,1.4,5.8c-0.8,0.6-3.8,2.2-8,1.6C457.8,325.2,463.8,328.4,468,331z"/>
	<path class="st0" d="M357.2,436L357.2,436c7.8,1.1,15.2,0.9,22.2,5.5c10.1,6.5,19,5.5,26.8,5.5c8.2-0.5,17.5-6.6,29.4-0.1
		c8.6,2.9,10.9,3.1,14.7-2c3.1-4.1,4.6-10.6-3.6-14.6c-7.9-3.6-13.2-4-23.8-5.8c-10-1.6-19.1,0.6-24.8-2.2c-8.6-4.7-29.9-7.4-38-4
		c-7.9,3.1-7.1,4.2-9.7,6.8C347.5,428.4,346.6,434.5,357.2,436z"/>
	<path class="st0" d="M337.6,462.3c9.9,1.7,22,2.9,31.8,8.3c10,5.8,21.3,7.6,30.6,7.1c9.6-0.9,17.8,1.5,28.3,2.3
		c11.2,0.8,19.6-0.5,23-5.4c3.3-4.9,1-13.7-6.8-17.7c-8.2-4.4-13.2-6.3-21.3-5.8c-8.3,0.4-10.4,5.1-16,5.9c-5.2,0.4-11.1,1-21.2-5.5
		c-10.9-7.2-25.7-10-35.4-8.8c-5.6,0.4-15.7,3.4-20.1,9.4h0C326,458.1,331.7,461.4,337.6,462.3z"/>
	<path class="st0" d="M422.3,371.5c-0.6,3.1-1.8,7-1.8,10.3c0,3,6,5.9,8.9,1.1c2.6-4.4,1.1-8.6,1.1-10.4
		C430,368.5,423.8,363.4,422.3,371.5z"/>
	<path class="st0" d="M298,488.3L298,488.3c-2.5,7.1,1.8,14.9,11.7,15.1c7.4,0.2,12.1-3.2,17.3-4.7c4.9-1.1,14.9-0.1,21.7,4.9
		c6.8,5.1,24.5,14.1,38.2,13.9c7.1-0.1,23.1-0.4,37.3,10.1c4.5,3.3,18.4,16.3,32.1,5.5c10-8,7.3-13.7,5-21.4
		c-2.7-9.4-17.6-16.1-22.1-19c-6.4-4.3-17.7-6.8-34-2.3c-6.5,1.8-18.4,2-31.6-5.9c-13.5-8.3-18-11.2-26.2-13.4
		c-8.6-2.5-23.6-0.2-30.6,2.4C311.6,475.4,300.6,481.2,298,488.3z"/>
	<path class="st0" d="M545.5,194.7c4.8-1.2,18.4-4.7,22.1-6.5c3.7-1.9,2.4-5.2,2.4-7c0-1.9,0.2-16.2,0.5-22.8
		c-0.1-6.2-5.9-13.9-11.6-2.7c-4,7.9-12.2,28.1-15.5,34.7C539.4,198.1,541,195.5,545.5,194.7z"/>
	<path class="st0" d="M372,228.3c-4-8,1.2-14.3-12.6-14.5c-20.9-0.9-29.1,2.8-41,10.6c-7,4.5-15,12.5-17.1,15.9
		c-5.2,7.4,0.5,15.8,10.9,12.3l0,0c6.7-1.9,15.6-6.8,23.8-7.9c8.6-1.6,20.8-4.3,29-4.5C373.5,240.1,376.6,237.4,372,228.3z"/>
	<path class="st0" d="M505.1,206.1c3,0.7,10.1,2.9,12.3,3.6c2.2,0.7,5.2,1.4,6.7-0.9c1.5-2.2,11-18.1,17.2-31.4
		c5.1-11.5-3.9-19.1-10.5-12.8h0c-6.6,6.4-22.8,28.2-25.3,31.9C502.8,200.2,498,204,505.1,206.1z"/>
	<path class="st0" d="M451.5,196.7c1.5,4,9.6,16.5,11.1,18.3c1.5,1.9,2.6,0.4,3.3,0.3c1.1-0.4,5.8-3.7,7.7-4.1c2.2-0.7,7-3,8.1-3.1
		c1.4,0,1.4-4.7,2.1-5.4c0.4-0.3,13.9-12,15.3-13.8c1.8-2.2,5.1-7.3-3.8-10.2c-7.9-2.6-13.1-3.7-26.2-0.2
		c-6.1,1.6-11.7,4.7-16.2,9.1C451,190.1,450.4,193.6,451.5,196.7L451.5,196.7z"/>
	<path class="st0" d="M393.2,237.2c1.9,3,2.6,4.8,4.5,4.8c2.3,0,31.1,4.5,33.7,4.5c2.6-0.1,9.8-0.5,11-1.2
		c1.5-1.1,5.7-10.4,6.8-12.3c1.1-1.8,0.4-8.7,0.4-10.9c-0.1-2.2-6.2-24.9-21.5-34.6c-4.9-3.3-19.7-11.4-29.7-5.5
		c-9.6,5.6-15.1,11.6-14.7,24.4C384.2,219.4,389.1,231.8,393.2,237.2z"/>
	<path class="st0" d="M372.7,200.4c1.1-4.8,0.7-8.1-3.1-10c-9.4-4.6-37.7-7.3-44.8-5.8c-4.8,0.8-6.6,3.8-7.8,5.6h0
		c-1.1,1.9,0.1,7.4,3.4,8.5c3.4,1.1,37,6.2,42.2,6.9C368,206.3,371.4,205.5,372.7,200.4z"/>
</g>
</svg>
