<?xml version="1.0" encoding="UTF-8"?><svg id="Layer_2" xmlns="http://www.w3.org/2000/svg" viewBox="0 0 70.66 20.19"><defs><style>.cls-1{fill:#231f20;stroke-width:0px;}</style></defs><g id="Layer_1-2"><path class="cls-1" d="m10.27,0c3.67,0,6.23,1.79,7.06,2.38l-1.12,1.52s-2.1-1.95-5.83-1.95C4.06,1.95,2.06,7.44,2.06,10.25s2.14,8.04,8.69,8.04c2.85,0,5.29-2.02,5.29-2.02l1.4,1.56s-3.1,2.35-7.02,2.35C3.58,20.19,0,14.77,0,10.1S3.79,0,10.27,0"/><polygon class="cls-1" points="18.31 .4 20.38 .4 20.38 18.02 28.1 18.02 28.1 19.77 18.31 19.77 18.31 .4"/><polygon class="cls-1" points="28.94 .4 39.27 .4 39.27 2.15 31 2.15 31 9.21 39.27 9.21 39.27 10.96 31 10.96 31 18.02 39.27 18.02 39.27 19.77 28.94 19.77 28.94 .4"/><polygon class="cls-1" points="55.81 19.77 57.88 19.77 49.61 .4 48.06 .4 39.63 19.77 41.69 19.77 44.27 13.65 51.5 13.65 51.5 11.93 45 11.93 48.77 2.98 55.81 19.77"/><path class="cls-1" d="m58.37.4v19.37h2.06V2.15h3.06c.88,0,3.81.5,3.81,3.44s-2.19,3.63-4.03,3.63h-2.47l7.31,10.56h2.53l-6.38-8.81s5.09-.25,5.09-5.09-3.59-5.47-6.06-5.47h-4.94Z"/></g></svg>