<?xml version="1.0" encoding="utf-8"?>
<!-- Generator: Adobe Illustrator 25.0.1, SVG Export Plug-In . SVG Version: 6.00 Build 0)  -->
<svg version="1.0" id="Layer_1" xmlns="http://www.w3.org/2000/svg" xmlns:xlink="http://www.w3.org/1999/xlink" x="0px" y="0px"
	 viewBox="0 0 235 166" style="enable-background:new 0 0 235 166;" xml:space="preserve">
<style type="text/css">
	.st0{fill:#99845D;}
	.st1{fill:none;}
</style>
<path class="st0" d="M33,52.1c3.6-0.1,7.2,0,10.8,0l0.2,0.2c-0.1,15.3,0,30.5,0,45.8c5.9,0.1,11.8,1.1,17.4,3
	c5.8,2.3,11.7,4.2,17.8,5.8c5.8,1.4,11.7,2.2,17.6,2.5c-0.1,1.5-0.1,2.9,0,4.4c-8.5-0.3-16.9-1.5-25.2-3.6
	c-12.6-2.9-25.6-4.3-38.5-2.8C33,89,33,70.6,33,52.1 M72.5,52.1c3.7,0,7.4,0,11.1,0c0.2,9.7-0.3,19.4,0.2,29.1
	c0.4,5.1,2.1,10.4,6,14c1.7,1.5,3.7,2.7,5.9,3.4c-0.3,1.6-0.1,3.2,0.4,4.7c-3.6-0.3-7.3-0.7-10.6-2.2c-3.9-1.7-7.3-4.6-9.5-8.2
	c-2.6-4.5-3.4-9.7-3.6-14.8C72.5,69.4,72.5,60.8,72.5,52.1L72.5,52.1z"/>
<path class="st0" d="M115.5,52.1c3.7-0.1,7.3,0,11,0l0.2,0.3c-0.1,8.9,0.1,17.8-0.1,26.8c-0.2,7.1-2.4,14.8-8.3,19.3
	c-6.3,4.5-14.5,5.6-22.1,5c-0.6-1.5-0.7-3.1-0.4-4.7c4,0.9,8.3,0.3,11.8-1.9c3.6-2.3,5.8-6.2,6.9-10.3c1-3.8,1.4-7.8,1.1-11.7
	C115.5,67.3,115.5,59.7,115.5,52.1 M122.2,105.3c6.1-2.8,11.4-7.1,16.1-11.8c2.1,2.1,0.9,5.3,1.6,7.9c-4.4,3.2-9.2,5.8-14.3,7.8
	c-9.1,3.9-19.2,5-29,4.8c0-1.5,0-2.9,0-4.4C105.3,109.9,114.3,109,122.2,105.3L122.2,105.3z"/>
<path class="st0" d="M135.4,52.1c4.1,0,8.3,0,12.4,0c4.4,4.6,8.6,9.4,13,14h0.3c3.8-4.7,7.5-9.5,11.4-14c4.1,0,8.2,0,12.2,0
	c-5.8,7-11.3,14.2-17.1,21.1v0.3c11.2,12.1,22.4,24.3,34.4,35.6v0.2c-5,0.8-10-0.4-14.1-3.3c-5.5-3.9-10.5-8.4-15-13.5
	c-3.7-4.1-7.5-8.1-11.2-12.2c-6.2,8-13.5,15-21.7,20.9c-0.7-2.6,0.5-5.8-1.6-7.9c3.9-3.9,7.2-8.3,10.7-12.5c2-2.5,4.2-5,6-7.7
	C148.4,66.3,142,59.1,135.4,52.1L135.4,52.1z"/>
<rect x="25" y="46" class="st1" width="185" height="74"/>
</svg>
