<?xml version="1.0" encoding="UTF-8" standalone="no"?>
<svg
   version="1.1"
   width="1664.7012"
   height="348.79688"
   xml:space="preserve"
   viewBox="0 0 1664.7012 348.79688"
   id="svg21308"
   xmlns="http://www.w3.org/2000/svg"
   xmlns:svg="http://www.w3.org/2000/svg"><defs
     id="defs15" /><path
     id="path747"
     d="m 1238.291,0.41992 v 51.46875 c 0,23.97323 8.5103,40.72588 28.1621,55.64258 l 104.252,65.79492 -104.252,66.07422 c -19.6518,14.91669 -28.1621,31.66935 -28.1621,55.64258 v 53.62232 h 106.9785 v -42.33521 c 0,-15.51743 -0.287,-13.69463 12.3633,-22.45703 l 93.627,-59.27149 94.0996,59.57227 c 12.6503,8.7624 12.3633,6.93765 12.3633,22.45508 v 42.03638 h 106.9785 v -53.62232 c 0,-23.97323 -8.5103,-40.72589 -28.1621,-55.64258 l -104.4727,-65.93555 104.4727,-65.93359 c 19.6518,-14.9167 28.1621,-31.66935 28.1621,-55.64258 V 0.41992 h -106.9785 v 39.88281 c 0,15.51743 0.287,13.69268 -12.3633,22.45508 l -94.0996,59.57227 -93.627,-59.27149 c -12.6503,-8.7624 -12.3633,-6.9396 -12.3633,-22.45703 V 0.41992 Z" /><path
     id="path2217"
     d="m 0,0 v 271.83594 c 0,42.70395 34.85743,76.96094 75.961,76.96094 H 349.18555 V 263.65039 H 126.09766 c -15.3242,0 -19.0586,-3.22454 -19.0586,-19.10937 V 0 Z" /><path
     id="path17947"
     d="m 285.80672,0.41997 v 51.46875 c 0,23.97323 8.51031,40.72588 28.16211,55.64258 l 131.80273,83.33398 V 348.57036 H 552.58211 V 190.48638 L 684.05476,107.5313 c 19.6518,-14.9167 28.16211,-31.66935 28.16211,-55.64258 V 0.41997 H 605.73836 v 39.88281 c 0,14.69214 -0.21298,13.69268 -12.86328,22.45508 l -93.90039,59.57227 -93.82617,-59.27149 c -12.6503,-8.7624 -12.36328,-6.9396 -12.36328,-22.45703 V 0.41997 Z" /><path
     id="path19064"
     d="m 823.78719,0.13481375 c -0.83817,-0.0113644 -1.65979,-0.004871 -2.46289,0.0195313 -61.63911,0.58226 -56.87233,68.81557895 -56.92188,71.13671895 v 62.091796 l 0.125,215.1875 H 871.33797 V 138.66997 l 208.07813,191.44922 c 19.1266,14.88941 34.6248,18.91496 49.8887,18.45117 61.6391,-0.58226 56.8723,-68.5148 56.9218,-70.83594 V 0.41997 H 1079.4161 V 216.1895 L 879.20569,26.229405 C 856.7389,5.5998874 839.59553,0.13481375 823.78719,0.13481375 Z" /></svg>
