<?xml version="1.0" encoding="utf-8"?>
<!-- Generator: Adobe Illustrator 28.3.0, SVG Export Plug-In . SVG Version: 6.00 Build 0)  -->
<svg version="1.1"
	 id="svg17636" xmlns:dc="http://purl.org/dc/elements/1.1/" xmlns:svg="http://www.w3.org/2000/svg" xmlns:cc="http://creativecommons.org/ns#" xmlns:rdf="http://www.w3.org/1999/02/22-rdf-syntax-ns#"
	 xmlns="http://www.w3.org/2000/svg" xmlns:xlink="http://www.w3.org/1999/xlink" x="0px" y="0px" viewBox="0 0 300 82.4"
	 style="enable-background:new 0 0 300 82.4;" xml:space="preserve">
<style type="text/css">
	.st0{fill:#7BFF47;}
</style>
<g id="layer1" transform="translate(-246.31275,-567.93263)">
	<path id="path15912" class="st0" d="M298.6,571.9c-0.7,0.9-1.2,1.9-1.2,3.6v47.7h-0.3c0,0-26.1-46.6-27.4-48.7
		c-0.9-1.5-1.9-2.6-3.2-3.4c-1.3-0.7-2.7-1.2-5.3-1.2h-8.6c-2,0-3.3,0.7-4.2,1.7c-0.7,0.9-1.2,1.9-1.2,3.6v67.6
		c0,1.7,0.4,2.7,1.2,3.6c0.9,1.1,2.2,1.7,4.2,1.7h4.9c2,0,3.3-0.7,4.2-1.7c0.7-0.9,1.2-1.9,1.2-3.6v-48.9h0.3c0,0,27.1,48,28.2,49.8
		c1.5,2.5,4.1,4.4,7.8,4.4h8.4c2,0,3.3-0.7,4.2-1.7c0.7-0.9,1.2-1.9,1.2-3.6v-61h109.8c1.1,0,1.9-0.3,2.6-0.8c0.7-0.6,1-1.5,1-2.7
		v-4.6c0-1.3-0.3-2.1-1-2.7c-0.6-0.5-1.5-0.8-2.6-0.8H302.7C300.7,570.1,299.5,570.8,298.6,571.9 M346.5,590
		c-18.2,0-28.5,14.2-28.5,29.3c0,16,11,30.1,28.6,30.1c8.8,0,17.4-3.3,22.3-9.1c2.2-2.5,3.9-6,3.9-8.2c0-0.7-0.2-1.4-0.6-1.8
		c-0.4-0.5-1.1-0.8-2.2-0.8h-8.5c-1.7,0-2.8,0.6-3.7,1.9c-2.5,3.6-6,5.5-11.3,5.5c-7.9,0-13-6-13.3-12.6h36.6c1.6,0,2.8-0.4,3.6-1.2
		c0.9-0.8,1.3-2.1,1.3-4.3c0-6.9-2.2-14-6.7-19.5C363.5,593.7,356.4,590,346.5,590 M402.9,590c-14.4,0-23.9,6.8-23.9,17.8
		c0,3.9,1.4,7,3.7,9.5c2.7,2.9,6.5,4.9,12.1,6.3l12,3c3.3,0.8,6.3,1.8,6.3,4.7c0,4.5-4.7,6-9.8,6c-2.5,0-5-0.5-7.2-1.5
		c-1.5-0.7-2.7-1.8-3.6-3.2c-0.8-1.2-1.1-2.1-2.3-2.8c-0.7-0.4-1.6-0.5-2.8-0.5H381c-1.4,0-2.1,0.4-2.6,1c-0.5,0.6-0.6,1.4-0.6,2.3
		c0,2.1,0.7,4.7,2.5,7.1c4,5.4,12.4,9.7,23,9.7c10.5,0,25.1-4.4,25.1-18.5c0-3.6-1.1-6.7-3-9.2c-2.5-3.2-6-5.4-12-6.9l-11.9-3.1
		c-4.9-1.3-7.3-2.2-7.3-5.2c0-2.9,2.6-5.3,8.7-5.3c3.6,0,6.8,0.8,8.9,3c1.7,1.8,1.4,2.8,2.8,3.5c0.8,0.4,1.8,0.4,3.3,0.4h5.9
		c0.9,0,1.6-0.2,2.2-0.7c0.4-0.5,0.7-1.2,0.7-2.4c0-2.7-1.8-6.3-4.9-8.9C417.5,592.4,410.9,590,402.9,590 M435.6,592h-2.9
		c-1.1,0-1.9,0.3-2.6,0.8c-0.7,0.6-1,1.5-1,2.7v3.6c0,1.3,0.3,2.1,1,2.7c0.6,0.5,1.5,0.8,2.6,0.8h2.9V629c0,6.7,1.8,10.9,5.3,14.3
		c3.2,3.1,7.3,5,14.4,5h4.5c1.1,0,1.9-0.3,2.6-0.8c0.7-0.6,1.1-1.5,1.1-2.7v-4.6c0-1.3-0.4-2.1-1.1-2.7c-0.6-0.5-1.5-0.8-2.6-0.8
		h-0.6c-2.8,0-4.8-0.7-6.1-2c-1.6-1.5-2.4-3.7-2.4-6.7v-25.2h9.6c1.1,0,1.9-0.3,2.6-0.8c0.7-0.6,1-1.5,1-2.7v-3.6
		c0-1.3-0.3-2.1-1-2.7c-0.6-0.5-1.5-0.8-2.6-0.8h-9.5v-17.1c0-1.4-0.4-2.4-1.1-3.2c-0.8-0.9-1.9-1.5-3.5-1.5h-5.9
		c-1.6,0-2.7,0.6-3.5,1.5c-0.6,0.8-1.1,1.8-1.1,3.2V592L435.6,592z M467.8,643.6c0,1.4,0.4,2.4,1.1,3.2c0.8,0.9,1.9,1.5,3.5,1.5h6.3
		c1.6,0,2.7-0.6,3.5-1.5c0.6-0.8,1.1-1.8,1.1-3.2v-68.8c0-1.4-0.4-2.4-1.1-3.2c-0.8-0.9-1.9-1.5-3.5-1.5h-6.3
		c-1.6,0-2.7,0.6-3.5,1.5c-0.6,0.8-1.1,1.8-1.1,3.2L467.8,643.6L467.8,643.6z M333.4,613c0.7-6.5,5.6-11.3,13.1-11.3
		c7.4,0,12.5,4.8,13.1,11.3H333.4z M540.1,581.9c1.1,0,1.9-0.3,2.6-0.8c0.7-0.6,1-1.5,1-2.7v-4.9c0-1.9-0.4-2.8-1-3.5
		c-0.6-0.6-1.5-1-2.6-1c-0.8,0-1.7,0.1-3.1,0.3l-41.9,4.2c-1.2,0.1-1.8,0.5-2.2,0.9c-0.5,0.5-0.7,1.2-0.7,2.2v2.7
		c0,1.1,0.2,1.5,0.6,1.9c0.5,0.5,1.2,0.8,2.1,0.8L540.1,581.9L540.1,581.9z M516.9,590c-18.2,0-28.5,14.2-28.5,29.3
		c0,16,11,30.1,28.6,30.1c8.8,0,17.4-3.3,22.3-9.1c2.2-2.5,3.9-6,3.9-8.2c0-0.7-0.2-1.4-0.6-1.8c-0.4-0.5-1.1-0.8-2.2-0.8h-8.5
		c-1.7,0-2.8,0.6-3.7,1.9c-2.5,3.6-6,5.5-11.3,5.5c-7.9,0-13-6-13.3-12.6h36.7c1.6,0,2.8-0.4,3.6-1.2c0.9-0.8,1.3-2.1,1.3-4.3
		c0-6.9-2.2-14-6.7-19.5C534,593.7,526.9,590,516.9,590 M503.8,613c0.7-6.5,5.6-11.3,13.1-11.3c7.4,0,12.5,4.8,13.1,11.3H503.8
		L503.8,613z"/>
</g>
</svg>
