<?xml version="1.0" encoding="utf-8"?>
<!-- Generator: Adobe Illustrator 28.3.0, SVG Export Plug-In . SVG Version: 6.00 Build 0)  -->
<svg version="1.1" id="Layer_1" xmlns="http://www.w3.org/2000/svg" xmlns:xlink="http://www.w3.org/1999/xlink" x="0px" y="0px"
	 viewBox="0 0 900 399" style="enable-background:new 0 0 900 399;" xml:space="preserve">
<style type="text/css">
	.st0{fill:#7BFF47;}
</style>
<g transform="translate(0.000000,399.000000) scale(0.100000,-0.100000)">
	<path class="st0" d="M4510,3400c-19-5-73-16-120-25s-114-22-150-30c-197-39-419-80-515-95c-53-8-169-30-295-55c-41-8-102-20-135-25
		c-33-6-76-15-95-20c-34-9-154-31-345-65c-182-32-261-46-310-56c-27-5-108-21-180-35c-178-35-247-48-410-78c-77-14-176-32-220-40
		c-44-9-93-17-110-20c-55-8-244-44-465-89c-69-14-167-33-217-42c-51-10-93-23-93-29s18-54,41-106c22-52,44-104,49-115s27-60,50-109
		s53-115,67-145c13-31,28-65,33-76s18-42,30-70c27-63,38-89,90-199c22-49,59-132,81-185s55-127,74-166c58-122,92-198,130-290
		c20-49,61-139,90-200c29-60,63-135,75-165c31-77,35-86,74-173l36-77h2835h2836l15,38c9,20,24,55,33,77c10,22,31,69,46,105
		c16,36,50,112,77,170c65,140,72,156,98,220c12,30,39,91,60,135c47,99,83,178,114,253c13,31,43,97,66,147c23,49,52,112,65,140
		c13,27,42,95,65,150c24,55,62,143,87,195c24,52,48,104,53,115s23,51,39,88c17,38,31,71,31,74s16,39,35,80s35,81,35,89
		c0,15,1,15-155,45c-168,32-243,46-330,64c-107,22-228,44-295,54c-30,5-80,13-110,19s-109,21-175,33c-66,11-163,30-215,41
		c-193,39-390,77-460,87c-30,5-80,13-110,20c-30,6-120,22-200,37c-80,14-176,32-215,39c-66,13-103,20-305,60c-104,21-226,43-300,54
		c-30,5-107,19-170,31c-261,48-337,63-495,95c-156,32-171,34-225,33C4570,3408,4529,3404,4510,3400z M7552,2408c-2-36-11-95-20-130
		l-17-63l-95,1c-52,0-185,4-294,9l-199,8l6-24c4-14,9-51,13-83l7-58l66,6c36,3,107,10,156,15c117,13,127,7,144-85c10-55,10-69-1-79
		c-7-7-67-29-133-50s-124-41-130-45c-5-4-23-10-38-14c-26-6-28-9-25-54l3-47l45,1c43,1,106,13,265,50c39,9,84,17,100,18
		c29,1,30-1,33-48c2-26-2-71-8-100c-6-28-15-77-20-110c-15-103,16-96-446-96c-374,0-404,1-413,18c-11,21-19,1002-8,1020
		c7,9,115,12,510,10l502-3L7552,2408z M5968,2458c7-9,6-45-4-118c-20-141-43-327-54-425c-4-44-11-104-15-132c-8-60-7-60,70-43
		c221,50,370,80,397,80c34,0,42-23,29-82c-5-23-17-79-26-123s-23-104-32-132l-15-53l-346-2c-460-3-450-4-458,5c-9,9-35,533-47,947
		l-2,75l70,6C5681,2473,5957,2471,5968,2458z M3744,2450c18-7,27-19,32-47c3-21,12-58,19-83s20-71,29-103c36-133,48-173,56-192
		c5-11,13-38,18-60c6-22,27-101,47-175c21-74,41-151,46-170c15-64,37-145,43-161c14-33-16-40-175-37l-154,3l-23,48l-22,47h-230
		c-254,0-236,4-283-70c-12-19-33-37-47-41c-31-9-273-11-294-3c-24,9-19,37,19,112c19,37,51,103,71,147s64,139,99,210
		c34,72,72,153,85,180c13,28,60,127,106,222l84,172l77,4C3526,2460,3720,2459,3744,2450z M5040,2435c104-45,177-113,212-198
		c50-123-11-287-128-347c-27-14-51-26-53-27c-4-2,35-87,120-256c38-76,69-145,69-152c0-8-9-19-19-25c-20-10-349-14-386-4
		c-11,3-78,77-150,164c-71,87-133,159-136,159c-3,1-15-67-25-150s-23-158-29-166c-9-12-44-16-166-21c-135-4-156-3-168,12
		c-9,11-16,70-22,194c-5,97-14,215-19,262s-10,117-10,156s-3,99-6,133l-7,61h-64c-48,0-65,4-69,15c-4,9-7,56-8,106c-1,70,2,92,14,99
		c9,7,199,9,510,7C4963,2455,4998,2453,5040,2435z M2663,2432c85-21,173-69,217-120c68-77,85-116,85-202c0-91-15-123-94-200
		c-109-106-244-153-481-167l-135-8l-7-85c-9-119-25-231-35-240c-4-4-71-10-149-14c-112-5-144-3-159,8c-17,12-21,36-31,157
		c-28,327-34,399-45,509c-6,63-13,121-15,128c-2,8-24,12-63,12c-49,0-62,4-71,19c-14,28-13,194,2,209C1699,2455,2593,2449,2663,2432
		z"/>
	<path class="st0" d="M3434,2023c-10-26-38-86-61-132c-23-47-39-89-37-93c7-11,192-10,199,2c3,5-6,49-19,97c-14,48-30,107-36,131
		c-6,23-14,42-19,42C3457,2070,3444,2049,3434,2023z"/>
	<path class="st0" d="M4616,2188c-14-45-26-112-26-143v-37l63,7c34,3,77,10,96,15c76,20,106,89,56,129
		C4761,2193,4624,2214,4616,2188z"/>
	<path class="st0" d="M2310,2165c-4-5-10-32-13-60c-4-27-9-63-13-79l-7-29l90,5c97,4,145,26,163,74c13,32,3,52-34,72
		C2460,2167,2322,2180,2310,2165z"/>
</g>
</svg>
