<?xml version="1.0" encoding="utf-8"?>
<!-- Generator: Adobe Illustrator 28.3.0, SVG Export Plug-In . SVG Version: 6.00 Build 0)  -->
<svg version="1.1"
	 id="svg3135" xmlns:dc="http://purl.org/dc/elements/1.1/" xmlns:inkscape="http://www.inkscape.org/namespaces/inkscape" xmlns:svg="http://www.w3.org/2000/svg" xmlns:sodipodi="http://sodipodi.sourceforge.net/DTD/sodipodi-0.dtd" xmlns:cc="http://creativecommons.org/ns#" xmlns:rdf="http://www.w3.org/1999/02/22-rdf-syntax-ns#"
	 xmlns="http://www.w3.org/2000/svg" xmlns:xlink="http://www.w3.org/1999/xlink" x="0px" y="0px" viewBox="0 0 1000 592.7"
	 style="enable-background:new 0 0 1000 592.7;" xml:space="preserve">
<style type="text/css">
	.st0{fill:#7BFF47;}
</style>
<sodipodi:namedview  bordercolor="#666666" borderopacity="1" fit-margin-bottom="0.5" fit-margin-left="0.5" fit-margin-right="0.5" fit-margin-top="0.5" gridtolerance="10" guidetolerance="10" id="namedview3137" inkscape:current-layer="g3143" inkscape:cx="757.85744" inkscape:cy="230.62652" inkscape:pageopacity="0" inkscape:pageshadow="2" inkscape:window-height="705" inkscape:window-maximized="1" inkscape:window-width="1366" inkscape:window-x="-8" inkscape:window-y="-8" inkscape:zoom="0.57106008" objecttolerance="10" pagecolor="#ffffff" showgrid="false">
	
		<inkscape:grid  empspacing="5" enabled="true" id="grid3456" originx="-1289.0269px" originy="-27.730108px" snapvisiblegridlinesonly="true" type="xygrid" visible="true">
		</inkscape:grid>
</sodipodi:namedview>
<g id="g3143" transform="matrix(1.25,0,0,-1.25,-1289.0269,620.40213)" inkscape:groupmode="layer" inkscape:label="Get_Old_Survey-Final">
	<path id="path3649" inkscape:connector-curvature="0" class="st0" d="M1210.6,337.5c0,14.6-7.6,19.9-21.7,19.9h-8.8l-29.3-99.6
		l10-0.6C1195.9,256.6,1210.6,308.2,1210.6,337.5 M1619.7,287.7c0,8.2-5.9,13.5-13.5,13.5c-18.2,0-24.6-29.9-28.1-43.4h35.2
		C1615.5,267.7,1619.7,277.7,1619.7,287.7 M1261.6,324.6c0-64.5-46.3-82.1-101.4-82.1h-13.5l-18.8-58h-49.2l49.8,172.3v0.6h-21.7
		l4.1,14.6l0.6,0.6h90.3C1234.6,372.7,1261.6,361.5,1261.6,324.6 M1536.4,310.5l-76.2-111.4l45.1-0.6l-4.7-14.1h-109l76.2,110.8
		h-44.5l4.7,15.2L1536.4,310.5z M1664.2,268.3c0-8.8-1.8-17.6-4.1-25.8h-86.7c-3.5-10.5-7.6-23.4-7.6-34.6c0-9.4,5.3-14.1,14.1-14.1
		c15.8,0,21.7,23.4,25.8,35.2h50.4c-9.4-31.6-43.4-51-75-51c-33.4,0-59.2,17-59.2,52.7c0,46.9,37.5,85.6,85,85.6
		C1636.6,316.4,1664.2,302.3,1664.2,268.3 M1831.2,259.6c0,174.1-263.7,236.8-400.9,236.8c-134.2,0-399.1-62.1-399.1-235
		c0-96.7,88.5-162.3,169.4-195.8h0.6l76.8,264.3c16.4,56.3,40.4,114.9,109,114.9c24,0,55.7-10.5,55.7-39.9
		c0-16.4-12.3-31.6-29.3-31.6c-14.1,0-25.8,11.1-25.8,25.2c0,17,12.9,25.2,28.1,25.8c-4.7,9.4-15.8,12.9-25.8,12.9
		c-46.9,0-57.4-94.9-66.8-126.6h85l-36.3-126h-49.2l32.2,110.2h-36.3l-49.2-167c-7.6-26.4-17.6-51.6-22.3-78.5
		c58.6-18.2,120.7-27,182.3-27C1565.7,22.2,1831.2,82,1831.2,259.6 M1808.4,288.9c0-14.7-11.7-27-26.4-27
		c-12.3,0-23.5,11.1-23.5,23.5c0,2.3,0.6,5.3,1.2,7.6h-1.2c-25.2-18.8-36.9-85.6-44-108.4h-49.2l32.2,110.2l-19.3,0.6l5.3,15.2h66.8
		l-6.4-22.3c8.8,13.5,22.9,24.6,39.9,24.6C1797.2,312.9,1808.4,302.3,1808.4,288.9"/>
</g>
</svg>
