<?xml version="1.0" encoding="UTF-8" standalone="no"?>
<!-- Generator: Adobe Illustrator 16.0.0, SVG Export Plug-In . SVG Version: 6.00 Build 0)  -->
<svg xmlns:dc="http://purl.org/dc/elements/1.1/" xmlns:cc="http://creativecommons.org/ns#" xmlns:rdf="http://www.w3.org/1999/02/22-rdf-syntax-ns#" xmlns:svg="http://www.w3.org/2000/svg" xmlns="http://www.w3.org/2000/svg" xmlns:sodipodi="http://sodipodi.sourceforge.net/DTD/sodipodi-0.dtd" xmlns:inkscape="http://www.inkscape.org/namespaces/inkscape" version="1.1" id="Layer_1" x="0px" y="0px" width="1000" height="844.34497" viewBox="0 0 999.99996 844.34496" enable-background="new 0 0 1190.55 841.89" xml:space="preserve" inkscape:version="0.91 r13725" sodipodi:docname="Rexona 2015.svg"><metadata id="metadata4145"><rdf:RDF><cc:Work rdf:about=""><dc:format>image/svg+xml</dc:format><dc:type rdf:resource="http://purl.org/dc/dcmitype/StillImage"/><dc:title/></cc:Work></rdf:RDF></metadata><defs id="defs4143"/><sodipodi:namedview pagecolor="#ffffff" bordercolor="#666666" borderopacity="1" objecttolerance="10" gridtolerance="10" guidetolerance="10" inkscape:pageopacity="0" inkscape:pageshadow="2" inkscape:window-width="1366" inkscape:window-height="705" id="namedview4141" showgrid="false" inkscape:zoom="0.46194719" inkscape:cx="691.57842" inkscape:cy="497.6639" inkscape:window-x="-8" inkscape:window-y="-8" inkscape:window-maximized="1" inkscape:current-layer="Layer_1"/>
<path d="m 231.66861,717.77555 c 0.68514,-27.0144 13.39826,-42.84346 36.29396,-42.84346 23.65433,0 34.22541,16.60345 34.22541,43.50497 l 0.0368,1.36765 -70.55612,0 0,-2.02916 z m -44.61274,14.83154 c 0,0 -0.11025,1.7719 -0.11025,8.67316 l 0,0.33076 c 0,6.83038 0.11025,8.30566 0.11025,8.30566 0,61.18206 33.89466,90.77426 78.25015,93.87707 36.4777,2.65655 61.83044,-9.00393 73.12079,-16.34882 l 0.0735,-35.1678 c -18.93187,11.69985 -40.28141,17.93434 -68.08595,15.31454 -26.68101,-2.58042 -38.06323,-20.03701 -38.81925,-47.78642 l 0.0709,-6.12425 113.63845,0 0.33338,-20.9584 c 0.90564,-60.92481 -25.57324,-94.13695 -77.67788,-94.13695 -50.6451,-0.003 -80.90407,33.35652 -80.90407,94.02145 m 487.65308,-73.50668 0,181.77427 44.72561,0 0,-159.63459 c 4.05833,-1.91629 12.5845,-6.56788 32.98902,-6.56788 20.40452,0 32.84201,14.35641 32.84201,43.43409 l 0,122.77101 44.68887,0 c 0,-7.08239 -0.14963,-123.17789 -0.14963,-123.17789 0,-50.58998 -30.25896,-79.00615 -79.07966,-79.00615 -39.22351,0 -62.47096,13.94952 -76.01622,20.40714 m -250.04397,44.53924 -32.84464,-60.92481 -49.68959,0 57.88238,98.34228 -57.88238,99.81756 49.68959,0 33.13864,-60.6623 33.2489,60.6623 49.65021,0 -57.65924,-99.81756 57.65924,-98.34228 -50.02034,-0.0367 -33.17277,60.96156 z m 121.99661,61.66244 c 0,0 -0.40426,-8.19278 -0.40426,-25.20573 0,-16.97621 0.40426,-22.32344 0.40426,-22.32344 0.59064,-26.49726 11.43997,-42.9537 33.06514,-42.9537 21.47817,0 32.10175,16.56932 32.76851,42.9537 0,0 0.37013,9.74157 0.37013,22.32344 0,12.54511 -0.37013,25.20573 -0.37013,25.20573 -0.66676,26.53139 -11.5161,42.95371 -33.06514,42.95371 -21.40204,0.003 -32.17787,-16.60345 -32.76851,-42.95371 m -44.54186,-32.58213 c 0,0 -0.18375,2.10267 -0.18375,9.03805 0,7.05089 0.18375,8.63379 0.18375,8.63379 0,59.85641 28.00929,93.9532 77.31037,93.9532 49.15408,0 77.64113,-33.98653 77.64113,-93.9532 0,0 0.0709,-1.58553 0.0709,-8.63379 0,-7.01151 -0.0709,-9.03805 -0.0709,-9.03805 0,-59.89316 -27.97254,-94.02669 -77.34712,-94.02669 -49.22496,0 -77.60438,33.91303 -77.60438,94.02669 M 0,580.71902 0,840.4363 l 47.880928,-0.0735 0,-223.69634 25.812125,0 c 38.911127,0 55.997587,20.73791 55.997587,47.85993 0,27.85967 -17.19671,48.63432 -55.960836,48.63432 l -4.906221,0 -7.602147,0 75.724844,127.27296 54.22567,0 -61.97482,-103.98876 6.19774,-2.7668 c 30.86798,-15.1308 42.5862,-42.47595 42.5862,-70.15186 0,-38.04487 -21.68029,-82.80986 -99.875307,-82.80986 L 0,580.71639 Z m 921.95199,227.79404 c -21.58842,-0.25726 -33.76341,-11.58698 -33.76341,-32.32488 0,-20.03701 13.98365,-30.58972 31.40349,-32.10175 19.77976,-1.77191 34.90792,1.84279 34.90792,1.84279 l 0,62.28983 c -7.45252,0.18375 -13.87339,0.29401 -22.06617,0.29401 l -10.48183,0 m -66.49517,-158.19344 0,35.16518 c 16.67958,-8.30304 35.53532,-12.36137 58.89565,-10.22458 21.54904,2.06592 36.64308,12.7315 39.04238,34.39342 0,0 -16.7557,-2.21292 -34.20704,-1.29152 -42.06907,1.6249 -75.61459,24.35784 -75.61459,67.82606 0,45.09575 33.5429,65.16951 77.38387,65.16951 36.20208,0 60.85393,-0.37013 78.30527,-0.37013 0,0 0.51714,-53.95267 0.51714,-78.70953 0,-24.9091 0.2205,-32.25399 0.2205,-32.25399 0,-61.40257 -36.53283,-88.38022 -80.55756,-90.92389 l -8.9278,-0.29663 c -24.3211,0 -42.99046,5.72261 -55.05782,11.5161" id="path4137" inkscape:connector-curvature="0" style="fill:#000000"/>
<path d="M 758.25644,6.0140027 C 745.26769,16.49583 682.09059,57.160493 442.80408,385.47561 c -1.77191,2.32579 -4.86947,7.04826 -9.37406,7.04826 l -7.67565,-3.43357 c -4.0032,-2.6198 -104.02551,-73.13916 -122.88388,-85.98091 -7.58377,-5.12935 -10.35057,-7.23202 -11.86523,-6.08749 -1.19965,1.07102 1.21803,5.3131 5.03748,11.43734 3.57794,5.79349 49.22757,82.43972 89.24647,157.64481 34.04429,64.24549 60.79618,117.23739 61.97483,119.45031 3.69082,7.12176 6.5705,12.54512 10.46083,12.54512 5.70161,0 6.84613,-5.53098 10.38995,-14.3144 3.70657,-8.96718 103.00962,-282.15097 295.01109,-573.452869 2.87706,-4.4284604 6.27387,-9.33730555 5.01647,-10.22194765 L 767.8825,1.1151563e-5 c -1.35977,0 -5.71473,3.136935748437 -9.62606,6.013991548437" id="path4139" inkscape:connector-curvature="0" style="fill:#000000"/>
</svg>