<?xml version="1.0" encoding="utf-8"?>
<!-- Generator: Adobe Illustrator 27.9.0, SVG Export Plug-In . SVG Version: 6.00 Build 0)  -->
<svg version="1.1" id="Layer_1" xmlns="http://www.w3.org/2000/svg" xmlns:xlink="http://www.w3.org/1999/xlink" x="0px" y="0px"
	 viewBox="0 0 2500 2500" style="enable-background:new 0 0 2500 2500;" xml:space="preserve">
<style type="text/css">
	.st0{fill-rule:evenodd;clip-rule:evenodd;}
	.st1{fill-rule:evenodd;clip-rule:evenodd;fill:#FFFFFF;}
</style>
<path class="st0" d="M2286.3,1030c-89.5-89.5-233-165.1-414.9-218.8c-184.6-54.4-399.5-83.2-621.5-83.2
	C949,728,665.6,780.3,452,875.3c-220.4,98.1-341.8,231.1-341.8,374.5c0,77.3,34.8,151.3,103.4,220
	c89.5,89.5,232.9,165.1,414.9,218.8c184.6,54.4,399.5,83.2,621.4,83.2c222,0,436.9-28.8,621.5-83.2
	c181.9-53.6,325.3-129.3,414.9-218.8c68.6-68.6,103.4-142.6,103.4-220S2354.9,1098.7,2286.3,1030z M1250,1718.5
	c-432.7,0-824.6-112.4-998.6-286.3c-58.3-58.2-87.8-119.6-87.8-182.2c0-62.7,29.5-124,87.8-182.2c174-173.9,565.9-286.3,998.6-286.3
	s824.7,112.4,998.6,286.3c58.3,58.2,87.8,119.6,87.8,182.2C2336.4,1504,1838.9,1718.5,1250,1718.5z"/>
<path class="st0" d="M498.8,1413.4c56.7,35.6,110,31.1,110,31.1c164.5,0,170.1-133.4,170.1-132.3c3.3-54.5-30-86.7-52.2-102.3
	c-22.2-15.6-111.2-52.2-111.2-52.2c-36.7-14.4-36.7-48.9-36.7-48.9c0-82.3,87.8-85.6,87.8-85.6c94.5,1.1,105.7,114.1,111.2,127.8
	c4.4,11.1,13.3-1.1,13.3-1.1s48.9-143.4,55.6-159c6.7-15.6-11.1-11.1-11.1-11.1c-27.8,18.9-70,33.3-70,33.3
	c-36.7-32.1-95.6-31-95.6-31s-170.1,3.3-170.1,155.6c0,0,1.1,74.5,75.6,98.9c88.9,33.3,117.8,64.5,117.8,87.8s-18.9,80-81.2,80
	c0,0-125.6-11.1-125.6-147.8c0,0-3.3-16.7-7.8-3.3c-4.4,13.3-62.3,176.8-62.3,176.8s-3.3,14.4,13.3,7.8S492.2,1410.1,498.8,1413.4z
	 M1816.5,1417.6c0,0-2.3,10,9.3,5.4c11.6-4.6,43.3-19.3,47.9-17c39.4,24.7,76.5,21.6,76.5,21.6c136.6-0.2,131-91,131-90.3
	c2-28.8-11.1-56.6-34.6-73.3c-15.4-10.8-92.3-37.4-92.3-37.4c-25.5-10.1-19.9-30.1-19.9-30.1c3.3-46.6,58.3-45,58.3-45
	c65.7,0.8,78.3,72.7,80.6,82.7s9.3-0.8,9.3-0.8s37.9-111.9,42.5-122.7c4.6-10.8-7.7-7.7-7.7-7.7c-19.3,13.1-51.5,29.3-51.5,29.3
	c-32.7-20.7-84.2-19.4-84.2-19.4s-111.6,4.5-111.6,110.4c0,0,0.8,51.7,52.5,68.8c61.8,23.2,93.5,38.1,93,61
	c-0.3,16.2-17.6,37.8-60.8,37.8c0,0-71.7-3.3-89.5-93.9c0,0-6.8-11.5-10.2-1.5C1851.7,1305.6,1816.5,1417.6,1816.5,1417.6
	L1816.5,1417.6z"/>
<path class="st0" d="M982.4,1118.8c-13.3,0.6-182.3,34.5-182.3,213.4c0,0-3.3,105.6,125.6,105.6c0,0,78.9,3.3,131.2-80
	c0,0,7.8-13.3-4.4-13.3c0,0-40,46.7-107.8,46.7c0,0-61.1,5.6-61.1-64.5c0-70,53.4-169,98.9-169c45.5,0,72.3,46.7,71.2,100
	c0,0,0,6.7,5.6,6.7s6.7-5.6,11.1-17.8c4.4-12.2,41.1-114.5,41.1-114.5s4.4-12.2-4.4-12.2c-8.9,0-40,20-40,20s-3.3,6.7-21.1-3.3
	C1027.9,1126.6,1005.7,1117.7,982.4,1118.8L982.4,1118.8z"/>
<path class="st0" d="M1261.4,1122.2c-27.8,0.6-181.2,27.8-181.2,206.8c0,0,4.6,98.2,122.1,104.2c50.5,0.6,193.6-50.8,194.7-192
	C1398.2,1094.4,1261.4,1122.2,1261.4,1122.2z M1313.6,1204.4c0,62.3-51.1,191.2-106.7,191.2s-46.7-57.8-46.7-57.8
	c15.6-133.4,90.1-184,121.2-182.3C1318.1,1157.5,1313.6,1204.4,1313.6,1204.4z"/>
<path class="st0" d="M1634.9,1127.7h-70.3c8.6-28.7,14.7-48.9,14.7-48.9s3.3-11.1-5.6-10l-145.6,96.7c0,0-5.6,7.8,10,7.8h22.2
	c0,0,5.6,4.4,2.2,16.7c-3.3,12.2-38.9,131.2-41.1,145.6s-8.9,90,71.2,90c0,0,86.7,6.7,117.8-61.1c0,0,6.7-16.7-5.6-7.8
	c-12.2,8.9-18.9,23.4-60,23.4s-43.3-36.7-35.6-65.6c4.3-15.9,24.9-85.1,42.7-144.5c21.4,0.1,61,0.2,67.4,0c13.9-0.4,15-8.8,15-8.8
	s3.9-19,5-25.7C1640.4,1128.8,1634.9,1127.7,1634.9,1127.7L1634.9,1127.7z M1850,1127.7h-70.3l14.7-48.9c0,0,3.3-11.1-5.6-10
	l-145.6,96.7c0,0-5.6,7.8,10,7.8h22.2c0,0,5.6,4.4,2.2,16.7c-3.3,12.2-38.9,131.2-41.1,145.6s-8.9,90,71.1,90
	c0,0,86.7,6.7,117.8-61.1c0,0,6.7-16.7-5.6-7.8c-12.2,8.9-18.9,23.4-60,23.4s-43.4-36.7-35.6-65.6c4.3-15.9,24.9-85.1,42.6-144.5
	c21.4,0.1,61,0.2,67.4,0c13.9-0.4,15-8.8,15-8.8s3.9-19,5-25.7C1855.6,1128.8,1850,1127.7,1850,1127.7L1850,1127.7z M2081.5,1422.2
	c0-25.3,20.5-44,44.8-44c24,0,44.6,18.7,44.6,44c0,25.6-20.5,44.3-44.6,44.3C2102.1,1466.5,2081.5,1447.8,2081.5,1422.2z"/>
<path class="st1" d="M2126.3,1459.1c20,0,35.7-15.6,35.7-36.9c0-20.9-15.8-36.6-35.7-36.6c-20.2,0-35.9,15.8-35.9,36.6
	C2090.4,1443.5,2106.1,1459.1,2126.3,1459.1z"/>
<path class="st0" d="M2117,1447.8h-7.7v-50.9h19.4c12,0,18,4.4,18,14.5c0,9.1-5.7,13.1-13.2,14l14.5,22.4h-8.6l-13.4-22h-8.9
	L2117,1447.8L2117,1447.8z"/>
<path class="st1" d="M2126.2,1419.2c6.5,0,12.4-0.5,12.4-8.3c0-6.3-5.7-7.5-11.1-7.5H2117v15.8H2126.2z"/>
</svg>
