<?xml version="1.0" encoding="UTF-8"?><svg id="Layer_2" xmlns="http://www.w3.org/2000/svg" viewBox="0 0 670.13 371.77"><defs><style>.cls-1{fill:#000;stroke-width:0px;}</style></defs><g id="Layer_1-2"><path class="cls-1" d="M246.7,178.6l-.65,111.89c.26,14.29-1.93,24.9,17.18,33.78,11.55,5.37,29.54,4.44,46.91.97,0-35.11,1.54-136.3,1.54-136.3-3.02-5.67-8.97-3.69-12.54-9.08-7.49-11.28-4.4-27.2-13.7-36.35-5.52,7.97-10.05,17.82-19.9,20.95-11.72,3.73-25.75,1.89-37.18-1.68-.45-18.92,6.58-31.96,22.36-41.26-8.73-5.78-21.4-11.83-25.01-22.48-3.67-10.84,4.46-19.16,5.14-29.46.43-6.44-3.56-11.33-4.02-17.62-.38-5.08,1.84-9.5,2.53-14.42,1.64-11.71-9.09-26.74-1.78-36.87,17.31-5.93,41.79,28.29,49.4,40.42,13.23,21.08,16.16,41.97,19.02,66.3,6.76,3.51,13.85-11.43,17.96-15.31,8.18-7.72,18.83-11.76,29.75-13.79,11.41-2.12,23.23-.58,34.53-2.69,10.62-1.98,12.26-10.21,17.41-18.92,8.3.19,9.2,11.99,5.02,18.53-3.55,5.55-9.74,11.21-12.16,17.57-1.95,5.13-2.51,12.6-5.02,17.57-2.71,5.37-9.6,8.09-13.9,11.97-4.7,4.24-10.39,12.01-15.33,15.88-8.02,6.28-31.49-1.17-35.06,6.32,4.05,6.89,14.29,21.04,7.34,32.06l52.21.75,1.28,174.96c-13.53,7.62-32.3,6.75-47.46,7.74-19,1.24-47.09-1.09-66.08-2.77-32.52-2.89-65.83-10.08-78.77-32.24-6.56-7.92-4.26-22.23-4.29-37.65-.03-15-.24-73.46-.33-97.88-.02-5.97,4.81-10.82,10.77-10.83l52.8-.09Z"/><path class="cls-1" d="M150.68,153.61c-18-14.68-36.52-27.68-61.2-21.04-20.21,5.44-28.17,32.17-12.36,46.72,17.18,15.8,41.47,25.5,58.88,41.31,8.42,7.65,16.46,16.8,20.85,27.41,3.21,7.75,5.42,18.13,5.21,30.31-.41,23.65-6.11,42.35-24.32,58.5-16.88,14.97-38.36,21.27-60.62,22.2-22.91.96-45.23-1.51-62.94-16.22-15.25-12.67-17.76-41.53-9.65-59.07,20.38,10.38,40.21,23.68,64.09,20.66,20.37-2.58,31.82-28.6,19.68-44.45-13.25-17.3-38.51-23.4-55.03-37.1-16.98-14.09-30.08-33.02-31.06-55.32C.26,123.23,36.25,88.61,78.18,83.57c21.15-2.54,40.86-.92,58.21,12.9,18.04,14.36,25.33,36.57,14.29,57.14Z"/><path class="cls-1" d="M668.9,147.6c-13.59-10.32-37.42-17.94-54.15-11.55-17.35,6.62-24.53,26.04-21.59,42.08,16.99.45,36.31,1.3,53.09,1.74,1.12,16.66,2.52,32.93-17.57,37.65-7.78,1.82-36.1,2.12-36.1,2.12l-2.03,152.13c-20.37-15.15-46.53-22.39-62.06-22.59,0,0-.09-152.16.13-171.32.19-16.96.67-33.77,9.72-48.7,16.57-27.33,43.74-38.91,79.01-37.44,17.36.72,30.79,2.81,43.37,15.96,5.4,5.64,8.65,10.73,9.27,18.63.39,5-.1,13.39-1.09,21.3Z"/><path class="cls-1" d="M398.69,180.21c19.5-6.09,37.97-9.66,58.56-8.83,19.02.76,35.77-.44,52.9,8.83-2.69,13.22-3.74,25.24-9.31,37.12-12.82-3.99-25.44-5.28-37.11-.39,0,41.11,1.13,88.44,1.13,128.96-22.2-2.05-50.22-1.76-67.72,5.92l1.57-171.61Z"/></g></svg>