<?xml version="1.0" encoding="UTF-8" standalone="no"?>
<!-- Created with Inkscape (http://www.inkscape.org/) -->

<svg
   width="48.147991mm"
   height="7.5979881mm"
   viewBox="0 0 48.147991 7.5979881"
   version="1.1"
   id="svg975"
   inkscape:version="1.2.1 (9c6d41e410, 2022-07-14)"
   sodipodi:docname="Logo of Swedish Match.svg"
   xmlns:inkscape="http://www.inkscape.org/namespaces/inkscape"
   xmlns:sodipodi="http://sodipodi.sourceforge.net/DTD/sodipodi-0.dtd"
   xmlns="http://www.w3.org/2000/svg"
   xmlns:svg="http://www.w3.org/2000/svg">
  <sodipodi:namedview
     id="namedview977"
     pagecolor="#ffffff"
     bordercolor="#000000"
     borderopacity="0.25"
     inkscape:showpageshadow="2"
     inkscape:pageopacity="0.0"
     inkscape:pagecheckerboard="0"
     inkscape:deskcolor="#d1d1d1"
     inkscape:document-units="mm"
     showgrid="false"
     inkscape:zoom="2.1058703"
     inkscape:cx="222.47334"
     inkscape:cy="11.871577"
     inkscape:window-width="1920"
     inkscape:window-height="1011"
     inkscape:window-x="0"
     inkscape:window-y="0"
     inkscape:window-maximized="1"
     inkscape:current-layer="layer1" />
  <defs
     id="defs972" />
  <g
     inkscape:label="Layer 1"
     inkscape:groupmode="layer"
     id="layer1"
     transform="translate(-40.472366,-26.122072)">
    <path
       d="m 88.620356,33.201053 c 0,0.261408 -0.222603,0.481894 -0.484011,0.481894 -0.27305,0 -0.481542,-0.210961 -0.481542,-0.481894 0,-0.265642 0.215547,-0.481189 0.481542,-0.481189 0.272344,0 0.484011,0.208492 0.484011,0.481189 m -0.881592,-0.0046 c 0,0.219428 0.178506,0.409575 0.397581,0.409575 0.221544,0 0.396875,-0.180622 0.396875,-0.399697 0,-0.22225 -0.175331,-0.410281 -0.396875,-0.410281 -0.219075,0 -0.397581,0.180975 -0.397581,0.400403 m 0.493184,0.282575 -0.156986,-0.248356 h -0.0074 v 0.248356 h -0.09737 v -0.563033 h 0.170744 c 0.134761,0 0.188383,0.05574 0.188383,0.141111 0,0.0956 -0.05927,0.153458 -0.149225,0.163689 0.01164,0.01482 0.03422,0.04621 0.05574,0.08043 l 0.117122,0.1778 z M 88.131759,32.99362 h -0.06421 v 0.173566 h 0.03951 c 0.09031,0 0.119239,-0.0515 0.119239,-0.09772 0,-0.05327 -0.02434,-0.07585 -0.09454,-0.07585"
       style="fill:#005678;fill-opacity:1;fill-rule:nonzero;stroke:none;stroke-width:0.352778"
       id="path694"
       sodipodi:nodetypes="csssccssscccccccsscccccccssc" />
    <path
       d="m 44.993918,27.294002 0.861836,0.670278 -0.291747,1.033639 0.923219,-0.588786 0.922514,0.588786 -0.291394,-1.033639 0.861836,-0.670278 -1.103136,-0.05009 -0.38982,-1.002595 -0.390525,1.002595 z m 2.488142,1.800225 -0.994834,-0.634294 -0.995186,0.634294 0.314325,-1.114778 -0.929569,-0.722136 1.189566,-0.05433 0.420864,-1.080911 0.420511,1.080911 1.189567,0.05433 -0.929569,0.722136 z"
       style="fill:#005678;fill-opacity:1;fill-rule:nonzero;stroke:none;stroke-width:0.352778"
       id="path698"
       sodipodi:nodetypes="cccccccccccccccccccccc" />
    <path
       d="m 44.994376,27.294002 1.49225,0.470606 v 0 l -0.389819,-0.521053 v 3.53e-4 z m 1.492603,0.470958 v 0.644525 l 0.922514,0.588081 z m 0,-3.52e-4 0.389819,-0.521406 -0.389819,-1.001889 v 0 z m 3.53e-4,0 v 0 l 0.631119,0.199672 0.861836,-0.670278 h -3.53e-4 z m -0.0011,0 h 3.53e-4 v 0 3.52e-4 l 3.53e-4,-3.52e-4 v 3.52e-4 0 l -0.922867,1.232959 0.291395,-1.033639 -3.53e-4,-7.06e-4 z"
       style="fill:#005678;fill-opacity:1;fill-rule:nonzero;stroke:none;stroke-width:0.352778"
       id="path702"
       sodipodi:nodetypes="cccccccccccccccccccccccccccccccc" />
    <path
       d="m 48.242189,27.294002 0.861836,0.670278 -0.291394,1.033639 0.922514,-0.588786 0.923219,0.588786 -0.291747,-1.033639 0.862189,-0.670278 -1.103136,-0.05009 -0.390525,-1.002595 -0.38982,1.002595 z m 2.488142,1.800225 -0.995186,-0.634294 -0.994481,0.634294 0.313972,-1.114778 -0.929216,-0.722136 1.189213,-0.05433 0.420512,-1.080911 0.420863,1.080911 1.189567,0.05433 -0.929569,0.722136 z"
       style="fill:#005678;fill-opacity:1;fill-rule:nonzero;stroke:none;stroke-width:0.352778"
       id="path706"
       sodipodi:nodetypes="cccccccccccccccccccccc" />
    <path
       d="m 48.242896,27.294002 1.491897,0.470606 v 0 h 3.53e-4 l -0.389819,-0.521053 v 3.53e-4 z m 1.49225,0.470958 v 0.644525 l 0.922867,0.588081 z m 0,-3.52e-4 0.390172,-0.521406 -0.390172,-1.001889 v 0 z m 3.53e-4,0 v 0 l 0.631472,0.199672 0.861836,-0.670278 h -3.53e-4 z m -7.06e-4,0 v 0 h 3.53e-4 l -3.53e-4,3.52e-4 3.53e-4,-3.52e-4 v 3.52e-4 0 l -0.922867,1.232959 0.291748,-1.033639 -3.53e-4,-7.06e-4 z"
       style="fill:#005678;fill-opacity:1;fill-rule:nonzero;stroke:none;stroke-width:0.352778"
       id="path710"
       sodipodi:nodetypes="ccccccccccccccccccccccccccccccccc" />
    <path
       d="m 51.492013,27.294002 0.861836,0.670278 -0.291747,1.033639 0.922867,-0.588786 0.923219,0.588786 -0.2921,-1.033639 0.862189,-0.670278 -1.103136,-0.05009 -0.390172,-1.002595 -0.390173,1.002595 z m 2.488142,1.800225 -0.995186,-0.634294 -0.994834,0.634294 0.313972,-1.114778 -0.929216,-0.722136 1.189566,-0.05433 0.420512,-1.080911 0.420511,1.080911 1.189566,0.05433 -0.929216,0.722136 z"
       style="fill:#005678;fill-opacity:1;fill-rule:nonzero;stroke:none;stroke-width:0.352778"
       id="path714"
       sodipodi:nodetypes="cccccccccccccccccccccc" />
    <path
       d="m 51.492365,27.294002 1.491897,0.470606 v 0 h 7.06e-4 l -0.390172,-0.521053 v 3.53e-4 z m 1.492603,0.470958 v 0.644525 l 0.922514,0.588081 z m 0,-3.52e-4 0.390172,-0.521406 -0.390172,-1.001889 v 0 z m 3.53e-4,0 v 0 l 0.631119,0.199672 0.861836,-0.670278 h -3.53e-4 z m -0.0011,0 v 0 h 3.53e-4 3.53e-4 l -7.06e-4,3.52e-4 7.06e-4,-3.52e-4 v 3.52e-4 0 l -0.922867,1.232959 0.291747,-1.033639 -7.05e-4,-7.06e-4 z"
       style="fill:#005678;fill-opacity:1;fill-rule:nonzero;stroke:none;stroke-width:0.352778"
       id="path718"
       sodipodi:nodetypes="cccccccccccccccccccccccccccccccccc" />
    <path
       d="m 40.90346,32.301541 c 0,0 0.394406,0.746125 1.503186,0.726017 0.468489,-0.0085 0.957792,-0.300567 0.957792,-0.812448 0,-1.178277 -2.674056,-0.83185 -2.655359,-2.421819 0.01164,-0.961672 0.735542,-1.397705 1.740253,-1.397705 0.532342,0 1.400175,0.25153 1.414286,0.932744 v 0.365478 H 43.210627 V 29.52518 c 0,-0.291394 -0.364067,-0.460375 -0.761295,-0.462492 -0.654403,-0.0035 -1.004711,0.200025 -1.016,0.706614 -0.02575,1.12642 2.635603,0.578556 2.635603,2.406297 0,0.8509 -0.682625,1.544461 -1.6764,1.544461 -1.443214,0 -1.920169,-0.894291 -1.920169,-0.894291 z"
       style="fill:#005678;fill-opacity:1;fill-rule:nonzero;stroke:none;stroke-width:0.352778"
       id="path722"
       sodipodi:nodetypes="ccscscccsccsscc" />
    <path
       d="m 44.539644,30.799554 c -0.03034,-0.112536 -0.07902,-0.140758 -0.176036,-0.140758 h -0.07303 v -0.5842 h 0.346428 c 0.273402,0 0.376766,0.07761 0.455789,0.379941 l 0.547158,2.118431 c 0.04868,0.182739 0.07303,0.379942 0.07303,0.379942 h 0.01235 c 0,0 0.03634,-0.197203 0.08502,-0.379942 l 0.662516,-2.484261 h 0.541161 l 0.668867,2.484261 c 0.04868,0.182739 0.07902,0.379942 0.07902,0.379942 h 0.01199 c 0,0 0.02469,-0.197203 0.07303,-0.379942 l 0.541161,-2.118431 c 0.07902,-0.30233 0.188383,-0.379941 0.462139,-0.379941 h 0.340077 v 0.5842 h -0.08502 c -0.09737,0 -0.13335,0.02822 -0.164042,0.140758 l -0.808566,2.83598 h -0.687212 l -0.613833,-2.201333 c -0.04868,-0.183091 -0.08502,-0.325614 -0.08502,-0.325614 h -0.01199 c 0,0 -0.03669,0.142523 -0.08537,0.325614 l -0.607836,2.201333 h -0.693208 z"
       style="fill:#005678;fill-opacity:1;fill-rule:nonzero;stroke:none;stroke-width:0.352778"
       id="path726"
       sodipodi:nodetypes="csccsccccccccccccsccscccccccccc" />
    <path
       d="m 52.117559,31.439846 c -0.02117,-0.590903 -0.4064,-0.907697 -0.849842,-0.907697 -0.5207,0 -0.942975,0.316794 -1.048455,0.907697 z m -0.842786,-1.449564 c 0.999419,0 1.53423,0.746125 1.53423,1.667933 0,0.09137 -0.02117,0.281517 -0.02117,0.281517 H 50.19104 c 0.04233,0.759883 0.591255,1.189214 1.224491,1.189214 0.612422,0 1.0414,-0.415219 1.0414,-0.415219 l 0.295628,0.485422 c 0,0 -0.527756,0.5207 -1.372306,0.5207 -1.125713,0 -1.892652,-0.809272 -1.892652,-1.864784 0,-1.133122 0.773994,-1.864783 1.787172,-1.864783"
       style="fill:#005678;fill-opacity:1;fill-rule:nonzero;stroke:none;stroke-width:0.352778"
       id="path730"
       sodipodi:nodetypes="cscccsccsccssc" />
    <path
       d="m 56.079324,31.848045 c 0,-0.633589 -0.330906,-1.266825 -1.013531,-1.266825 -0.555977,0 -1.020233,0.464608 -1.020233,1.273881 0,0.773994 0.41522,1.27388 1.006122,1.27388 0.528109,0 1.027642,-0.373239 1.027642,-1.280936 m -1.119011,-1.857728 c 0.823383,0 1.097844,0.54857 1.097844,0.54857 h 0.01411 c 0,0 -0.01411,-0.105481 -0.01411,-0.238831 v -1.249891 c 0,-0.105481 -0.05644,-0.15487 -0.154869,-0.15487 h -0.190147 v -0.5842 h 0.577144 c 0.316795,0 0.450497,0.133703 0.450497,0.450497 v 4.134909 c 0,0.105833 0.05644,0.154869 0.15487,0.154869 h 0.1905 v 0.5842 h -0.556331 c -0.309739,0 -0.436386,-0.140758 -0.436386,-0.379942 0,-0.105833 0.0071,-0.183091 0.0071,-0.183091 h -0.01411 c 0,0 -0.295628,0.647347 -1.168048,0.647347 -0.964141,0 -1.569508,-0.759883 -1.569508,-1.864783 0,-1.133123 0.668514,-1.864784 1.611489,-1.864784"
       style="fill:#005678;fill-opacity:1;fill-rule:nonzero;stroke:none;stroke-width:0.352778"
       id="path734"
       sodipodi:nodetypes="csssccccsssccssssccssccssc" />
    <path
       d="m 57.852878,28.323292 h 0.612069 v 0.710847 h -0.612069 z m -0.01411,2.490258 c 0,-0.10548 -0.05644,-0.154869 -0.15487,-0.154869 H 57.49375 v -0.583847 h 0.570089 c 0.316794,0 0.450497,0.133702 0.450497,0.450144 v 2.371725 c 0,0.105481 0.05644,0.154869 0.154869,0.154869 h 0.1905 v 0.583848 h -0.570441 c -0.316795,0 -0.450497,-0.133703 -0.450497,-0.450498 z"
       style="fill:#005678;fill-opacity:1;fill-rule:nonzero;stroke:none;stroke-width:0.352778"
       id="path736"
       sodipodi:nodetypes="cccccssccssssccsss" />
    <path
       d="m 59.676986,32.63622 c 0,0 0.422275,0.527756 1.076678,0.527756 0.330553,0 0.619125,-0.147814 0.619125,-0.457553 0,-0.640292 -1.942395,-0.569736 -1.942395,-1.71697 0,-0.682625 0.598311,-0.999066 1.32327,-0.999066 0.428978,0 1.168047,0.147814 1.168047,0.689327 v 0.337962 h -0.612069 v -0.176037 c 0,-0.210961 -0.316795,-0.302683 -0.534812,-0.302683 -0.401108,0 -0.661458,0.140758 -0.661458,0.422275 0,0.67557 1.942042,0.528108 1.942042,1.717322 0,0.633236 -0.563034,1.0414 -1.308806,1.0414 -0.95003,0 -1.421341,-0.62618 -1.421341,-0.62618 z"
       style="fill:#005678;fill-opacity:1;fill-rule:nonzero;stroke:none;stroke-width:0.352778"
       id="path740"
       sodipodi:nodetypes="csssssccssssscc" />
    <path
       d="m 62.72234,29.050129 c 0,-0.105481 -0.05609,-0.154869 -0.154869,-0.154869 h -0.190148 v -0.5842 h 0.577145 c 0.316794,0 0.450497,0.133702 0.450497,0.436386 v 1.742369 c 0,0.168981 -0.01411,0.295628 -0.01411,0.295628 h 0.01411 c 0.154869,-0.345017 0.612069,-0.795161 1.322917,-0.795161 0.837494,0 1.217436,0.457553 1.217436,1.36525 v 1.540933 c 0,0.105833 0.05644,0.154869 0.154869,0.154869 h 0.1905 v 0.5842 h -0.570442 c -0.316794,0 -0.450497,-0.133702 -0.450497,-0.450497 v -1.674636 c 0,-0.499886 -0.10548,-0.893939 -0.675569,-0.893939 -0.541867,0 -0.978253,0.366184 -1.125714,0.879828 -0.04939,0.140758 -0.0635,0.302683 -0.0635,0.471311 v 1.667933 H 62.72234 Z"
       style="fill:#005678;fill-opacity:1;fill-rule:nonzero;stroke:none;stroke-width:0.352778"
       id="path744"
       sodipodi:nodetypes="ssccsssccssssccsssscsccs" />
    <path
       d="m 68.350802,32.995667 h 0.191558 c 0.0889,0 0.13335,-0.05927 0.1397,-0.162631 l 0.3048,-4.517319 h 0.654403 l 1.054453,2.862086 c 0.10795,0.280811 0.22225,0.657578 0.22225,0.657578 h 0.0127 c 0,0 0.1143,-0.376767 0.22225,-0.657578 l 1.054453,-2.862086 h 0.654402 l 0.3048,4.517319 c 0.0067,0.103364 0.05115,0.162631 0.140053,0.162631 h 0.197203 v 0.635706 h -0.553156 c -0.28575,0 -0.38735,-0.140406 -0.4064,-0.473075 l -0.18415,-2.756606 c -0.01905,-0.310444 -0.0127,-0.793044 -0.0127,-0.793044 h -0.0127 c 0,0 -0.127352,0.512233 -0.235302,0.793044 l -0.908403,2.290939 h -0.5334 l -0.908403,-2.290939 c -0.10795,-0.273403 -0.2413,-0.800453 -0.2413,-0.800453 h -0.0127 c 0,0 0.0063,0.490009 -0.0127,0.800453 l -0.178153,2.756606 c -0.0187,0.332669 -0.120297,0.473075 -0.41275,0.473075 h -0.540808 z"
       style="fill:#005678;fill-opacity:1;fill-rule:nonzero;stroke:none;stroke-width:0.352778"
       id="path748"
       sodipodi:nodetypes="csccccccccccsccsccccccccccccscc" />
    <path
       d="m 75.306803,33.171033 c 0.576792,0 0.950031,-0.605367 0.950031,-1.132769 v -0.119945 h -0.176037 c -0.513644,0 -1.442508,0.02822 -1.442508,0.682625 0,0.288572 0.218017,0.570089 0.668514,0.570089 m 0.788106,-1.752247 h 0.154869 v -0.03528 c 0,-0.626181 -0.232128,-0.851253 -0.788106,-0.851253 -0.16898,0 -0.5842,0.04198 -0.5842,0.274109 v 0.179563 h -0.640291 v -0.31503 c 0,-0.583847 0.88653,-0.680861 1.231547,-0.680861 1.153936,0 1.463675,0.605367 1.463675,1.393472 v 1.513064 c 0,0.10548 0.05609,0.154869 0.154869,0.154869 h 0.190148 v 0.5842 H 76.7352 c -0.316441,0 -0.443089,-0.154869 -0.443089,-0.408164 0,-0.119944 0.01411,-0.211313 0.01411,-0.211313 h -0.01411 c 0,0 -0.281869,0.703791 -1.133122,0.703791 -0.612422,0 -1.21038,-0.372886 -1.21038,-1.083733 0,-1.146881 1.547988,-1.217436 2.1463,-1.217436"
       style="fill:#005678;fill-opacity:1;fill-rule:nonzero;stroke:none;stroke-width:0.352778"
       id="path752"
       sodipodi:nodetypes="cscsscccsssccsssssccssccssc" />
    <path
       d="M 77.965268,30.500858 H 77.50066 v -0.548922 h 0.478719 v -1.273175 h 0.668514 v 1.273175 h 0.851253 v 0.548922 h -0.851253 v 1.755422 c 0,0.710495 0.492478,0.802217 0.752828,0.802217 0.09842,0 0.161925,-0.01411 0.161925,-0.01411 v 0.605366 c 0,0 -0.09137,0.01376 -0.239184,0.01376 -0.450497,0 -1.358194,-0.140759 -1.358194,-1.329972 z"
       style="fill:#005678;fill-opacity:1;fill-rule:nonzero;stroke:none;stroke-width:0.352778"
       id="path756"
       sodipodi:nodetypes="ccccccccccssccssc" />
    <path
       d="m 81.70577,29.990212 c 0.429331,0 1.280583,0.176036 1.280583,0.78105 v 0.353836 h -0.619125 v -0.184855 c 0,-0.253295 -0.401108,-0.365831 -0.661458,-0.365831 -0.696736,0 -1.217436,0.5207 -1.217436,1.273528 0,0.809272 0.591255,1.266825 1.252714,1.266825 0.668514,0 1.1049,-0.492478 1.1049,-0.492478 l 0.295275,0.485422 c 0,0 -0.506589,0.61207 -1.449564,0.61207 -1.119011,0 -1.900061,-0.795162 -1.900061,-1.864784 0,-1.048455 0.766939,-1.864783 1.914172,-1.864783"
       style="fill:#005678;fill-opacity:1;fill-rule:nonzero;stroke:none;stroke-width:0.352778"
       id="path760"
       sodipodi:nodetypes="csccssssccssc" />
    <path
       d="m 83.72186,29.062334 c 0,-0.105481 -0.05609,-0.154869 -0.154869,-0.154869 h -0.190148 v -0.583848 h 0.577498 c 0.316441,0 0.450144,0.13335 0.450144,0.436034 v 1.730022 c 0,0.16898 -0.01411,0.295628 -0.01411,0.295628 h 0.01411 c 0.154869,-0.344664 0.612422,-0.795161 1.322917,-0.795161 0.837494,0 1.217436,0.457552 1.217436,1.36525 v 1.541286 c 0,0.10548 0.05644,0.154869 0.154869,0.154869 h 0.1905 v 0.583847 h -0.570442 c -0.316794,0 -0.450497,-0.133703 -0.450497,-0.450144 v -1.674989 c 0,-0.499533 -0.10548,-0.893939 -0.675216,-0.893939 -0.54222,0 -0.978253,0.366183 -1.126067,0.879828 -0.04939,0.140758 -0.0635,0.302683 -0.0635,0.471664 v 1.66758 H 83.72186 Z"
       style="fill:#005678;fill-opacity:1;fill-rule:nonzero;stroke:none;stroke-width:0.352778"
       id="path764"
       sodipodi:nodetypes="ssccsssccssssccsssscsccs" />
  </g>
</svg>
