<?xml version="1.0" encoding="utf-8"?>
<!-- Generator: Adobe Illustrator 28.3.0, SVG Export Plug-In . SVG Version: 6.00 Build 0)  -->
<svg version="1.1" id="Layer_1" xmlns="http://www.w3.org/2000/svg" xmlns:xlink="http://www.w3.org/1999/xlink" x="0px" y="0px"
	 viewBox="0 0 980.8 1080" style="enable-background:new 0 0 980.8 1080;" xml:space="preserve">
<style type="text/css">
	.st0{fill:#7BFF47;}
</style>
<g id="Artboard">
	<g id="logo_00000035523241341246515270000006837367555099411887_" transform="translate(1.000000, -208.000000)">
		<g id="logo_x2F_square_x2F_blue" transform="translate(326.000000, 297.000000)">
			<g id="Group-2" transform="translate(0.057180, 0.302981)">
				<path id="logo" class="st0" d="M624.1,870.5c17.9,0.1,29.8,10.1,29.6,22.6c0,8.8-6.9,16.4-16.4,16.4c-20.2-0.1-15.1-15-23.5-15
					c-22.5-0.1-39.2,42-56.2,78.8c-6.9,14.8-10.8,17.4-16.4,17.4c-14.1-0.1-17.2-38-22.8-54.5c-12,24.7-34.6,54.2-71.8,53.9
					c-21.4-0.1-42.6-11.2-42.4-44.7c0.3-37.3,25.1-64.1,50.4-64c19.1,0.1,31.9,19.5,31.8,33.2c-0.3,36.8-49.7,37.5-49.9,45.3
					c0,7.1,12.8,9.9,20.2,10.1c31.6,0.1,52.9-41.2,60-69.3c1.3-4.8,5.7-15.4,14.8-15.3c10.2,0,5.2,62.1,19.3,62.2
					C559.4,947.6,571.1,870.2,624.1,870.5z M162.4,825.8c3.7,66.4-19.1,93.9-30.5,117.7c1.9,9.3,17.8,25.2,33.1,25.2
					c5.6,0,12.5-2.7,14.1-4.8c-1.1-3.8-2.2-8.8-2.2-15.9c0.3-38.4,25.8-70.7,47.7-70.6c17.4,0.1,27.5,22.6,27.4,37.5
					c-0.1,17.6-15.4,31.8-38,45.3c3.9,3.8,11.2,6.6,17.4,6.7c32.1,0.3,49.1-37.7,61.8-72.1c2.3-6.6,6.4-15.9,14.1-15.8
					c13.5,0.1,18.6,86.9,41.1,87c9.5,0,17.6-19.1,17.7-34c0.1-10.9-3.8-12.1-3.8-28.1c0.1-17.6,9.8-32.3,22.8-32.2
					c7.9,0,10.7,7.8,10.6,17c-0.3,35.1-26.6,100.4-64.8,100.1c-28.8-0.1-26.2-48.5-36.3-48.6c-11.3-0.1-27.4,48.7-83.1,48.3
					c-9,0-18.6-4.5-26.3-13.4c-13.5,8.8-24.8,12.5-37.8,12.5c-20.7-0.1-29.6-21-38.2-21.1c-10.2,0-21.5,21.2-55.3,21.1
					c-27-0.1-31.3-35.2-40.8-35.4c-8.4,0-21.6,35-35.6,34.9c-23.7-0.1-28.2-61.1-49.1-61.2c-16.3-0.1-68.3,61.4-82.3,59.9
					c-5.6-0.6-8-4.7-7.4-10.2c0.9-7.6,7.6-27.9,10.4-37.5c4.7-16.7,8.9-35,11.3-40.7c2.3-5.9,8.7-10.1,13.6-9.5
					c2.5,0.3,3.3,4.8,4.1,8.7c2.8,13.6,6.6,27.5,11.1,27.5c7.9,0,34.4-48.7,49.5-48.6c18.6,0.1,20.4,77,45.7,77.2
					c8.4,0,14.8-9.8,20.4-21.9c0.8-20.4,6.5-49.4,23.4-49.2c11.8,0.1,17.3,26,8.7,48.3c-0.1,26.8,17.8,33.6,29.6,33.6
					c8.4,0,22.9-2.5,34.5-20.2c-6.5-14.2-10.9-42.7-11.5-53.2c-3.1-53.3,18.3-103.2,41.3-104.5C147.6,784.8,161.1,800.5,162.4,825.8
					z M-173.6,816.7c5,17.6,5.3,40.6,3.4,73.5c-2.5,45-26,99.2-83.3,97.7c-49.5-1.4-71.2-32.8-73.2-80.5c-1-22.4,0.8-44.9,10.6-76.7
					c5.2-17,9.8-23,25.4-26.2c12.3-2.2,11.2,10.4,8.3,25.3c-6.4,33-9.3,48.7-7.3,86.1c1.9,39.6,20.5,55.1,40.7,55.2
					c30.4,0.8,44-23.9,49.9-59.5c4.7-28.5,1.4-42.2-1.4-51c-1.5-5-6.2-16.3-7.4-24.6c-2.7-18.3,7.3-30.4,16.3-33.1
					C-181.4,800.1-177.6,805.2-173.6,816.7z M215.9,903.7c-5.1,0-16.9,5.3-17,22.9c-0.1,13.7,4.8,20.4,7.1,23.2
					c16.3-4.8,21-18.1,21-29C227.1,911.4,222.2,903.7,215.9,903.7z M447.2,903.4c-21.4-0.1-19.8,33.8-16.5,42.1
					c15.8-2.7,26-12,28.9-20.1C462.4,917.2,459,903.5,447.2,903.4z M131.1,818.7c-11.2,0.6-16.7,35-14.5,71.1
					c1.3,23.7,4.8,27.2,8.3,27.1c6.2-0.4,21.4-42.4,19.5-76.3C143.3,825.1,139.5,818.2,131.1,818.7z M35.5,792.7
					c9.5,0,16.7,6.1,17.3,14.9c1,12.6-8,26.3-20.4,26.2c-10.8-0.1-16.2-7.5-16.8-16.7C14.7,803.6,24.8,792.7,35.5,792.7z
					 M147.1,579.4c12.8,4.2,27.6,16,31.3,22.1c5.1-1.8,11.1-2.7,18.1-2.8c9.7,0,20.5,1.8,33.3,5.7c0.6-3.9,1.1-8.8,7.3-8.8
					c9,0,6.6,10.1,9.7,15.6c1.5,3.1,9,4.8,9,10.9c0,5.7-4.8,7.9-7.8,7.9c-1.1,0-2.7-0.3-3.6-0.6c-6,2.2-6.2,45.7-31.6,45.7
					c-18.6,0-35.7-15.4-43.3-34.7c-2.2-5.7-6.6-9.4-10.8-9.4c-4.8,0-7.5,0.9-13.2,7.3c-16.2,17.8-43.3,33.3-76.6,33.3
					c-10.2,0-18.3-0.9-20.5-0.9c-1.1,0-1.1,0.3-1.1,0.6c0,2.2,10.2,10.3,32.4,10.3c52.9,0,65.8-30,74.2-30c1.1,0,4.8,0,6.9,4.8
					c12.3,29,39.2,35.6,56.1,35.6c14.4,0,13.6-1.3,18.2-1.3c4.5,0,4.8,2.7,4.8,4.6c0,6.6-14.8,14.9-40.8,14.9
					c-15.3,0-24.7-8.1-27.4-17.3c-15,9.7-37.8,18.4-60.4,18.6c-61.6,0-77.2-26.8-96.4-35.6c-14.8-6.6-37.3,6.4-68.8-29
					c4.2,0.9,9.9,1.1,14.4,1.1c27.6,0,42.4-13.6,42.4-35.5c0-2.7-0.3-5.7-0.6-8.4c8.4,3.3,27.6,17.8,32.2,43.5
					c0.6,3.1,13,5.7,20.7,5.7c10.8,0,24.7-4.6,26.7-22.4C117.7,628.1,142,606.6,147.1,579.4z M364.4,604.2c7,0,16.7,6.5,16.7,22.5
					c0,28.1-42.1,62.7-98.6,62.8c-17.4,0-26.8-11.8-26.8-23.7c0-16.9,9.3-32.3,16.5-40.6c3.3-3.8,6.6-6.9,9.7-6.9c2.4,0,9.7,5,26,5
					C338.2,623.5,356.5,610.2,364.4,604.2z M346.3,630.3c-1.8,0-12,9.2-35.9,9.3l0,0h-3.9c0.3,2.7,0.6,4.5,0.6,6.9
					c0,7.1-1.8,14.5-4.2,21.6l0,0l33-9.5c10.8-6.9,13.7-15.4,13.7-21.9C349.6,631.2,347.9,630.3,346.3,630.3z M205.5,619.6
					c-6.6,0-12,5.5-12,12.1s5.5,12.1,12.1,12.1s12-5.5,12-12.1C217.4,624.9,212.1,619.6,205.5,619.6z M-75,505.8
					c36.9,0,65.1,31,65.3,75.3c0,20-10.9,49.6-55.3,49.6c-52.7,0-84.7-44.1-84.7-72.9c0-24,16.2-39.3,26.2-41.7
					c-10.6,42.9,13.2,85,62,85c24.4,0,36.3-12.1,36.3-32.8c0-23.2-16.2-46.3-43.3-46.3c-13.7,0-23.2,7.6-23.2,18.2
					c0,17.6,15,28.8,30.5,28.8c10.3,0,17-4.1,17-10.8c0-1.1-0.3-2.7-0.9-3.6c-1.3,0.6-3.7,1.1-6.7,1.1c-12.5,0-22.5-7-22.5-14.1
					c0-5.6,3.9-9,9.4-9c18.3,0,30.8,18.2,30.8,31.3c0,13.5-10.1,25.2-27.1,25.2c-36.3,0-51.5-29-51.5-48.3
					C-113.2,520-95.1,505.8-75,505.8z M118.3,527.9c5.6,0,8.5,4.7,9.2,9.8c2-1.9,3.8-2.8,6.5-2.8c6,0,9.4,4.5,9.5,9.2
					c0,3.1-1.8,5.9-4.2,7.5c3.6,1.7,5.6,4.2,5.6,7.9c0,4.5-3.6,7.9-8.3,7.9c-4.5,0-7.1-5.1-11.8-5.1c-2.7,0-5.6,1.1-6.7,2.8
					c1.8,3.9,2.7,7.8,2.7,11.5c0,21.9-29.3,39.4-59.7,39.6c-30.4,0-41.5-17.8-41.5-25.2c0-1.7,1.1-2.5,3.3-2.5
					c5.1,0,6.2,1.7,19.8,1.7c32.6,0,21-41.7,51.4-41.7c4.2,0,13.4,2.8,16.5,8.4c2.4-2.8,3.3-5.6,3.3-8.1c0-4.7-3.3-8.4-3.3-12.8
					C110.7,531,113.9,527.9,118.3,527.9z M320.4,572c18.1,0,31.3,5,31.3,13.6l0,0v6.9c0,3.3-0.5,6.6-3.1,8.7
					c-7.8,6.5-19.6,9.8-32.6,9.8c-16.3,0-29.6-5.6-29.6-11.2l0,0v-13.6C286.5,581.8,298.4,572,320.4,572z M418.2,469.1
					c24.3,0,51.3,16.2,51.3,52.5c0,38.8-56.1,87-64.5,87c-6.9,0-14.4-9.7-14.4-16.2c0-2,0.9-4.7,6.9-7c28.6-11.2,45-37,45-50.3
					c0-2.9-1.5-5.9-5.3-5.9c-5.1,0-26.8,48.7-51.1,48.9c-16.8,0-33.8-14.9-33.8-22c0-11.7,48.5-33.6,48.5-50c0-6.2-3.1-6.5-5.3-6.5
					c-6.2,0-41,45.5-63.4,45.5c-5.3,0-9.9-9.9-9.9-17.6c0-4.1,2.7-7,12.2-9.2C385.8,507.1,374.3,469.2,418.2,469.1z M233.9,410.3
					c13.2,0,24.3,4.6,24.3,10.3c0,7.9-19.5,3.1-21,12.5c13.9,1.8,17.2,6.6,17.2,10.7c0,6.7-6,8.8-11.7,8.8c-4.2,0-9-0.9-14.1-0.9
					c-6.6,0-13.2,1.5-18.6,7.9c3.9,0.6,9.7,3.3,9.7,9.4c0,17.7-48.3,3.1-48.3,48.3c0,24,24.7,50.1,61.8,50.1
					c19.2,0,31.6-6.4,31.6-13.7c0-5.7-10.2-1.8-10.2-6.7c0-2.2,3.6-6.1,3.6-9.4c0-1.5-1.1-4.2-3.6-4.2c-5.5,0-15.6,8.8-36.4,8.8
					c-16.2,0-32.2-9.4-32.2-22.1c0-2.7,1.1-4.3,3.1-4.3c1.8,0,4.2,1.3,6.4,1.3c1.8,0,2.2-1.3,2.2-4.6s0-12.7,5.7-12.8
					c5.7,0,16.5,21.2,58,21.2c13.7,0,40.5-2.8,50.4-12c-0.3,33.5-26.1,77.6-80.2,77.6c-56.1,0-86.3-45.5-86.3-87.5
					C144.9,452.7,182.5,410.4,233.9,410.3z M-46.8,469.1c14.6,0,25.3,4.2,35.2,19.2c9,13.5,10.4,36,15.3,40.2c2.4,2,6.2,2.7,8.9,2.7
					c2.9,0,5.7-0.3,7.8-0.3c21.5,0,36.1,24.3,36.1,35c0,9.9-8.7,13.5-19.3,13.5c-12.8,0-27.5-7.4-35-15.8c-5.7-6-8.7-17.9-11.1-32.7
					c-2.4-15.3-14.4-28.2-38.2-34.1c-19.1-4.8-21.8-8.4-21.8-13.5C-68.8,474.8-57.2,469.1-46.8,469.1z M21.3,541.9
					c-3.3,0-7.5,2.4-7.4,6.9c0,5.3,13.5,15,22.4,15c4.5,0,6-2.7,6-4.8C42.1,551.1,28.8,541.9,21.3,541.9z M-153,248.7
					c3.9,0,5.7,3.9,5.9,7.8c0,14.4-18.4,55.7-18.4,67.4c0,1.8,0.6,3.3,2.2,3.3c7.6,0,22.8-32.3,27.6-48.6c2.7-8.4,6.4-12.8,9.8-12.8
					c3.1,0,5.7,3.3,5.9,10.2c0,16.2-15.1,54.2-28.5,79.8c-10.3,19.7-26.5,48.2-26.5,64.1c0,8.1,1.5,16.4,13.4,26.6
					c-19.5-1.1-27.4-2.9-34.7-17.9c-32.4,63.9,60,57.5,28.4,114.1c-5.9-10.2-51.4-20.6-51.5-79.9c0-51.3,45.5-81.2,45.5-102.5
					c0-4.2-1.5-7.8-5.5-11.1c-10.1-8.4-10.4-15.3-18.3-15.3c-5.9,0-12.7,13.2-5.5,24.8c2.4,3.9,4.6,6.2,4.6,9.9
					c0,8.4-13.4,30.9-22.8,30.9s-16.8-23-16.8-60.2c0-33,7.5-66.2,16.9-66.2c2.7,0,3.7,1.8,3.7,4.2c0,3.9-1.1,11.7-1.1,24.8
					c0,14.1,3.3,15.3,6.1,15.3c10.3,0,8.1-62.3,24.9-62.3c3.9,0,5.2,3.9,5.2,8.7c0,14.1-7,34.7-7,46.2c0,5.7,1.5,7.5,4.3,7.5
					C-178.2,317.3-165.5,248.7-153,248.7z M78,401.1c2.7,15.1,8.9,23,22.3,28c26.3,9.5,29.9,24.2,29.9,39.7c0,26.3-18.6,59-66.7,59
					C25,527.9-2.6,494-2.6,465.4c0-7.9,2-16.7,7.1-16.7c4.5,0,6,3.4,9.5,7c13.4,13.1,27.9,16.7,48.9,16.5c19,0,32.8-7.6,32.8-15.5
					c0-13.1-27.6-13.4-27.6-33.2C68.3,418.7,71.5,410.2,78,401.1z M427.5,481.4c-4.2,0-8.7,3.3-8.7,11.2c0,8.8,6.9,14.4,10.8,16.2
					c2,1.1,5.3,2.3,8.7,2.3c8.7,0,15.5-2.4,15.5-9.4C454,492.6,440.5,481.4,427.5,481.4z M109.2,470.1c-2.4,0-5,4.7-12.1,7.9
					c-10.2,4.6-14.2,3.8-14.2,14c0,3.8-0.9,8.8-0.9,11.3c0,3.6,0.6,5.6,4.7,5.6c10.7,0,27.5-17.8,27.5-33.1
					C114.3,471.8,111.9,470.1,109.2,470.1z M229.9,468.7c17.4,0,29.1,11.2,29.1,22.8c0,7.9-5.7,14.6-14.1,14.6
					c-7.8,0-13.2-6.4-13.2-13.6c0-5.2,2-10.1,2-14.6C233.9,474.8,233,471.8,229.9,468.7z M494.2,395.7c14.9,0,26.8,19.3,26.8,42
					c0,24.2-11.3,50.4-31.6,68.2c-0.4-40.2-49.6-27.4-49.6-56.5c0-12.5,8.9-20.9,19.7-20.9c9.5,0,17,2.7,22.4,8
					c-5.3-5.1-8-12.2-8.1-19.1C473.9,406.1,481.2,395.7,494.2,395.7z M-130,425.3c11.6-2,20,6.1,22.8,15.3c2.4-2.2,6-3.7,9.9-4.2
					c10.1-1.3,19.8,7,21,18.1c0.9,10.8-6.4,19.7-17.2,21.9c-1.1,0.3-2.5,0.4-2.5,0.4c0.9,2.2,1.5,4.1,1.8,7.1
					c1.3,11.5-6.4,20.4-17.3,21.9s-19-4.8-21.4-14.8c-2.4,1.5-6,2.7-9.9,3.1c-10.8,1.3-20.4-6.7-21.6-17.3c-1.4-12,8-21,16.8-22.4
					c1.3-0.1,2.9-0.5,2.9-0.5c-0.9-2.2-1.4-4.3-1.5-6.1C-147.3,436.3-140.4,427.1-130,425.3z M329.3,449.2
					c22.5,1.5,36.9,15.1,36.9,31.3c0,11.8-8.4,21.9-20.7,21.9c-11.3,0-18.8-8.1-18.8-18.2c0-8.8,5.7-16.7,5.7-25.2
					C332.3,455.8,331.4,452.5,329.3,449.2z M269.9,417c31.6,6.1,48.7,30,48.7,52.5c0,15.5-9.5,29.8-26.5,29.8
					c-15.3,0-26.3-10.6-26.5-27.6c0-12.7,9.8-26.2,9.8-39.2C275.5,427.4,274.1,422.1,269.9,417z M-120.1,454.2l-1.1,0.1
					c-6.2,0.8-10.7,6.6-10.1,13c0.8,6.5,6.4,11.1,12.7,10.3c6.2-0.8,10.7-6.6,10.1-13c-0.8-6.5-6.4-11.1-12.7-10.3L-120.1,454.2z
					 M289.3,440.7c-2.4,0-1.5,3.7-2.2,7.6c-0.3,3.1-1.8,6.7-1.8,9.2c0,4.2,3.1,7.6,7.3,7.6c4.8,0,7.8-4.3,7.8-9.2
					C300.5,449.5,294.8,440.7,289.3,440.7z M349.1,310.8c4.6,0,10.9,14.8,14,14.8c4.8,0,11.5-12.1,16-12.1c1.5,0,2.2,0.9,2.2,3.7
					c0,11.2-5.7,23.9-5.7,34.9c0,7.5,2.4,16.3,10.1,16.3c6.4,0,11.8-9.7,11.8-20.2c0-12.1-2.2-21.5-2.2-26.3c0-2.2,0.9-3.1,2.2-3.1
					c4.6,0.3,8.8,12.7,13.6,12.7c5.5,0,13.6-10.1,16.9-10.1c0.9,0,1.1,1.3,1.1,1.5c0,4.6-7,14.5-7,18.4c0,3.3,17.6,3.9,17.6,7
					c0,4.6-18.4,4.6-27.2,8.5c-8.5,3.7-13.6,8.1-13.6,14.2s6.1,7.3,14.5,7.3c20.2,0,34.5-10.9,39.1-10.9c0.9,0,1.5,0.6,1.5,1.5
					c0,3.1-10.3,13-10.3,17.6c0,5.1,18.8,11.2,18.4,14.2c-0.3,0.9-1.5,1.3-3.7,1.3c-3.3,0-8.5-0.9-12.5-0.9c-2.4,0-4.6,0.3-5.5,1.5
					c-2,2.4,0.6,18.4-3.6,18.4c-3.9,0-14.2-35.7-37.5-35.6c-3.3,0-5.7,2.7-5.7,7.3c0,12.1,11.8,26,23,32.7
					c5.1,3.3,13.6,6.6,13.6,8.5c0,3.6-19.3,0.4-19.3,6.4c0,5.5,2.4,13.6,2.4,18.4c0,1.5-0.3,3.3-2.2,3.3c-3.7,0-12.5-16.7-16.7-16.7
					c-3.7,0-11.5,9.9-14.9,10.1c-0.9,0-1.5-0.9-1.5-1.8c0-7,11.2-22.8,11.2-38.2c0-7.3-0.9-23-9.7-23c-7.3,0-15.4,11.5-19.1,23
					c-2.2,6.6-0.5,32.4-5.5,32.4c-4.6,0-3.3-17.3-9.4-17.3c-4.5,0-14.1,8.1-17.6,8.1c-0.6,0-1.3-0.3-1.3-0.9
					c0-3.6,8.8-15.4,8.8-17.8c0-4.6-20-5.1-20-8.8c0-2.2,7.9-3.7,15.1-4.8c15.4-2.8,38.2-14,38.2-29.6c0-17.6-17-25.1-28.1-32.3
					c-5.7-3.7-12.1-6.6-12.1-9s7.3-2.4,10.3-2.4c4.6,0,9-0.3,9-3.9c0-2.7-0.6-8.1-0.6-12.3C347.6,313.2,347.9,310.8,349.1,310.8z
					 M43.3,263.4c15.6,8.4,27.2,22.8,27.2,34.5c0,20.1-21.2,29.5-21.2,42.1c0,14.6,22.8,16.9,22.9,35c0,14.9-21.6,32.1-21.6,51.4
					c0,14.9,10.7,27.1,27,29.1c-5.3,1.1-10.1,2-15.1,2c-29.9,0-60.8-24.2-60.8-53.1c0-14.2,6.2-26.8,15.6-35.9
					c8.3,7,16.7,11.7,21.9,11.7c4.7,0,6.9-2.3,6.9-5.9c0-10.8-43.6-20.7-43.6-43.8c0-18.7,45-28.6,45-51.8
					C47.5,275.1,45.9,268.3,43.3,263.4z M-70.7,263.4c-6.2,10.8-7.8,24.9-7.8,33.6c0,51,61.2,98.6,61.2,130.1
					c0,12.8-9.2,27.4-26.2,27.4c-14.9,0-23-12-23-21.9c0-7.8,5.3-13.9,7.1-13.9c0.9,0,1.1,0.6,1.1,2.7c0,4.2,3.3,9.7,10.2,9.5
					c6.2,0,10.4-4.5,10.4-10.2c0-24.9-50.5-68.3-50.5-128c-2.7,6.6-6,15-6,27.6c0,28.8,21,58.8,21,85.7c0,11.1-8.7,21-19.3,21
					c-12.5,0-17-9.9-17-16.2c0-4.2,1.8-8.1,2.9-8.1c1.5,0,0.9,6.4,7.8,6.2c7.1,0,9.8-5.1,9.8-14.4c0-24.9-14.4-42.6-14.4-68.3
					c0-3.9,0-8.1,0.9-12c-7.8,9.3-8.7,22.5-8.7,34.2l0,0v30.7c0,20.6-10.4,30-22.9,30c-8,0-16.2-6.2-16.2-17.4
					c0-1.5,0.9-6.9,2.7-6.9c2.4,0,4.2,6.2,11.1,6.2c13.1,0,14-12.8,14-38.7C-122.2,322.9-110.2,288.9-70.7,263.4z M230.9,263.4
					c3.3,25.7,37.9,12.7,37.9,43.9c0,4.6-1.1,11.2-1.1,16.9c0,6.6,0.6,12.5,5.7,12.5s6.4-3.7,6.4-8.5s-1.3-10.9-1.3-14.2
					c0-10.6,7.5-13,12.1-13c11.6,0,20.4,11.8,37.7,11.7c-3.9,19.3-43.9,14.2-43.9,35.5c0,10.6,10.6,13,17.6,13
					c6.4,0,8.5-0.9,8.5-6.4c0-3.1-0.6-6.4-0.6-8.5c0-1.3,0.9-2.4,2.4-2.4c6.6,0,39.3,24.8,39.3,32.3c0,7-34.5,14-44.5,14
					c-3.1,0-3.7-2.2-3.7-3.3c0-2.2,5.1-8.5,5.1-12.1c0-2.7-4.6-4.6-16.7-4.6c-5.7,0-10.1,0.6-10.1,5.2c0,8.1,13.4,18.2,13.4,25.7
					c0,6.1-3.7,9.7-13.4,9.7c-8.1,0-20.6-6.4-20.6-16.9c0-8.5,8.8-16.9,8.8-22.1c0-1.5-1.1-3.9-4.8-3.9c-11.2,0-14.2,29.6-53.9,33.1
					c6.4-5.7,11.8-12.1,11.8-25.1c0-6.4-1.5-11.6-1.5-18.4c0-9,4.2-13.6,10.3-13.6c11.2,0,16.7,15.8,23.9,15.8c3.9,0,8.1-3.6,8.1-9
					c0-23-44.3-19.6-44.3-52C219.7,289.4,222.8,278.5,230.9,263.4z M352,145.8c1.5,0,7.8,7.9,28,7.8c10.4,0,20-2.7,35.1-2.8
					c35.6,0,51.4,24.9,73.4,56.9c13.4,8.4,45.2,22,45.2,60.3c0,33.7-35.4,52.5-43.9,88.7c13.6-1.5,21.6-26.2,35.6-26.2
					c7.1,0,10.4,5.7,10.4,14.8c0,13.2-7.4,33.2-21.6,45.5c0.3-1.3,0.3-2.7,0.3-4.6c0-8.4-3.3-20.5-12.8-20.5
					c-14.8,0-19.6,16.3-27.9,29.9c-8.7-30.8-20.2-58.5-41.1-75.3c-21-17.2-57.4-7.8-57.4-39.2c0-8.4,5.3-20.5,5.3-30.2
					c0-3.3-0.6-6.4-2.4-8.8c28.6,10.8,18.4,30.2,36,50c10.9,12.7,41.2,24.7,58.9,76.8c0.3-1.5,0.6-5.5,0.6-8.1
					c0-44.7-58.3-88.3-63.4-106.4c33.8,3.9,39.8,12.3,55.9,57.5c3.3,9.4,14,32.6,14,44c4.7-15,10.7-25.7,20.4-42
					c-9.8-5.1-35.6-15.9-35.6-33.7c0-20.9,25.6-37.1,30.8-37.1c2.4,0,2.9,2.2,2.9,6c0,10.8-5.1,28.4-5.1,37.7
					c0,8.4,5.3,16.5,10.2,16.5c5.1,0,19-18.1,19-35.9c0-31.9-27.7-41.6-36.3-41.6c-8,0-22.6,13.2-56.7,13.4
					c-63.9,0-78.5-64.1-78.5-92.1C351.5,146.2,351.8,145.8,352,145.8z M-13.3,182.6c7.3,0,20.9,12.6,24.4,25.6
					c-1.5-0.3-3.1-0.6-4.6-0.6c-9.7,0-15,9.4-22.9,25.3C1,221.4,17.3,212,35.8,212c15.6,0,28,9.4,28,23.8c0,6.1-3.1,13-6.9,18.8
					c-2.4-13.2-13.6-19.1-32.8-19.1c-11.2,0-24.4,2-35,5.9c34.1,4.7,39.2,16.7,39.2,27.6c0,18.6-19,27.6-31.7,33.8
					c1.1-5.3,2.2-10.9,2-16.8c0-11.2-4.2-23.8-21.4-36.1c-2.7,12.1-12.3,19.5-12.3,28.8c0,3.6,2.4,4.7,4.2,4.7
					c0,5.3-2.4,20.2-2.4,24.2c0,7.9,1.8,9.4,5.7,10.3c2.4,6.7,2.5,18.1,4.2,24.2c0.9,3.4,3.7,4.3,5.9,4.3
					c2.4,5.9,5.5,14.6,11.2,18.8c1.1,0.9,2.7,2.9,2.7,4.7c0,5.3-8.1,11.2-13.2,11.2c-1.5,0-4.1-0.9-6.5-6.4
					c-1.9-4.5-16.5-13.4-17.4-18.6c0.9-0.9,1.5-2.7,1.5-4.7c0-8.3-13.2-17.7-13.2-30.5c1.5-0.6,3.1-2.9,3.1-5.6
					c0-7.4-7.9-21.8-7.9-31.4c3.3,0,5.1-0.3,5.5-5c0.6-9.7,2.7-24,12-32.3c-2.2-0.3-4.8-0.6-8.4-0.6c-18.1,0-46.1,10.3-56.6,33.2
					c-0.6-3.6-0.9-6.7-0.9-9.7c0-19.1,11.7-31.8,20.5-35.6c4.5-2,9.9-2.7,16-2.7c9.7,0,21.1,2,32.8,4.1
					c-10.3-13.2-26-22.9-38.9-22.9c-6,0-10.8,2-12.3,7c-0.6-2.7-0.9-7-0.9-10.1c0-14.4,4.8-22.6,17.4-22.6c18.7,0,34.6,21.8,44.3,42
					l0,0v-2.5c0-28.2,0.9-42.6,12.5-43.5L-13.3,182.6z M345.9,278.1c6.6,0,11.7,5,11.7,10.7c0,6.6-5.1,11.3-11.7,11.3
					c-6,0-11.3-4.6-11.3-11.3C334.6,283.1,340,278.1,345.9,278.1z M308,257.6c11.5,0,20.7,8.9,20.7,20c0,10.9-9.3,20-20.7,20
					c-11.5,0-20.7-8.9-20.7-20C287.3,266.7,296.6,257.6,308,257.6z M271,248.5c6.6,0,12.1,5.2,12.1,11.6c0,6.4-5.5,11.6-12.1,11.6
					c-6.5,0-12-5.2-12-11.6S264.5,248.5,271,248.5z M344.7,239.4c7.8,0,14.1,6.1,14.1,13.6s-6.4,13.6-14.1,13.6s-14.1-6.1-14.1-13.6
					C330.7,245.5,336.9,239.4,344.7,239.4z M-245.9,230c9.4,13.7,18.1,17.8,29.3,17.8c8.4,0,17.7-1.8,29.9-4.5
					c-15.9,13.1-29.3,20-39.2,20C-238.6,263.4-245.8,252.7-245.9,230z M235.9,224.2c9.3,0,17.2,7.5,17.2,16.4
					c0,9-7.8,16.4-17.2,16.5c-9.3,0-17.2-7.5-17.2-16.4C218.7,231.8,226.6,224.3,235.9,224.2z M310.4,225.3
					c6.6,0,12.1,5.2,12.1,11.6c0,6.4-5.3,11.6-12,11.6c-6.6,0-12.1-5.2-12.1-11.6S303.8,225.3,310.4,225.3z M-158.8,199.4
					c-1.3,3.6-2.2,7.4-2.2,13.7c0,8.9,3.2,17.8,11.8,25.8c-2.5,1.8-6.5,2.9-12.1,2.9c-10.9,0-19.6-6.9-19.6-17.6
					C-180.9,209.5-165.9,201.1-158.8,199.4z M275,204.6c10.2,0,18.3,7.8,18.4,17.6c0,9.8-8.1,17.7-18.3,17.7
					c-10.2,0-18.3-7.8-18.3-17.6C256.6,212.3,264.8,204.6,275,204.6z M-132.9,174.7c15.5,4.5,34.6,18.4,34.6,38.4
					c0,12.8-7.1,25.3-22.4,25.3c-15.9,0-26.2-13.4-26.2-29.4C-146.9,195.4-139.8,182.3-132.9,174.7z M-235,203.6
					c7.5,9.8,20,12.7,31.4,12.7c3.7,0,7.8-0.3,11.2-0.9c-8,9.8-17,14.2-24.8,14.4c-10.3,0-18.1-7.8-18.1-21.8
					C-235.3,206.6-235.3,205.1-235,203.6z M342.3,204.5c6.9,0,12.6,5.5,12.7,12.1c0,6.6-5.7,12.2-12.6,12.2s-12.6-5.5-12.6-12.1
					C329.7,210.1,335.4,204.5,342.3,204.5z M420.4,167.2c-1.1,0-2.7,0.9-2.7,4.6c0,3.3,0.6,5.5,0.6,9.3c0,3.9-0.9,6.6-4.5,6.6
					c-8,0-15.1-19-22-19c-1.5,0-2.9,0.9-2.9,2.4c0,3.6,6,10.2,6,13.6c0,7.3-19.3,3.3-19.3,9.4c0,2.7,2.7,3.6,6.2,3.6
					c6.2,0,16-2.7,21.1-2.7c2.9,0,7.4,0.6,7.4,4.5c0,4.2-10.7,9.7-10.7,13.6c0,1.8,1.8,2.7,3.3,2.7c8,0,22.3-14.1,32.3-14.1
					c1.8,0,6.2,0.9,6.2,3.6c0,3.9-10.1,10.8-10.1,16.5c0,1.5,0.9,3.3,2.7,3.3c5.3,0,12.5-14.1,22.5-14.1c3.8,0,9.5,1.5,12.5,1.5
					c2.4,0,3.3-1.5,3.3-2.4c0-6.4-15.8-6.9-17.3-24.7c-0.3-2.7-1.1-7.5-4.5-7.5c-5.3,0-1.1,16.5-7.1,16.5
					C429.9,194.3,425.5,167.2,420.4,167.2z M241,188.4c6.6,0,12.1,5.2,12.1,11.6c0,6.4-5.3,11.6-12.1,11.6
					c-6.6,0-12.1-5.2-12.1-11.6C228.9,193.6,234.4,188.4,241,188.4z M309.2,173.9c10.6,0,19.2,8.4,19.3,18.4
					c0,10.1-8.7,18.4-19.2,18.4c-10.6,0-19.2-8.4-19.3-18.4C290,182.3,298.6,173.9,309.2,173.9z M-172.9,126.5c2.5,0,5,0.1,6.9,0.3
					c5.6,0.6,10.1,0.6,11.5,2c2.5,2.4,1,7,5,12.2c3.9,5.2,8.8,4.5,8.8,10.2c0,4.5-8.7,30.9-31,41.7c-10.6,5.1-19,7.1-26.1,7.1
					c-12.1,0-20.5-5.1-28-5c-1.3,0-2.8,0.6-5.3,0.6c-2.8,0-5.9-2.9-5.9-5.6c0-1.1,0.4-2.4,0.9-3.3c4.3-6.9,0.4-34.1,27.4-50.6
					C-195.3,127.6-183.1,126.5-172.9,126.5z M521.1,102.8c8.1,2.9,7.4,15.3,7.4,31c0,27.6-2.8,62.7-10.1,63.4
					c-10.9,0.9-51.5-35.9-55.2-63.2C474.2,135.1,508.2,129.6,521.1,102.8z M269.5,173.7c6.4,0,11.5,5,11.5,10.9
					c0,6.1-5.1,10.9-11.5,11.1c-6.2,0-11.3-5-11.3-10.9C258.2,178.6,263.2,173.7,269.5,173.7z M-29.6,72.4c23,0,35.2,20.7,35.2,43.8
					c0,3.3-0.3,6.9-0.9,10.1c9.9-16.5,23.5-29.4,38.4-29.4c19.2,0,28,16.8,28,35.9c0,8.3-2.3,20.5-6.1,20.5s-3.2-6.9-3.8-13.1
					c-0.6-8-2-9.8-4.7-9.8c-5,0-8.1,11.8-8.1,22.8c0,6.7,1.1,14.5,6.4,14.5c2.9,0,5.6-1.5,7.3-3.3C61,178,51,189.8,37,189.8
					c-25.6,0-35.2-30.5-38.2-48.2c-15.4,16.7-29.6,28.8-55.3,28.8c-23.9,0-34.7-17.7-34.7-34.6c0-5.1,1.8-18.1,7.9-18.1
					c7.3,0,0.9,24.3,15.1,24.3c3.6,0,9.9-2.9,13.4-12.7c2-6,3.2-12.1,3.2-17.4c0-8-1.8-13-7.6-13c-5,0-11.1,3.8-13.1,6
					C-65.1,83.3-48.2,72.4-29.6,72.4z M-205.2,149.4c-3.4,0-8,7.5-8,13.4c0,11.1,11.2,23.2,21.5,23.2c5.6,0,11.6-3.1,11.6-5.1
					c0-0.6-0.6-0.9-1.5-1.5c-9.3-4.2-19.3-12.5-21.2-27.1C-203.3,150.3-203.9,149.4-205.2,149.4z M41.5,116.2
					c-6.1,0-16.3,29.4-16.3,45.3c0,6.2,1.5,8.9,3.2,8.9c7.3,0,15.4-28.5,15.4-46.2C43.9,120.2,43.3,116.2,41.5,116.2z M301.8,96.8
					c3.4,4.8,5.5,14.8,5.5,19.2c0,32.8-23,45.4-44.3,45.5c-13.9,0-20.7-4.8-22.5-4.8c-5.5,0-5.2,11.5-8.9,11.2
					c-6.6-1.1-12.7-16.5-12.7-32.8c0-9.7,2.3-19.8,7.5-27.4c7.5,7.5,14.1,10.8,22.3,10.8c3.2,0,7-0.9,8.9-0.9c2.5,0,4.3,1.1,4.3,3.3
					c0,3.3-2.9,8.8-6.4,11.7c3.4,1.5,7.3,2.2,11.2,2.2C283,134.7,301.8,123.8,301.8,96.8z M323.9,145.8c6.4,0,11.5,5,11.5,10.9
					c0,6.1-5.1,10.9-11.5,10.9s-11.5-5-11.5-10.9C312.5,150.8,317.6,145.8,323.9,145.8z M-174,136.5c-4.7,0-8,0.6-8,6.2
					c0,8.9,8.8,24.7,19.6,24.7c5,0,7.5-5.3,7.5-9.5c0-2-6-5.6-8.1-8.4c-3.4-4.5-3.4-10.4-6.2-11.8C-171,136.9-171.9,136.5-174,136.5
					z M-118.9,132.6c6.9,0,12.5,5.3,12.5,11.8c0,6.6-5.6,12-12.5,12s-12.5-5.3-12.5-12C-131.4,138-125.8,132.7-118.9,132.6z
					 M-24.7,86.3c-9,0-21.5,51.9-21.5,63.4c0,2,0.6,4.5,3.2,4.5c9.9,0,21.2-54.6,21.1-63.7C-21.7,88-22.6,86.3-24.7,86.3z
					 M18.5,125.7c-2.9,0-6.1,3.6-10.8,11.6c0.6,10.7,2.3,15.4,5.2,15.4c3.2,0,7.9-10.4,7.9-20.7C20.9,126.8,19.7,125.7,18.5,125.7z
					 M-9.4,107.6c-8.8,0-13.1,23.7-13.1,29.9c0,3.6,1.8,6.5,3.4,6.5c3.2,0,7.3-3.6,14.9-12.2c0.6-3.8,0.6-7.4,0.6-11.8
					C-3.7,114.1-6,107.6-9.4,107.6z M372.5,57.6c10.2,0,7.5,12.3,16.9,12.3c7.3,0,16.5-6.5,22.1-6.5c8.7,0,21.1,28.9,21.1,42.4
					c0,15.6-22.3,25.2-48.7,25.3c-38.5,0-61.8-35.6-61.8-58.6c0-1.8,0.9-2.4,1.8-3.1c3.7-2.7,20.1,1.5,41.2-9.5
					C367.6,58.3,370.1,57.6,372.5,57.6z M-135.2,105.9c6.9,0,12.5,5.3,12.5,12c0,6.5-5.6,12-12.5,12s-12.5-5.3-12.5-11.8
					C-147.7,111.2-142.1,105.9-135.2,105.9z M-227.3,77.6c-0.3,1.8-0.3,3.3-0.3,5.1c0,16.9,9.9,29.8,28,34.9c0,0-9,6.5-20.2,6.6
					c-13.4,0-23.9-9.5-23.9-22.9C-243.9,92-238.8,82.4-227.3,77.6z M505.4,57.6c11.6,1.4,16,9.5,16,19.3c0,21-26.7,44.9-56,44.9
					c-10.9,0-18.6-3.4-18.6-11.5c0-3.4,2.8-10.1,12.1-10.1c25.7,0,49.2-17.6,49.2-33.5C508.2,62.3,507.3,60.3,505.4,57.6z
					 M259.3,57.6c18.4,0,25.6,10.2,28.2,10.2c2.9,0,5.7-3.1,8-3.1c3.2,0,3.2,5.1,3.2,8.8c0,12.1-5.2,32.8-18.2,40.3
					c-2.3-5.1-6.9-10.8-14.4-14.4c-2-0.9-2.9-2.7-2.9-4.5c0-3.3,2.9-7.5,6.2-9.4c-2.3-3.9-10.9-6-14.9-6c-12.7,0-21.4,9.3-23,17.8
					c-1.1-3.1-2-6.6-2-10.2C229.7,73.9,238.3,57.6,259.3,57.6z M-190.7,57.6c21.1,0,28,21.8,28,36c0,6.6-1.3,12.5-2.8,17.3
					c-21.5,0-46.1-9.5-46.1-33C-211.4,66.9-202.8,57.6-190.7,57.6z M-209.4-89.3c14.9,0,53.4,3.8,53.4,12.6
					c0,9.9-32.6,19.8-32.4,29.4c0,11.5,45.5,4.7,45.5,14.6c0,10.2-33.1,33-33.1,40.2c0,1.1,1.5,1.8,2.8,1.8c7.9,0,28.5-15,37.9-15
					c3.7,0,4.8,2.4,4.8,6.6c0,8.4-5.1,22.5-5.1,31.2c0,2.2,0.6,4.5,3.1,4.5c6.7,0,17.3-28.5,26.7-28.5c8.5,0,0.9,42.9,9.8,42.9
					c7.6,0,9-38.9,16.9-38.9c7.6,0,11.2,21.9,19.2,21.9c3.3,0,3.7-4.2,3.6-11.1l0,0V12.6c0-6.6,0.3-11.1,3.7-11.1
					c9.2,0,35,29.9,40.5,29.9c1.3,0,1.5-1.1,1.5-2.2c0-8.1-17.3-35.4-17.3-49.7c0-4.8,1.8-8.1,6.7-8.1c10.7,0,33.1,12.2,43.4,12.2
					c3.3,0,5.5-1.1,5.5-4.5C27.8-33.2-9.4-58-9.4-68.2c0-9.9,41.3-20.1,69.6-20.1c3.7,0,10.9,0,10.9,3.8c0,7.5-35,13.9-43.5,22.8
					c-1.1,1.1-1.8,2.4-1.8,3.7c0.5,14.1,49.9,46.7,49.9,64.8c0,3.9-3.3,6.9-8.8,6.9c-16.4,0-51-16.2-62.8-16.2
					c-3.3,0-4.2,0.9-4.2,3.9c0,11.5,22.5,47.3,22.5,63.2c0,4.2-1.5,7.5-5.7,7.5C2.9,72.1-27.5,36.3-38,36.3
					c-9.7,0-5.5,30.3-14.5,30.3c-7.3,0-13.7-17.4-21.6-17.4s-13,59.9-25.4,60c-14.6,0-8.9-55.5-18.6-55.5c-7.6,0-17.9,19-29.1,19
					c-6.1,0-7.9-4.8-7.9-11.7c0-8.7,2.7-20.7,2.7-28.5c0-4.2-0.3-9-4.3-9c-11.2,0-52.2,29.8-68.1,29.8c-3.3,0-5.7-1.5-5.7-4.8
					c0-14.6,51.9-58.8,51.9-69c0-9.3-59.5-0.9-59.5-9.8c0-10.2,42.2-27.9,42.2-34.5c0-6.9-40.7-9.3-40.7-17
					C-237-87.1-227.3-89.3-209.4-89.3z M353.3,86.6c-1.1,0-1.8,0.6-1.8,1.5c0,8,14,20.2,35.5,20.2c12.8,0,22.4-6.2,22.4-9.9
					c0-1.3-1.8-2.2-5.5-2.2c-3.8,0-11.3-0.3-25.6-2.8C366.2,91.5,356.9,86.6,353.3,86.6z M487.9,58.3c6.1,0,8.1,4.1,8.1,8
					c0,12.7-24.9,23-36.9,23c-3.9,0-9.5,0-12.7-6.4c-2.5-5.2-1.7-13.5-6.5-17.3c4.8,1.4,9.8,1.4,13.7,1.4
					C466.4,67.2,478.6,58.3,487.9,58.3z M23,18.5c8.5,0,47.1,29.9,52.5,37.4c1.1,1.8,1.8,4.2,1.8,6.6c0,9-4.6,19.5-10.6,19.5
					c-7.3,0-45.3-51.3-45.3-61.7C21.6,19.3,22.2,18.5,23,18.5z M501.5-81.9c9.9,0,12.3,4.5,27,4.5c-7.9,4.8-10.8,13.4-10.8,17.6
					c0,12.5,7.9,21.1,8,46.7c0,46.9-43.3,63.6-96.3,63.6c-14.6,0-30.2-1.1-45.4-3.6c-2.3-0.3-2.9-0.9-2.9-2.4
					c0-3.8,20.9-6,20.7-24.9c0-7.4-2.4-14.5-2.4-17.2c0-1.5,1.1-2.4,2.3-2.4c4.5,0,13.2,17.2,29.5,17.2c4.3,0,15.3-1.5,15.1-15.1
					c0-21.1-49.7-26.5-49.7-31.2c0-3.8,27.7-10.4,42.1-10.7c-22-28.5-53.3-25.4-53.3-30.5c0-2.9,23.4-8.9,45-9
					c18.2,0,35.1,4.1,35.1,18.1c0,7.8-6.1,15.8-6.1,27.6c0,6.5,3.2,12.2,11.7,12.2c9,0,11.1-9.8,11.1-20.2c0-8.7-1.5-15.1-1.5-19.3
					C481.1-73.5,489.5-81.9,501.5-81.9z M261.7-88.9c3.7,0,10.9,11.8,15.8,11.5c7.9,0,22.8-9.8,43.1-9.8c42.7,0,73.8,25.1,73.8,67.9
					c0,44.3-34.6,69.5-71.2,69.5c-25.8,0-41.3-15.6-47.1-15.6c-3.9,0-9.7,13.6-13.2,13.6c-1.5,0-2.2-0.3-2.8-3.8
					c-0.9-6.7-1.9-18.3-6.7-18.3c-4.2,0-21.5,19.2-27.4,19.2c-1.3,0-1.5,0-1.5-1.5c0-5.9,15.1-26.6,15.1-32.8S219,8.2,219,3.2
					c0-6.2,20.6-12.7,20.6-21s-19.7-9.4-19.7-15.9c0-3.6,18.4-8.7,18.4-13.9c0-5.3-18.8-26-18.8-32.8c0-7.4,28.2,13,35.5,13
					c3.2,0,3.6-7.9,3.7-12.1V-81C258.7-86,260.2-88.9,261.7-88.9z M320.2-73.3c-18.6,0-30.4,7.4-30.4,14.2c0,4.2,3.7,4.7,6.7,4.7
					c6.1,0,20.6-5.6,23.4-5.6c2.2,0,3.3,0.6,3.3,2c0,3.3-6.4,10.3-6.4,14.5c0,5.6,33.3,1.4,33.3,7.4c0,5.6-24.6,10.9-24.6,14.5
					c0,3.8,19.7,16.5,19.7,23c0,1.1-0.6,2.4-2.7,2.4c-6.4,0-18.6-3.2-26.7-3.2c-1.8,0-2.7,0.9-2.7,2c0,4.5,5.2,13.2,5.2,18.6
					c0,1.8-0.9,2.3-2.2,2.3c-4.8,0-19.5-10.1-26.1-10.1c-2.4,0-4.2,1.8-4.2,4.5c0,5.3,14,15.6,35.2,15.6c16.4,0,47.1-10.7,46.9-53.2
					C368.2-53.2,350.3-73.3,320.2-73.3z M495.9-28.1c0,26.5-19,46.7-53.3,52.3c3.8,0.3,7.4,0.3,10.8,0.3c40.1,0,54.7-18.4,54.7-33.8
					C508.3-18.1,503.6-25.8,495.9-28.1z M-210.8-13.7c4.2,0,9.2,0.9,9.2,3.3c0,6-23,26.1-31.3,26.1c-3.1,0-3.9-3.6-3.9-6.9
					c0-6,2.7-14.4,6.1-17C-226.9-12-217.8-13.7-210.8-13.7z M272.9-51.6c-2.9,0-3.6,16.5-7.5,16.5c-4.6,0-10.3-1.1-13.7-1.1
					c-0.9,0-1.5,0.3-1.5,0.9c0,3.6,11.8,9.8,11.8,13c0,2-12.2,10.3-12.2,12.7c0,0.6,0.6,0.9,2.2,0.9c2.2,0,9.2,0.3,12.7,0.3
					c1.5,0,2.2,1.1,2.2,2.4l0,0l0.6,11.8c0,1.5,0.6,2.7,1.5,2.7c2.7,0,8.1-12.1,11.5-12.1c2.7,0,12.2,4.2,14.6,4.2
					c0.6,0,0.9-0.3,0.9-0.9c0-2.7-6.4-10.9-6.4-13c0-2.7,17.3-2.4,17.3-5.3c0-2.4-17-5.6-17-8.3c0-2.4,7.6-10.3,7.6-12.5
					c0-0.6-0.6-0.9-1.3-0.9c-3.1,0-10.3,4.5-14.2,4.5C278.6-36,275-51.6,272.9-51.6z M-113.1-87.3c20.1,0,16.2,16.8,31.9,16.8
					c15.1,0,12.5-16.2,32.2-16.3c12.5,0,21.5,1.8,21.6,3.6c0,4.2-14.9,4.2-14.9,13.5s27,17,27.1,24.3c0,2-1.8,2.7-3.7,2.7
					c-5.1,0-14.6-4.2-21.5-4.2c-4.8,0-8.5,2.4-8.5,7.5c0,8.4,9.2,21.2,9.2,27.6c0,2.2-1.5,3.6-3.3,3.6c-7.3,0-15.3-23-25.8-23
					C-81.9-31.3-77.8,2-87,2c-8.8,0,1.8-33.8-14.2-33.8c-9.7,0-20,15.3-26.1,15.3c-1.5,0-3.1-0.6-3.1-2.4c0-6,16.4-19.5,16.4-27
					c0-3.9-3.9-4.8-8.3-4.8c-7.6,0-18.2,3.1-24.9,3.1c-3.1,0-5.5-0.9-5.5-2.9c0-6.4,30.7-9.3,30.7-19.8c0-9.9-14.2-8.4-14.2-12
					C-136.5-85.1-125.2-87.3-113.1-87.3z M66.8-58.9c7.9,0,11.8,0.3,11.8,9.3c0,7.3-1.5,14.1-6.6,14.1c-8.8,0-28-11.7-28-17
					C44-56.2,56.8-58.9,66.8-58.9z M501.5-71.2c-4.1,0-7.4,3.3-7.3,7.5c0,4.2,3.2,7.4,7.4,7.4c4.1,0,7.4-3.3,7.4-7.4
					C508.9-67.9,505.6-71.2,501.5-71.2z"/>
			</g>
		</g>
	</g>
</g>
</svg>
