<?xml version="1.0" encoding="UTF-8"?><svg id="Layer_2" xmlns="http://www.w3.org/2000/svg" viewBox="0 0 676.37 479.7"><defs><style>.cls-1{fill:#7bff47;}</style></defs><g id="Layer_1-2"><path class="cls-1" d="M89.6,340.91H7.33c-5.12,0-7.33-2.36-7.33-7.87V11.82C0-.93,14.35.06,23.24.06h31.24C109.73.06,188.09-3.27,230.57,40.21c-62.35,149.39,148.55,148.73,147.12,191.65-1.45,43.5-57.58,32.26-86.5,12.61-6.72-4.56-14.77-4.37-19.85,4.79-35.7,64.44-103.78,91.64-181.74,91.64ZM103.16,76.87c-5.36.09-12.39.18-19.42.47v181.22c158.99,22.06,167.98-184.18,19.42-181.69Z"/><path class="cls-1" d="M665.72,185.94h-62.43c-4.65.32-6.68,2.71-6.68,7.83v61.86c-44.86,16.75-95.87-2.51-115.62-47.51-37.2-87.16,49.61-166.17,130.15-118.38l5.84,3.67c4.92,3.08,8.33,2.3,11.38-2.56l34.9-55.63c2.32-4.33,1.51-7.81-3.24-10.33C637.78,13.06,603.99.06,562.4.06c-52.2,0-106.85,20.34-137.38,62.14h-.05c-5.45,6.81-9.92,13.78-14.49,21.29-2.92,4.8-10.65,13.46-22.37,4.44-23.36-17.97-57.52-31.44-77.08-10.22-16.71,18.13,9.35,33.52,31.03,41.44,44.77,16.35,94.68,25.57,118.43,71.3,15.02,33.33,8.75,79.51-14.11,106.19,28.63,28.16,72.29,44.27,120.17,44.27,30.11.07,97.35-11.25,106.98-36.66v-110.43c0-5.52-2.35-7.87-7.81-7.87Z"/><path class="cls-1" d="M458.17,414.58c-1.08-1.05-2.44-1.58-4.07-1.58h-8.48v11.38h8.48c1.63,0,2.99-.53,4.07-1.58,1.08-1.05,1.62-2.42,1.62-4.11s-.54-3.06-1.62-4.11Z"/><path class="cls-1" d="M383.97,413.01h-8.6v11.38h8.6c1.63,0,2.97-.53,4.01-1.58,1.04-1.05,1.57-2.42,1.57-4.11s-.53-3.06-1.59-4.11c-1.06-1.05-2.39-1.58-3.98-1.58Z"/><path class="cls-1" d="M336.75,414.58c-1.08-1.05-2.44-1.58-4.07-1.58h-8.48v11.38h8.48c1.63,0,2.99-.53,4.07-1.58,1.08-1.05,1.62-2.42,1.62-4.11s-.54-3.06-1.62-4.11Z"/><path class="cls-1" d="M602.02,414.58c-1.08-1.05-2.44-1.58-4.07-1.58h-8.48v11.38h8.48c1.63,0,2.99-.53,4.07-1.58,1.08-1.05,1.62-2.42,1.62-4.11s-.54-3.06-1.62-4.11Z"/><path class="cls-1" d="M97.67,414.09c-1.76-1.14-3.79-1.71-6.06-1.71s-4.29.57-6.03,1.71c-1.75,1.14-3.09,2.72-4.04,4.72-.95,2.01-1.42,4.25-1.42,6.74s.47,4.73,1.42,6.74c.95,2.01,2.3,3.58,4.04,4.72,1.75,1.14,3.76,1.71,6.03,1.71s4.3-.57,6.06-1.71,3.12-2.72,4.07-4.72c.95-2.01,1.42-4.25,1.42-6.74s-.48-4.73-1.42-6.74c-.95-2.01-2.31-3.58-4.07-4.72Z"/><path class="cls-1" d="M10.4,371.06c-4.17,0-7.56,3.38-7.56,7.56v101.08h665.98c4.17,0,7.56-3.38,7.56-7.56v-101.08H10.4ZM42.51,432.3c1.01,2.01,2.4,3.58,4.18,4.72,1.78,1.14,3.76,1.71,5.92,1.71,2.05,0,3.89-.51,5.52-1.54,1.63-1.03,2.87-2.35,3.7-3.99l6.94,3.36c-3.61,5.77-8.99,8.65-16.17,8.65-3.68,0-7.04-.83-10.08-2.48-3.04-1.65-5.44-3.98-7.2-6.98s-2.65-6.4-2.65-10.21.88-7.2,2.65-10.2c1.76-3,4.16-5.33,7.2-6.98,3.04-1.65,6.39-2.48,10.08-2.48,3.98,0,7.29.78,9.9,2.34,2.62,1.56,4.71,3.65,6.26,6.25l-6.94,3.42c-.83-1.59-2.08-2.91-3.73-3.96s-3.48-1.57-5.49-1.57c-2.16,0-4.14.57-5.92,1.71-1.78,1.14-3.18,2.72-4.18,4.72-1.01,2.01-1.51,4.25-1.51,6.74s.5,4.73,1.51,6.74ZM108.91,435.68c-1.71,2.98-4.07,5.32-7.09,7.01-3.02,1.69-6.42,2.54-10.22,2.54s-7.14-.84-10.16-2.54c-3.02-1.69-5.38-4.03-7.09-7.01-1.71-2.98-2.56-6.36-2.56-10.12s.85-7.13,2.56-10.12c1.71-2.98,4.07-5.32,7.09-7.01,3.02-1.69,6.4-2.54,10.16-2.54s7.2.85,10.22,2.54c3.02,1.69,5.38,4.03,7.09,7.01,1.71,2.98,2.56,6.36,2.56,10.12s-.85,7.14-2.56,10.12ZM151.15,444.49h-7.8l-18.1-25.5v25.5h-8.08v-37.97h8.31l17.59,24.59v-24.59h8.08v37.97ZM183.46,441.86c-2.6,2.25-6.37,3.37-11.3,3.37-6.72,0-12.09-1.85-16.11-5.55l4.44-6.07c1.44,1.52,3.2,2.75,5.27,3.7,2.07.95,4.33,1.42,6.8,1.42,2.09,0,3.71-.5,4.87-1.51,1.16-1.01,1.74-2.22,1.74-3.64,0-1.56-.63-2.74-1.88-3.54s-3.19-1.57-5.81-2.3c-2.96-.65-5.37-1.29-7.23-1.94-1.86-.65-3.48-1.7-4.87-3.16-1.39-1.46-2.08-3.43-2.08-5.91,0-2.01.59-3.85,1.77-5.5,1.18-1.66,2.85-2.96,5.04-3.91,2.18-.95,4.71-1.43,7.6-1.43,6.03,0,10.97,1.62,14.8,4.87l-4.5,5.78c-1.48-1.37-3.18-2.4-5.09-3.1-1.92-.7-3.84-1.05-5.78-1.05-1.78,0-3.16.38-4.13,1.13-.97.76-1.45,1.77-1.45,3.03s.59,2.2,1.76,2.79c1.18.59,3.11,1.24,5.81,1.93,2.88.65,5.28,1.34,7.2,2.08,1.92.74,3.57,1.89,4.95,3.45,1.38,1.56,2.08,3.63,2.08,6.22,0,3.65-1.3,6.6-3.9,8.84ZM226.75,429.32c0,4.9-1.42,8.78-4.27,11.63s-7.06,4.28-12.64,4.28-9.86-1.42-12.72-4.28c-2.87-2.85-4.3-6.71-4.3-11.57v-22.86h8.2v23.07c0,2.8.75,5.02,2.25,6.67,1.5,1.65,3.69,2.48,6.58,2.48s4.96-.83,6.46-2.48c1.5-1.65,2.25-3.88,2.25-6.67v-23.07h8.2v22.8ZM275.42,444.49h-8.14v-27.32l-10.7,27.32h-3.53l-10.7-27.32v27.32h-8.08v-37.97h11.33l9.22,23.68,9.22-23.68h11.39v37.97ZM309.8,413.01h-18.79v8.71h18.39v6.49h-18.39v9.79h18.79v6.49h-26.87v-37.97h26.87v6.49ZM337.58,444.49l-7.46-13.61h-5.92v13.61h-8.08v-37.97h17.76c2.58,0,4.84.52,6.77,1.57,1.94,1.04,3.42,2.5,4.44,4.35,1.02,1.86,1.54,3.97,1.54,6.32,0,3.11-.81,5.64-2.42,7.57-1.61,1.94-3.58,3.17-5.89,3.7l8.54,14.46h-9.28ZM391.91,429.26c-1.92,1.08-4.2,1.62-6.86,1.62h-9.68v13.61h-8.08v-37.97h17.76c2.66,0,4.95.55,6.89,1.65,1.94,1.1,3.4,2.57,4.38,4.41.99,1.84,1.48,3.9,1.48,6.18s-.5,4.28-1.51,6.12c-1.01,1.84-2.47,3.3-4.38,4.38ZM425.19,444.49l-2.39-6.55h-16.96l-2.39,6.55h-8.88l14.69-37.97h10.13l14.63,37.97h-8.82ZM459,444.49l-7.46-13.61h-5.92v13.61h-8.08v-37.97h17.76c2.58,0,4.84.52,6.77,1.57s3.42,2.5,4.44,4.35c1.03,1.86,1.54,3.97,1.54,6.32,0,3.11-.81,5.64-2.42,7.57-1.61,1.94-3.58,3.17-5.89,3.7l8.54,14.46h-9.28ZM501.52,413.01h-11.04v31.48h-8.14v-31.48h-11.1v-6.49h30.28v6.49ZM540.69,444.49h-7.8l-18.1-25.5v25.5h-8.08v-37.97h8.31l17.59,24.59v-24.59h8.08v37.97ZM575.07,413.01h-18.79v8.71h18.39v6.49h-18.39v9.79h18.79v6.49h-26.87v-37.97h26.87v6.49ZM602.85,444.49l-7.46-13.61h-5.92v13.61h-8.08v-37.97h17.76c2.58,0,4.84.52,6.77,1.57s3.42,2.5,4.44,4.35c1.03,1.86,1.54,3.97,1.54,6.32,0,3.11-.81,5.64-2.42,7.57-1.61,1.94-3.58,3.17-5.89,3.7l8.54,14.46h-9.28ZM642.78,441.86c-2.6,2.25-6.37,3.37-11.3,3.37-6.72,0-12.09-1.85-16.11-5.55l4.44-6.07c1.44,1.52,3.2,2.75,5.26,3.7,2.07.95,4.34,1.42,6.8,1.42,2.09,0,3.71-.5,4.87-1.51,1.16-1.01,1.74-2.22,1.74-3.64,0-1.56-.63-2.74-1.88-3.54-1.25-.8-3.19-1.57-5.81-2.3-2.96-.65-5.37-1.29-7.23-1.94-1.86-.65-3.48-1.7-4.87-3.16-1.39-1.46-2.08-3.43-2.08-5.91,0-2.01.59-3.85,1.76-5.5,1.18-1.66,2.86-2.96,5.04-3.91,2.18-.95,4.71-1.43,7.6-1.43,6.03,0,10.97,1.62,14.8,4.87l-4.5,5.78c-1.48-1.37-3.18-2.4-5.09-3.1-1.92-.7-3.84-1.05-5.78-1.05-1.78,0-3.16.38-4.13,1.13-.97.76-1.45,1.77-1.45,3.03s.59,2.2,1.77,2.79c1.18.59,3.11,1.24,5.81,1.93,2.88.65,5.28,1.34,7.2,2.08,1.92.74,3.57,1.89,4.95,3.45,1.39,1.56,2.08,3.63,2.08,6.22,0,3.65-1.3,6.6-3.9,8.84Z"/><polygon class="cls-1" points="407.81 431.45 420.58 431.45 414.31 414.03 407.81 431.45"/></g></svg>