<?xml version="1.0" encoding="UTF-8"?>
<svg xmlns="http://www.w3.org/2000/svg" version="1.1" viewBox="0 0 129.4 65.8">
  <defs>
    <style>
      .cls-1 {
        fill: #7bff47;
      }
    </style>
  </defs>
  <!-- Generator: Adobe Illustrator 28.6.0, SVG Export Plug-In . SVG Version: 1.2.0 Build 709)  -->
  <g>
    <g id="Layer_1">
      <g>
        <path class="cls-1" d="M106.8,7.1c-7.2,0-11.3,2.8-12.8,8.7,0,.1,0,.5-.3,1-1.1-6.6-4.9-9.7-12.2-9.7h-37.6c-10.8,0-17.9,5.5-20.6,15.8l-9.3,35.8h13.6c3.1,0,6.9-2.2,8.2-7,0,0,.3-1.2.5-2,.7,1.3,1.4,2.6,2.4,3.6,4.8,5,11.8,5.4,13.9,5.4h18.8c4,0,7.6-2.9,8.7-7,0,0,.3-1.1.3-1.2.3,2.3,1.2,8.2,1.2,8.2h8.7c7.6,0,13.8-6.4,16.8-17.6l8.4-34h-8.7ZM105.7,40.7c-2.9,10.5-8.5,16.5-15.4,16.5h-7.4s-1.6-10.6-2.1-14c-.2.8-.4,1.7-.4,1.7-.7,2.6-1.2,4.8-1.7,6.4-1,3.4-4.1,5.9-7.2,5.9h-18.9c-1.9,0-8.5-.3-12.8-4.9-2-2.1-3.2-4.7-3.6-7.8-.5,1.9-.9,3.8-1.8,6.8-1.1,4.1-4.2,5.9-6.7,5.9h-11.8l8.8-34c2.5-9.6,9.1-14.7,19.1-14.7h37.6c6.8,0,10,2.7,10.9,8.9,0,0,.5,3.2.9,6.7.8-2.9,2.1-8,2.1-8,1.5-5.3,4.9-7.6,11.5-7.6h6.9c0,0-8,32.2-8,32.2h0Z"/>
        <path class="cls-1" d="M105.8,11.3c-4.4,0-6.7,1.4-7.8,5.4l-5.6,20.2-2.6-19.2c-.8-4.8-3.5-6.4-7.7-6.4h-7.1l-5.5,20.5c.7.1,3.4-.5,4.6-1.7,1.5,2.6-.3,8.3-4.6,9.6-.2,4-3.3,10.2-5,11.5l-.9,3.3h6.8c1.7,0,5.1-1.1,6-4.4.3-1.1,5.4-19.3,5.4-19.3l3.6,23.8h3.9c7.8,0,12-6.8,14.2-14.7l6.9-28.6h-4.6Z"/>
        <path class="cls-1" d="M46.1,21.3h4.9c2.9,0,4.5-.8,5.4-3.9l1.7-6.1h-14.4c-9.4,0-14.4,4.8-16.3,12.4l-8.1,30.8h7.3c4.5,0,5.3-3.7,5.9-5.8s2.9-10.3,2.9-10.3h6.7c2.2,0,5-.8,5.7-3.1.3-1.2,1.5-5.2,1.5-5.2h-12.2l.7-2.1c1-2.8,2.7-6.7,8.3-6.7h0Z"/>
        <path class="cls-1" d="M58.5,37.3c-1.3,1.5-1.2,1.6.5,1.5,1.2-.1,1.4.3,1.4.5s0,.2-.2.7c-1.2,3.5-3.9,7.2-8.1,6.9-5.8-.5-.4-13.6,12.2-14.8,1.1-1.7,1.6-5.1,1.5-6.1,0,0-6.4.8-5.5-4.7.3-2.2,2.2-4,7.6-3.3,2.1.2,3.2.2,3.8-1.6,0-.5,1.3-5.1,1.3-5.1-2.7-.6-11-.5-13,0l-1.9,6.6c-1.1,3.5-3.3,5.2-7.1,5.2h-1.2c-.2,3.8,3.1,5.4,5,5.9-1.2.2-3.5.8-3.6,1.2-.3,1.4-1,3.9-2,6.6-1.2,3-4.2,3.8-7,3.8h-3.7c-.7,4.2,1.5,8.3,3.9,10.7,4.2,4.2,13.9,5.1,19.6.2,4.1-3.6,5.9-9.8,6.5-12.8,3.4-1,4.5-4.9,4.7-6.2-1.9,1.8-5,1.3-7.9,1.7-2.8.2-5,1.2-6.8,3.1ZM66.6,37.3c2.5-.1,4.7-2.6,5.5-3.6,0-.1,0-.1.2-.1,0,0,0,.1,0,.1h0c-.3.7-.7,1.7-2,2.8-.7.6-1.9,1.1-3,1.1s-.5,0-.7-.1c0,0,0-.1,0-.1,0-.1,0-.2.2-.1h0ZM51.5,53.5c-10.1,0-11.9-9.5-11.9-9.5,2.6,6.8,8.6,7.8,13.5,7.6,9.7-.5,13.2-10.3,13.2-10.3-1.6,6.1-5.3,12.1-14.8,12.2Z"/>
      </g>
    </g>
  </g>
</svg>