<?xml version="1.0" encoding="utf-8"?>
<!-- Generator: Adobe Illustrator 28.3.0, SVG Export Plug-In . SVG Version: 6.00 Build 0)  -->
<svg version="1.1" id="Layer_1" xmlns="http://www.w3.org/2000/svg" xmlns:xlink="http://www.w3.org/1999/xlink" x="0px" y="0px"
	 viewBox="0 0 235 166" style="enable-background:new 0 0 235 166;" xml:space="preserve">
<style type="text/css">
	.st0{fill:#7BFF47;}
</style>
<g>
	<path class="st0" d="M85.5,101.1c3.3,1.5,7,1.9,10.6,2.2c7.6,0.6,15.8-0.5,22.1-5c5.9-4.5,8.1-12.2,8.3-19.3c0.2-9,0-17.9,0.1-26.8
		l-0.2-0.3c-3.7,0-7.3-0.1-11,0c0,7.6,0,15.2,0.1,22.8c0.3,3.9-0.1,7.9-1.1,11.7c-1.1,4.1-3.3,8-6.9,10.3c-3.5,2.2-7.8,2.8-11.8,1.9
		c-2.2-0.7-4.2-1.9-5.9-3.4c-3.9-3.6-5.6-8.9-6-14c-0.5-9.7,0-19.4-0.2-29.1c-3.7,0-7.4,0-11.1,0c0,8.7,0,17.3-0.1,26
		c0.2,5.1,1,10.3,3.6,14.8C78.2,96.5,81.6,99.4,85.5,101.1z"/>
	<path class="st0" d="M167.4,73.5v-0.3c5.8-6.9,11.3-14.1,17.1-21.1c-4,0-8.1,0-12.2,0c-3.9,4.5-7.6,9.3-11.4,14h-0.3
		c-4.4-4.6-8.6-9.4-13-14c-4.1,0-8.3,0-12.4,0c6.6,7,13,14.2,19.7,21c-1.8,2.7-4,5.2-6,7.7c-3.5,4.2-6.8,8.6-10.7,12.5
		c-4.7,4.7-10,9-16.1,11.8c-7.8,3.7-16.7,4.6-25.3,4.3c0,0,0,0,0,0c-5.9-0.3-11.8-1.1-17.6-2.5c-6.1-1.6-12-3.5-17.8-5.8
		c-5.6-1.9-11.5-2.9-17.4-3c0-15.3-0.1-30.5,0-45.8l-0.2-0.2c-3.6,0-7.2-0.1-10.8,0c0,18.5,0,36.9,0.1,55.3
		c12.9-1.5,25.9-0.1,38.5,2.8c8.2,2.1,16.5,3.3,24.9,3.6c0,0,0,0,0,0c9.8,0.2,19.9-0.9,29-4.8c5.1-2,9.9-4.6,14.3-7.8
		c8.2-5.9,15.5-12.9,21.7-20.9c3.7,4.1,7.5,8.1,11.2,12.2c4.5,5.1,9.5,9.6,15,13.5c4.1,2.9,9.1,4.1,14.1,3.3v-0.2
		C189.8,97.8,178.6,85.6,167.4,73.5z"/>
</g>
</svg>
