<?xml version="1.0" encoding="utf-8"?>
<!-- Generator: Adobe Illustrator 28.3.0, SVG Export Plug-In . SVG Version: 6.00 Build 0)  -->
<svg version="1.1" id="Layer_1" xmlns="http://www.w3.org/2000/svg" xmlns:xlink="http://www.w3.org/1999/xlink" x="0px" y="0px"
	 viewBox="0 0 1024 377" style="enable-background:new 0 0 1024 377;" xml:space="preserve">
<style type="text/css">
	.st0{fill:#7BFF47;}
</style>
<g transform="translate(518.4 1e-4)">
	<path id="a" class="st0" d="M951.5,337.7c0,19.2,11.3,29.1,25,29.1c13.7,0,25-9.8,25-29.1c0-18.7-11.2-28.6-25-28.6
		C962.8,309.1,951.5,319,951.5,337.7z M1011.8,365.3h11.8v9.8h-22.1v-10.8c-4.4,6.9-14.2,12.3-25.9,12.3
		c-21.1,0-34.8-16.7-34.8-38.9c0-22.1,13.7-38.9,34.8-38.9c11.2,0,20.6,4.9,25.5,12.3v-30.5l-11.8,0v-9.8h22.5V365.3z"/>
</g>
<g transform="translate(706.5,2e-4)">
	<path id="b" class="st0" d="M906.4,365.3h11.8v9.8l-34.8,0v-9.8h11.8v-55.1h-11.8v-9.4h22v10.3c4.4-7.9,15.2-15.3,29.9-10.3v10.8
		c-17.6-4.9-28.9,4.4-28.9,21.7V365.3z"/>
</g>
<g transform="matrix(-1 0 0 1 1021.1 9e-4)">
	<g id="c">
		<g>
			<path class="st0" d="M590.9,111.2c-19.6,7.4-32.8,20.2-32.8,20.2c-0.5-6.4-2-12.8-3.9-17.7c0,0,6.4-12.3,25-25.1
				c20.1-13.8,43.1-17.7,43.1-17.7c4.9,10.3,8.3,21.2,9.8,32.5C632.1,103.3,615.4,101.8,590.9,111.2L590.9,111.2z"/>
			<path class="st0" d="M576.7,70.4c-19.1,18.7-25.9,37.4-25.9,37.4c-3.5-5.9-7.8-10.8-13.7-14.8c0,0,7.3-22.2,18.6-38.4
				c11.2-16.7,29.9-30,29.9-30c9.3,6.9,17.1,15.3,24,24.1C609.5,48.7,590.9,57.1,576.7,70.4L576.7,70.4z"/>
			<path class="st0" d="M543.4,47.2c-8.8,22.1-10.8,43.3-10.8,43.3c-5.9-3-13.2-5.4-19.6-5.9c0,0-0.5-21.2,4.4-43.3
				c5.4-25.6,11.2-40.9,11.2-40.9c11.3,1,22.1,4.4,32.3,8.9C561,9.3,549.3,31.9,543.4,47.2L543.4,47.2z"/>
		</g>
		<path class="st0" d="M574.7,186.1c-24-11.3-48-8.9-48-8.9c8.8-3.4,16.2-8.9,21.6-15.8c0,0,21.1-2.5,37.2,0.5
			c25,5.4,35.8,13.8,35.8,13.8c-4.9,10.3-11.3,20.2-19.1,28.6C602.1,204.3,592.3,194.5,574.7,186.1L574.7,186.1z"/>
		<path class="st0" d="M592.9,150.1c-24-1-40.7,5.4-40.7,5.4c2.9-5.4,4.9-11.8,5.4-18.2c0,0,19.6-10.8,37.2-13.3
			c24.5-3.4,38.7,1.5,38.7,1.5c-0.5,11.3-2,22.6-5.4,33.5C628.2,159,612.5,151.1,592.9,150.1L592.9,150.1z"/>
	</g>
</g>
<g id="c_00000093139673550269362540000011138391125862878343_">
	<g>
		<path class="st0" d="M430.2,111.2c19.6,7.4,32.8,20.2,32.8,20.2c0.5-6.4,2-12.8,3.9-17.7c0,0-6.4-12.3-25-25.1
			c-20.1-13.8-43.1-17.7-43.1-17.7c-4.9,10.3-8.3,21.2-9.8,32.5C389,103.3,405.7,101.8,430.2,111.2L430.2,111.2z"/>
		<path class="st0" d="M444.4,70.4c19.1,18.7,25.9,37.4,25.9,37.4c3.5-5.9,7.8-10.8,13.7-14.8c0,0-7.3-22.2-18.6-38.4
			c-11.2-16.7-29.9-30-29.9-30c-9.3,6.9-17.1,15.3-24,24.1C411.6,48.7,430.2,57.1,444.4,70.4L444.4,70.4z"/>
		<path class="st0" d="M477.7,47.2c8.8,22.1,10.8,43.3,10.8,43.3c5.9-3,13.2-5.4,19.6-5.9c0,0,0.5-21.2-4.4-43.3
			c-5.4-25.6-11.2-40.9-11.2-40.9c-11.3,1-22.1,4.4-32.3,8.9C460.1,9.3,471.8,31.9,477.7,47.2L477.7,47.2z"/>
	</g>
	<path class="st0" d="M446.4,186.1c24-11.3,48-8.9,48-8.9c-8.8-3.4-16.2-8.9-21.6-15.8c0,0-21.1-2.5-37.2,0.5
		c-25,5.4-35.8,13.8-35.8,13.8c4.9,10.3,11.3,20.2,19.1,28.6C419,204.3,428.8,194.5,446.4,186.1L446.4,186.1z"/>
	<path class="st0" d="M428.2,150.1c24-1,40.7,5.4,40.7,5.4c-2.9-5.4-4.9-11.8-5.4-18.2c0,0-19.6-10.8-37.2-13.3
		c-24.5-3.4-38.7,1.5-38.7,1.5c0.5,11.3,2,22.6,5.4,33.5C392.9,159,408.6,151.1,428.2,150.1L428.2,150.1z"/>
</g>
<g>
	<path class="st0" d="M510.5,204.8c34.8,0,50,30,50,30c10.8-4.9,20.6-10.8,29.8-18.7c0,0-29.4-36.9-79.9-36.9
		c-50,0-79.3,36.9-79.3,36.9c8.8,7.9,19.1,13.8,29.9,18.7C461.1,234.8,476.2,204.8,510.5,204.8L510.5,204.8z"/>
	<path class="st0" d="M24.5,281.6v44.3h18.1c19.6,0,28.4-7.9,28.4-22.2c0-14.3-8.3-22.2-28.4-22.2L24.5,281.6z M24.5,364.8h12.7
		v10.3H0v-10.3h12.7l0-83.7H0v-9.8l42.6,0c23.5,0,39.7,10.3,39.7,32.5c0,22.2-16.2,32.5-39.7,32.5H24.5L24.5,364.8z"/>
	<path class="st0" d="M150.9,333.8c0-13.8-10.3-24.6-24.5-24.6c-14.2,0-24.5,10.8-24.5,24.6H150.9z M159.7,353.9
		c-3.4,12.8-15.2,22.6-33.3,22.6c-22.1,0-35.8-13.8-35.8-38.9c0-23.6,14.2-38.9,35.8-38.9c23.5,0,38.2,18.2,35.3,44.8l-59.8,0
		c1,11.3,8.8,23.1,24.5,23.1c10.3,0,17.6-4.4,21.6-12.8L159.7,353.9z"/>
	<path id="b_00000150783196889888994430000016407312163886160289_" class="st0" d="M199.9,365.3h11.8v9.8l-34.8,0v-9.8h11.8v-55.1
		h-11.8v-9.4h22v10.3c4.4-7.9,15.2-15.3,29.9-10.3v10.8c-17.6-4.9-28.9,4.4-28.9,21.7V365.3z"/>
	<path class="st0" d="M315,365.3h11.8l0,9.8h-34.3v-9.8h11.8l0-31.5c0-17.2-10.3-24.6-22.1-24.6c-11.3,0-21.1,7.9-21.1,25.6v30.5
		h11.8v9.8h-34.3v-9.8h11.8v-55.1h-11.8v-9.4l22.1,0v10.3c3.9-5.9,12.2-11.8,24-11.8c16.2,0,30.4,9.4,30.4,34.5L315,365.3z"/>
	<path class="st0" d="M372.9,366.7c14.7,0,25-10.3,25-29.1c0-18.7-10.3-28.6-25-28.6c-14.2,0-25,9.8-25,28.6
		C347.9,356.4,358.7,366.7,372.9,366.7L372.9,366.7z M372.9,298.8c23,0,36.3,16.7,36.3,38.9c0,22.6-13.2,38.9-36.3,38.9
		c-22.5,0-35.8-16.3-35.8-38.9C337.1,315.5,350.4,298.8,372.9,298.8z"/>
	<path id="a_00000085252570317996428430000000543472841299403395_" class="st0" d="M433.1,337.7c0,19.2,11.3,29.1,25,29.1
		c13.7,0,25-9.8,25-29.1c0-18.7-11.2-28.6-25-28.6C444.4,309.1,433.1,319,433.1,337.7z M493.4,365.3h11.8v9.8H483v-10.8
		c-4.4,6.9-14.2,12.3-25.9,12.3c-21.1,0-34.8-16.7-34.8-38.9c0-22.1,13.7-38.9,34.8-38.9c11.2,0,20.6,4.9,25.5,12.3v-30.5l-11.8,0
		v-9.8h22.5V365.3z"/>
	<path class="st0" d="M579.1,281.6V320h24c15.7,0,22.1-7.4,22.1-19.2c0-11.3-6.4-19.2-22.1-19.2H579.1z M554.6,270.8h48.5
		c19.6,0,33.8,10.8,33.8,30c0,16.7-10.3,26.6-25.5,29.5l16.7,34.5h13.7v10.3h-21.6l-21.6-44.3h-19.6v34h11.2v10.3l-35.7,0v-10.3
		h12.7l0-83.7h-12.7L554.6,270.8z"/>
	<path class="st0" d="M665.8,285h12.3v-14.3h-12.3V285z M678.1,365.2h11.8v9.8H655v-9.8h11.8v-55.1H655v-9.4h23.1V365.2z"/>
	<path class="st0" d="M771.7,348c-3.9,16.7-15.2,28.6-35.8,28.6c-22.5,0-35.8-16.3-35.8-38.9c0-22.1,13.3-38.9,35.8-38.9
		c10.8,0,20.6,5.4,25,12.3v-10.3h10.3v27.1h-11.8c-3.4-10.3-10.3-18.7-23.5-18.7c-14.2,0-25,9.8-25,28.6c0,18.7,10.8,29.1,25,29.1
		c12.7,0,21.1-7.9,24.5-18.7H771.7z"/>
	<path class="st0" d="M796.2,337.7c0,19.2,10.8,29.1,24.5,29.1s25-9.8,25-29.1c0-18.7-11.2-28.6-25-28.6
		C807,309.1,796.2,319,796.2,337.7z M845.2,300.8l22.5,0v9.4H856v55.1h11.8v9.8h-22.5v-10.8c-4.4,7.4-14.2,12.3-25.5,12.3
		c-21.1,0-34.8-16.7-34.8-38.9c0-22.1,13.7-38.9,34.8-38.9c11.2,0,21,4.9,25.5,12.3L845.2,300.8z"/>
</g>
</svg>
