<?xml version="1.0" encoding="UTF-8"?>
<svg xmlns="http://www.w3.org/2000/svg" version="1.1" viewBox="0 0 1024 377">
  <defs>
    <style>
      .cls-1 {
        fill: #7bff47;
      }
    </style>
  </defs>
  <!-- Generator: Adobe Illustrator 28.6.0, SVG Export Plug-In . SVG Version: 1.2.0 Build 709)  -->
  <g>
    <g id="Layer_1">
      <path id="a" class="cls-1" d="M951.5,337.7c0,19.2,11.3,29.1,25,29.1s25-9.8,25-29.1-11.2-28.6-25-28.6-25,9.8-25,28.6ZM1011.8,365.3h11.8v9.8h-22.1v-10.8c-4.4,6.9-14.2,12.3-25.9,12.3-21.1,0-34.8-16.7-34.8-38.9s13.7-38.9,34.8-38.9c11.2,0,20.6,4.9,25.5,12.3v-30.5h-11.8v-9.8h22.5v94.5Z"/>
      <path id="b" class="cls-1" d="M906.4,365.3h11.8v9.8h-34.8v-9.8h11.8v-55.1h-11.8v-9.4h22v10.3c4.4-7.9,15.2-15.3,29.9-10.3v10.8c-17.6-4.9-28.9,4.4-28.9,21.7v32Z"/>
      <g id="c">
        <g>
          <path class="cls-1" d="M590.9,111.2c-19.6,7.4-32.8,20.2-32.8,20.2-.5-6.4-2-12.8-3.9-17.7,0,0,6.4-12.3,25-25.1,20.1-13.8,43.1-17.7,43.1-17.7,4.9,10.3,8.3,21.2,9.8,32.5,0,0-16.7-1.5-41.2,7.9h0Z"/>
          <path class="cls-1" d="M576.7,70.4c-19.1,18.7-25.9,37.4-25.9,37.4-3.5-5.9-7.8-10.8-13.7-14.8,0,0,7.3-22.2,18.6-38.4,11.2-16.7,29.9-30,29.9-30,9.3,6.9,17.1,15.3,24,24.1,0,0-18.6,8.4-32.8,21.7h0Z"/>
          <path class="cls-1" d="M543.4,47.2c-8.8,22.1-10.8,43.3-10.8,43.3-5.9-3-13.2-5.4-19.6-5.9,0,0-.5-21.2,4.4-43.3,5.4-25.6,11.2-40.9,11.2-40.9,11.3,1,22.1,4.4,32.3,8.9,0,0-11.8,22.6-17.6,37.9h0Z"/>
        </g>
        <path class="cls-1" d="M574.7,186.1c-24-11.3-48-8.9-48-8.9,8.8-3.4,16.2-8.9,21.6-15.8,0,0,21.1-2.5,37.2.5,25,5.4,35.8,13.8,35.8,13.8-4.9,10.3-11.3,20.2-19.1,28.6,0,0-9.8-9.8-27.4-18.2h0Z"/>
        <path class="cls-1" d="M592.9,150.1c-24-1-40.7,5.4-40.7,5.4,2.9-5.4,4.9-11.8,5.4-18.2,0,0,19.6-10.8,37.2-13.3,24.5-3.4,38.7,1.5,38.7,1.5-.5,11.3-2,22.6-5.4,33.5,0,0-15.7-7.9-35.3-8.9h0Z"/>
      </g>
      <g id="c-2" data-name="c">
        <g>
          <path class="cls-1" d="M430.2,111.2c19.6,7.4,32.8,20.2,32.8,20.2.5-6.4,2-12.8,3.9-17.7,0,0-6.4-12.3-25-25.1-20.1-13.8-43.1-17.7-43.1-17.7-4.9,10.3-8.3,21.2-9.8,32.5,0,0,16.7-1.5,41.2,7.9h0Z"/>
          <path class="cls-1" d="M444.4,70.4c19.1,18.7,25.9,37.4,25.9,37.4,3.5-5.9,7.8-10.8,13.7-14.8,0,0-7.3-22.2-18.6-38.4-11.2-16.7-29.9-30-29.9-30-9.3,6.9-17.1,15.3-24,24.1,0,0,18.6,8.4,32.8,21.7h0Z"/>
          <path class="cls-1" d="M477.7,47.2c8.8,22.1,10.8,43.3,10.8,43.3,5.9-3,13.2-5.4,19.6-5.9,0,0,.5-21.2-4.4-43.3-5.4-25.6-11.2-40.9-11.2-40.9-11.3,1-22.1,4.4-32.3,8.9,0,0,11.8,22.6,17.6,37.9h0Z"/>
        </g>
        <path class="cls-1" d="M446.4,186.1c24-11.3,48-8.9,48-8.9-8.8-3.4-16.2-8.9-21.6-15.8,0,0-21.1-2.5-37.2.5-25,5.4-35.8,13.8-35.8,13.8,4.9,10.3,11.3,20.2,19.1,28.6,0,0,9.8-9.8,27.4-18.2h0Z"/>
        <path class="cls-1" d="M428.2,150.1c24-1,40.7,5.4,40.7,5.4-2.9-5.4-4.9-11.8-5.4-18.2,0,0-19.6-10.8-37.2-13.3-24.5-3.4-38.7,1.5-38.7,1.5.5,11.3,2,22.6,5.4,33.5,0,0,15.7-7.9,35.3-8.9h0Z"/>
      </g>
      <g>
        <path class="cls-1" d="M510.5,204.8c34.8,0,50,30,50,30,10.8-4.9,20.6-10.8,29.8-18.7,0,0-29.4-36.9-79.9-36.9s-79.3,36.9-79.3,36.9c8.8,7.9,19.1,13.8,29.9,18.7,0,0,15.2-30,49.4-30h0Z"/>
        <path class="cls-1" d="M24.5,281.6v44.3h18.1c19.6,0,28.4-7.9,28.4-22.2,0-14.3-8.3-22.2-28.4-22.2h-18.1ZM24.5,364.8h12.7v10.3H0v-10.3h12.7v-83.7H0v-9.8h42.6c23.5,0,39.7,10.3,39.7,32.5,0,22.2-16.2,32.5-39.7,32.5h-18.1v28.6Z"/>
        <path class="cls-1" d="M150.9,333.8c0-13.8-10.3-24.6-24.5-24.6-14.2,0-24.5,10.8-24.5,24.6h49ZM159.7,353.9c-3.4,12.8-15.2,22.6-33.3,22.6s-35.8-13.8-35.8-38.9,14.2-38.9,35.8-38.9,38.2,18.2,35.3,44.8h-59.8c1,11.3,8.8,23.1,24.5,23.1,10.3,0,17.6-4.4,21.6-12.8h11.8Z"/>
        <path id="b-2" data-name="b" class="cls-1" d="M199.9,365.3h11.8v9.8h-34.8v-9.8h11.8v-55.1h-11.8v-9.4h22v10.3c4.4-7.9,15.2-15.3,29.9-10.3v10.8c-17.6-4.9-28.9,4.4-28.9,21.7v32Z"/>
        <path class="cls-1" d="M315,365.3h11.8v9.8s-34.3,0-34.3,0v-9.8h11.8v-31.5c0-17.2-10.3-24.6-22.1-24.6s-21.1,7.9-21.1,25.6v30.5h11.8v9.8h-34.3v-9.8h11.8v-55.1h-11.8v-9.4h22.1v10.3c3.9-5.9,12.2-11.8,24-11.8s30.4,9.4,30.4,34.5v31.5Z"/>
        <path class="cls-1" d="M372.9,366.7c14.7,0,25-10.3,25-29.1s-10.3-28.6-25-28.6-25,9.8-25,28.6c0,18.7,10.8,29.1,25,29.1h0ZM372.9,298.8c23,0,36.3,16.7,36.3,38.9s-13.2,38.9-36.3,38.9-35.8-16.3-35.8-38.9,13.2-38.9,35.8-38.9Z"/>
        <path id="a-2" data-name="a" class="cls-1" d="M433.1,337.7c0,19.2,11.3,29.1,25,29.1s25-9.8,25-29.1-11.2-28.6-25-28.6-25,9.8-25,28.6ZM493.4,365.3h11.8v9.8h-22.1v-10.8c-4.4,6.9-14.2,12.3-25.9,12.3-21.1,0-34.8-16.7-34.8-38.9s13.7-38.9,34.8-38.9c11.2,0,20.6,4.9,25.5,12.3v-30.5h-11.8v-9.8h22.5v94.5Z"/>
        <path class="cls-1" d="M579.1,281.6v38.4h24c15.7,0,22.1-7.4,22.1-19.2s-6.4-19.2-22.1-19.2h-24ZM554.6,270.8h48.5c19.6,0,33.8,10.8,33.8,30s-10.3,26.6-25.5,29.5l16.7,34.5h13.7v10.3h-21.6l-21.6-44.3h-19.6v34h11.2v10.3h-35.7v-10.3h12.7v-83.7h-12.7v-10.3Z"/>
        <path class="cls-1" d="M665.8,285h12.3v-14.3h-12.3v14.3ZM678.1,365.2h11.8v9.8h-34.8v-9.8h11.8v-55.1h-11.8v-9.4h23.1v64.5Z"/>
        <path class="cls-1" d="M771.7,348c-3.9,16.7-15.2,28.6-35.8,28.6s-35.8-16.3-35.8-38.9c0-22.1,13.3-38.9,35.8-38.9s20.6,5.4,25,12.3v-10.3h10.3v27.1h-11.8c-3.4-10.3-10.3-18.7-23.5-18.7s-25,9.8-25,28.6,10.8,29.1,25,29.1,21.1-7.9,24.5-18.7h11.3Z"/>
        <path class="cls-1" d="M796.2,337.7c0,19.2,10.8,29.1,24.5,29.1s25-9.8,25-29.1-11.2-28.6-25-28.6-24.5,9.8-24.5,28.6ZM845.2,300.8h22.5v9.4h-11.8v55.1h11.8v9.8h-22.5v-10.8c-4.4,7.4-14.2,12.3-25.5,12.3-21.1,0-34.8-16.7-34.8-38.9s13.7-38.9,34.8-38.9,21,4.9,25.5,12.3v-10.3Z"/>
      </g>
    </g>
  </g>
</svg>