<?xml version="1.0" encoding="UTF-8"?>
<svg xmlns="http://www.w3.org/2000/svg" xmlns:svg="http://www.w3.org/2000/svg" xmlns:sodipodi="http://sodipodi.sourceforge.net/DTD/sodipodi-0.dtd" xmlns:rdf="http://www.w3.org/1999/02/22-rdf-syntax-ns#" xmlns:inkscape="http://www.inkscape.org/namespaces/inkscape" xmlns:dc="http://purl.org/dc/elements/1.1/" xmlns:cc="http://creativecommons.org/ns#" version="1.1" viewBox="0 0 1267.5 1070.2">
  <defs>
    <style>
      .cls-1 {
        fill: #7bff47;
      }
    </style>
  </defs>
  <!-- Generator: Adobe Illustrator 28.6.0, SVG Export Plug-In . SVG Version: 1.2.0 Build 709)  -->
  <g>
    <g id="Layer_1">
      <sodipodi:namedview id="namedview4141" bordercolor="#666666" borderopacity="1" gridtolerance="10" guidetolerance="10" inkscape:current-layer="Layer_1" inkscape:cx="691.57842" inkscape:cy="497.6639" inkscape:pageopacity="0" inkscape:pageshadow="2" inkscape:window-height="705" inkscape:window-maximized="1" inkscape:window-width="1366" inkscape:window-x="-8" inkscape:window-y="-8" inkscape:zoom="0.46194719" objecttolerance="10" pagecolor="#ffffff" showgrid="false"/>
      <path id="path4137" class="cls-1" d="M365.5,830.7c.7-27,13.4-42.8,36.3-42.8s34.2,16.6,34.2,43.5v1.4h-70.6v-2.1h0ZM320.9,845.5s-.1,1.8-.1,8.7v.3c0,6.8.1,8.3.1,8.3,0,61.2,33.9,90.8,78.3,93.9,36.5,2.7,61.8-9,73.1-16.3v-35.2c-18.8,11.7-40.2,17.9-68,15.3-26.7-2.6-38.1-20-38.8-47.8v-6.1h113.7l.3-21c.9-60.9-25.6-94.1-77.7-94.1-50.7,0-80.9,33.3-80.9,94M808.5,772v181.8h44.7v-159.7c4.1-1.9,12.6-6.6,33-6.6s32.8,14.4,32.8,43.4v122.8h44.8c0-7.1,0-123.2,0-123.2,0-50.6-30.3-79-79.1-79-39.3,0-62.5,14-76.1,20.5M558.5,816.5l-32.8-60.9h-49.7l57.9,98.3-57.9,99.8h49.7l33.1-60.7,33.2,60.7h49.7l-57.7-99.8,57.7-98.3h-50l-33.2,60.9h0ZM680.5,878.2s-.4-8.2-.4-25.2.4-22.3.4-22.3c.6-26.5,11.4-43,33.1-43s32.1,16.6,32.8,43c0,0,.4,9.7.4,22.3s-.4,25.2-.4,25.2c-.7,26.5-11.5,43-33.1,43s-32.2-16.6-32.8-43M635.9,845.6s-.2,2.1-.2,9,.2,8.6.2,8.6c0,59.9,28,94,77.3,94s77.6-34,77.6-94c0,0,0-1.6,0-8.6s0-9,0-9c0-59.9-28-94-77.3-94s-77.6,33.9-77.6,94M133.8,693.6v259.7h47.9v-223.7h25.8c38.9,0,56,20.7,56,47.9s-17.2,48.6-56,48.6h-12.5l75.7,127.3h54.2l-62-104,6.2-2.8c30.9-15.1,42.6-42.5,42.6-70.2s-21.7-82.8-99.9-82.8h-78ZM1055.8,921.4c-21.6-.3-33.8-11.6-33.8-32.3s14-30.6,31.4-32.1c19.8-1.8,34.9,1.8,34.9,1.8v62.3c-7.5.2-13.9.3-22.1.3h-10.4M989.3,763.2v35.2c16.7-8.3,35.5-12.4,58.9-10.2,21.5,2.1,36.6,12.7,39,34.4,0,0-16.8-2.2-34.2-1.3-42.1,1.6-75.6,24.4-75.6,67.8s33.5,65.2,77.4,65.2,60.9-.4,78.3-.4c0,0,.5-54,.5-78.7s.2-32.3.2-32.3c0-61.4-36.5-88.4-80.6-90.9l-8.9-.3c-24.3,0-43,5.7-55,11.5" inkscape:connector-curvature="0"/>
      <path id="path4139" class="cls-1" d="M892.1,118.9c-13,10.5-76.2,51.1-315.5,379.5-1.8,2.3-4.9,7-9.4,7l-7.7-3.4c-4-2.6-104-73.1-122.9-86-7.6-5.1-10.4-7.2-11.9-6.1-1.2,1.1,1.2,5.3,5,11.4,3.6,5.8,49.2,82.4,89.2,157.6,34,64.2,60.8,117.2,62,119.5,3.7,7.1,6.6,12.5,10.5,12.5,5.7,0,6.8-5.5,10.4-14.3,3.7-9,103-282.2,295-573.5,2.9-4.4,6.3-9.3,5-10.2h0c-1.4,0-5.7,3.1-9.6,6" inkscape:connector-curvature="0"/>
    </g>
  </g>
</svg>