<?xml version="1.0" encoding="utf-8"?>
<!-- Generator: Adobe Illustrator 28.3.0, SVG Export Plug-In . SVG Version: 6.00 Build 0)  -->
<svg version="1.1"
	 id="Layer_1" xmlns:dc="http://purl.org/dc/elements/1.1/" xmlns:inkscape="http://www.inkscape.org/namespaces/inkscape" xmlns:svg="http://www.w3.org/2000/svg" xmlns:sodipodi="http://sodipodi.sourceforge.net/DTD/sodipodi-0.dtd" xmlns:cc="http://creativecommons.org/ns#" xmlns:rdf="http://www.w3.org/1999/02/22-rdf-syntax-ns#"
	 xmlns="http://www.w3.org/2000/svg" xmlns:xlink="http://www.w3.org/1999/xlink" x="0px" y="0px" viewBox="0 0 1000 844.3"
	 style="enable-background:new 0 0 1000 844.3;" xml:space="preserve">
<style type="text/css">
	.st0{fill:#7BFF47;}
</style>
<sodipodi:namedview  bordercolor="#666666" borderopacity="1" gridtolerance="10" guidetolerance="10" id="namedview4141" inkscape:current-layer="Layer_1" inkscape:cx="691.57842" inkscape:cy="497.6639" inkscape:pageopacity="0" inkscape:pageshadow="2" inkscape:window-height="705" inkscape:window-maximized="1" inkscape:window-width="1366" inkscape:window-x="-8" inkscape:window-y="-8" inkscape:zoom="0.46194719" objecttolerance="10" pagecolor="#ffffff" showgrid="false">
	</sodipodi:namedview>
<path id="path4137" inkscape:connector-curvature="0" class="st0" d="M231.7,717.8c0.7-27,13.4-42.8,36.3-42.8
	c23.7,0,34.2,16.6,34.2,43.5l0,1.4h-70.6L231.7,717.8L231.7,717.8z M187.1,732.6c0,0-0.1,1.8-0.1,8.7v0.3c0,6.8,0.1,8.3,0.1,8.3
	c0,61.2,33.9,90.8,78.3,93.9c36.5,2.7,61.8-9,73.1-16.3l0.1-35.2c-18.9,11.7-40.3,17.9-68.1,15.3c-26.7-2.6-38.1-20-38.8-47.8
	l0.1-6.1h113.6l0.3-21c0.9-60.9-25.6-94.1-77.7-94.1C217.3,638.6,187.1,671.9,187.1,732.6 M674.7,659.1v181.8h44.7V681.2
	c4.1-1.9,12.6-6.6,33-6.6s32.8,14.4,32.8,43.4v122.8H830c0-7.1-0.1-123.2-0.1-123.2c0-50.6-30.3-79-79.1-79
	C711.5,638.7,688.3,652.6,674.7,659.1 M424.7,703.6l-32.8-60.9h-49.7l57.9,98.3l-57.9,99.8h49.7l33.1-60.7l33.2,60.7h49.7
	l-57.7-99.8l57.7-98.3l-50,0L424.7,703.6L424.7,703.6z M546.7,765.3c0,0-0.4-8.2-0.4-25.2c0-17,0.4-22.3,0.4-22.3
	c0.6-26.5,11.4-43,33.1-43c21.5,0,32.1,16.6,32.8,43c0,0,0.4,9.7,0.4,22.3c0,12.5-0.4,25.2-0.4,25.2c-0.7,26.5-11.5,43-33.1,43
	C558,808.3,547.3,791.7,546.7,765.3 M502.1,732.7c0,0-0.2,2.1-0.2,9c0,7.1,0.2,8.6,0.2,8.6c0,59.9,28,94,77.3,94
	c49.2,0,77.6-34,77.6-94c0,0,0.1-1.6,0.1-8.6c0-7-0.1-9-0.1-9c0-59.9-28-94-77.3-94C530.5,638.7,502.1,672.6,502.1,732.7 M0,580.7
	v259.7l47.9-0.1V616.7h25.8c38.9,0,56,20.7,56,47.9c0,27.9-17.2,48.6-56,48.6h-4.9h-7.6l75.7,127.3h54.2l-62-104l6.2-2.8
	c30.9-15.1,42.6-42.5,42.6-70.2c0-38-21.7-82.8-99.9-82.8L0,580.7L0,580.7z M922,808.5c-21.6-0.3-33.8-11.6-33.8-32.3
	c0-20,14-30.6,31.4-32.1c19.8-1.8,34.9,1.8,34.9,1.8v62.3c-7.5,0.2-13.9,0.3-22.1,0.3H922 M855.5,650.3v35.2
	c16.7-8.3,35.5-12.4,58.9-10.2c21.5,2.1,36.6,12.7,39,34.4c0,0-16.8-2.2-34.2-1.3c-42.1,1.6-75.6,24.4-75.6,67.8
	c0,45.1,33.5,65.2,77.4,65.2c36.2,0,60.9-0.4,78.3-0.4c0,0,0.5-54,0.5-78.7c0-24.9,0.2-32.3,0.2-32.3c0-61.4-36.5-88.4-80.6-90.9
	l-8.9-0.3C886.2,638.8,867.5,644.5,855.5,650.3"/>
<path id="path4139" inkscape:connector-curvature="0" class="st0" d="M758.3,6c-13,10.5-76.2,51.1-315.5,379.5c-1.8,2.3-4.9,7-9.4,7
	l-7.7-3.4c-4-2.6-104-73.1-122.9-86c-7.6-5.1-10.4-7.2-11.9-6.1c-1.2,1.1,1.2,5.3,5,11.4c3.6,5.8,49.2,82.4,89.2,157.6
	c34,64.2,60.8,117.2,62,119.5c3.7,7.1,6.6,12.5,10.5,12.5c5.7,0,6.8-5.5,10.4-14.3c3.7-9,103-282.2,295-573.5
	c2.9-4.4,6.3-9.3,5-10.2L767.9,0C766.5,0,762.2,3.1,758.3,6"/>
</svg>
