<?xml version="1.0" encoding="utf-8"?>
<!-- Generator: Adobe Illustrator 28.3.0, SVG Export Plug-In . SVG Version: 6.00 Build 0)  -->
<svg version="1.1" id="Layer_2_00000145759424042549031810000010014679247503764889_"
	 xmlns="http://www.w3.org/2000/svg" xmlns:xlink="http://www.w3.org/1999/xlink" x="0px" y="0px" viewBox="0 0 670.1 371.8"
	 style="enable-background:new 0 0 670.1 371.8;" xml:space="preserve">
<style type="text/css">
	.st0{fill:#7BFF47;}
</style>
<g id="Layer_1-2">
	<path class="st0" d="M246.7,178.6l-0.6,111.9c0.3,14.3-1.9,24.9,17.2,33.8c11.5,5.4,29.5,4.4,46.9,1c0-35.1,1.5-136.3,1.5-136.3
		c-3-5.7-9-3.7-12.5-9.1c-7.5-11.3-4.4-27.2-13.7-36.4c-5.5,8-10,17.8-19.9,20.9c-11.7,3.7-25.8,1.9-37.2-1.7
		c-0.4-18.9,6.6-32,22.4-41.3c-8.7-5.8-21.4-11.8-25-22.5c-3.7-10.8,4.5-19.2,5.1-29.5c0.4-6.4-3.6-11.3-4-17.6
		c-0.4-5.1,1.8-9.5,2.5-14.4c1.6-11.7-9.1-26.7-1.8-36.9C244.9-5.3,269.4,29,277,41.1c13.2,21.1,16.2,42,19,66.3
		c6.8,3.5,13.9-11.4,18-15.3c8.2-7.7,18.8-11.8,29.8-13.8c11.4-2.1,23.2-0.6,34.5-2.7c10.6-2,12.3-10.2,17.4-18.9
		c8.3,0.2,9.2,12,5,18.5c-3.5,5.6-9.7,11.2-12.2,17.6c-2,5.1-2.5,12.6-5,17.6c-2.7,5.4-9.6,8.1-13.9,12c-4.7,4.2-10.4,12-15.3,15.9
		c-8,6.3-31.5-1.2-35.1,6.3c4,6.9,14.3,21,7.3,32.1l52.2,0.8l1.3,175c-13.5,7.6-32.3,6.8-47.5,7.7c-19,1.2-47.1-1.1-66.1-2.8
		c-32.5-2.9-65.8-10.1-78.8-32.2c-6.6-7.9-4.3-22.2-4.3-37.6c0-15-0.2-73.5-0.3-97.9c0-6,4.8-10.8,10.8-10.8L246.7,178.6
		L246.7,178.6z"/>
	<path class="st0" d="M150.7,153.6c-18-14.7-36.5-27.7-61.2-21c-20.2,5.4-28.2,32.2-12.4,46.7c17.2,15.8,41.5,25.5,58.9,41.3
		c8.4,7.6,16.5,16.8,20.9,27.4c3.2,7.8,5.4,18.1,5.2,30.3c-0.4,23.6-6.1,42.4-24.3,58.5c-16.9,15-38.4,21.3-60.6,22.2
		c-22.9,1-45.2-1.5-62.9-16.2c-15.2-12.7-17.8-41.5-9.6-59.1c20.4,10.4,40.2,23.7,64.1,20.7c20.4-2.6,31.8-28.6,19.7-44.5
		c-13.2-17.3-38.5-23.4-55-37.1c-17-14.1-30.1-33-31.1-55.3c-2-44.3,34-78.9,76-83.9c21.2-2.5,40.9-0.9,58.2,12.9
		C154.4,110.8,161.7,133,150.7,153.6z"/>
	<path class="st0" d="M668.9,147.6c-13.6-10.3-37.4-17.9-54.2-11.6c-17.3,6.6-24.5,26-21.6,42.1c17,0.4,36.3,1.3,53.1,1.7
		c1.1,16.7,2.5,32.9-17.6,37.7c-7.8,1.8-36.1,2.1-36.1,2.1l-2,152.1c-20.4-15.1-46.5-22.4-62.1-22.6c0,0-0.1-152.2,0.1-171.3
		c0.2-17,0.7-33.8,9.7-48.7c16.6-27.3,43.7-38.9,79-37.4c17.4,0.7,30.8,2.8,43.4,16c5.4,5.6,8.7,10.7,9.3,18.6
		C670.4,131.3,669.9,139.7,668.9,147.6L668.9,147.6z"/>
	<path class="st0" d="M398.7,180.2c19.5-6.1,38-9.7,58.6-8.8c19,0.8,35.8-0.4,52.9,8.8c-2.7,13.2-3.7,25.2-9.3,37.1
		c-12.8-4-25.4-5.3-37.1-0.4c0,41.1,1.1,88.4,1.1,129c-22.2-2-50.2-1.8-67.7,5.9L398.7,180.2L398.7,180.2z"/>
</g>
</svg>
