<?xml version="1.0" encoding="UTF-8"?>
<svg xmlns="http://www.w3.org/2000/svg" version="1.1" viewBox="0 0 1425.1 1569.3">
  <defs>
    <style>
      .cls-1 {
        fill: #7bff47;
      }
    </style>
  </defs>
  <!-- Generator: Adobe Illustrator 28.6.0, SVG Export Plug-In . SVG Version: 1.2.0 Build 709)  -->
  <g>
    <g id="Layer_1">
      <g id="Layer_1-2" data-name="Layer_1">
        <g id="Artboard">
          <g id="logo">
            <g id="logo_x2F_square_x2F_blue">
              <g id="Group-2">
                <path id="logo-2" class="cls-1" d="M1173.3,1204.4c17.9,0,29.8,10.1,29.6,22.6,0,8.8-6.9,16.4-16.4,16.4-20.2,0-15.1-15-23.5-15-22.5,0-39.2,42-56.2,78.8-6.9,14.8-10.8,17.4-16.4,17.4-14.1,0-17.2-38-22.8-54.5-12,24.7-34.6,54.2-71.8,53.9-21.4,0-42.6-11.2-42.4-44.7.3-37.3,25.1-64.1,50.4-64,19.1,0,31.9,19.5,31.8,33.2-.3,36.8-49.7,37.5-49.9,45.3,0,7.1,12.8,9.9,20.2,10.1,31.6,0,52.9-41.2,60-69.3,1.3-4.8,5.7-15.4,14.8-15.3,10.2,0,5.2,62.1,19.3,62.2,8.6,0,20.3-77.4,73.3-77.1h0ZM711.6,1159.7c3.7,66.4-19.1,93.9-30.5,117.7,1.9,9.3,17.8,25.2,33.1,25.2s12.5-2.7,14.1-4.8c-1.1-3.8-2.2-8.8-2.2-15.9.3-38.4,25.8-70.7,47.7-70.6,17.4,0,27.5,22.6,27.4,37.5,0,17.6-15.4,31.8-38,45.3,3.9,3.8,11.2,6.6,17.4,6.7,32.1.3,49.1-37.7,61.8-72.1,2.3-6.6,6.4-15.9,14.1-15.8,13.5,0,18.6,86.9,41.1,87,9.5,0,17.6-19.1,17.7-34,0-10.9-3.8-12.1-3.8-28.1,0-17.6,9.8-32.3,22.8-32.2,7.9,0,10.7,7.8,10.6,17-.3,35.1-26.6,100.4-64.8,100.1-28.8,0-26.2-48.5-36.3-48.6-11.3,0-27.4,48.7-83.1,48.3-9,0-18.6-4.5-26.3-13.4-13.5,8.8-24.8,12.5-37.8,12.5-20.7,0-29.6-21-38.2-21.1-10.2,0-21.5,21.2-55.3,21.1-27,0-31.3-35.2-40.8-35.4-8.4,0-21.6,35-35.6,34.9-23.7,0-28.2-61.1-49.1-61.2-16.3,0-68.3,61.4-82.3,59.9-5.6-.6-8-4.7-7.4-10.2.9-7.6,7.6-27.9,10.4-37.5,4.7-16.7,8.9-35,11.3-40.7,2.3-5.9,8.7-10.1,13.6-9.5,2.5.3,3.3,4.8,4.1,8.7,2.8,13.6,6.6,27.5,11.1,27.5,7.9,0,34.4-48.7,49.5-48.6,18.6,0,20.4,77,45.7,77.2,8.4,0,14.8-9.8,20.4-21.9.8-20.4,6.5-49.4,23.4-49.2,11.8,0,17.3,26,8.7,48.3,0,26.8,17.8,33.6,29.6,33.6s22.9-2.5,34.5-20.2c-6.5-14.2-10.9-42.7-11.5-53.2-3.1-53.3,18.3-103.2,41.3-104.5,16.8-.8,30.3,14.9,31.6,40.2h0ZM375.6,1150.6c5,17.6,5.3,40.6,3.4,73.5-2.5,45-26,99.2-83.3,97.7-49.5-1.4-71.2-32.8-73.2-80.5-1-22.4.8-44.9,10.6-76.7,5.2-17,9.8-23,25.4-26.2,12.3-2.2,11.2,10.4,8.3,25.3-6.4,33-9.3,48.7-7.3,86.1,1.9,39.6,20.5,55.1,40.7,55.2,30.4.8,44-23.9,49.9-59.5,4.7-28.5,1.4-42.2-1.4-51-1.5-5-6.2-16.3-7.4-24.6-2.7-18.3,7.3-30.4,16.3-33.1,10.2-2.8,14,2.3,18,13.8h0ZM765.1,1237.6c-5.1,0-16.9,5.3-17,22.9,0,13.7,4.8,20.4,7.1,23.2,16.3-4.8,21-18.1,21-29,0-9.4-4.8-17.1-11.1-17.1ZM996.4,1237.3c-21.4,0-19.8,33.8-16.5,42.1,15.8-2.7,26-12,28.9-20.1,2.8-8.2-.6-21.9-12.4-22ZM680.3,1152.6c-11.2.6-16.7,35-14.5,71.1,1.3,23.7,4.8,27.2,8.3,27.1,6.2-.4,21.4-42.4,19.5-76.3-1.1-15.5-4.9-22.4-13.3-21.9h0ZM584.7,1126.6c9.5,0,16.7,6.1,17.3,14.9,1,12.6-8,26.3-20.4,26.2-10.8,0-16.2-7.5-16.8-16.7-.9-13.5,9.2-24.4,19.9-24.4ZM696.3,913.3c12.8,4.2,27.6,16,31.3,22.1,5.1-1.8,11.1-2.7,18.1-2.8,9.7,0,20.5,1.8,33.3,5.7.6-3.9,1.1-8.8,7.3-8.8,9,0,6.6,10.1,9.7,15.6,1.5,3.1,9,4.8,9,10.9s-4.8,7.9-7.8,7.9-2.7-.3-3.6-.6c-6,2.2-6.2,45.7-31.6,45.7s-35.7-15.4-43.3-34.7c-2.2-5.7-6.6-9.4-10.8-9.4s-7.5.9-13.2,7.3c-16.2,17.8-43.3,33.3-76.6,33.3s-18.3-.9-20.5-.9-1.1.3-1.1.6c0,2.2,10.2,10.3,32.4,10.3,52.9,0,65.8-30,74.2-30s4.8,0,6.9,4.8c12.3,29,39.2,35.6,56.1,35.6s13.6-1.3,18.2-1.3,4.8,2.7,4.8,4.6c0,6.6-14.8,14.9-40.8,14.9s-24.7-8.1-27.4-17.3c-15,9.7-37.8,18.4-60.4,18.6-61.6,0-77.2-26.8-96.4-35.6-14.8-6.6-37.3,6.4-68.8-29,4.2.9,9.9,1.1,14.4,1.1,27.6,0,42.4-13.6,42.4-35.5s-.3-5.7-.6-8.4c8.4,3.3,27.6,17.8,32.2,43.5.6,3.1,13,5.7,20.7,5.7s24.7-4.6,26.7-22.4c35.8-2.8,60.1-24.3,65.2-51.5h0ZM913.6,938.1c7,0,16.7,6.5,16.7,22.5,0,28.1-42.1,62.7-98.6,62.8-17.4,0-26.8-11.8-26.8-23.7,0-16.9,9.3-32.3,16.5-40.6,3.3-3.8,6.6-6.9,9.7-6.9s9.7,5,26,5c30.3.2,48.6-13.1,56.5-19.1h0ZM895.5,964.2c-1.8,0-12,9.2-35.9,9.3h-3.9c.3,2.7.6,4.5.6,6.9,0,7.1-1.8,14.5-4.2,21.6h0l33-9.5c10.8-6.9,13.7-15.4,13.7-21.9s-1.7-6.4-3.3-6.4h0ZM754.7,953.5c-6.6,0-12,5.5-12,12.1s5.5,12.1,12.1,12.1,12-5.5,12-12.1c-.2-6.8-5.5-12.1-12.1-12.1ZM474.2,839.7c36.9,0,65.1,31,65.3,75.3,0,20-10.9,49.6-55.3,49.6s-84.7-44.1-84.7-72.9,16.2-39.3,26.2-41.7c-10.6,42.9,13.2,85,62,85s36.3-12.1,36.3-32.8-16.2-46.3-43.3-46.3-23.2,7.6-23.2,18.2c0,17.6,15,28.8,30.5,28.8s17-4.1,17-10.8-.3-2.7-.9-3.6c-1.3.6-3.7,1.1-6.7,1.1-12.5,0-22.5-7-22.5-14.1s3.9-9,9.4-9c18.3,0,30.8,18.2,30.8,31.3s-10.1,25.2-27.1,25.2c-36.3,0-51.5-29-51.5-48.3-.5-20.8,17.6-35,37.7-35ZM667.5,861.8c5.6,0,8.5,4.7,9.2,9.8,2-1.9,3.8-2.8,6.5-2.8,6,0,9.4,4.5,9.5,9.2,0,3.1-1.8,5.9-4.2,7.5,3.6,1.7,5.6,4.2,5.6,7.9s-3.6,7.9-8.3,7.9-7.1-5.1-11.8-5.1-5.6,1.1-6.7,2.8c1.8,3.9,2.7,7.8,2.7,11.5,0,21.9-29.3,39.4-59.7,39.6-30.4,0-41.5-17.8-41.5-25.2s1.1-2.5,3.3-2.5c5.1,0,6.2,1.7,19.8,1.7,32.6,0,21-41.7,51.4-41.7s13.4,2.8,16.5,8.4c2.4-2.8,3.3-5.6,3.3-8.1,0-4.7-3.3-8.4-3.3-12.8s3.3-8.1,7.7-8.1h0ZM869.6,905.9c18.1,0,31.3,5,31.3,13.6h0v6.9c0,3.3-.5,6.6-3.1,8.7-7.8,6.5-19.6,9.8-32.6,9.8s-29.6-5.6-29.6-11.2h0v-13.6c0-4.4,12-14.2,34-14.2h0ZM967.4,803c24.3,0,51.3,16.2,51.3,52.5s-56.1,87-64.5,87-14.4-9.7-14.4-16.2.9-4.7,6.9-7c28.6-11.2,45-37,45-50.3s-1.5-5.9-5.3-5.9-26.8,48.7-51.1,48.9c-16.8,0-33.8-14.9-33.8-22,0-11.7,48.5-33.6,48.5-50s-3.1-6.5-5.3-6.5c-6.2,0-41,45.5-63.4,45.5s-9.9-9.9-9.9-17.6,2.7-7,12.2-9.2c51.4-11.2,39.9-49.1,83.8-49.2ZM783.1,744.2c13.2,0,24.3,4.6,24.3,10.3s-19.5,3.1-21,12.5c13.9,1.8,17.2,6.6,17.2,10.7,0,6.7-6,8.8-11.7,8.8s-9-.9-14.1-.9-13.2,1.5-18.6,7.9c3.9.6,9.7,3.3,9.7,9.4,0,17.7-48.3,3.1-48.3,48.3s24.7,50.1,61.8,50.1,31.6-6.4,31.6-13.7-10.2-1.8-10.2-6.7,3.6-6.1,3.6-9.4-1.1-4.2-3.6-4.2c-5.5,0-15.6,8.8-36.4,8.8s-32.2-9.4-32.2-22.1,1.1-4.3,3.1-4.3,4.2,1.3,6.4,1.3,2.2-1.3,2.2-4.6,0-12.7,5.7-12.8c5.7,0,16.5,21.2,58,21.2s40.5-2.8,50.4-12c-.3,33.5-26.1,77.6-80.2,77.6s-86.3-45.5-86.3-87.5c-.4-46.3,37.2-88.6,88.6-88.7h0ZM502.4,803c14.6,0,25.3,4.2,35.2,19.2,9,13.5,10.4,36,15.3,40.2,2.4,2,6.2,2.7,8.9,2.7s5.7-.3,7.8-.3c21.5,0,36.1,24.3,36.1,35s-8.7,13.5-19.3,13.5-27.5-7.4-35-15.8c-5.7-6-8.7-17.9-11.1-32.7-2.4-15.3-14.4-28.2-38.2-34.1-19.1-4.8-21.8-8.4-21.8-13.5,0-8.5,11.7-14.2,22.1-14.2h0ZM570.5,875.8c-3.3,0-7.5,2.4-7.4,6.9,0,5.3,13.5,15,22.4,15s6-2.7,6-4.8c-.2-7.9-13.5-17.1-21-17.1h0ZM396.2,582.6c3.9,0,5.7,3.9,5.9,7.8,0,14.4-18.4,55.7-18.4,67.4s.6,3.3,2.2,3.3c7.6,0,22.8-32.3,27.6-48.6,2.7-8.4,6.4-12.8,9.8-12.8s5.7,3.3,5.9,10.2c0,16.2-15.1,54.2-28.5,79.8-10.3,19.7-26.5,48.2-26.5,64.1s1.5,16.4,13.4,26.6c-19.5-1.1-27.4-2.9-34.7-17.9-32.4,63.9,60,57.5,28.4,114.1-5.9-10.2-51.4-20.6-51.5-79.9,0-51.3,45.5-81.2,45.5-102.5s-1.5-7.8-5.5-11.1c-10.1-8.4-10.4-15.3-18.3-15.3s-12.7,13.2-5.5,24.8c2.4,3.9,4.6,6.2,4.6,9.9,0,8.4-13.4,30.9-22.8,30.9s-16.8-23-16.8-60.2,7.5-66.2,16.9-66.2,3.7,1.8,3.7,4.2c0,3.9-1.1,11.7-1.1,24.8s3.3,15.3,6.1,15.3c10.3,0,8.1-62.3,24.9-62.3s5.2,3.9,5.2,8.7c0,14.1-7,34.7-7,46.2s1.5,7.5,4.3,7.5c7-.2,19.7-68.8,32.2-68.8h0ZM627.2,735c2.7,15.1,8.9,23,22.3,28,26.3,9.5,29.9,24.2,29.9,39.7,0,26.3-18.6,59-66.7,59s-66.1-33.8-66.1-62.4,2-16.7,7.1-16.7,6,3.4,9.5,7c13.4,13.1,27.9,16.7,48.9,16.5,19,0,32.8-7.6,32.8-15.5,0-13.1-27.6-13.4-27.6-33.2.2-4.8,3.4-13.3,9.9-22.4h0ZM976.7,815.3c-4.2,0-8.7,3.3-8.7,11.2s6.9,14.4,10.8,16.2c2,1.1,5.3,2.3,8.7,2.3,8.7,0,15.5-2.4,15.5-9.4.2-9.1-13.3-20.3-26.3-20.3ZM658.4,804c-2.4,0-5,4.7-12.1,7.9-10.2,4.6-14.2,3.8-14.2,14s-.9,8.8-.9,11.3c0,3.6.6,5.6,4.7,5.6,10.7,0,27.5-17.8,27.5-33.1,0-4-2.3-5.7-5-5.7ZM779.1,802.6c17.4,0,29.1,11.2,29.1,22.8s-5.7,14.6-14.1,14.6-13.2-6.4-13.2-13.6,2-10.1,2-14.6c.2-3.1-.7-6.1-3.8-9.2ZM1043.4,729.6c14.9,0,26.8,19.3,26.8,42s-11.3,50.4-31.6,68.2c-.4-40.2-49.6-27.4-49.6-56.5s8.9-20.9,19.7-20.9,17,2.7,22.4,8c-5.3-5.1-8-12.2-8.1-19.1,0-11.3,7.4-21.7,20.4-21.7h0ZM419.2,759.2c11.6-2,20,6.1,22.8,15.3,2.4-2.2,6-3.7,9.9-4.2,10.1-1.3,19.8,7,21,18.1.9,10.8-6.4,19.7-17.2,21.9-1.1.3-2.5.4-2.5.4.9,2.2,1.5,4.1,1.8,7.1,1.3,11.5-6.4,20.4-17.3,21.9s-19-4.8-21.4-14.8c-2.4,1.5-6,2.7-9.9,3.1-10.8,1.3-20.4-6.7-21.6-17.3-1.4-12,8-21,16.8-22.4,1.3,0,2.9-.5,2.9-.5-.9-2.2-1.4-4.3-1.5-6.1-1.1-11.5,5.8-20.7,16.2-22.5h0ZM878.5,783.1c22.5,1.5,36.9,15.1,36.9,31.3s-8.4,21.9-20.7,21.9-18.8-8.1-18.8-18.2,5.7-16.7,5.7-25.2c0-3.2-1-6.5-3.1-9.8h0ZM819.1,750.9c31.6,6.1,48.7,30,48.7,52.5s-9.5,29.8-26.5,29.8-26.3-10.6-26.5-27.6c0-12.7,9.8-26.2,9.8-39.2,0-5.1-1.3-10.4-5.5-15.5ZM429.1,788.1h-1.1c-6.2.9-10.7,6.7-10.1,13.1.8,6.5,6.4,11.1,12.7,10.3,6.2-.8,10.7-6.6,10.1-13-.8-6.5-6.4-11.1-12.7-10.3h1.1ZM838.5,774.6c-2.4,0-1.5,3.7-2.2,7.6-.3,3.1-1.8,6.7-1.8,9.2,0,4.2,3.1,7.6,7.3,7.6s7.8-4.3,7.8-9.2c0-6.4-5.6-15.2-11.1-15.2h0ZM898.3,644.7c4.6,0,10.9,14.8,14,14.8,4.8,0,11.5-12.1,16-12.1s2.2.9,2.2,3.7c0,11.2-5.7,23.9-5.7,34.9s2.4,16.3,10.1,16.3,11.8-9.7,11.8-20.2-2.2-21.5-2.2-26.3.9-3.1,2.2-3.1c4.6.3,8.8,12.7,13.6,12.7s13.6-10.1,16.9-10.1,1.1,1.3,1.1,1.5c0,4.6-7,14.5-7,18.4s17.6,3.9,17.6,7c0,4.6-18.4,4.6-27.2,8.5-8.5,3.7-13.6,8.1-13.6,14.2s6.1,7.3,14.5,7.3c20.2,0,34.5-10.9,39.1-10.9s1.5.6,1.5,1.5c0,3.1-10.3,13-10.3,17.6s18.8,11.2,18.4,14.2c-.3.9-1.5,1.3-3.7,1.3-3.3,0-8.5-.9-12.5-.9s-4.6.3-5.5,1.5c-2,2.4.6,18.4-3.6,18.4s-14.2-35.7-37.5-35.6c-3.3,0-5.7,2.7-5.7,7.3,0,12.1,11.8,26,23,32.7,5.1,3.3,13.6,6.6,13.6,8.5,0,3.6-19.3.4-19.3,6.4s2.4,13.6,2.4,18.4-.3,3.3-2.2,3.3c-3.7,0-12.5-16.7-16.7-16.7s-11.5,9.9-14.9,10.1c-.9,0-1.5-.9-1.5-1.8,0-7,11.2-22.8,11.2-38.2s-.9-23-9.7-23-15.4,11.5-19.1,23c-2.2,6.6-.5,32.4-5.5,32.4s-3.3-17.3-9.4-17.3-14.1,8.1-17.6,8.1-1.3-.3-1.3-.9c0-3.6,8.8-15.4,8.8-17.8,0-4.6-20-5.1-20-8.8s7.9-3.7,15.1-4.8c15.4-2.8,38.2-14,38.2-29.6s-17-25.1-28.1-32.3c-5.7-3.7-12.1-6.6-12.1-9s7.3-2.4,10.3-2.4c4.6,0,9-.3,9-3.9s-.6-8.1-.6-12.3c.4-3.6.7-6,1.9-6h0ZM592.5,597.3c15.6,8.4,27.2,22.8,27.2,34.5,0,20.1-21.2,29.5-21.2,42.1s22.8,16.9,22.9,35c0,14.9-21.6,32.1-21.6,51.4s10.7,27.1,27,29.1c-5.3,1.1-10.1,2-15.1,2-29.9,0-60.8-24.2-60.8-53.1s6.2-26.8,15.6-35.9c8.3,7,16.7,11.7,21.9,11.7s6.9-2.3,6.9-5.9c0-10.8-43.6-20.7-43.6-43.8s45-28.6,45-51.8-1.6-10.4-4.2-15.3h0ZM478.5,597.3c-6.2,10.8-7.8,24.9-7.8,33.6,0,51,61.2,98.6,61.2,130.1s-9.2,27.4-26.2,27.4-23-12-23-21.9,5.3-13.9,7.1-13.9,1.1.6,1.1,2.7c0,4.2,3.3,9.7,10.2,9.5,6.2,0,10.4-4.5,10.4-10.2,0-24.9-50.5-68.3-50.5-128-2.7,6.6-6,15-6,27.6,0,28.8,21,58.8,21,85.7s-8.7,21-19.3,21-17-9.9-17-16.2,1.8-8.1,2.9-8.1.9,6.4,7.8,6.2c7.1,0,9.8-5.1,9.8-14.4,0-24.9-14.4-42.6-14.4-68.3s0-8.1.9-12c-7.8,9.3-8.7,22.5-8.7,34.2h0v30.7c0,20.6-10.4,30-22.9,30s-16.2-6.2-16.2-17.4.9-6.9,2.7-6.9,4.2,6.2,11.1,6.2c13.1,0,14-12.8,14-38.7.3-29.4,12.3-63.4,51.8-88.9ZM780.1,597.3c3.3,25.7,37.9,12.7,37.9,43.9s-1.1,11.2-1.1,16.9.6,12.5,5.7,12.5,6.4-3.7,6.4-8.5-1.3-10.9-1.3-14.2c0-10.6,7.5-13,12.1-13,11.6,0,20.4,11.8,37.7,11.7-3.9,19.3-43.9,14.2-43.9,35.5s10.6,13,17.6,13,8.5-.9,8.5-6.4-.6-6.4-.6-8.5.9-2.4,2.4-2.4c6.6,0,39.3,24.8,39.3,32.3s-34.5,14-44.5,14-3.7-2.2-3.7-3.3c0-2.2,5.1-8.5,5.1-12.1s-4.6-4.6-16.7-4.6-10.1.6-10.1,5.2c0,8.1,13.4,18.2,13.4,25.7s-3.7,9.7-13.4,9.7-20.6-6.4-20.6-16.9,8.8-16.9,8.8-22.1-1.1-3.9-4.8-3.9c-11.2,0-14.2,29.6-53.9,33.1,6.4-5.7,11.8-12.1,11.8-25.1s-1.5-11.6-1.5-18.4,4.2-13.6,10.3-13.6c11.2,0,16.7,15.8,23.9,15.8s8.1-3.6,8.1-9c0-23-44.3-19.6-44.3-52,.2-9.3,3.3-20.2,11.4-35.3h0ZM901.2,479.7c1.5,0,7.8,7.9,28,7.8,10.4,0,20-2.7,35.1-2.8,35.6,0,51.4,24.9,73.4,56.9,13.4,8.4,45.2,22,45.2,60.3s-35.4,52.5-43.9,88.7c13.6-1.5,21.6-26.2,35.6-26.2s10.4,5.7,10.4,14.8c0,13.2-7.4,33.2-21.6,45.5.3-1.3.3-2.7.3-4.6,0-8.4-3.3-20.5-12.8-20.5-14.8,0-19.6,16.3-27.9,29.9-8.7-30.8-20.2-58.5-41.1-75.3-21-17.2-57.4-7.8-57.4-39.2s5.3-20.5,5.3-30.2-.6-6.4-2.4-8.8c28.6,10.8,18.4,30.2,36,50,10.9,12.7,41.2,24.7,58.9,76.8.3-1.5.6-5.5.6-8.1,0-44.7-58.3-88.3-63.4-106.4,33.8,3.9,39.8,12.3,55.9,57.5,3.3,9.4,14,32.6,14,44,4.7-15,10.7-25.7,20.4-42-9.8-5.1-35.6-15.9-35.6-33.7s25.6-37.1,30.8-37.1,2.9,2.2,2.9,6c0,10.8-5.1,28.4-5.1,37.7s5.3,16.5,10.2,16.5,19-18.1,19-35.9c0-31.9-27.7-41.6-36.3-41.6s-22.6,13.2-56.7,13.4c-63.9,0-78.5-64.1-78.5-92.1.2-.9.5-1.3.7-1.3h0ZM535.9,516.5c7.3,0,20.9,12.6,24.4,25.6-1.5-.3-3.1-.6-4.6-.6-9.7,0-15,9.4-22.9,25.3,17.4-11.5,33.7-20.9,52.2-20.9s28,9.4,28,23.8-3.1,13-6.9,18.8c-2.4-13.2-13.6-19.1-32.8-19.1s-24.4,2-35,5.9c34.1,4.7,39.2,16.7,39.2,27.6,0,18.6-19,27.6-31.7,33.8,1.1-5.3,2.2-10.9,2-16.8,0-11.2-4.2-23.8-21.4-36.1-2.7,12.1-12.3,19.5-12.3,28.8s2.4,4.7,4.2,4.7c0,5.3-2.4,20.2-2.4,24.2,0,7.9,1.8,9.4,5.7,10.3,2.4,6.7,2.5,18.1,4.2,24.2.9,3.4,3.7,4.3,5.9,4.3,2.4,5.9,5.5,14.6,11.2,18.8,1.1.9,2.7,2.9,2.7,4.7,0,5.3-8.1,11.2-13.2,11.2s-4.1-.9-6.5-6.4c-1.9-4.5-16.5-13.4-17.4-18.6.9-.9,1.5-2.7,1.5-4.7,0-8.3-13.2-17.7-13.2-30.5,1.5-.6,3.1-2.9,3.1-5.6,0-7.4-7.9-21.8-7.9-31.4,3.3,0,5.1-.3,5.5-5,.6-9.7,2.7-24,12-32.3-2.2-.3-4.8-.6-8.4-.6-18.1,0-46.1,10.3-56.6,33.2-.6-3.6-.9-6.7-.9-9.7,0-19.1,11.7-31.8,20.5-35.6,4.5-2,9.9-2.7,16-2.7,9.7,0,21.1,2,32.8,4.1-10.3-13.2-26-22.9-38.9-22.9s-10.8,2-12.3,7c-.6-2.7-.9-7-.9-10.1,0-14.4,4.8-22.6,17.4-22.6,18.7,0,34.6,21.8,44.3,42h0v-2.5c0-28.2.9-42.6,12.5-43.5h.9,0ZM895.1,612c6.6,0,11.7,5,11.7,10.7s-5.1,11.3-11.7,11.3-11.3-4.6-11.3-11.3,5.4-10.7,11.3-10.7ZM857.2,591.5c11.5,0,20.7,8.9,20.7,20s-9.3,20-20.7,20-20.7-8.9-20.7-20,9.3-20,20.7-20ZM820.2,582.4c6.6,0,12.1,5.2,12.1,11.6s-5.5,11.6-12.1,11.6-12-5.2-12-11.6,5.5-11.6,12-11.6ZM893.9,573.3c7.8,0,14.1,6.1,14.1,13.6s-6.4,13.6-14.1,13.6-14.1-6.1-14.1-13.6c0-7.5,6.3-13.6,14.1-13.6ZM303.3,563.9c9.4,13.7,18.1,17.8,29.3,17.8s17.7-1.8,29.9-4.5c-15.9,13.1-29.3,20-39.2,20-12.7.1-19.9-10.6-20-33.3ZM785.1,558.1c9.3,0,17.2,7.5,17.2,16.4s-7.8,16.4-17.2,16.5c-9.3,0-17.2-7.5-17.2-16.4s7.9-16.4,17.2-16.5ZM859.6,559.2c6.6,0,12.1,5.2,12.1,11.6s-5.3,11.6-12,11.6-12.1-5.2-12.1-11.6,5.4-11.6,12-11.6ZM390.4,533.3c-1.3,3.6-2.2,7.4-2.2,13.7s3.2,17.8,11.8,25.8c-2.5,1.8-6.5,2.9-12.1,2.9-10.9,0-19.6-6.9-19.6-17.6s15-23.1,22.1-24.8ZM824.2,538.5c10.2,0,18.3,7.8,18.4,17.6,0,9.8-8.1,17.7-18.3,17.7s-18.3-7.8-18.3-17.6c-.2-10,8-17.7,18.2-17.7h0ZM416.3,508.6c15.5,4.5,34.6,18.4,34.6,38.4s-7.1,25.3-22.4,25.3-26.2-13.4-26.2-29.4,7.1-26.7,14-34.3ZM314.2,537.5c7.5,9.8,20,12.7,31.4,12.7s7.8-.3,11.2-.9c-8,9.8-17,14.2-24.8,14.4-10.3,0-18.1-7.8-18.1-21.8s0-2.9.3-4.4h0ZM891.5,538.4c6.9,0,12.6,5.5,12.7,12.1,0,6.6-5.7,12.2-12.6,12.2s-12.6-5.5-12.6-12.1,5.6-12.2,12.5-12.2h0ZM969.6,501.1c-1.1,0-2.7.9-2.7,4.6s.6,5.5.6,9.3-.9,6.6-4.5,6.6c-8,0-15.1-19-22-19s-2.9.9-2.9,2.4c0,3.6,6,10.2,6,13.6,0,7.3-19.3,3.3-19.3,9.4s2.7,3.6,6.2,3.6c6.2,0,16-2.7,21.1-2.7s7.4.6,7.4,4.5-10.7,9.7-10.7,13.6,1.8,2.7,3.3,2.7c8,0,22.3-14.1,32.3-14.1s6.2.9,6.2,3.6c0,3.9-10.1,10.8-10.1,16.5s.9,3.3,2.7,3.3c5.3,0,12.5-14.1,22.5-14.1s9.5,1.5,12.5,1.5,3.3-1.5,3.3-2.4c0-6.4-15.8-6.9-17.3-24.7-.3-2.7-1.1-7.5-4.5-7.5-5.3,0-1.1,16.5-7.1,16.5-13.5-.1-17.9-27.2-23-27.2h0ZM790.2,522.3c6.6,0,12.1,5.2,12.1,11.6s-5.3,11.6-12.1,11.6-12.1-5.2-12.1-11.6,5.5-11.6,12.1-11.6ZM858.4,507.8c10.6,0,19.2,8.4,19.3,18.4,0,10.1-8.7,18.4-19.2,18.4s-19.2-8.4-19.3-18.4c0-10,8.6-18.4,19.2-18.4ZM376.3,460.4c2.5,0,5,0,6.9.3,5.6.6,10.1.6,11.5,2,2.5,2.4,1,7,5,12.2,3.9,5.2,8.8,4.5,8.8,10.2s-8.7,30.9-31,41.7c-10.6,5.1-19,7.1-26.1,7.1-12.1,0-20.5-5.1-28-5-1.3,0-2.8.6-5.3.6s-5.9-2.9-5.9-5.6.4-2.4.9-3.3c4.3-6.9.4-34.1,27.4-50.6,13.4-8.5,25.6-9.6,35.8-9.6h0ZM1070.3,436.7c8.1,2.9,7.4,15.3,7.4,31,0,27.6-2.8,62.7-10.1,63.4-10.9.9-51.5-35.9-55.2-63.2,11,1.1,45-4.4,57.9-31.2h0ZM818.7,507.6c6.4,0,11.5,5,11.5,10.9s-5.1,10.9-11.5,11.1c-6.2,0-11.3-5-11.3-10.9s5-11.1,11.3-11.1ZM519.6,406.3c23,0,35.2,20.7,35.2,43.8s-.3,6.9-.9,10.1c9.9-16.5,23.5-29.4,38.4-29.4s28,16.8,28,35.9-2.3,20.5-6.1,20.5-3.2-6.9-3.8-13.1c-.6-8-2-9.8-4.7-9.8-5,0-8.1,11.8-8.1,22.8s1.1,14.5,6.4,14.5,5.6-1.5,7.3-3.3c-1.1,13.6-11.1,25.4-25.1,25.4-25.6,0-35.2-30.5-38.2-48.2-15.4,16.7-29.6,28.8-55.3,28.8s-34.7-17.7-34.7-34.6,1.8-18.1,7.9-18.1.9,24.3,15.1,24.3,9.9-2.9,13.4-12.7c2-6,3.2-12.1,3.2-17.4,0-8-1.8-13-7.6-13s-11.1,3.8-13.1,6c7.2-21.6,24.1-32.5,42.7-32.5h0ZM344,483.3c-3.4,0-8,7.5-8,13.4,0,11.1,11.2,23.2,21.5,23.2s11.6-3.1,11.6-5.1-.6-.9-1.5-1.5c-9.3-4.2-19.3-12.5-21.2-27.1-.5-2-1.1-2.9-2.4-2.9h0ZM590.7,450.1c-6.1,0-16.3,29.4-16.3,45.3s1.5,8.9,3.2,8.9c7.3,0,15.4-28.5,15.4-46.2s-.5-8-2.3-8h0ZM851,430.7c3.4,4.8,5.5,14.8,5.5,19.2,0,32.8-23,45.4-44.3,45.5-13.9,0-20.7-4.8-22.5-4.8-5.5,0-5.2,11.5-8.9,11.2-6.6-1.1-12.7-16.5-12.7-32.8s2.3-19.8,7.5-27.4c7.5,7.5,14.1,10.8,22.3,10.8s7-.9,8.9-.9,4.3,1.1,4.3,3.3c0,3.3-2.9,8.8-6.4,11.7,3.4,1.5,7.3,2.2,11.2,2.2,16.3,0,35.1-11,35.1-38h0ZM873.1,479.7c6.4,0,11.5,5,11.5,10.9s-5.1,10.9-11.5,10.9-11.5-5-11.5-10.9c0-5.9,5.2-10.9,11.5-10.9ZM375.2,470.4c-4.7,0-8,.6-8,6.2,0,8.9,8.8,24.7,19.6,24.7s7.5-5.3,7.5-9.5-6-5.6-8.1-8.4c-3.4-4.5-3.4-10.4-6.2-11.8-1.8-.8-2.7-1.2-4.8-1.2h0ZM430.3,466.5c6.9,0,12.5,5.3,12.5,11.8s-5.6,12-12.5,12-12.5-5.3-12.5-12,5.6-11.7,12.5-11.8ZM524.5,420.2c-9,0-21.5,51.9-21.5,63.4s.6,4.5,3.2,4.5c9.9,0,21.2-54.6,21.1-63.7.2-2.5-.7-4.2-2.8-4.2h0ZM567.7,459.6c-2.9,0-6.1,3.6-10.8,11.6.6,10.7,2.3,15.4,5.2,15.4s7.9-10.4,7.9-20.7c.1-5.2-1.1-6.3-2.3-6.3h0ZM539.8,441.5c-8.8,0-13.1,23.7-13.1,29.9s1.8,6.5,3.4,6.5c3.2,0,7.3-3.6,14.9-12.2.6-3.8.6-7.4.6-11.8s-2.4-12.4-5.8-12.4ZM921.7,391.5c10.2,0,7.5,12.3,16.9,12.3s16.5-6.5,22.1-6.5c8.7,0,21.1,28.9,21.1,42.4s-22.3,25.2-48.7,25.3c-38.5,0-61.8-35.6-61.8-58.6s.9-2.4,1.8-3.1c3.7-2.7,20.1,1.5,41.2-9.5,2.5-1.6,5-2.3,7.4-2.3h0ZM414,439.8c6.9,0,12.5,5.3,12.5,12s-5.6,12-12.5,12-12.5-5.3-12.5-11.8,5.6-12.2,12.5-12.2ZM321.9,411.5c-.3,1.8-.3,3.3-.3,5.1,0,16.9,9.9,29.8,28,34.9,0,0-9,6.5-20.2,6.6-13.4,0-23.9-9.5-23.9-22.9-.2-9.3,4.9-18.9,16.4-23.7ZM1054.6,391.5c11.6,1.4,16,9.5,16,19.3,0,21-26.7,44.9-56,44.9s-18.6-3.4-18.6-11.5,2.8-10.1,12.1-10.1c25.7,0,49.2-17.6,49.2-33.5s-.8-6.4-2.7-9.1h0ZM808.5,391.5c18.4,0,25.6,10.2,28.2,10.2s5.7-3.1,8-3.1,3.2,5.1,3.2,8.8c0,12.1-5.2,32.8-18.2,40.3-2.3-5.1-6.9-10.8-14.4-14.4-2-.9-2.9-2.7-2.9-4.5,0-3.3,2.9-7.5,6.2-9.4-2.3-3.9-10.9-6-14.9-6-12.7,0-21.4,9.3-23,17.8-1.1-3.1-2-6.6-2-10.2.2-13.2,8.8-29.5,29.8-29.5h0ZM358.5,391.5c21.1,0,28,21.8,28,36s-1.3,12.5-2.8,17.3c-21.5,0-46.1-9.5-46.1-33,.2-11,8.8-20.3,20.9-20.3h0ZM339.8,244.6c14.9,0,53.4,3.8,53.4,12.6s-32.6,19.8-32.4,29.4c0,11.5,45.5,4.7,45.5,14.6s-33.1,33-33.1,40.2,1.5,1.8,2.8,1.8c7.9,0,28.5-15,37.9-15s4.8,2.4,4.8,6.6c0,8.4-5.1,22.5-5.1,31.2s.6,4.5,3.1,4.5c6.7,0,17.3-28.5,26.7-28.5s.9,42.9,9.8,42.9,9-38.9,16.9-38.9,11.2,21.9,19.2,21.9,3.7-4.2,3.6-11.1h0v-10.3c0-6.6.3-11.1,3.7-11.1,9.2,0,35,29.9,40.5,29.9s1.5-1.1,1.5-2.2c0-8.1-17.3-35.4-17.3-49.7s1.8-8.1,6.7-8.1c10.7,0,33.1,12.2,43.4,12.2s5.5-1.1,5.5-4.5c0-12.3-37.1-37.1-37.1-47.3s41.3-20.1,69.6-20.1,10.9,0,10.9,3.8c0,7.5-35,13.9-43.5,22.8-1.1,1.1-1.8,2.4-1.8,3.7.5,14.1,49.9,46.7,49.9,64.8s-3.3,6.9-8.8,6.9c-16.4,0-51-16.2-62.8-16.2s-4.2.9-4.2,3.9c0,11.5,22.5,47.3,22.5,63.2s-1.5,7.5-5.7,7.5c-13.8,0-44.2-35.8-54.7-35.8s-5.5,30.3-14.5,30.3-13.7-17.4-21.6-17.4-13,59.9-25.4,60c-14.6,0-8.9-55.5-18.6-55.5s-17.9,19-29.1,19-7.9-4.8-7.9-11.7,2.7-20.7,2.7-28.5-.3-9-4.3-9c-11.2,0-52.2,29.8-68.1,29.8s-5.7-1.5-5.7-4.8c0-14.6,51.9-58.8,51.9-69s-59.5-.9-59.5-9.8,42.2-27.9,42.2-34.5-40.7-9.3-40.7-17c-.4-5.3,9.3-7.5,27.2-7.5h0ZM902.5,420.5c-1.1,0-1.8.6-1.8,1.5,0,8,14,20.2,35.5,20.2s22.4-6.2,22.4-9.9-1.8-2.2-5.5-2.2-11.3-.3-25.6-2.8c-12.1-1.9-21.4-6.8-25-6.8h0ZM1037.1,392.2c6.1,0,8.1,4.1,8.1,8,0,12.7-24.9,23-36.9,23s-9.5,0-12.7-6.4c-2.5-5.2-1.7-13.5-6.5-17.3,4.8,1.4,9.8,1.4,13.7,1.4,12.8.2,25-8.7,34.3-8.7h0ZM572.2,352.4c8.5,0,47.1,29.9,52.5,37.4,1.1,1.8,1.8,4.2,1.8,6.6,0,9-4.6,19.5-10.6,19.5s-45.3-51.3-45.3-61.7c.2-1,.8-1.8,1.6-1.8h0ZM1050.7,252c9.9,0,12.3,4.5,27,4.5-7.9,4.8-10.8,13.4-10.8,17.6,0,12.5,7.9,21.1,8,46.7,0,46.9-43.3,63.6-96.3,63.6s-30.2-1.1-45.4-3.6c-2.3-.3-2.9-.9-2.9-2.4,0-3.8,20.9-6,20.7-24.9,0-7.4-2.4-14.5-2.4-17.2s1.1-2.4,2.3-2.4c4.5,0,13.2,17.2,29.5,17.2s15.3-1.5,15.1-15.1c0-21.1-49.7-26.5-49.7-31.2s27.7-10.4,42.1-10.7c-22-28.5-53.3-25.4-53.3-30.5s23.4-8.9,45-9c18.2,0,35.1,4.1,35.1,18.1s-6.1,15.8-6.1,27.6,3.2,12.2,11.7,12.2,11.1-9.8,11.1-20.2-1.5-15.1-1.5-19.3c.4-12.6,8.8-21,20.8-21h0ZM810.9,245c3.7,0,10.9,11.8,15.8,11.5,7.9,0,22.8-9.8,43.1-9.8,42.7,0,73.8,25.1,73.8,67.9s-34.6,69.5-71.2,69.5-41.3-15.6-47.1-15.6-9.7,13.6-13.2,13.6-2.2-.3-2.8-3.8c-.9-6.7-1.9-18.3-6.7-18.3s-21.5,19.2-27.4,19.2-1.5,0-1.5-1.5c0-5.9,15.1-26.6,15.1-32.8s-20.6-2.8-20.6-7.8,20.6-12.7,20.6-21-19.7-9.4-19.7-15.9,18.4-8.7,18.4-13.9-18.8-26-18.8-32.8,28.2,13,35.5,13,3.6-7.9,3.7-12.1v-1.5c0-5,1.5-7.9,3-7.9h0ZM869.4,260.6c-18.6,0-30.4,7.4-30.4,14.2s3.7,4.7,6.7,4.7c6.1,0,20.6-5.6,23.4-5.6s3.3.6,3.3,2c0,3.3-6.4,10.3-6.4,14.5s33.3,1.4,33.3,7.4-24.6,10.9-24.6,14.5,19.7,16.5,19.7,23-.6,2.4-2.7,2.4c-6.4,0-18.6-3.2-26.7-3.2s-2.7.9-2.7,2c0,4.5,5.2,13.2,5.2,18.6s-.9,2.3-2.2,2.3c-4.8,0-19.5-10.1-26.1-10.1s-4.2,1.8-4.2,4.5c0,5.3,14,15.6,35.2,15.6s47.1-10.7,46.9-53.2c.3-33.5-17.6-53.6-47.7-53.6h0ZM1045.1,305.8c0,26.5-19,46.7-53.3,52.3,3.8.3,7.4.3,10.8.3,40.1,0,54.7-18.4,54.7-33.8.2-8.8-4.5-16.5-12.2-18.8ZM338.4,320.2c4.2,0,9.2.9,9.2,3.3,0,6-23,26.1-31.3,26.1s-3.9-3.6-3.9-6.9c0-6,2.7-14.4,6.1-17,3.8-3.8,12.9-5.5,19.9-5.5h0ZM822.1,282.3c-2.9,0-3.6,16.5-7.5,16.5s-10.3-1.1-13.7-1.1-1.5.3-1.5.9c0,3.6,11.8,9.8,11.8,13s-12.2,10.3-12.2,12.7.6.9,2.2.9,9.2.3,12.7.3,2.2,1.1,2.2,2.4h0l.6,11.8c0,1.5.6,2.7,1.5,2.7,2.7,0,8.1-12.1,11.5-12.1s12.2,4.2,14.6,4.2.9-.3.9-.9c0-2.7-6.4-10.9-6.4-13s17.3-2.4,17.3-5.3-17-5.6-17-8.3,7.6-10.3,7.6-12.5-.6-.9-1.3-.9c-3.1,0-10.3,4.5-14.2,4.5-3.4-.2-7-15.8-9.1-15.8h0ZM436.1,246.6c20.1,0,16.2,16.8,31.9,16.8s12.5-16.2,32.2-16.3c12.5,0,21.5,1.8,21.6,3.6,0,4.2-14.9,4.2-14.9,13.5s27,17,27.1,24.3c0,2-1.8,2.7-3.7,2.7-5.1,0-14.6-4.2-21.5-4.2s-8.5,2.4-8.5,7.5c0,8.4,9.2,21.2,9.2,27.6s-1.5,3.6-3.3,3.6c-7.3,0-15.3-23-25.8-23s-9,33.2-18.2,33.2,1.8-33.8-14.2-33.8-20,15.3-26.1,15.3-3.1-.6-3.1-2.4c0-6,16.4-19.5,16.4-27s-3.9-4.8-8.3-4.8c-7.6,0-18.2,3.1-24.9,3.1s-5.5-.9-5.5-2.9c0-6.4,30.7-9.3,30.7-19.8s-14.2-8.4-14.2-12c-.3-2.8,11-5,23.1-5h0ZM616,275c7.9,0,11.8.3,11.8,9.3s-1.5,14.1-6.6,14.1c-8.8,0-28-11.7-28-17s12.8-6.4,22.8-6.4h0ZM1050.7,262.7c-4.1,0-7.4,3.3-7.3,7.5,0,4.2,3.2,7.4,7.4,7.4s7.4-3.3,7.4-7.4c0-4.2-3.4-7.5-7.5-7.5h0Z"/>
              </g>
            </g>
          </g>
        </g>
      </g>
    </g>
  </g>
</svg>