<?xml version="1.0" encoding="UTF-8"?><svg id="Layer_2" xmlns="http://www.w3.org/2000/svg" viewBox="0 0 858.79 96.61"><defs><style>.cls-1{fill:#7bff47;stroke-width:0px;}</style></defs><g id="A"><g id="A_Slim"><path class="cls-1" d="m0,48.31c0,26.35,21.26,47.71,47.48,47.71v-15.6c-17.62,0-31.96-14.41-31.96-32.11s14.34-32.11,31.96-32.11V.6C21.26.6,0,21.96,0,48.31Z"/><path class="cls-1" d="m132.2,0c-26.51,0-48.08,21.67-48.08,48.31s21.57,48.31,48.08,48.31,48.08-21.67,48.08-48.31S158.71,0,132.2,0Zm0,92.33c-24.15,0-43.8-19.75-43.8-44.02S108.05,4.28,132.2,4.28s43.8,19.75,43.8,44.02-19.65,44.02-43.8,44.02Z"/><polygon class="cls-1" points="286.72 .6 286.02 .6 286.02 7.28 286.02 96.02 301.35 96.02 301.35 .6 287.38 .6 286.72 .6"/><polygon class="cls-1" points="232.15 .6 216.93 .6 216.93 4.24 218.33 7.29 218.33 7.26 218.81 8.34 218.82 8.34 218.82 8.34 255.33 90 258.25 90 264.81 75.17 263.13 71.31 232.15 .6"/><polygon class="cls-1" points="215.19 37.52 215.19 96.02 216.19 96.02 216.93 96.02 218.33 96.02 219.08 96.02 220.08 96.02 220.08 43.67 215.19 32.91 215.19 37.52"/><path class="cls-1" d="m386.08,0c-26.51,0-48.08,21.67-48.08,48.31s21.57,48.31,48.08,48.31,48.08-21.67,48.08-48.31S412.59,0,386.08,0Zm0,92.33c-24.15,0-43.8-19.75-43.8-44.02s19.65-44.02,43.8-44.02,43.8,19.75,43.8,44.02-19.65,44.02-43.8,44.02Z"/><polygon class="cls-1" points="540.6 .6 539.89 .6 539.89 7.28 539.89 96.02 555.23 96.02 555.23 .6 541.25 .6 540.6 .6"/><polygon class="cls-1" points="517.01 71.31 486.03 .6 470.81 .6 470.81 4.24 472.21 7.29 472.21 7.26 472.69 8.34 472.69 8.34 472.69 8.34 509.2 90 512.13 90 518.69 75.17 518.69 75.17 517.01 71.31"/><polygon class="cls-1" points="630.13 .6 624 16.6 624.62 18.18 624.63 18.17 642.31 63.12 642.31 63.13 642.65 63.99 642.65 63.99 643.6 66.43 655.18 96.02 671.92 96.02 634.11 .6 630.13 .6"/><polygon class="cls-1" points="591.44 96.02 592.52 96.02 593.6 96.02 595.71 96.02 596.23 96.02 597.3 96.02 609.54 63.18 618.59 38.74 615.94 32.03 591.44 96.02"/><polygon class="cls-1" points="709.11 .6 691.67 .6 720.93 55.1 720.93 96.02 736.27 96.02 736.27 52.75 735.28 50.57 709.11 .6"/><polygon class="cls-1" points="762.02 .6 759.44 .6 758.98 .6 757.88 .6 741.53 34.5 744.64 40.48 764.36 .6 763.22 .6 762.02 .6"/><polygon class="cls-1" points="820.97 .6 816.99 .6 810.87 16.6 811.49 18.18 811.49 18.17 829.18 63.12 829.18 63.13 829.52 63.99 829.52 63.99 830.46 66.43 842.05 96.02 858.79 96.02 820.97 .6"/><polygon class="cls-1" points="778.29 96.02 779.39 96.02 780.47 96.02 782.58 96.02 783.1 96.02 784.14 96.02 796.4 63.18 805.46 38.74 802.81 32.03 778.29 96.02"/><polygon class="cls-1" points="469.06 37.52 469.06 96.02 470.06 96.02 470.81 96.02 472.21 96.02 472.96 96.02 473.96 96.02 473.96 43.67 469.06 32.91 469.06 37.52"/></g></g></svg>