<?xml version="1.0" encoding="UTF-8"?>
<svg xmlns="http://www.w3.org/2000/svg" version="1.1" viewBox="0 0 894.3 913.8">
  <defs>
    <style>
      .cls-1 {
        fill: #1a4229;
      }

      .cls-2 {
        fill: #7bff47;
      }

      .cls-3 {
        fill: #628f4c;
      }
    </style>
  </defs>
  <!-- Generator: Adobe Illustrator 28.6.0, SVG Export Plug-In . SVG Version: 1.2.0 Build 709)  -->
  <g>
    <g id="katman_1">
      <g>
        <path class="cls-1" d="M336.9,772.8c-.1,0-.2.2-.3.2,0-.1.2-.1.3-.2Z"/>
        <path class="cls-1" d="M771.5,422.1v-.3.3h0Z"/>
        <path class="cls-1" d="M583.7,716.6h0s0,0,0,0h0Z"/>
      </g>
      <path class="cls-3" d="M253.7,271.5s.1,0,.1.1h0c-.1,0-.1-.1-.1-.1Z"/>
      <path class="cls-3" d="M253.8,271.5q0,.1,0,0t0,0,0,0Z"/>
      <path class="cls-3" d="M233.4,258.5v.3c-.1,0-.1-.1-.2-.1.1,0,.1-.2.2-.2Z"/>
      <path class="cls-3" d="M131.2,557.6h0Z"/>
      <path class="cls-3" d="M119.5,505.6q0,0,0,0t0,0,0,0Z"/>
      <path class="cls-3" d="M120,541.8c.2.4.6.8,1,1.1-.3-.2-.6-.4-.9-.6,0-.1,0-.3,0-.5Z"/>
      <path class="cls-3" d="M132.8,578.9s0-.1,0,0q0-.1,0,0c0-.1,0,0,0,0Z"/>
      <path class="cls-3" d="M253.8,271.8h0q0-.1.1-.1h.1s-.1,0-.1.1c0-.1-.1,0-.1,0Z"/>
      <path class="cls-2" d="M796.3,364c-.8-12.2-1.3-24.4-2.8-36.6-3.6-29.6-10.6-58.3-22.7-85.7-19.3-43.7-49-78.5-90.2-102.9-45.5-26.9-94.9-38.7-147.6-37.3-21.5.5-42.8,3.1-63.9,7.5-46.4,9.6-89.7,27-130.6,50.7-40.8,23.7-77.5,52.8-110.3,86.7-27.7,28.5-51.7,59.8-71.9,94-25.9,43.8-44.3,90.5-53.2,140.7-3,17-4.4,34.1-5.5,51.3-.5,8,.2,15.9.7,23.9,1.4,23.1,5,45.8,11,68.1,8.8,32.6,22.3,63.1,42.2,90.6,32.2,44.5,75.4,72.9,128.1,87.3,28.1,7.7,56.7,10.6,85.7,10,7,0,13.9.3,20.9-.2,35.3-1.7,69.8-8.6,103.3-19.8,48.8-16.3,93.2-40.7,133.7-72.5,40.6-31.9,75-69.4,103.2-112.7,29.3-44.9,49.9-93.4,61.2-145.8,5.3-24.6,7.6-49.4,9.1-74.4.5-7.6,0-15.3-.4-22.9ZM546.7,351.8c1.2-1.2,2.6-1.4,4.2-1.3,1.8-.4,3.5-.8,5.3-1.2.2-7.6,1-15.1,1.7-22.6.5-1.1.5-2.3.5-3.4.1-.6.3-1.2.3-1.9.4-1,.2-2.1.3-3.2.1-.3.2-.6.3-.9.4-1.1.2-2.2.3-3.3.4-3.2.2-6,1.9-8.3.4-.8.6-1.6.5-2.5-.3-3.4,1.1-6.4,1.7-9.6.9-4.2,2-8.4,3-12.6.3-1.1.1-2.6,1.6-3.1,1-2.8,2-5.6,3-8.4.8-3.6,2-7,4.4-9.8,1.2-2.1,2.5-4.3,3.7-6.4,0-.5.2-.9.7-1.1,1-1.3,1.9-2.6,2.9-3.9,0-1,.6-1.4,1.4-1.8,1.7-1.4,3.1-3,4.4-4.8,1-2,2.5-3.6,4.6-4.6,8.1-7.1,16.4-13.8,26-18.9,2.3-1.2,4.6-2.4,6.8-3.6,1.7-2.3,4.8-1.8,6.9-3.4,2.3-.4,4.5-1.7,6.8-2,4.5-1.7,9.3-2.2,14-3.3,1.1-.1,2.3.2,3.4-.4.6-.3,1.3-.3,2-.3,1.6,0,3.2.1,4.7-.3,5.8-.5,11.6-.5,17.5,0,1.6.4,3.2.3,4.8.3s1.1.2,1.4.6c1.4,1.7,0,3.8.6,5.6.8,4,.4,8.1,0,12.1,0,1.7-.3,3.4-.4,5.2-.6,9.6-1.2,19.2-2.1,28.8-.3,3.3-.4,6.6-.9,9.9-.3,2.4-1.4,3.2-3.7,3-7-.4-13.6,1.1-19.4,5.3-1.9,1.5-3.5,3.2-5.1,5-6.1,7.9-8.5,17.1-10,26.7-.5,3.1-.7,6.2-.8,9.3q0,2.8,2.7,2c.8-.2,1.6-.5,2.4-.8,2-.4,4-.8,6-1.4,2.1-.8,4.2-1.4,6.4-1.9,4.7-1.7,9.7-2.8,14.4-4.5.7-.3,1.5-.7,2.4-.1.4-.1.9,0,1.2-.2,2.5-1.4,3.4-.3,3.4,2.2.3,1.7-.2,3.4.3,5,1.2,1,1,2.5.9,3.8-.7,11.1-1.2,22.2-3.7,33.1-2.4,10.5-5.4,20.7-11.8,29.6-1.7,1.7-3,3.9-4.9,5.6-4.1,4.1-8.8,7.4-14,10.1-1.5.7-2.9,1.5-4.4,2.1-2.4,1.1-4.9,1.8-7.1,3.3-1.8,2.3-.9,5.2-1.2,7.7-.4,3.6-.8,7.3-.8,11-.7,9.3-1.4,18.5-2.1,27.8-.2,2-.3,3.9-.3,5.9,0,.7,0,1.5-.3,2.2-.8,2.5,0,5.1-.5,7.7-1.1,3.4-.6,7-.9,10.5-.6,6.4-1.1,12.7-1.4,19.1,0,.9,0,1.9,0,2.8-1.1,3.4-.6,7-1,10.5-.8,6.3-.9,12.7-1.4,19.1,0,.8,0,1.5,0,2.2-1.1,3.7-.5,7.6-1,11.4-.7,5.3-.8,10.7-1.4,16.1v1.6c-.9,6.3-1.4,12.7-1.9,19.1-.5,6.6-3.5,12-7.5,17.1-1.9,2.3-3.8,4.7-6.3,6.4-6.2,5.1-13.6,7.4-21.1,9.7-14,4.3-28,8.6-41.9,13.1-2.1.7-4.1,1.6-6.3,1.3-2.6,0-4.8,1.6-7.5,2v-5c-.5-.5-.6-1.2-.4-1.9.8-1.8.3-3.7.4-5.5,0-.8-.1-1.7.3-2.5.7-1.8.2-3.7.4-5.6,0-.9.3-1.7.4-2.5.5-1.8.1-3.7.3-5.6.2-.8.3-1.7.3-2.5.5-2,.1-4.1.2-6.1,0-.9.2-1.7.3-2.5.6-1.6.2-3.4.3-5,0-.9-.1-1.7.1-2.5.9-1.8.3-3.7.5-5.5,0-.9.1-1.7.4-2.5.5-1.8.1-3.7.3-5.6,0-.9.3-1.7.4-2.5.5-2,.1-4.1.2-6.1,0-.7,0-1.4.3-2,.6-1.8.2-3.7.3-5.6,0-.8-.1-1.7.3-2.5.7-1.8.2-3.7.3-5.6,0-.9-.1-1.7.3-2.5.7-1.8.2-3.7.3-5.6-.1-1,.3-2,.4-3,.5-1.7.2-3.4.3-5.1,0-1-.1-2.1.3-3.1.7-1.8.2-3.7.4-5.6,0-.9.1-1.7.4-2.5.5-1.8.2-3.7.3-5.6,0-.7,0-1.4.3-2,.6-2,.2-4.1.3-6.1,0-.9.1-1.7.4-2.5.5-1.7.2-3.4.3-5.1,0-.9,0-1.7.1-2.6.9-2.1.4-4.2.5-6.3.8-6,1-12.1,1.5-18.1.6-1.9.2-3.9.3-5.8,0-.9,0-1.7.1-2.6.8-1.8.5-3.7.5-5.6.1-.8-.1-1.8.7-2.4.7-2.7.6-5.4.6-8.1.5-3-.8-5.9,0-8.9.3-1-.5-1.2-1.4-1-1,.2-2,.6-3,1-7.6,2.3-15,5.1-22.5,7.4-.6.2-1.2.2-1.9,0-1.9.6-3.8,1-5.6,1.7-2.1.9-1.8-.5-1.9-1.7-.5-3.1-.1-6.2.1-9.2.6-6.8.9-13.6,1.5-20.3.5-2.1.2-4.3.3-6.5,0-.9-.1-1.8.1-2.7.9-2.2.3-4.5.5-6.8-.1-1.1.3-2.1.4-3.1.5-2.3.1-4.6.3-6.8,0-.7.1-1.4.7-1.9,2-16.5,12.3-25.9,26.9-31.7,1-.4,2.1-.9,3.1-1.3ZM542.6,244.4c1.4,19.1-2.1,37.1-13.6,52.8-9.2,12.6-21.4,20.6-37,23-7.1.8-14.2.4-21.3.1-2.2-.3-4.4-.6-7-1,3.3,7.1,9.1,10.3,16,11.4,14.1,2.3,27-1.4,39.1-8.6.7-.2.8.1.7.7-10.9,12.9-24.8,20.1-41.5,21.8-.5.1-1,0-1.5,0-3.9-.3-7.8-.3-11.8-.2-11.3-.4-21.6-4-31.1-9.7-19.1-11.4-30.2-28.3-33.6-50.2-.2-1-.1-2.1-.1-3.1v-18.1c1.8-27.1,18.5-52.6,46.6-59.5,2.1-.5,4.2-1.1,6.4-1,5.2,0,10.4,0,15.5,0,3.2-.2,6.3,1,9.8,1.4-2.2-5.5-6.3-8.4-11.2-10.1-10.7-3.7-21.3-2-31.7,1.5-4.4,1.5-8.5,3.7-12.7,5.8,4-5.7,9.2-10.2,15.2-13.5,4.9-2.2,9.6-4.7,14.8-6.1,1.5-.4,3-.9,4.5-1h1.3c-.5,0-1,0-1.5,0-.2,0-.4-.2-.5-.3,1-.8,2.1-.5,3.2-.6,3,.5,5.9-.6,8.9-.6,5,0,9.9.4,14.8.6,11.3,1.6,21.6,5.9,30.8,12.6,17.6,12.9,27,30.3,28.5,52ZM495,445.4c-1,7.2-1.2,14.6-1.9,21.8-.6,7-.9,14-1.8,20.9-.3,2.1,0,4.1-.3,6.2-.8,2.2-.3,4.5-.5,6.7-1,7.4-1.2,14.8-1.9,22.2-.7,7-1.1,14-1.7,21-.5,6.3-.9,12.6-1.4,18.9-.8,9.7-1.6,19.4-2.3,29-.6,7.6-1.4,15.2-1.6,22.9-.8,5.5-1.2,11.1-3,16.4-.7,1.8-1.4,3.6-2.1,5.3-1.8,3.3-3.7,6.5-6.4,9.2-2.5,2.7-5.6,4.7-8.7,6.5-9.3,4.7-19.5,7-29.3,10.2-9.9,3.2-20,6.4-30,9.3-1.8.5-3.6.6-5.4.9-2,.5-4,1-6,1.6-.6-1.6.2-3.1-.1-4.6-.8-.9-.6-1.9-.5-2.9.8-1.6.4-3.3.5-4.9v-1.5c0-.5.2-1,.4-1.5.4-2.1,0-4.2.3-6.3.6-4.8.8-9.7,1.1-14.5.4-6.1,1-12.1,1.5-18.2.3-3.2.1-6.4.5-9.6.8-1.9.3-3.9.5-5.9,0-1.1,0-2.1.1-3.2.7-1.6.5-3.4.5-5.1s-.1-2.1.3-3.1c.7-1.9,0-4,.6-5.9.7-13.3,2-26.5,2.9-39.8.6-8.9,1.1-17.9,2.1-26.8.5-1.9.2-3.9.3-5.9.2-.9.3-1.7.3-2.6.5-2,.1-4.1.2-6.2,0-.7,0-1.4.3-2,.6-1.8.3-3.7.4-5.6,0-.9,0-1.7.1-2.5.9-1.8.3-3.7.5-5.5,0-.7,0-1.4.3-2,.7-2,.1-4.1.4-6.1.2-.8.3-1.7.3-2.5.5-2,.1-4.1.2-6.1,0-.7,0-1.4.3-2,.6-1.8.2-3.7.3-5.6,0-.9-.1-1.7.3-2.6.6-1.9.2-3.8.3-5.8.6-5.2.8-10.5,1.3-15.8,1-9.8.8-19.8,3.1-29.5.9-4,2.1-8,5-11.1,2.2-2.7,4.4-5.2,7-7.6.4-.6.6-1.6,1.7-1.4,1.8-1,3.5-2,5.3-2.9.7-1.7,2.3-1.6,3.7-2.1,1.2-.5,2.5-.7,3.6-1.5,4.2-1.1,8.1-2.9,12.4-3.4,10.9-3.3,21.8-6.5,32.7-9.8,3.9-1.2,8-2,11.8-3.8,1.6-.9,3.1-1.4,4.9-1.3,1.3-.2,1.4.5,1.4,1.6-.1,1.7-.1,3.4-.2,5.1,1,4.4.1,8.9-.2,13.3-.5,6.2-.8,12.4-1.5,18.6-1,3.6-.4,7.4-.9,11.1-.8,5.8-.8,11.7-1.4,17.6,0,3.6-.8,7.1-.6,10.7ZM162.9,688.6c-9.4-15.5-17.1-31.9-23.7-48.8v-.3h0c-5.1-13.5-9.4-27.2-12.8-41.2,0-.6-.2-1.2-.3-1.8,0,0,0,0,0-.2h0c-1.3-6-3.3-11.7-3.1-18h0c-1.9-3.1-1.6-6.7-2.1-10-.7-4.8-1.7-9.6-1.6-14.4-1.4-12.9-1.4-25.9-1.2-38.9,0-1.2-.4-2.5.6-3.6.3-3.1-.6-6.3.6-9.3h0c.2-6.9.7-13.6,2.2-20.3,0-.4,0-.9.3-1.3,0-.1,0-.2,0-.3h0c.4-4.8,1-9.6,2.5-14.3h0v-.2c1.1-8.5,3.1-16.8,5.6-24.9,0-.1,0-.2.2-.2,1-5.4,2.6-10.8,4.5-16.1,0-.3.2-.7.3-1,1.1-4.4,2.5-8.7,4.3-12.9h0c2.6-8,5.4-15.9,9.2-23.5,0-.1,0-.1,0-.2s0-.2,0-.3c2.3-6.2,5-12.3,8.2-18.1,2.6-6.5,5.7-12.6,9.3-18.6h0c2.1-4.7,4.5-9.1,7.3-13.4h0c0-.2,0-.3,0-.4,5.9-11,12.7-21.6,20-31.7.3.4.6.2.2-.1,1.3-2.4,3.2-4.5,4.9-6.8,3.7-5.2,7.6-10.2,11.8-15h.3c3.9-4.8,8-9.7,12.4-14h-.1c6-6.9,12.5-13.3,19.2-19.5h.1c1.8-2.3,3.9-4.1,6.1-5.7h0c5.6-5.5,11.3-10.5,17.5-14.9,0-.1.1-.1.1-.2,4.8-4.4,10.1-8.3,15.6-12l.5-.5c6.6-5.2,13.4-10.1,20.6-14.3h.3c4-3,8.3-5.8,12.9-8,4.7-3.7,10.2-6.1,15.3-9.1,2.9-1.7,6-3.1,9.1-4.6.1,0,.2,0,.3-.2,6.5-3.9,13.4-6.8,20.3-9.8q.1,0,.2,0c7.1-3.6,14.5-6.5,21.9-9.4,1.7-.7,3.3-1.7,5.3-1.8,3.6-2.1,7.7-3.2,11.7-4.5,3.8-1.3,7.4-2.9,11.4-3.6,0,0,.1,0,.1,0h-.1c9.1-3.4,18.5-5.6,27.9-8.1.9-.2,1.8-.4,2.7-.7h0c.3-.2.6-.3.9-.3,5.3-2,10.9-2.7,16.4-3.9,7.3-1.6,14.8-2.7,22.2-4,4.6-.8,9.3-1.5,14.1-2.3-1.2,1.6-3,1.2-4.4,1.5-11.4,2.8-22.7,6.2-33.8,10.1-1.2.4-2.4.6-3.6.8h0c-9.6,3.8-19.1,7.5-28.7,11.3h-.1s.1,0,.1.2c-8.1,3.5-16.2,7.3-24.2,11h0c-6.4,3.7-13,6.6-19.5,10,0,0-.1,0-.1,0-9.5,5.8-19.1,11.3-28.5,16.9h-.1c-6.3,4.2-12.5,8.4-18.7,12.5q-.1,0-.2.1c-4,3.3-8.5,6.4-12.8,9.2h0c-4,3.2-7.9,6.3-11.9,9.3h0c-8.7,7.3-17.4,14.7-26.1,22h-.1c-3.6,3.3-7,6.5-10.6,9.7h0c-2.8,2.7-4.9,6-8.1,8.2h0s.1,0,.1.1c-6.2,6.2-12.2,12.5-18.2,18.8h0c-4.1,4.7-8.3,9.5-12.4,14.3-4.6,5.7-9.1,11.3-13.7,16.9-2.5,3.3-5,6.6-7.5,9.8v.2c-7.1,11-14.2,22-21.3,32.9h-.2c-2.1,4-4.3,7.7-6.5,11.5,0,.1,0,.3,0,.4-2.3,4.2-4.5,8.3-6.8,12.5h-.3c-2.5,5-5,9.9-7.4,14.9,0-.1,0-.1,0-.2,0,.1,0,.3,0,.4l-9.4,21h0c-1.8,4.6-3.7,9.2-5.5,13.7h0c-1.7,4.8-3.4,9.5-5,14.3h0c-3,10.4-5.9,20.5-8.8,30.6-1.7,8.2-3.3,16.5-5,24.8h0c-.9,6.6-1.7,13.1-2.5,19.5,0,6.3-.7,12.5-1.3,18.7h0v9.4c0,.1,0,.3,0,.4.2,8,.4,15.9.7,23.9,0,.1,0,.2,0,.3,1.1,2.3.5,4.8.6,7.2,1.2,9.8,3.1,19.5,4.3,29.3,1.6,6.8,3.2,13.5,5,20.3.9,3.7,2.1,7.2,3.1,10.9v-.2c3.3,9.3,6.4,18.8,10.2,27.9,4.6,10.8,9,21.6,14.9,31.8,0,.2.2.5.4,1.6-3.7-4.4-6-8.9-8.6-13.1ZM237.6,700.9c-1.5-1-3.5-1.3-4.4-3.1-4.4-3.1-8.8-6.1-13.1-9.2-.9.2-1.3-.5-1.6-1.3-2.9-2.9-5.9-5.8-8.8-8.8-1.2-.7-2.3-1.5-2.7-3-2.6-3.6-5.2-7.3-7.9-10.9-1.4-.2-1.1-1.3-1.4-2.2-3.9-6.7-7.3-13.7-10.5-20.7-1.4-1.4-1.8-3.3-2.5-5h0c-.6-2.4-2.4-4.6-2.1-7.3-1.2-4.2-2.4-8.4-3.6-12.6-2.2-3.9-2-8.4-3.1-12.5-.6-2.3-1.2-4.6-1.2-7-.3-1.3,0-2.7-.3-4,0-.5,0-1-.3-1.5-.3-1.4,0-2.8-.5-4.2,0-4.5-1-9-.9-13.6,0-3.8.3-7.6-.5-11.4-.6-3,.7-5.9.6-8.9-.5-10.8,1.1-21.4,2.1-32.1.4-1.2.4-2.5.4-3.8.2-2.1,0-4.2,1.3-6.1,2-9.3,3.2-18.7,5.5-27.9,1.8-7.2,3.7-14.4,5.6-21.5,0-2.8,1.3-5.2,2.1-7.7.8-2.4,1.3-4.9,2.5-7.2h0c1.8-3.6,2.6-7.7,4.9-11.1,3.9-8,7.1-16.3,11.5-24,5.2-9.2,11-18,17.4-26.4,1.3-1.7,2.6-3.5,3.9-5.3-.1-1,.6-1.4,1.4-1.8.8-.4,1.3-1.2,1.7-2-.1-1,.6-1.4,1.4-1.8,3.3-3.7,6.7-7.3,10-11,.3-1.1,1-1.8,2.1-2.1.1-.1.3-.3.4-.4.3-1.1,1-1.8,2.1-2.1,2.7-2.5,5.4-5,8.1-7.4.3-1.1,1-1.9,2.2-2.1.7-.1,1.1-.5,1.4-1.1.3-.8.7-1.5,1.8-1.4,10.1-7.9,20.4-15.6,31.8-21.7,4.4-2.3,8.8-4.5,13.3-6.8,2.9-1.8,5.8-3.3,9.2-3.8,11.4-4,23.1-6.9,35.1-8.6.3-.5.7-.4,1.1-.1,10-.9,20-.8,30,0,.4-.3.8-.4,1.1.1q4.8,1.1,5.1,6.2c.8,1.7.5,3.5.4,5.2-1,12.6-1.9,25.2-2.9,37.8-.6,7.2-1.2,14.5-1.5,21.7-1,7.6-1.3,15.3-1.9,22.9.1,1.7-.3,3.3-.5,4.9-.3,2.5-1.7,3.1-3.9,2.3-2.3-.8-4.8-1.4-7.2-1.9-8-1.6-16-1.3-24-.1-15.9,2.5-29.4,9.6-40.8,20.9-1.6,1.6-3.3,3.2-4.8,4.9-.9,1.1-1.8,2.3-2.7,3.4-2.4,3.2-4.9,6.3-6.8,9.8-1.1,1.8-2.3,3.6-3.2,5.5-1.3,2.7-3.1,5.2-4.1,8.1-.3.7-.6,1.3-1,2-1.7,3.3-2.9,6.8-4.2,10.3-5.2,14.1-8.1,28.8-9.9,43.7-.3,2.9-.2,5.8-.7,8.6-.6,7.1-1.3,14.3-.9,21.4.6,10.5,1.4,20.9,4.6,31,1.5,4.6,3.2,9.2,5.8,13.4.6,1.3,1.4,2.4,2.2,3.5,1.2,2.1,3.6,3.2,4.4,5.6,5.8,5.4,12.7,8.4,20.6,8.8,1.7,0,3.3,0,5,0,4.8,0,9.4-.9,13.9-2.5.7-.7,1.4-1,2.3-.7,1.9-.2,3.6-1,5.3-1.8,1.1-1.8,3.1-1.5,4.7-2,11.9-5.2,21.8-13.3,31.3-22.9-.3,4.8-.5,8.8-.7,12.9,1.5,2.1,0,4.4.2,6.6.1,1.3.1,2.7-.2,4-1.1,3.9-.5,8-1,12-.4,3.4-.9,6.9-.8,10.4-.1,3.8-.7,7.5-.7,11.3-1,3.9-.6,8-1,12-.5,4.5-1,9-.9,13.6-.3,1.2-.6,2.4-.5,3.6v1.6c-.4,3.5-.6,7-.7,10.5-.1,2.9-.7,5.8-3.6,7.5-2.5,1.5-4.9,3.2-7.4,4.8-3.2,1.8-6.4,3.8-9.6,5.6-6.9,3.9-14.2,7-21.7,9.8-.6.2-1.1.5-1.7.7-2.1.7-4.3,1.5-6.4,2.1-9.5,2.9-19.1,4.7-29.1,5h-5.9c-10.4,0-20.5-2.2-30.4-5.6-3-1.3-6.1-2.5-9.1-4ZM773.3,407.8c0,.4-.3.8-.5,1.2v.2c.4,5.4-.7,10.7-.7,16.1s-.4.9-.6,1.3v.2c-.5,7.1-1.1,14.3-2.7,21.3,0,.6,0,1.1-.3,1.7-.4,5.5-1.5,10.9-3.1,16.2h0c-1.5,7-2.9,14-5,20.9,0,.3-.2.5-.3.7,0,.3,0,.5-.3.8-1.4,5.3-2.7,10.6-5,15.6,0,.2-.2.4-.3.5-2.3,8.1-5.7,15.8-8.9,23.6-.6,1.5-.9,3.1-2,4.3,0,.1.2.1.2.2-1.7,3.7-3,7.4-5.2,10.7-1.8,3.8-3.2,7.6-5.5,11h0v.2c-3.5,7-7.3,13.9-11.7,20.3,0,.1,0,.2,0,.3-2.4,4.7-5.3,8.9-8.2,13.1-3.6,5.8-7.5,11.6-11.8,16.9h0c-3.3,4.3-6,9-9.9,13h0c-4.6,6.4-9.8,12.3-15,18.1-5.1,5.6-10,11.3-15.5,16.5h0c-1.9,3.1-5.2,4.3-7.1,7.1-3.2,4.1-7.3,7.2-11,10.7,0-.2-.2-.4-.3-.6,0,.2,0,.4.3.6-4.3,4.4-8.9,8.6-13.9,12.4-4.1,4.4-8.9,7.8-13.6,11.5-1,.8-2,1.5-2.9,2.3q0,0,0-.2v.2c-4.9,4.3-10.1,8.3-15.6,11.8h0c-5.8,4.5-11.8,8.7-18.1,12.5v-.2q-.1,0-.2.2c-7.4,5.3-15.3,10.1-23.5,14.3-7.6,4.8-15.5,8.9-23.7,12.4h-.1c.1,0,.1,0,.2,0-4.1,2.4-8.2,4.2-12.6,5.6v.2c-5.6,3.2-11.8,5.2-17.8,7.6-3,1.1-5.8,2.6-9,3-.3.2-.7.3-.9,0-5.5,2.7-11.4,3.8-17,5.8-.9.3-1.8.4-2.7.7h0c-9.8,3.3-19.8,5.7-29.9,7.5-.5.2-1,.4-1.5.3-5.9,1.6-12,2.4-18.1,3.3-3.6.6-7.3,1.4-11,1.3h0c-2.3,1.3-4.9,1-7.2,1.2-6.9.6-13.8,1.1-20.7,1.6-9,.6-18,.2-27,.5,0,0,0,0-.1,0-30.1,0-86.9-9-100.1-16.1,3.8,0,7.1.9,10.4,1.3,5.9.8,11.9,1.4,17.9,1.5,10,.2,20,1.3,30,.4,2.3-.2,4.6-.3,6.8,0,5.4.3,10.9-.9,16.4-.7,10.7-.7,21.3-1.8,31.9-3.5,2.4-.4,4.9-.6,7.4-.9.1,0,.3,0,.4,0-.1,0-.3,0-.4-.2,8.7-1.7,17.3-3.5,26-5.2,2.3-.4,4.6-1.1,7-.9h.1-.1c1.6-1.7,3.8-1.6,5.7-2.1,8.8-2.3,17.5-4.7,26.2-7.5.8-.2,1.6-.4,2.4-.5.4,0,.7,0,1.1-.2,5-1.9,10.1-3.6,15.1-5.3,9.4-3.7,18.7-7.5,28.1-11.2h0c6.2-2.9,12.5-5.8,18.7-8.7.1.2.2,0,.2-.3,7.9-4.2,15.8-8.3,23.7-12.5h.3c6-3.6,12.1-7.3,18.1-10.9h.2c6.6-4.5,13.3-8.8,19.8-13.2h.2c4.6-3.3,9.2-6.6,13.8-9.9h.1c4.4-3.6,8.8-7.2,13.4-10.6h0c4.9-4.2,9.9-8.3,14.8-12.4h0c6.4-5.9,12.9-11.8,19.3-17.6,0,0,.3,0,.4.2,0,0-.2,0-.3-.2l12.4-12.4h0c7.1-8,14.1-15.9,21.2-23.8,0,0,.2,0,.3,0,2.5-3.5,5.2-6.7,7.8-10.1,0,.2,0,.3.2.5v-.4c5-6.8,10.1-13.6,15-20.4h0c2.7-4.1,5.3-8,8-12h0c3.9-6.6,7.9-13.2,11.8-19.7,0-.1,0-.2,0-.3,2.3-4.2,4.5-8.3,6.8-12.5h0,0c2.7-5.6,5.3-11.2,8.1-16.7v-.2c3.1-7.1,6.2-14.2,9.3-21.4v-.3l6.8-18.1c0,0,.3.1.4.1,0-.1-.2-.2-.3-.3.8-3.9,2.3-7.8,3.7-11.7,2.5-9,5-18.1,7.4-27.2h0c1.5-7.4,2.9-14.6,4.4-21.9q0,0,.2.1c0-.1,0-.2,0-.3,1-6.4,2.1-12.9,3.1-19.3h0c.6-6.2,1.2-12.4,1.9-18.7h0c.4-8.7,1.5-17.4,1.2-26.2,0-.2,0-.3,0-.5.2-16-.3-32.1-2.3-48.1,2.3,5.2,3.9,10.7,5.3,16.1,2.5,9.5,4.4,19.1,6.2,28.7,0,1.1,0,2.2,0,3.2,1,7.7,2.3,15.3,2.5,23.1v.6c1.5,12.8,1.1,25.7,1.1,38.6Z"/>
    </g>
  </g>
</svg>