<?xml version="1.0" encoding="utf-8"?>
<!-- Generator: Adobe Illustrator 28.3.0, SVG Export Plug-In . SVG Version: 6.00 Build 0)  -->
<svg version="1.1" id="katman_1" xmlns="http://www.w3.org/2000/svg" xmlns:xlink="http://www.w3.org/1999/xlink" x="0px" y="0px"
	 viewBox="0 0 745.9 762.1" style="enable-background:new 0 0 745.9 762.1;" xml:space="preserve">
<style type="text/css">
	.st0{fill:#1A4229;}
	.st1{fill:#628F4C;}
	.st2{fill:#7BFF47;}
</style>
<g>
	<path class="st0" d="M262.7,697c-0.1,0.1-0.2,0.2-0.3,0.2C262.5,697.1,262.6,697.1,262.7,697z"/>
	<path class="st0" d="M697.3,346.3V346C697.3,346.1,697.3,346.1,697.3,346.3L697.3,346.3z"/>
	<path class="st0" d="M509.5,640.8L509.5,640.8C509.5,640.8,509.5,640.7,509.5,640.8L509.5,640.8z"/>
</g>
<path class="st1" d="M179.5,195.7c0,0,0.1,0,0.1,0.1c0,0,0,0,0,0.1C179.5,195.8,179.5,195.7,179.5,195.7z"/>
<path class="st1" d="M179.6,195.7C179.6,195.8,179.6,195.8,179.6,195.7C179.6,195.8,179.6,195.8,179.6,195.7
	C179.6,195.8,179.6,195.8,179.6,195.7z"/>
<path class="st1" d="M159.2,182.7c0,0.1,0,0.2,0,0.3c-0.1,0-0.1-0.1-0.2-0.1C159.1,182.8,159.1,182.7,159.2,182.7z"/>
<path class="st1" d="M57,481.8L57,481.8L57,481.8z"/>
<path class="st1" d="M45.3,429.8C45.3,429.7,45.3,429.7,45.3,429.8C45.3,429.7,45.3,429.7,45.3,429.8
	C45.3,429.7,45.3,429.7,45.3,429.8z"/>
<path class="st1" d="M45.8,466c0.2,0.4,0.6,0.8,1,1.1c-0.3-0.2-0.6-0.4-0.9-0.6C45.9,466.4,45.8,466.2,45.8,466z"/>
<path class="st1" d="M58.6,503.1C58.6,503.1,58.6,503,58.6,503.1C58.6,503,58.6,503,58.6,503.1C58.6,503,58.6,503.1,58.6,503.1z"/>
<path class="st1" d="M179.6,196v-0.1c0,0,0,0,0.1,0h0.1c0,0-0.1,0-0.1,0.1C179.7,195.9,179.6,196,179.6,196z"/>
<path class="st2" d="M722.1,288.2c-0.8-12.2-1.3-24.4-2.8-36.6c-3.6-29.6-10.6-58.3-22.7-85.7c-19.3-43.7-49-78.5-90.2-102.9
	c-45.5-26.9-94.9-38.7-147.6-37.3c-21.5,0.5-42.8,3.1-63.9,7.5c-46.4,9.6-89.7,27-130.6,50.7c-40.8,23.7-77.5,52.8-110.3,86.7
	c-27.7,28.5-51.7,59.8-71.9,94c-25.9,43.8-44.3,90.5-53.2,140.7c-3,17-4.4,34.1-5.5,51.3c-0.5,8,0.2,15.9,0.7,23.9
	c1.4,23.1,5,45.8,11,68.1c8.8,32.6,22.3,63.1,42.2,90.6c32.2,44.5,75.4,72.9,128.1,87.3c28.1,7.7,56.7,10.6,85.7,10
	c7,0,13.9,0.3,20.9-0.2c35.3-1.7,69.8-8.6,103.3-19.8c48.8-16.3,93.2-40.7,133.7-72.5c40.6-31.9,75-69.4,103.2-112.7
	c29.3-44.9,49.9-93.4,61.2-145.8c5.3-24.6,7.6-49.4,9.1-74.4C723,303.5,722.6,295.8,722.1,288.2z M472.5,276
	c1.2-1.2,2.6-1.4,4.2-1.3c1.8-0.4,3.5-0.8,5.3-1.2c0.2-7.6,1-15.1,1.7-22.6c0.5-1.1,0.5-2.3,0.5-3.4c0.1-0.6,0.3-1.2,0.3-1.9
	c0.4-1,0.2-2.1,0.3-3.2c0.1-0.3,0.2-0.6,0.3-0.9c0.4-1.1,0.2-2.2,0.3-3.3c0.4-3.2,0.2-6,1.9-8.3c0.4-0.8,0.6-1.6,0.5-2.5
	c-0.3-3.4,1.1-6.4,1.7-9.6c0.9-4.2,2-8.4,3-12.6c0.3-1.1,0.1-2.6,1.6-3.1c1-2.8,2-5.6,3-8.4c0.8-3.6,2-7,4.4-9.8
	c1.2-2.1,2.5-4.3,3.7-6.4c0-0.5,0.2-0.9,0.7-1.1c1-1.3,1.9-2.6,2.9-3.9c0-1,0.6-1.4,1.4-1.8c1.7-1.4,3.1-3,4.4-4.8
	c1-2,2.5-3.6,4.6-4.6c8.1-7.1,16.4-13.8,26-18.9c2.3-1.2,4.6-2.4,6.8-3.6c1.7-2.3,4.8-1.8,6.9-3.4c2.3-0.4,4.5-1.7,6.8-2
	c4.5-1.7,9.3-2.2,14-3.3c1.1-0.1,2.3,0.2,3.4-0.4c0.6-0.3,1.3-0.3,2-0.3c1.6,0,3.2,0.1,4.7-0.3c5.8-0.5,11.6-0.5,17.5,0
	c1.6,0.4,3.2,0.3,4.8,0.3c0.5,0,1.1,0.2,1.4,0.6c1.4,1.7,0.1,3.8,0.6,5.6c0.8,4,0.4,8.1,0.1,12.1c-0.1,1.7-0.3,3.4-0.4,5.2
	c-0.6,9.6-1.2,19.2-2.1,28.8c-0.3,3.3-0.4,6.6-0.9,9.9c-0.3,2.4-1.4,3.2-3.7,3c-7-0.4-13.6,1.1-19.4,5.3c-1.9,1.5-3.5,3.2-5.1,5
	c-6.1,7.9-8.5,17.1-10,26.7c-0.5,3.1-0.7,6.2-0.8,9.3c-0.1,2.8-0.1,2.8,2.7,2c0.8-0.2,1.6-0.5,2.4-0.8c2-0.4,4-0.8,6-1.4
	c2.1-0.8,4.2-1.4,6.4-1.9c4.7-1.7,9.7-2.8,14.4-4.5c0.7-0.3,1.5-0.7,2.4-0.1c0.4-0.1,0.9,0,1.2-0.2c2.5-1.4,3.4-0.3,3.4,2.2
	c0.3,1.7-0.2,3.4,0.3,5c1.2,1,1,2.5,0.9,3.8c-0.7,11.1-1.2,22.2-3.7,33.1c-2.4,10.5-5.4,20.7-11.8,29.6c-1.7,1.7-3,3.9-4.9,5.6
	c-4.1,4.1-8.8,7.4-14,10.1c-1.5,0.7-2.9,1.5-4.4,2.1c-2.4,1.1-4.9,1.8-7.1,3.3c-1.8,2.3-0.9,5.2-1.2,7.7c-0.4,3.6-0.8,7.3-0.8,11
	c-0.7,9.3-1.4,18.5-2.1,27.8c-0.2,2-0.3,3.9-0.3,5.9c-0.1,0.7-0.1,1.5-0.3,2.2c-0.8,2.5-0.1,5.1-0.5,7.7c-1.1,3.4-0.6,7-0.9,10.5
	c-0.6,6.4-1.1,12.7-1.4,19.1c0,0.9,0.1,1.9-0.1,2.8c-1.1,3.4-0.6,7-1,10.5c-0.8,6.3-0.9,12.7-1.4,19.1c0,0.8,0.1,1.5-0.1,2.2
	c-1.1,3.7-0.5,7.6-1,11.4c-0.7,5.3-0.8,10.7-1.4,16.1c0,0.5,0,1.1,0,1.6c-0.9,6.3-1.4,12.7-1.9,19.1c-0.5,6.6-3.5,12-7.5,17.1
	c-1.9,2.3-3.8,4.7-6.3,6.4c-6.2,5.1-13.6,7.4-21.1,9.7c-14,4.3-28,8.6-41.9,13.1c-2.1,0.7-4.1,1.6-6.3,1.3c-2.6,0-4.8,1.6-7.5,2v-5
	c-0.5-0.5-0.6-1.2-0.4-1.9c0.8-1.8,0.3-3.7,0.4-5.5c0-0.8-0.1-1.7,0.3-2.5c0.7-1.8,0.2-3.7,0.4-5.6c0-0.9,0.3-1.7,0.4-2.5
	c0.5-1.8,0.1-3.7,0.3-5.6c0.2-0.8,0.3-1.7,0.3-2.5c0.5-2,0.1-4.1,0.2-6.1c0-0.9,0.2-1.7,0.3-2.5c0.6-1.6,0.2-3.4,0.3-5
	c0-0.9-0.1-1.7,0.1-2.5c0.9-1.8,0.3-3.7,0.5-5.5c0-0.9,0.1-1.7,0.4-2.5c0.5-1.8,0.1-3.7,0.3-5.6c0-0.9,0.3-1.7,0.4-2.5
	c0.5-2,0.1-4.1,0.2-6.1c0-0.7,0-1.4,0.3-2c0.6-1.8,0.2-3.7,0.3-5.6c0-0.8-0.1-1.7,0.3-2.5c0.7-1.8,0.2-3.7,0.3-5.6
	c0-0.9-0.1-1.7,0.3-2.5c0.7-1.8,0.2-3.7,0.3-5.6c-0.1-1,0.3-2,0.4-3c0.5-1.7,0.2-3.4,0.3-5.1c0-1-0.1-2.1,0.3-3.1
	c0.7-1.8,0.2-3.7,0.4-5.6c0-0.9,0.1-1.7,0.4-2.5c0.5-1.8,0.2-3.7,0.3-5.6c0-0.7,0-1.4,0.3-2c0.6-2,0.2-4.1,0.3-6.1
	c0-0.9,0.1-1.7,0.4-2.5c0.5-1.7,0.2-3.4,0.3-5.1c0-0.9,0-1.7,0.1-2.6c0.9-2.1,0.4-4.2,0.5-6.3c0.8-6,1-12.1,1.5-18.1
	c0.6-1.9,0.2-3.9,0.3-5.8c0-0.9,0-1.7,0.1-2.6c0.8-1.8,0.5-3.7,0.5-5.6c0.1-0.8-0.1-1.8,0.7-2.4c0.7-2.7,0.6-5.4,0.6-8.1
	c0.5-3-0.8-5.9,0-8.9c0.3-1-0.5-1.2-1.4-1c-1,0.2-2,0.6-3,1c-7.6,2.3-15,5.1-22.5,7.4c-0.6,0.2-1.2,0.2-1.9,0
	c-1.9,0.6-3.8,1-5.6,1.7c-2.1,0.9-1.8-0.5-1.9-1.7c-0.5-3.1-0.1-6.2,0.1-9.2c0.6-6.8,0.9-13.6,1.5-20.3c0.5-2.1,0.2-4.3,0.3-6.5
	c0-0.9-0.1-1.8,0.1-2.7c0.9-2.2,0.3-4.5,0.5-6.8c-0.1-1.1,0.3-2.1,0.4-3.1c0.5-2.3,0.1-4.6,0.3-6.8c0-0.7,0.1-1.4,0.7-1.9
	c2-16.5,12.3-25.9,26.9-31.7C470.4,276.9,471.5,276.4,472.5,276z M468.4,168.6c1.4,19.1-2.1,37.1-13.6,52.8
	c-9.2,12.6-21.4,20.6-37,23c-7.1,0.8-14.2,0.4-21.3,0.1c-2.2-0.3-4.4-0.6-7-1c3.3,7.1,9.1,10.3,16,11.4c14.1,2.3,27-1.4,39.1-8.6
	c0.7-0.2,0.8,0.1,0.7,0.7c-10.9,12.9-24.8,20.1-41.5,21.8c-0.5,0.1-1,0-1.5,0c-3.9-0.3-7.8-0.3-11.8-0.2c-11.3-0.4-21.6-4-31.1-9.7
	c-19.1-11.4-30.2-28.3-33.6-50.2c-0.2-1-0.1-2.1-0.1-3.1c0-6,0-12.1,0-18.1c1.8-27.1,18.5-52.6,46.6-59.5c2.1-0.5,4.2-1.1,6.4-1
	c5.2-0.1,10.4,0,15.5,0c3.2-0.2,6.3,1,9.8,1.4c-2.2-5.5-6.3-8.4-11.2-10.1c-10.7-3.7-21.3-2-31.7,1.5c-4.4,1.5-8.5,3.7-12.7,5.8
	c4-5.7,9.2-10.2,15.2-13.5c4.9-2.2,9.6-4.7,14.8-6.1c1.5-0.4,3-0.9,4.5-1c0.4,0,0.9,0,1.3,0c-0.5,0-1,0-1.5-0.1
	c-0.2,0-0.4-0.2-0.5-0.3c1-0.8,2.1-0.5,3.2-0.6c3,0.5,5.9-0.6,8.9-0.6c5,0,9.9,0.4,14.8,0.6c11.3,1.6,21.6,5.9,30.8,12.6
	C457.5,129.5,466.9,146.9,468.4,168.6z M420.8,369.6c-1,7.2-1.2,14.6-1.9,21.8c-0.6,7-0.9,14-1.8,20.9c-0.3,2.1,0,4.1-0.3,6.2
	c-0.8,2.2-0.3,4.5-0.5,6.7c-1,7.4-1.2,14.8-1.9,22.2c-0.7,7-1.1,14-1.7,21c-0.5,6.3-0.9,12.6-1.4,18.9c-0.8,9.7-1.6,19.4-2.3,29
	c-0.6,7.6-1.4,15.2-1.6,22.9c-0.8,5.5-1.2,11.1-3,16.4c-0.7,1.8-1.4,3.6-2.1,5.3c-1.8,3.3-3.7,6.5-6.4,9.2c-2.5,2.7-5.6,4.7-8.7,6.5
	c-9.3,4.7-19.5,7-29.3,10.2c-9.9,3.2-20,6.4-30,9.3c-1.8,0.5-3.6,0.6-5.4,0.9c-2,0.5-4,1-6,1.6c-0.6-1.6,0.2-3.1-0.1-4.6
	c-0.8-0.9-0.6-1.9-0.5-2.9c0.8-1.6,0.4-3.3,0.5-4.9c0-0.5,0-1,0-1.5s0.2-1,0.4-1.5c0.4-2.1,0-4.2,0.3-6.3c0.6-4.8,0.8-9.7,1.1-14.5
	c0.4-6.1,1-12.1,1.5-18.2c0.3-3.2,0.1-6.4,0.5-9.6c0.8-1.9,0.3-3.9,0.5-5.9c0-1.1,0-2.1,0.1-3.2c0.7-1.6,0.5-3.4,0.5-5.1
	c0-1-0.1-2.1,0.3-3.1c0.7-1.9,0-4,0.6-5.9c0.7-13.3,2-26.5,2.9-39.8c0.6-8.9,1.1-17.9,2.1-26.8c0.5-1.9,0.2-3.9,0.3-5.9
	c0.2-0.9,0.3-1.7,0.3-2.6c0.5-2,0.1-4.1,0.2-6.2c0-0.7,0-1.4,0.3-2c0.6-1.8,0.3-3.7,0.4-5.6c0-0.9,0-1.7,0.1-2.5
	c0.9-1.8,0.3-3.7,0.5-5.5c0-0.7,0-1.4,0.3-2c0.7-2,0.1-4.1,0.4-6.1c0.2-0.8,0.3-1.7,0.3-2.5c0.5-2,0.1-4.1,0.2-6.1
	c0-0.7,0-1.4,0.3-2c0.6-1.8,0.2-3.7,0.3-5.6c0-0.9-0.1-1.7,0.3-2.6c0.6-1.9,0.2-3.8,0.3-5.8c0.6-5.2,0.8-10.5,1.3-15.8
	c1-9.8,0.8-19.8,3.1-29.5c0.9-4,2.1-8,5-11.1c2.2-2.7,4.4-5.2,7-7.6c0.4-0.6,0.6-1.6,1.7-1.4c1.8-1,3.5-2,5.3-2.9
	c0.7-1.7,2.3-1.6,3.7-2.1c1.2-0.5,2.5-0.7,3.6-1.5c4.2-1.1,8.1-2.9,12.4-3.4c10.9-3.3,21.8-6.5,32.7-9.8c3.9-1.2,8-2,11.8-3.8
	c1.6-0.9,3.1-1.4,4.9-1.3c1.3-0.2,1.4,0.5,1.4,1.6c-0.1,1.7-0.1,3.4-0.2,5.1c1,4.4,0.1,8.9-0.2,13.3c-0.5,6.2-0.8,12.4-1.5,18.6
	c-1,3.6-0.4,7.4-0.9,11.1c-0.8,5.8-0.8,11.7-1.4,17.6C421.4,362.5,420.6,366,420.8,369.6z M88.7,612.8C79.3,597.3,71.6,580.9,65,564
	c0,0,0-0.1,0-0.3h-0.1c-5.1-13.5-9.4-27.2-12.8-41.2c-0.1-0.6-0.2-1.2-0.3-1.8c0-0.1,0.1-0.1,0.1-0.2h-0.1c-1.3-6-3.3-11.7-3.1-18
	l0,0c-1.9-3.1-1.6-6.7-2.1-10c-0.7-4.8-1.7-9.6-1.6-14.4c-1.4-12.9-1.4-25.9-1.2-38.9c0-1.2-0.4-2.5,0.6-3.6
	c0.3-3.1-0.6-6.3,0.6-9.3v-0.1c0.2-6.8,0.7-13.5,2.2-20.2c0-0.4,0.1-0.9,0.3-1.3c0-0.1,0-0.2,0.1-0.3v0.1c0.4-4.9,1-9.7,2.5-14.4
	l0,0c0-0.1,0-0.1,0-0.2c1.1-8.5,3.1-16.8,5.6-24.9c0.1-0.1,0.1-0.2,0.2-0.2c1-5.4,2.6-10.8,4.5-16.1c0-0.3,0.2-0.7,0.3-1
	c1.1-4.4,2.5-8.7,4.3-12.9l0,0c2.6-8,5.4-15.9,9.2-23.5c0-0.1-0.1-0.1-0.1-0.2s0.1-0.2,0.1-0.3c2.3-6.2,5-12.3,8.2-18.1
	c2.6-6.5,5.7-12.6,9.3-18.6l0,0c2.1-4.7,4.5-9.1,7.3-13.4v-0.1c0-0.1,0.1-0.2,0.1-0.3c5.9-11,12.7-21.6,20-31.7
	c0.3,0.4,0.6,0.2,0.2-0.1c1.3-2.4,3.2-4.5,4.9-6.8c3.7-5.2,7.6-10.2,11.8-15c0.1,0,0.2,0,0.3,0c3.9-4.8,8-9.7,12.4-14l-0.1-0.1
	c6-6.8,12.5-13.2,19.2-19.4l0,0l0.1-0.1c1.8-2.2,3.9-4,6.1-5.6c0,0,0,0,0-0.1c5.6-5.4,11.3-10.4,17.5-14.8c0-0.1,0.1-0.1,0.1-0.2
	c4.8-4.4,10.1-8.3,15.6-12c0.2-0.2,0.4-0.4,0.5-0.5c6.6-5.2,13.4-10.1,20.6-14.3c0.1,0,0.2,0,0.3,0c4-3,8.3-5.8,12.9-8
	c4.7-3.7,10.2-6.1,15.3-9.1c2.9-1.7,6-3.1,9.1-4.6c0.1-0.1,0.2-0.1,0.3-0.2c6.5-3.9,13.4-6.8,20.3-9.8c0.1,0,0.1,0,0.2,0.1
	c7.1-3.6,14.5-6.5,21.9-9.4c1.7-0.7,3.3-1.7,5.3-1.8c3.6-2.1,7.7-3.2,11.7-4.5c3.8-1.3,7.4-2.9,11.4-3.6c0,0,0.1,0,0.1-0.1H337
	c9.1-3.4,18.5-5.6,27.9-8.1c0.9-0.2,1.8-0.4,2.7-0.7l0,0l0,0c0.3-0.2,0.6-0.3,0.9-0.3c5.3-2,10.9-2.7,16.4-3.9
	c7.3-1.6,14.8-2.7,22.2-4c4.6-0.8,9.3-1.5,14.1-2.3c-1.2,1.6-3,1.2-4.4,1.5c-11.4,2.8-22.7,6.2-33.8,10.1c-1.2,0.4-2.4,0.6-3.6,0.8
	v-0.1c-9.6,3.9-19.1,7.6-28.7,11.4l-0.1-0.1c0,0.1,0.1,0.2,0.1,0.3c-8.1,3.5-16.2,7.3-24.2,11v0.1c-6.4,3.6-13,6.5-19.5,9.9
	c0,0-0.1,0-0.1-0.1c-9.5,5.8-19.1,11.3-28.5,16.9h-0.1v0.1c-6.3,4.1-12.5,8.3-18.7,12.4c-0.1,0-0.1,0-0.2,0.1
	c-4,3.3-8.5,6.4-12.8,9.2l0,0v0.1c-4,3.1-7.9,6.2-11.9,9.2l0,0c-8.7,7.3-17.4,14.7-26.1,22h-0.1c-3.6,3.3-7,6.5-10.6,9.7v0.1
	c-2.8,2.6-4.9,5.9-8.1,8.1l0,0c0,0,0.1,0,0.1,0.1c-6.2,6.2-12.2,12.5-18.2,18.8v0.1c-4.1,4.6-8.3,9.4-12.4,14.2
	c-4.6,5.7-9.1,11.3-13.7,16.9c-2.5,3.3-5,6.6-7.5,9.8c0,0,0,0.1,0,0.2c-7.1,11-14.2,22-21.3,32.9c-0.1,0-0.1,0-0.2,0
	c-2.1,4-4.3,7.7-6.5,11.5c0,0.1,0,0.3-0.1,0.4c-2.3,4.2-4.5,8.3-6.8,12.5c-0.1,0-0.2,0-0.3,0c-2.5,5-5,9.9-7.4,14.9
	c0-0.1-0.1-0.1-0.1-0.2c0,0.1,0.1,0.3,0.1,0.4l-9.4,21l0,0c-1.8,4.6-3.7,9.2-5.5,13.7l0,0c-1.7,4.8-3.4,9.5-5,14.3l0,0
	c-3,10.4-5.9,20.5-8.8,30.6c-1.7,8.2-3.3,16.5-5,24.8c0,0,0,0,0.1,0.1c-0.9,6.5-1.7,13-2.5,19.4c-0.1,6.3-0.7,12.5-1.3,18.7l0,0
	c0,3.1,0,6.2,0,9.4c0,0.1-0.1,0.3-0.1,0.4c0.2,8,0.4,15.9,0.7,23.9c0,0.1,0,0.2,0.1,0.3c1.1,2.3,0.5,4.8,0.6,7.2
	c1.2,9.8,3.1,19.5,4.3,29.3c1.6,6.8,3.2,13.5,5,20.3c0.9,3.7,2.1,7.2,3.1,10.9c0-0.1,0-0.1,0-0.2c3.3,9.3,6.4,18.8,10.2,27.9
	c4.6,10.8,9,21.6,14.9,31.8c0.1,0.2,0.2,0.5,0.4,1.6C93.6,621.5,91.3,617,88.7,612.8z M163.4,625.1c-1.5-1-3.5-1.3-4.4-3.1
	c-4.4-3.1-8.8-6.1-13.1-9.2c-0.9,0.2-1.3-0.5-1.6-1.3c-2.9-2.9-5.9-5.8-8.8-8.8c-1.2-0.7-2.3-1.5-2.7-3c-2.6-3.6-5.2-7.3-7.9-10.9
	c-1.4-0.2-1.1-1.3-1.4-2.2c-3.9-6.7-7.3-13.7-10.5-20.7c-1.4-1.4-1.8-3.3-2.5-5l0.1,0.1c-0.6-2.5-2.4-4.7-2.1-7.4
	c-1.2-4.2-2.4-8.4-3.6-12.6c-2.2-3.9-2-8.4-3.1-12.5c-0.6-2.3-1.2-4.6-1.2-7c-0.3-1.3,0.1-2.7-0.3-4c-0.1-0.5-0.1-1-0.3-1.5
	c-0.3-1.4,0-2.8-0.5-4.2c-0.1-4.5-1-9-0.9-13.6c0.1-3.8,0.3-7.6-0.5-11.4c-0.6-3,0.7-5.9,0.6-8.9c-0.5-10.8,1.1-21.4,2.1-32.1
	c0.4-1.2,0.4-2.5,0.4-3.8c0.2-2.1,0-4.2,1.3-6.1c2-9.3,3.2-18.7,5.5-27.9c1.8-7.2,3.7-14.4,5.6-21.5c-0.1-2.8,1.3-5.2,2.1-7.7
	c0.8-2.4,1.3-4.9,2.5-7.2l-0.1,0.1c1.8-3.7,2.6-7.8,4.9-11.2c3.9-8,7.1-16.3,11.5-24c5.2-9.2,11-18,17.4-26.4
	c1.3-1.7,2.6-3.5,3.9-5.3c-0.1-1,0.6-1.4,1.4-1.8c0.8-0.4,1.3-1.2,1.7-2c-0.1-1,0.6-1.4,1.4-1.8c3.3-3.7,6.7-7.3,10-11
	c0.3-1.1,1-1.8,2.1-2.1c0.1-0.1,0.3-0.3,0.4-0.4c0.3-1.1,1-1.8,2.1-2.1c2.7-2.5,5.4-5,8.1-7.4c0.3-1.1,1-1.9,2.2-2.1
	c0.7-0.1,1.1-0.5,1.4-1.1c0.3-0.8,0.7-1.5,1.8-1.4c10.1-7.9,20.4-15.6,31.8-21.7c4.4-2.3,8.8-4.5,13.3-6.8c2.9-1.8,5.8-3.3,9.2-3.8
	c11.4-4,23.1-6.9,35.1-8.6c0.3-0.5,0.7-0.4,1.1-0.1c10-0.9,20-0.8,30,0c0.4-0.3,0.8-0.4,1.1,0.1c4.8,1.1,4.8,1.1,5.1,6.2
	c0.8,1.7,0.5,3.5,0.4,5.2c-1,12.6-1.9,25.2-2.9,37.8c-0.6,7.2-1.2,14.5-1.5,21.7c-1,7.6-1.3,15.3-1.9,22.9c0.1,1.7-0.3,3.3-0.5,4.9
	c-0.3,2.5-1.7,3.1-3.9,2.3c-2.3-0.8-4.8-1.4-7.2-1.9c-8-1.6-16-1.3-24-0.1c-15.9,2.5-29.4,9.6-40.8,20.9c-1.6,1.6-3.3,3.2-4.8,4.9
	c-0.9,1.1-1.8,2.3-2.7,3.4c-2.4,3.2-4.9,6.3-6.8,9.8c-1.1,1.8-2.3,3.6-3.2,5.5c-1.3,2.7-3.1,5.2-4.1,8.1c-0.3,0.7-0.6,1.3-1,2
	c-1.7,3.3-2.9,6.8-4.2,10.3c-5.2,14.1-8.1,28.8-9.9,43.7c-0.3,2.9-0.2,5.8-0.7,8.6c-0.6,7.1-1.3,14.3-0.9,21.4
	c0.6,10.5,1.4,20.9,4.6,31c1.5,4.6,3.2,9.2,5.8,13.4c0.6,1.3,1.4,2.4,2.2,3.5c1.2,2.1,3.6,3.2,4.4,5.6c5.8,5.4,12.7,8.4,20.6,8.8
	c1.7-0.1,3.3-0.1,5,0c4.8,0.1,9.4-0.9,13.9-2.5c0.7-0.7,1.4-1,2.3-0.7c1.9-0.2,3.6-1,5.3-1.8c1.1-1.8,3.1-1.5,4.7-2
	c11.9-5.2,21.8-13.3,31.3-22.9c-0.3,4.8-0.5,8.8-0.7,12.9c1.5,2.1,0,4.4,0.2,6.6c0.1,1.3,0.1,2.7-0.2,4c-1.1,3.9-0.5,8-1,12
	c-0.4,3.4-0.9,6.9-0.8,10.4c-0.1,3.8-0.7,7.5-0.7,11.3c-1,3.9-0.6,8-1,12c-0.5,4.5-1,9-0.9,13.6c-0.3,1.2-0.6,2.4-0.5,3.6
	c0,0.5,0,1,0,1.6c-0.4,3.5-0.6,7-0.7,10.5c-0.1,2.9-0.7,5.8-3.6,7.5c-2.5,1.5-4.9,3.2-7.4,4.8c-3.2,1.8-6.4,3.8-9.6,5.6
	c-6.9,3.9-14.2,7-21.7,9.8c-0.6,0.2-1.1,0.5-1.7,0.7c-2.1,0.7-4.3,1.5-6.4,2.1c-9.5,2.9-19.1,4.7-29.1,5c-2,0-4,0-5.9,0
	c-10.4-0.1-20.5-2.2-30.4-5.6C169.5,627.8,166.4,626.6,163.4,625.1z M699.1,332c0,0.4-0.3,0.8-0.5,1.2c0,0.1,0,0.2,0,0.2
	c0.4,5.4-0.7,10.7-0.7,16.1c0,0.5-0.4,0.9-0.6,1.3c0,0.1,0,0.1,0,0.2c-0.5,7.1-1.1,14.3-2.7,21.3c0,0.6,0,1.1-0.3,1.7
	c-0.4,5.5-1.5,10.9-3.1,16.2l-0.1-0.1c-1.5,7.1-2.9,14.1-5,21c-0.1,0.3-0.2,0.5-0.3,0.7c0,0.3-0.1,0.5-0.3,0.8
	c-1.4,5.3-2.7,10.6-5,15.6c-0.1,0.2-0.2,0.4-0.3,0.5c-2.3,8.1-5.7,15.8-8.9,23.6c-0.6,1.5-0.9,3.1-2,4.3c0.1,0.1,0.2,0.1,0.2,0.2
	c-1.7,3.7-3,7.4-5.2,10.7c-1.8,3.8-3.2,7.6-5.5,11l0,0c0,0.1,0,0.2,0,0.2c-3.5,7-7.3,13.9-11.7,20.3c0,0.1-0.1,0.2-0.1,0.3
	c-2.4,4.7-5.3,8.9-8.2,13.1c-3.6,5.8-7.5,11.6-11.8,16.9h-0.1c-3.3,4.3-6,9-9.9,13h-0.1c-4.6,6.4-9.8,12.3-15,18.1
	c-5.1,5.6-10,11.3-15.5,16.5c0,0,0,0,0,0.1c-1.9,3-5.2,4.2-7.1,7c-3.2,4.1-7.3,7.2-11,10.7c-0.1-0.2-0.2-0.4-0.3-0.6
	c0,0.2,0,0.4,0.3,0.6c-4.3,4.4-8.9,8.6-13.9,12.4c-4.1,4.4-8.9,7.8-13.6,11.5c-1,0.8-2,1.5-2.9,2.3c0-0.1,0-0.1-0.1-0.2
	c0,0.1,0,0.1,0,0.2c-4.9,4.3-10.1,8.3-15.6,11.8l0,0l0,0c-5.8,4.5-11.8,8.7-18.1,12.5c0-0.1,0-0.1,0-0.2c-0.1,0.1-0.1,0.1-0.2,0.2
	c-7.4,5.3-15.3,10.1-23.5,14.3c-7.6,4.8-15.5,8.9-23.7,12.4c0,0,0,0-0.1,0c0.1,0,0.1,0.1,0.2,0.1c-4.1,2.4-8.2,4.2-12.6,5.6
	c0,0.1,0,0.1,0,0.2c-5.6,3.2-11.8,5.2-17.8,7.6c-3,1.1-5.8,2.6-9,3c-0.3,0.2-0.7,0.3-0.9,0.1c-5.5,2.7-11.4,3.8-17,5.8
	c-0.9,0.3-1.8,0.4-2.7,0.7l0,0c-9.8,3.3-19.8,5.7-29.9,7.5c-0.5,0.2-1,0.4-1.5,0.3c-5.9,1.6-12,2.4-18.1,3.3
	c-3.6,0.6-7.3,1.4-11,1.3v0.1c-2.3,1.2-4.9,0.9-7.2,1.1c-6.9,0.6-13.8,1.1-20.7,1.6c-9,0.6-18,0.2-27,0.5c0,0,0-0.1-0.1-0.1
	c-30.1,0.1-86.9-9-100.1-16.1c3.8,0,7.1,0.9,10.4,1.3c5.9,0.8,11.9,1.4,17.9,1.5c10,0.2,20,1.3,30,0.4c2.3-0.2,4.6-0.3,6.8-0.1
	c5.4,0.3,10.9-0.9,16.4-0.7c10.7-0.7,21.3-1.8,31.9-3.5c2.4-0.4,4.9-0.6,7.4-0.9c0.1,0,0.3,0.1,0.4,0.1c-0.1-0.1-0.3-0.1-0.4-0.2
	c8.7-1.7,17.3-3.5,26-5.2c2.3-0.4,4.6-1.1,7-0.9h0.1l-0.1-0.1c1.6-1.6,3.8-1.5,5.7-2c8.8-2.3,17.5-4.7,26.2-7.5
	c0.8-0.2,1.6-0.4,2.4-0.5c0.4-0.1,0.7-0.1,1.1-0.2c5-1.9,10.1-3.6,15.1-5.3c9.4-3.7,18.7-7.5,28.1-11.2l0,0l0,0
	c6.2-2.9,12.5-5.8,18.7-8.7c0.1,0.2,0.2,0,0.2-0.3c7.9-4.2,15.8-8.3,23.7-12.5c0.1,0,0.2,0,0.3,0c6-3.6,12.1-7.3,18.1-10.9
	c0.1,0,0.1,0,0.2,0c6.6-4.5,13.3-8.8,19.8-13.2c0.1,0,0.1,0,0.2,0l0,0c4.6-3.3,9.2-6.6,13.8-9.9h0.1c4.4-3.6,8.8-7.2,13.4-10.6h0.1
	c4.9-4.2,9.9-8.3,14.8-12.4v-0.1c6.4-5.8,12.9-11.7,19.3-17.5c0.1,0.1,0.3,0.1,0.4,0.2c-0.1-0.1-0.2-0.1-0.3-0.2
	c4.2-4.2,8.2-8.2,12.4-12.4v-0.1c7.1-7.9,14.1-15.8,21.2-23.7c0.1,0,0.2,0.1,0.3,0.1c2.5-3.5,5.2-6.7,7.8-10.1
	c0,0.2,0.1,0.3,0.2,0.5c0-0.1,0-0.3,0-0.4c5-6.8,10.1-13.6,15-20.4v-0.1c2.7-4,5.3-7.9,8-11.9l0,0v-0.1c3.9-6.5,7.9-13.1,11.8-19.6
	c0-0.1,0.1-0.2,0.1-0.3c2.3-4.2,4.5-8.3,6.8-12.5c0.1,0,0.1,0,0.1,0l-0.1-0.1c2.7-5.5,5.3-11.1,8.1-16.6c0-0.1,0-0.1,0-0.2
	c3.1-7.1,6.2-14.2,9.3-21.4c0-0.1,0-0.2,0-0.3l6.8-18.1c0.1,0,0.3,0.1,0.4,0.1c-0.1-0.1-0.2-0.2-0.3-0.3c0.8-3.9,2.3-7.8,3.7-11.7
	c2.5-9,5-18.1,7.4-27.2v-0.1c1.5-7.3,2.9-14.5,4.4-21.8c0.1,0,0.1,0,0.2,0.1c0-0.1-0.1-0.2-0.1-0.3c1-6.4,2.1-12.9,3.1-19.3l0,0
	c0.6-6.2,1.2-12.4,1.9-18.7l0,0l0,0c0.4-8.7,1.5-17.4,1.2-26.2c0-0.2,0.1-0.3,0.1-0.5c0.2-16-0.3-32.1-2.3-48.1
	c2.3,5.2,3.9,10.7,5.3,16.1c2.5,9.5,4.4,19.1,6.2,28.7c0.1,1.1,0,2.2,0.1,3.2c1,7.7,2.3,15.3,2.5,23.1c0,0.2,0,0.4,0,0.6
	C699.5,306.2,699.1,319.1,699.1,332z"/>
</svg>
