<?xml version="1.0" encoding="utf-8"?>
<!-- Generator: Adobe Illustrator 28.3.0, SVG Export Plug-In . SVG Version: 6.00 Build 0)  -->
<svg version="1.1" id="Layer_1" xmlns="http://www.w3.org/2000/svg" xmlns:xlink="http://www.w3.org/1999/xlink" x="0px" y="0px"
	 viewBox="0 0 615.1 192.9" style="enable-background:new 0 0 615.1 192.9;" xml:space="preserve">
<style type="text/css">
	.st0{fill:#7BFF47;}
</style>
<g id="Layer_2_00000079448024171730596050000007899052121311092908_">
	<g id="Layer_1-2">
		<path class="st0" d="M430.9,14.8c0,0-11.5,4.6-24.9,19.4S384.7,65.6,390.5,70c2.2,1.7,7.3,2,16.6-6.4c8.6-7.4,15.3-16.8,19.7-27.3
			C432.8,21.7,430.9,15,430.9,14.8 M504.3,41.4c-14.9-7.6-25.8-17-37.1-22.8c-10.8-5.6-17.8-7.9-26.5-6.7c-1.2,0.2-2.4,0.5-3.6,0.9
			c0,0,4.5,15.4-13.4,41.2c-18.1,26.2-34.6,26-39.3,18.8c-4.9-7.6,1.4-23.1,12-36.8c11.1-14.4,30.5-26.3,30.5-26.3
			s-6.2-3.8-21.4,4.8c-14.9,8.4-40.4,28.4-64.1,62.1s-28.4,52.3-31.8,66.9s-0.3,30.3,15.9,30.3s35.1-24.7,40.4-33.3
			c9.9-16,16.3-40.5,2.9-37.2c-6.6,1.7-12,9-15.4,16.1c-2.1,4.5-3.8,9.3-4.9,14.2c-4.7,1.9-9.1,4.5-13.1,7.6c-4.5,3.3-8.6,7-12.5,11
			c0,0,0.1-11.7,9.4-30.6s26.4-27.5,36.1-28.3c8.7-0.7,20.1,6.7,10.5,34s-38,60.5-67.8,60.9c-27.5,0.4-45.5-34.7-7.2-96
			C346,24.5,395.7,3.7,411.9,1.4s21.4,4.8,21.4,4.8c9.7-4,20.2-5.7,30.7-5.1c19.7,1.3,35,15.3,55.1,25.1
			C513.8,31.2,508.8,36.5,504.3,41.4 M592.8,18.6c-13.7,8.8-32.6,16.7-50.7,15c-4.6,4.8-9.5,10.2-14.5,16.2
			c31.5,6.2,59.1-13.3,73.8-29.9c5.3-6,9.9-12.6,13.7-19.7C608.4,7.3,600.9,13.4,592.8,18.6 M550.9,107.3c0.2-0.4,0.4-0.9,0.6-1.3
			c-0.2-1.5-1.4-2.6-2.9-2.8c-3-0.1-7.1,0.4-17.8,12.3c-8.9,9.8-16.6,20.7-22.8,32.4c-6.1,11.2-8.6,19.6-5.1,21.7
			c1.1,0.6,2.5,0.7,3.7,0.4c2.4-0.6,5.1-2.8,9.2-7.6c1.9-2.2,4.1-5.4,6.6-8.9C529.5,143.9,547.3,113.5,550.9,107.3 M439.4,120.2
			c1.8-4.7,4.1-13.9-0.7-17.5c-5.1-3.8-18.1,5.2-18.1,14.4c-0.1,9.4,9.1,13.7,11.4,14.3c1.3,0.3,1.7,0.3,2.3-0.7
			C436.2,127.4,437.9,123.9,439.4,120.2 M429.6,137.4c-3.2-1.5-6.2-3.4-8.9-5.7c-2.7-2.3-5-5-6.7-8.1c-0.2-0.3-0.4-0.1-0.6,0.2
			s-1,1-7.9,11.1s-17.5,31.1-7.9,34.7c6.2,2.3,16.4-8.5,22-15.6c3.8-5,7.3-10.2,10.3-15.7C430.2,137.7,429.9,137.6,429.6,137.4
			 M538.7,161.7c-2.6,4.2-5.6,12.2,3,7.2c10.5-6.1,25.5-28.8,25.5-28.8h6.8c-6.2,9.5-13.1,18.5-20.6,27
			c-10.7,11.8-23.6,22.5-32.8,21.5c-10.7-1.2-7.3-15.3-7.3-15.3s-15.3,16.3-25.9,15.1c-14.3-1.6-9.9-19.2-9.9-19.2
			s-16.2,19.8-27.2,19.2c-17.3-1-12.9-22-8.1-36.8c2.6-7.9,5-14.1,5-14.1s-1.7,0.4-5.4,1c-1.9,0.3-5.4,0.5-5.4,0.5
			s-7.2,12.7-12.9,20.3s-30.2,33.9-44.6,28.6c-13.3-4.9-8.9-25.2-1.2-41.4c11.3-23.6,43.1-57.5,61.4-53c19,4.6,0.4,39.3,0.4,39.3
			s0,0.1,0.2,0.2c0.4,0.1,1.4,0.2,3.7-0.2c2.4-0.5,4.7-1.2,7-2.1c0,0,19.1-40,40.2-66.2s63.2-71.2,79.7-60.3
			c4,2.7,2.2,11.9-3.2,23.1c-2.5,0.8-4.9,1.5-7.5,2c3.6-6.6,6-12.2,6.8-16.1c2.5-13.5-29.1,15-51.6,45.6
			c-13.6,18.5-25.7,38-36.1,58.4c4.1-2.5,8-5.3,11.6-8.3c10.1-8.3,19.6-17.3,28.6-26.7c8.7-8.9,16.8-18.3,24.4-28.1
			c2.4-0.1,4.8-0.4,7.2-0.7c-8.2,11.2-17.2,21.8-26.9,31.8c-9,9.1-18.7,18.9-27.2,26c-7.6,6.4-15.5,12.3-23.9,17.7
			c0,0-19.7,39.8-9,42.3c6.3,1.5,18.8-17.7,18.8-17.7s16.3-24.8,26.1-36c13.4-15.2,24.9-24,36.4-24.2c6.7-0.1,10.7,7,10.7,7l3.2-4.9
			h19.4C577.8,95.5,541.6,157,538.7,161.7 M592.8,18.6c-13.7,8.8-32.6,16.7-50.7,15c-4.6,4.8-9.5,10.2-14.5,16.2
			c31.5,6.2,59.1-13.3,73.8-29.9c5.4-6,9.9-12.6,13.7-19.7C608.4,7.3,600.9,13.4,592.8,18.6 M320.4,48.8h-18.4l-10.4,16.9h18.5
			L320.4,48.8z M233,107.1c7.9-10.8,29.5-48.5,29.5-48.5c-0.2-1.5-1.4-2.6-2.9-2.8c-3-0.1-8,0.9-17.9,13.3s-17.6,22.3-23.3,32.6
			c-6.2,11.2-8.9,19.2-5.3,21.3c1.1,0.6,2.5,0.7,3.7,0.4c2.3-0.6,5.3-2.9,9.4-7.6C228.2,113.6,230.4,110.6,233,107.1 M134,56.1
			c-5.1-3.8-18.1,5.2-18.1,14.4c-0.1,9.4,11.7,12.3,13.2,12.4c0.4,0,0.9-0.1,1.3-0.3c0.3-0.2,0.5-0.4,0.6-0.7
			c1.4-2.7,2.6-5.5,3.7-8.3C136.5,68.9,138.7,59.7,134,56.1 M126.3,88.7c-3.5-1.1-6.9-2.6-10-4.6c-3-2-5.5-4.7-7.1-7.9
			c-0.2-0.3-0.4-0.1-0.6,0.2s-1.2,1.6-8.2,11.8s-17.2,31-7.6,34.6c6.1,2.3,16.5-8.6,22.1-15.7c4.2-5.6,8.1-11.4,11.7-17.5
			C126.9,88.9,126.7,88.8,126.3,88.7 M277,94.9h6.8c0,0-33.9,49-53,46.7c-10.7-1.2-7.5-14.4-7.5-14.4s-15,17.6-28.8,14
			c-12.5-3.2-4.4-24-4.4-24c-1.4,0.6-28.5,31.1-47.5,23.8c-19.9-7.7-9.6-33.2-5.8-40.9c3.2-6.5,6.8-12.8,6.8-12.8s-3.1,0.9-5,1.3
			s-4.8,1-4.8,1s-9.4,15.3-15.2,22.9S88.4,146.4,74,141.1s-10.8-25.4-2.7-41.4c13.1-25.9,44.2-57.8,63-53
			c18.9,4.8,3.3,35.6,3.3,35.6s3.8,0.5,12.8-5.7c13-8.9,30.2-32.7,48.7-29.9C207.8,48,216,57,204.8,74c-3.6,5.5-9.5,10.3-14.1,5.5
			c-2.9-3-0.4-8.5,2.6-12.2c2.4-3.1,6.1-4.8,10-4.6c0,0,3.1-7-4.7-6.9c-6.3,0.1-22.3,14.8-31.4,29.7c-8.3,13.7-20.8,36.9-8.2,42
			c11.6,4.7,33.5-21.4,43.7-35.1s33.4-44.7,52.8-45.9c6.7-0.4,10.7,5.7,10.7,5.7l2.2-3.6H288c0,0-36.6,61.2-39.5,65.8
			c-2.2,3.6-5.2,11.8,3,7.2S277,94.9,277,94.9 M266.4,192.9c-14.3-9.9-31.5-14.9-48.9-14.3c-9.6,0.3-18.4,5.1-23.9,12.9
			c-7.4-12.9-22.1-20.9-44.8-20.7c-36.7,0.4-73,17.3-101.8,17.3C19.5,188.2-0.6,170.8,0,140C1.2,85.9,46.9,37.2,81,15.3
			C100.7,2.7,117.1-1,127.8,0.2c7.8,0.9,17.3,9.9,11.3,23.3c-8.7,19.5-20.8,17.9-20.4,8.6c0.2-6.1,4.3-9.9,7.3-12
			c1.9-1.3,5.3-1.7,7.1-1.8c1.7-1.5,3-12.1-11-8.6S91.3,27,75.1,44.8s-41.3,51.5-47.5,86.9c-2.9,16.4-1,46.3,37.9,46
			c33-0.3,81.6-22,126.3-21.6c17.4,0.2,32.4,4.9,44.2,12.1C247.7,175.4,261.5,185.8,266.4,192.9"/>
	</g>
</g>
</svg>
