<?xml version="1.0" encoding="UTF-8"?>
<svg xmlns="http://www.w3.org/2000/svg" version="1.1" viewBox="0 0 779 432.2">
  <defs>
    <style>
      .cls-1 {
        fill: #7bff47;
      }
    </style>
  </defs>
  <!-- Generator: Adobe Illustrator 28.6.0, SVG Export Plug-In . SVG Version: 1.2.0 Build 709)  -->
  <g>
    <g id="Layer_2">
      <g id="Layer_1-2">
        <path class="cls-1" d="M301.1,208.8l-.6,111.9c.3,14.3-1.9,24.9,17.2,33.8,11.5,5.4,29.5,4.4,46.9,1,0-35.1,1.5-136.3,1.5-136.3-3-5.7-9-3.7-12.5-9.1-7.5-11.3-4.4-27.2-13.7-36.4-5.5,8-10,17.8-19.9,20.9-11.7,3.7-25.8,1.9-37.2-1.7-.4-18.9,6.6-32,22.4-41.3-8.7-5.8-21.4-11.8-25-22.5-3.7-10.8,4.5-19.2,5.1-29.5.4-6.4-3.6-11.3-4-17.6-.4-5.1,1.8-9.5,2.5-14.4,1.6-11.7-9.1-26.7-1.8-36.9,17.3-5.8,41.8,28.5,49.4,40.6,13.2,21.1,16.2,42,19,66.3,6.8,3.5,13.9-11.4,18-15.3,8.2-7.7,18.8-11.8,29.8-13.8,11.4-2.1,23.2-.6,34.5-2.7,10.6-2,12.3-10.2,17.4-18.9,8.3.2,9.2,12,5,18.5-3.5,5.6-9.7,11.2-12.2,17.6-2,5.1-2.5,12.6-5,17.6-2.7,5.4-9.6,8.1-13.9,12-4.7,4.2-10.4,12-15.3,15.9-8,6.3-31.5-1.2-35.1,6.3,4,6.9,14.3,21,7.3,32.1l52.2.8,1.3,175c-13.5,7.6-32.3,6.8-47.5,7.7-19,1.2-47.1-1.1-66.1-2.8-32.5-2.9-65.8-10.1-78.8-32.2-6.6-7.9-4.3-22.2-4.3-37.6s-.2-73.5-.3-97.9c0-6,4.8-10.8,10.8-10.8l52.9-.3h0Z"/>
        <path class="cls-1" d="M205.1,183.8c-18-14.7-36.5-27.7-61.2-21-20.2,5.4-28.2,32.2-12.4,46.7,17.2,15.8,41.5,25.5,58.9,41.3,8.4,7.6,16.5,16.8,20.9,27.4,3.2,7.8,5.4,18.1,5.2,30.3-.4,23.6-6.1,42.4-24.3,58.5-16.9,15-38.4,21.3-60.6,22.2-22.9,1-45.2-1.5-62.9-16.2-15.2-12.7-17.8-41.5-9.6-59.1,20.4,10.4,40.2,23.7,64.1,20.7,20.4-2.6,31.8-28.6,19.7-44.5-13.2-17.3-38.5-23.4-55-37.1-17-14.1-30.1-33-31.1-55.3-2-44.3,34-78.9,76-83.9,21.2-2.5,40.9-.9,58.2,12.9,17.8,14.3,25.1,36.5,14.1,57.1Z"/>
        <path class="cls-1" d="M723.3,177.8c-13.6-10.3-37.4-17.9-54.2-11.6-17.3,6.6-24.5,26-21.6,42.1,17,.4,36.3,1.3,53.1,1.7,1.1,16.7,2.5,32.9-17.6,37.7-7.8,1.8-36.1,2.1-36.1,2.1l-2,152.1c-20.4-15.1-46.5-22.4-62.1-22.6,0,0,0-152.2,0-171.3.2-17,.7-33.8,9.7-48.7,16.6-27.3,43.7-38.9,79-37.4,17.4.7,30.8,2.8,43.4,16,5.4,5.6,8.7,10.7,9.3,18.6.5,5,0,13.4-1,21.3h0Z"/>
        <path class="cls-1" d="M453.1,210.4c19.5-6.1,38-9.7,58.6-8.8,19,.8,35.8-.4,52.9,8.8-2.7,13.2-3.7,25.2-9.3,37.1-12.8-4-25.4-5.3-37.1-.4,0,41.1,1.1,88.4,1.1,129-22.2-2-50.2-1.8-67.7,5.9l1.5-171.6h0Z"/>
      </g>
    </g>
  </g>
</svg>