<?xml version="1.0" encoding="UTF-8"?>
<svg xmlns="http://www.w3.org/2000/svg" version="1.1" viewBox="0 0 722.7 730.8">
  <defs>
    <style>
      .cls-1 {
        fill: #7bff47;
      }

      .cls-2 {
        fill: none;
        stroke: #7bff47;
        stroke-miterlimit: 10;
        stroke-width: 1.4px;
      }
    </style>
  </defs>
  <!-- Generator: Adobe Illustrator 28.6.0, SVG Export Plug-In . SVG Version: 1.2.0 Build 709)  -->
  <g>
    <g id="Layer_1">
      <g id="Layer_1-2" data-name="Layer_1">
        <g id="Layer_2">
          <g id="Layer_1-2">
            <path class="cls-1" d="M565.2,344.7c9.8-20.8,15-43.5,15-66.4,0-86.2-70.1-156.3-156.3-156.3h-191.6v486.9h208.5c89.1,0,161.5-72.2,161.5-160.9s-13.3-74.4-37-103.3h0ZM581.6,448c0,6.5-.6,12.9-1.5,19.1h-88.5v-108.8h58c19.9,24.4,31.9,56,31.9,89.6h0ZM252.8,306.5h30.2v31.2h-30.2v-31.2ZM252.8,358.3h30.2v54.5h-30.2v-54.5ZM283.1,433.4v117.8h-30.2v-117.8h30.2ZM293.4,433.4h84.8v154.9h-84.9v-154.9h0ZM388.5,432.5h46.8c7.8,0,14.7,7.2,14.7,15.5s-6.8,14.9-14.7,14.9h-46.8v-30.3h0ZM378.2,412.8h-84.9v-54.5h84.9v54.5ZM293.4,337.7v-31.2h84.8v31.2h-84.9,0ZM388.5,268.2h30.1c4.5,0,8.8,4.9,8.8,10.1s-4.1,8.8-8.8,8.8h-30.1v-18.9h0ZM378.2,285.9h-84.9v-143.3h84.9v143.3h0ZM388.5,307.7h30.1c16,0,29.4-13.4,29.4-29.4s-13.4-30.7-29.4-30.7h-30.1v-28.7h127.7v118.8h-127.7v-30.1h0ZM491.6,477.4h24.6v88.8c-7.7,4.9-16,9.1-24.6,12.4v-101.2h0ZM545.6,337.7h-19v-118.8h19.1c8.8,18,13.9,38.1,13.9,59.4s-5.2,41.6-14,59.4ZM540.1,208.6h-13.5v-18.8c5,5.8,9.5,12.1,13.5,18.8ZM516.2,179.1v29.4h-127.7v-65.9h35.3c35.7,0,68.1,13.9,92.4,36.5h0ZM283.1,142.6v143.3h-30.2v-143.3h30.2ZM252.8,561.5h30.2v26.8h-30.2v-26.8ZM388.5,588.3v-104.9h46.8c19.4,0,35.4-16.1,35.4-35.5s-16-36.1-35.4-36.1h-46.8v-53.6h92.8v223.9c-12.9,3.9-26.5,6-40.7,6h-52.1v.2ZM526.5,558.9v-81.5h51.9c-7.1,33-26,61.6-51.9,81.5Z"/>
            <rect class="cls-2" x="121.3" y="122.7" width="100.7" height="484.6"/>
            <path class="cls-1" d="M186.3,371.3v-15.1h12.9v28.7h-54.9v-13.6h42Z"/>
            <path class="cls-1" d="M144.3,286.8v-12.2h54.9v7.8l-25.2,18.1h25.2v12.2h-54.9v-7.4l25.6-18.5h-25.6Z"/>
            <path class="cls-1" d="M171.7,229.6c15.1,0,27.5,11.1,27.5,24.7v16.1h-54.9v-16.1c0-13.6,12.4-24.7,27.4-24.7ZM171.7,244.2c-7.9,0-14.4,4.6-14.4,10.4v2h28.9v-2c0-5.8-6.5-10.4-14.5-10.4h0Z"/>
            <path class="cls-1" d="M144.3,226v-33h13v19.3h7.9v-19.3h13v19.3h8v-19.3h13v33h-54.9Z"/>
            <path class="cls-1" d="M199.2,149.9v15.3l-13.8,6.7v2.7h13.7v13.7h-54.8v-14.4c0-11.3,9.3-20.6,20.5-20.6s10.9,2.4,14.7,6.2l19.6-9.5h.1ZM172.5,174.5c0-4.1-3.5-7.6-7.6-7.6s-7.6,3.5-7.6,7.6h15.2Z"/>
            <polygon class="cls-1" points="144.3 454.8 199.2 433.2 199.2 429.4 185.8 424.2 144.3 440.4 144.3 454.8"/>
            <polygon class="cls-1" points="144.3 402 162 409 180.7 402 144.3 387.7 144.3 402"/>
            <polygon class="cls-1" points="144.3 420.3 144.3 434.8 199.2 413.2 199.2 409.2 199.2 409.1 186.4 404.1 186.4 404.1 186.4 404.1 144.3 420.3"/>
            <path class="cls-1" d="M199.2,331.1h-14.3v6.9h14.3v13.6h-37.5c-10.2,0-17.6-7.7-17.6-17.1s7.4-17.1,17.6-17.1h37.5v13.6h0ZM161.7,331.1c-2.6,0-4.1,1.6-4.1,3.4s1.5,3.4,4.1,3.4h10.3v-6.9h-10.3,0Z"/>
            <path class="cls-1" d="M199.2,494.4v15.3l-13.8,6.7v2.7h13.7v13.7h-54.8v-14.4c0-11.3,9.3-20.6,20.5-20.6s10.9,2.4,14.7,6.2l19.6-9.5h.1ZM172.5,519.1c0-4.1-3.5-7.6-7.6-7.6s-7.6,3.5-7.6,7.6h15.2Z"/>
            <path class="cls-1" d="M144.3,490.7v-33h13v19.3h7.9v-19.3h13v19.3h8v-19.3h13v33h-54.9Z"/>
            <path class="cls-1" d="M161.1,539.1c3.1,0,6.1.9,8.6,2.4,3.1-3.1,7.6-5.1,12.3-5.1,9.6,0,17.3,7.8,17.3,17.4v23.1h-54.9v-21.1c0-9.2,7.5-16.7,16.7-16.7h0ZM161.1,552.8c-2.1,0-3.8,1.6-3.8,3.6v6.7h7.4v-6.7c0-2-1.7-3.6-3.6-3.6ZM182,550c-2.4,0-4.4,2-4.4,4.4v8.7h8.8v-8.7c0-2.4-2-4.4-4.4-4.4h0Z"/>
          </g>
        </g>
      </g>
    </g>
  </g>
</svg>