<?xml version="1.0" encoding="UTF-8"?><svg id="Layer_2" xmlns="http://www.w3.org/2000/svg" viewBox="0 0 493.81 493.81"><defs><style>.cls-1{fill:#7bff47;}</style></defs><g id="Layer_1-2"><path class="cls-1" d="M376.89,199.96c10.29,11.24,15.43,25.24,15.43,41.81,0,16.76-5.14,30.76-15.43,42-10.1,11.24-23.62,16.76-40.19,16.76-16.57,0-30.1-5.52-40.19-16.76-10.1-11.24-15.24-25.24-15.24-42,.19-16.76,5.33-30.57,15.43-41.81,10.1-11.24,23.43-16.96,40-16.96,16.57,0,30.1,5.72,40.19,16.96ZM311.17,246.31c2.48,14.79,6.86,26.62,13.14,35.89,6.29,9.27,13.72,13.02,22.29,11.63,17.33-3.55,20.38-29.38,15.81-56.6-2.48-14.79-6.86-26.62-13.14-35.89-6.29-9.27-13.72-13.02-22.1-11.64-17.91,3.55-20.76,29.38-16,56.6Z"/><rect class="cls-1" x="302.93" y="309.11" width="74.94" height="6.51"/><path class="cls-1" d="M290.76,297.54c1.93,4.2.86,8.4-3.43,12.23-4.29,3.83-10.5,5.84-18.43,5.84h-93.22c-3.43,0-4.07-1.46-1.93-4.38l73.5-118.26h-33.86c-8.14,0-13.93.91-17.57,2.56-3.43,1.64-6.43,5.48-9,11.5-1.07,2.01-2.57,2.92-4.29,2.74-2.79,0-3.86-1.28-3.21-3.65,1.93-6.02,3.43-12.23,4.71-18.8.43-2.19,1.93-3.1,4.71-2.74,7.5.55,14.79.91,22.29.91h73.72c2.79,0,4.07,1.46,2.36,3.83l-73.93,118.81h39.22c7.5,0,12-3.65,13.72-7.3,1.71-3.65,6-7.85,12.21-8.76,6.43-.73,10.5,1.1,12.43,5.48Z"/><path class="cls-1" d="M169.85,305.68c-5.53,7.79-13.94,11.69-25.23,11.69-19.26,0-28.78-10.08-28.78-30.25v-93.5h-7.75c-2.43,0-3.54-1.6-3.54-4.81,0-3.67.66-4.59,3.54-4.59h2.88c6.42,0,12.62-2.52,18.37-7.33,5.98-5.04,9.96-11,12.17-18.1.67-2.06,1.99-2.98,3.99-2.98,2.43,0,3.76,1.14,3.76,3.67v24.75h17.71c2.21,0,3.32,1.6,3.32,4.59,0,3.21-1.11,4.81-3.32,4.81h-17.71v95.1c0,8.94,2.21,13.75,6.86,14.67,1.33.23,4.43-.46,9.08-2.06,2.43-1.38,3.98-1.6,4.87-.69,1.11,1.14,1.11,2.75-.22,5.04Z"/><path class="cls-1" d="M438.63,274.38c-.26,1.83-.55,3.66-.87,5.47l17.49,3.02c.34-1.98.66-3.97.94-5.96.29-2,.55-3.99.78-5.99l5.87.68c-.24,2.05-.5,4.1-.8,6.15-.59,4.12-1.3,8.2-2.11,12.23l-29.01-5.85c.7-3.49,1.31-7.02,1.83-10.59,1.29-8.97,1.92-17.88,1.94-26.69l25.62-.03,21.73.03c0-2.24-.03-4.48-.09-6.71h-.03c-.26-8.86-1.02-17.79-2.31-26.77-1.29-8.96-3.07-17.73-5.3-26.29l-40.06,10.48c1.85,7.06,3.32,14.3,4.38,21.7.26,1.83.5,3.66.71,5.49l17.63-2.03c-.23-1.99-.49-3.99-.78-5.99-.29-2-.6-3.99-.94-5.96l5.82-1c.35,2.03.67,4.07.97,6.13.59,4.12,1.06,8.23,1.42,12.32l-29.48,2.56c-.31-3.55-.72-7.1-1.23-10.67-1.29-8.97-3.19-17.7-5.66-26.15l24.57-7.24,20.87-6.1c-.63-2.15-1.29-4.29-1.97-6.42h-.03c-2.75-8.42-5.99-16.78-9.76-25.03-3.76-8.24-7.94-16.15-12.49-23.73l-35.49,21.34c3.76,6.26,7.21,12.79,10.31,19.59.77,1.69,1.51,3.38,2.23,5.07l16.34-6.92c-.78-1.85-1.59-3.69-2.43-5.53-.84-1.84-1.7-3.66-2.58-5.46l5.3-2.6c.91,1.85,1.79,3.72,2.66,5.61,1.73,3.79,3.34,7.6,4.84,11.43l-27.57,10.76c-1.29-3.32-2.69-6.61-4.19-9.89-3.76-8.24-8.05-16.08-12.8-23.5l21.53-13.87,18.31-11.73c-1.21-1.89-2.44-3.76-3.7-5.6l-.02.02c-5.01-7.31-10.48-14.42-16.42-21.27-5.93-6.84-12.17-13.26-18.67-19.25l-28.04,30.48c5.37,4.94,10.52,10.24,15.41,15.89,1.21,1.4,2.4,2.81,3.57,4.24l13.73-11.24c-1.27-1.55-2.57-3.09-3.89-4.62-1.32-1.53-2.66-3.03-4.02-4.51l4.35-3.99c1.39,1.52,2.77,3.06,4.13,4.63,2.73,3.15,5.35,6.35,7.86,9.6l-23.42,18.09c-2.18-2.82-4.44-5.59-6.8-8.31-5.93-6.85-12.25-13.16-18.9-18.94l16.75-19.38,14.25-16.41c-1.69-1.47-3.4-2.92-5.13-4.33l-.02.02c-6.87-5.6-14.11-10.88-21.75-15.79-7.62-4.89-15.41-9.29-23.34-13.21l-18.31,37.14c6.55,3.23,12.98,6.86,19.27,10.9,1.56,1,3.1,2.02,4.62,3.06l10.01-14.65c-1.66-1.13-3.33-2.24-5.03-3.34-1.7-1.09-3.41-2.16-5.12-3.19l3.05-5.05c1.76,1.07,3.52,2.16,5.27,3.28,3.5,2.25,6.92,4.58,10.24,7l-17.37,23.95c-2.88-2.09-5.84-4.11-8.87-6.06-7.62-4.9-15.47-9.18-23.47-12.85l10.62-23.32,9.05-19.76c-2.04-.93-4.09-1.84-6.14-2.71v.03c-8.18-3.44-16.62-6.46-25.33-9.02-8.69-2.55-17.4-4.58-26.12-6.1l-7.11,40.8c7.19,1.25,14.39,2.93,21.56,5.03,1.78.52,3.54,1.07,5.29,1.63l5.48-16.88c-1.91-.62-3.83-1.21-5.77-1.78-1.94-.57-3.88-1.11-5.82-1.62l1.5-5.71c1.99.53,3.99,1.08,5.98,1.66,3.99,1.17,7.93,2.45,11.8,3.83l-9.92,27.88c-3.35-1.19-6.76-2.3-10.22-3.31-8.69-2.55-17.43-4.45-26.14-5.71l3.53-24.74,3.21-22.13c-2.22-.32-4.44-.61-6.66-.87v.03c-8.81-1-17.76-1.52-26.83-1.52s-17.99.51-26.78,1.51l4.67,41.15c7.25-.82,14.63-1.25,22.1-1.25,1.85,0,3.7.03,5.54.08l.5-17.74c-2.01-.06-4.02-.08-6.04-.08s-4.03.03-6.04.08l-.17-5.9c2.06-.06,4.13-.09,6.2-.09,4.16,0,8.3.12,12.4.35l-1.66,29.54c-3.55-.2-7.13-.3-10.74-.3-9.06,0-17.97.64-26.69,1.88l-3.67-25.35-3.07-21.52c-2.22.32-4.43.66-6.63,1.04v.03c-8.73,1.52-17.46,3.54-26.17,6.1-8.69,2.55-17.12,5.56-25.27,8.99l16.08,38.16c6.73-2.83,13.68-5.32,20.85-7.42,1.78-.52,3.56-1.02,5.34-1.49l-4.52-17.16c-1.94.51-3.88,1.05-5.82,1.62-1.94.57-3.86,1.16-5.77,1.78l-1.82-5.62c1.96-.64,3.94-1.25,5.93-1.83,3.99-1.17,7.99-2.23,12-3.16l6.73,28.82c-3.47.81-6.93,1.72-10.39,2.74-8.69,2.55-17.06,5.68-25.08,9.33l-10.67-23.28-9.01-19.79c-2.04.93-4.07,1.89-6.07,2.87v.02c-7.94,3.92-15.75,8.32-23.38,13.22-7.62,4.89-14.86,10.16-21.71,15.74l26.18,32.09c5.66-4.61,11.63-8.96,17.92-13,1.56-1,3.13-1.98,4.7-2.93l-9.17-15.19c-1.72,1.04-3.43,2.1-5.13,3.19-1.7,1.09-3.38,2.2-5.03,3.34l-3.33-4.88c1.7-1.16,3.43-2.3,5.17-3.43,3.5-2.25,7.04-4.39,10.62-6.41l14.57,25.75c-3.1,1.75-6.16,3.6-9.2,5.55-7.62,4.9-14.77,10.26-21.44,16.01l-16.8-19.34-14.21-16.44c-1.7,1.47-3.37,2.95-5.02,4.46l.02.02c-6.52,6-12.78,12.42-18.72,19.28-5.93,6.84-11.39,13.93-16.39,21.22l34.16,23.41c4.13-6.02,8.64-11.87,13.53-17.52,1.21-1.4,2.44-2.78,3.69-4.14l-13.08-11.99c-1.36,1.48-2.7,2.98-4.02,4.51-1.32,1.53-2.62,3.07-3.89,4.62l-4.57-3.74c1.31-1.6,2.64-3.18,4-4.74,2.73-3.15,5.52-6.19,8.38-9.14l21.24,20.61c-2.48,2.55-4.9,5.19-7.26,7.92-5.93,6.85-11.28,14-16.06,21.4l-21.56-13.82-18.28-11.78c-1.22,1.89-2.4,3.78-3.56,5.69h.02c-4.57,7.61-8.76,15.53-12.53,23.79-3.76,8.24-7.01,16.57-9.75,24.98l39.37,12.84c2.26-6.94,4.94-13.82,8.05-20.62.77-1.69,1.56-3.35,2.37-5.01l-15.93-7.82c-.88,1.8-1.75,3.62-2.59,5.46-.84,1.84-1.65,3.68-2.43,5.53l-5.44-2.3c.8-1.9,1.64-3.79,2.5-5.68,1.73-3.79,3.55-7.5,5.47-11.14l26.18,13.79c-1.66,3.15-3.24,6.36-4.74,9.64-3.76,8.24-6.88,16.61-9.38,25.06l-24.59-7.19-20.85-6.15c-.64,2.15-1.24,4.31-1.81,6.47h.03c-2.24,8.58-4.03,17.37-5.33,26.35-1.29,8.96-2.05,17.88-2.32,26.72l41.39,1.23c.22-7.3.85-14.66,1.91-22.05.26-1.83.55-3.66.87-5.47l-17.49-3.02c-.34,1.98-.66,3.97-.94,5.96-.29,2-.55,3.99-.78,5.99l-5.87-.68c.24-2.05.5-4.1.8-6.15.59-4.12,1.3-8.2,2.11-12.23l29.01,5.85c-.7,3.49-1.31,7.02-1.83,10.59-1.29,8.97-1.92,17.88-1.94,26.69l-25.62.03-21.74-.03c0,2.24.03,4.48.09,6.71h.03c.26,8.86,1.02,17.79,2.31,26.77,1.29,8.96,3.07,17.73,5.3,26.29l40.06-10.48c-1.85-7.06-3.32-14.3-4.38-21.7-.26-1.83-.5-3.66-.71-5.49l-17.63,2.03c.23,1.99.49,3.99.78,5.99.29,2,.6,3.99.94,5.96l-5.82,1c-.35-2.03-.67-4.07-.97-6.13-.59-4.12-1.06-8.23-1.42-12.32l29.48-2.56c.31,3.55.72,7.1,1.23,10.67,1.29,8.97,3.19,17.7,5.66,26.15l-24.58,7.25-20.86,6.1c.63,2.15,1.29,4.29,1.97,6.42h.03c2.75,8.42,5.99,16.78,9.76,25.03,3.76,8.24,7.94,16.15,12.49,23.73l35.49-21.34c-3.76-6.26-7.21-12.79-10.31-19.59-.77-1.69-1.51-3.38-2.23-5.07l-16.34,6.92c.78,1.85,1.59,3.69,2.43,5.53.84,1.84,1.7,3.66,2.58,5.46l-5.3,2.6c-.91-1.85-1.79-3.72-2.66-5.61-1.73-3.79-3.34-7.6-4.84-11.43l27.57-10.76c1.29,3.32,2.69,6.61,4.19,9.89,3.76,8.24,8.05,16.08,12.8,23.5l-21.54,13.88-18.3,11.73c1.21,1.89,2.44,3.76,3.7,5.6l.02-.02c5.01,7.31,10.48,14.42,16.42,21.27,5.93,6.84,12.17,13.26,18.67,19.25l28.04-30.48c-5.37-4.94-10.52-10.24-15.41-15.89-1.21-1.4-2.4-2.81-3.57-4.24l-13.73,11.24c1.27,1.55,2.57,3.09,3.89,4.62,1.32,1.53,2.66,3.03,4.02,4.51l-4.35,3.99c-1.39-1.52-2.77-3.06-4.13-4.63-2.73-3.15-5.35-6.35-7.86-9.6l23.42-18.09c2.18,2.82,4.44,5.59,6.8,8.31,5.93,6.85,12.25,13.16,18.9,18.94l-16.76,19.38-14.25,16.41c1.69,1.47,3.4,2.92,5.13,4.33l.02-.02c6.87,5.6,14.11,10.88,21.75,15.79,7.62,4.89,15.41,9.29,23.34,13.21l18.31-37.14c-6.55-3.23-12.98-6.86-19.27-10.9-1.56-1-3.1-2.02-4.62-3.06l-10.01,14.65c1.66,1.13,3.33,2.24,5.03,3.34,1.7,1.09,3.41,2.16,5.12,3.19l-3.05,5.05c-1.76-1.07-3.52-2.16-5.27-3.28-3.5-2.25-6.92-4.58-10.24-7l17.37-23.95c2.88,2.09,5.84,4.11,8.87,6.06,7.62,4.9,15.47,9.18,23.47,12.85l-10.61,23.31-9.05,19.76c2.04.93,4.09,1.84,6.14,2.71v-.03c8.18,3.44,16.62,6.46,25.33,9.02,8.69,2.55,17.4,4.58,26.12,6.1l7.11-40.8c-7.19-1.25-14.39-2.93-21.56-5.03-1.78-.52-3.54-1.07-5.29-1.63l-5.48,16.88c1.91.62,3.83,1.21,5.77,1.78,1.94.57,3.88,1.11,5.82,1.62l-1.5,5.71c-1.99-.53-3.99-1.08-5.98-1.66-3.99-1.17-7.93-2.45-11.8-3.83l9.92-27.88c3.35,1.19,6.76,2.3,10.22,3.31,8.69,2.55,17.43,4.45,26.14,5.71l-3.53,24.74-3.21,22.13c2.22.32,4.44.61,6.66.87v-.03c8.81,1,17.76,1.52,26.83,1.52s17.99-.51,26.78-1.51l-4.67-41.15c-7.25.82-14.63,1.25-22.1,1.25-1.85,0-3.7-.03-5.54-.08l-.5,17.74c2.01.06,4.02.08,6.04.08s4.03-.03,6.04-.08l.17,5.9c-2.06.06-4.13.09-6.2.09-4.16,0-8.3-.12-12.4-.35l1.66-29.54c3.55.2,7.13.3,10.74.3,9.06,0,17.97-.64,26.69-1.88l3.67,25.35,3.07,21.52c2.22-.32,4.43-.66,6.63-1.04v-.03c8.73-1.52,17.46-3.54,26.17-6.1,8.69-2.55,17.12-5.56,25.27-8.99l-16.08-38.16c-6.73,2.83-13.68,5.32-20.85,7.42-1.78.52-3.56,1.02-5.34,1.49l4.52,17.16c1.94-.51,3.88-1.05,5.82-1.62,1.94-.57,3.86-1.16,5.77-1.78l1.82,5.62c-1.96.64-3.94,1.25-5.93,1.83-3.99,1.17-7.99,2.23-12,3.16l-6.73-28.82c3.47-.81,6.93-1.72,10.39-2.74,8.69-2.55,17.06-5.68,25.08-9.33l10.67,23.28,9.01,19.79c2.04-.93,4.07-1.89,6.07-2.87v-.02c7.94-3.92,15.75-8.32,23.38-13.22,7.62-4.89,14.86-10.16,21.71-15.74l-26.18-32.09c-5.66,4.61-11.63,8.96-17.92,13-1.56,1-3.13,1.98-4.7,2.93l9.17,15.19c1.72-1.04,3.43-2.1,5.13-3.19,1.7-1.09,3.38-2.2,5.03-3.34l3.33,4.88c-1.7,1.16-3.43,2.3-5.17,3.43-3.5,2.25-7.04,4.39-10.62,6.41l-14.57-25.75c3.1-1.75,6.16-3.6,9.2-5.55,7.62-4.9,14.77-10.26,21.44-16.01l16.8,19.35,14.21,16.44c1.7-1.47,3.37-2.95,5.02-4.46l-.02-.02c6.52-6,12.78-12.42,18.72-19.28,5.93-6.84,11.39-13.93,16.39-21.22l-34.16-23.41c-4.13,6.02-8.64,11.87-13.53,17.52-1.21,1.4-2.44,2.78-3.69,4.13l13.08,11.99c1.36-1.48,2.7-2.98,4.02-4.51,1.32-1.53,2.62-3.07,3.89-4.62l4.57,3.74c-1.31,1.6-2.64,3.18-4,4.74-2.73,3.15-5.52,6.19-8.38,9.14l-21.24-20.61c2.48-2.55,4.9-5.19,7.26-7.92,5.93-6.85,11.28-14,16.06-21.4l21.57,13.82,18.27,11.77c1.22-1.89,2.4-3.78,3.56-5.69h-.02c4.57-7.61,8.76-15.53,12.53-23.79,3.76-8.24,7.01-16.57,9.75-24.98l-39.37-12.84c-2.26,6.94-4.94,13.82-8.05,20.62-.77,1.69-1.56,3.35-2.37,5.01l15.93,7.82c.88-1.8,1.75-3.62,2.59-5.46.84-1.84,1.65-3.68,2.43-5.53l5.44,2.3c-.8,1.9-1.64,3.79-2.5,5.68-1.73,3.79-3.55,7.5-5.47,11.14l-26.18-13.79c1.66-3.15,3.24-6.36,4.74-9.64,3.76-8.24,6.88-16.61,9.38-25.06l24.59,7.19,20.85,6.15c.64-2.15,1.24-4.31,1.81-6.47h-.03c2.24-8.58,4.03-17.37,5.33-26.35,1.29-8.96,2.05-17.88,2.32-26.72l-41.39-1.23c-.22,7.3-.85,14.66-1.91,22.05ZM446.19,258.2l29.49,1.72c-.38,6.47-1.03,12.98-1.97,19.51-1.26,8.74-2.99,17.28-5.17,25.62l-18.5-4.84-27.26-7.2s-.01.04-.02.07h-.01c-.22.82-.44,1.64-.66,2.46,0,.03-.01.05-.02.08-.17.62-.35,1.24-.53,1.85-2.44,8.38-5.51,16.69-9.25,24.87-2.18,4.78-4.54,9.41-7.07,13.91l36.13,20.36c3.1-5.5,5.99-11.19,8.67-17.04,1.78-3.89,3.43-7.8,4.97-11.73l-16.53-6.45c-1.41,3.62-2.94,7.23-4.58,10.81l-5.39-2.46c2.39-5.24,4.54-10.52,6.44-15.85l27.81,9.95c-2.19,6.1-4.65,12.16-7.39,18.16-3.67,8.03-7.74,15.74-12.18,23.13l-16.39-9.85-24.13-14.59s-.02.04-.04.06h-.01c-.44.72-.88,1.45-1.33,2.17-.01.02-.03.05-.04.07-.34.55-.68,1.09-1.03,1.63-4.71,7.36-9.99,14.46-15.88,21.26-3.44,3.97-7.01,7.75-10.71,11.35l28.93,29.71c4.53-4.41,8.9-9.04,13.11-13.91,2.8-3.23,5.49-6.52,8.07-9.86l-14.05-10.85c-2.38,3.08-4.86,6.11-7.44,9.09l-4.48-3.88c3.77-4.35,7.32-8.82,10.65-13.39l23.88,17.39c-3.82,5.24-7.88,10.36-12.21,15.35-5.78,6.67-11.86,12.92-18.2,18.76l-12.95-14.07-19.04-20.8s-.03.03-.05.04h0c-.63.57-1.26,1.14-1.89,1.7-.02.02-.04.04-.06.05-.48.43-.96.85-1.45,1.27-6.59,5.73-13.66,11.06-21.23,15.92-4.42,2.84-8.91,5.46-13.47,7.87l19.39,36.66c5.58-2.95,11.09-6.17,16.5-9.65,3.6-2.31,7.1-4.71,10.52-7.19l-10.42-14.37c-3.15,2.28-6.38,4.49-9.7,6.62l-3.2-4.98c4.84-3.11,9.51-6.4,13.99-9.85l18.01,23.41c-5.14,3.95-10.48,7.72-16.03,11.29-7.42,4.77-15.02,9.06-22.75,12.87l-8.46-17.15-12.41-25.32s-.04.02-.06.03h0c-.76.36-1.53.73-2.29,1.1-.03.01-.05.03-.08.04-.58.28-1.16.54-1.74.81-7.94,3.64-16.23,6.76-24.85,9.3-5.04,1.48-10.09,2.73-15.14,3.76l8.27,40.64c6.19-1.26,12.38-2.8,18.55-4.61,4.1-1.2,8.14-2.52,12.12-3.93l-5.95-16.72c-3.67,1.3-7.39,2.51-11.17,3.62l-1.67-5.68c5.52-1.62,10.93-3.46,16.2-5.51l10.69,27.53c-6.04,2.34-12.23,4.45-18.56,6.31-8.47,2.49-16.96,4.46-25.46,5.94l-3.28-18.84-4.77-27.79s-.04,0-.07.01h0c-.84.13-1.68.27-2.52.41-.02,0-.05,0-.07.01-.64.1-1.27.2-1.91.29-8.64,1.26-17.47,1.92-26.46,1.92-5.25,0-10.45-.22-15.59-.66l-3.51,41.32c6.3.53,12.66.81,19.1.81,4.27,0,8.52-.12,12.74-.36l-1-17.72c-3.88.22-7.8.33-11.74.33v-5.92c5.76,0,11.46-.24,17.09-.72l2.5,29.43c-6.46.55-12.99.83-19.59.83-8.82,0-17.53-.5-26.1-1.47l2.23-19.61,3.18-27.4s-.04,0-.07,0h0c-.85-.11-1.7-.21-2.54-.32-.02,0-.05,0-.07,0-.64-.08-1.28-.17-1.92-.26-8.64-1.23-17.31-3.08-25.93-5.62-5.04-1.48-9.96-3.16-14.77-5.02l-15.01,38.66c5.89,2.29,11.92,4.34,18.1,6.15,4.1,1.2,8.21,2.29,12.32,3.25l4.03-17.28c-3.79-.88-7.57-1.88-11.35-2.99l1.67-5.68c5.52,1.62,11.06,2.99,16.6,4.12l-5.9,28.94c-6.35-1.29-12.7-2.87-19.03-4.73-8.47-2.49-16.68-5.42-24.63-8.76l7.42-17.63,11.01-25.96s-.04-.02-.06-.03h0c-.79-.34-1.57-.68-2.35-1.02-.02-.01-.05-.02-.07-.03-.59-.26-1.18-.52-1.76-.79-7.95-3.61-15.74-7.83-23.3-12.69-4.42-2.84-8.67-5.84-12.76-8.98l-25.29,32.87c5.01,3.85,10.22,7.52,15.63,11,3.6,2.31,7.23,4.51,10.91,6.59l8.74-15.45c-3.39-1.92-6.74-3.94-10.05-6.07l3.2-4.98c4.84,3.11,9.77,5.99,14.77,8.63l-13.81,26.11c-5.73-3.03-11.38-6.33-16.93-9.9-7.42-4.77-14.48-9.9-21.16-15.35l12.09-14.82,17.88-21.81s-.03-.03-.05-.04h0c-.66-.55-1.31-1.09-1.97-1.64-.02-.02-.04-.04-.07-.05-.49-.41-.98-.83-1.47-1.25-6.61-5.7-12.89-11.95-18.78-18.74-3.44-3.97-6.67-8.04-9.71-12.21l-33.53,24.41c3.72,5.11,7.69,10.1,11.9,14.96,2.8,3.23,5.67,6.36,8.61,9.39l12.74-12.36c-2.71-2.79-5.36-5.68-7.93-8.65l4.48-3.88c3.77,4.35,7.69,8.5,11.74,12.45l-20.61,21.16c-4.64-4.52-9.13-9.28-13.45-14.26-5.78-6.67-11.1-13.58-15.98-20.69l15.77-10.81,23.3-15.89s-.02-.04-.04-.06h.01c-.48-.71-.96-1.42-1.43-2.13-.01-.02-.03-.04-.04-.07-.36-.54-.71-1.08-1.06-1.61-4.73-7.34-9-15.1-12.74-23.28-2.18-4.78-4.14-9.6-5.88-14.45l-39.05,13.97c2.13,5.95,4.53,11.85,7.2,17.71,1.78,3.89,3.65,7.7,5.62,11.44l15.7-8.27c-1.81-3.44-3.54-6.96-5.18-10.54l5.39-2.46c2.39,5.24,4.98,10.32,7.76,15.25l-25.73,14.5c-3.18-5.65-6.15-11.47-8.89-17.48-3.67-8.03-6.83-16.16-9.5-24.35l18.18-5.93,26.82-8.68s-.01-.04-.02-.06h.01c-.26-.82-.52-1.63-.78-2.44,0-.02-.02-.05-.02-.07-.19-.61-.37-1.23-.56-1.85-2.48-8.37-4.39-17.02-5.67-25.92-.75-5.2-1.27-10.38-1.57-15.52l-41.4,2.41c.37,6.31,1.01,12.65,1.92,19.02.61,4.23,1.33,8.42,2.17,12.56l17.4-3.51c-.77-3.81-1.44-7.67-2-11.57l5.86-.84c.82,5.7,1.87,11.31,3.15,16.82l-28.78,6.66c-1.46-6.31-2.67-12.74-3.6-19.27-1.26-8.74-2-17.43-2.26-26.04l19.11-.57,28.19-.77s0-.04,0-.07h.01c-.03-.85-.04-1.7-.06-2.55,0-.03,0-.05,0-.08,0-.64-.01-1.29-.02-1.93-.02-8.73.59-17.57,1.87-26.47.75-5.2,1.71-10.31,2.87-15.34l-40.4-9.36c-1.42,6.16-2.6,12.42-3.51,18.79-.61,4.23-1.09,8.45-1.46,12.66l17.68,1.53c.34-3.88.78-7.77,1.34-11.66l5.86.84c-.82,5.7-1.39,11.38-1.72,17.02l-29.49-1.72c.38-6.47,1.03-12.98,1.97-19.51,1.26-8.74,2.99-17.28,5.17-25.62l18.5,4.84,27.27,7.2s.01-.04.02-.07h.01c.22-.82.44-1.64.66-2.46,0-.03.01-.05.02-.08.17-.62.35-1.24.53-1.85,2.44-8.38,5.51-16.69,9.25-24.87,2.18-4.78,4.54-9.41,7.07-13.91l-36.13-20.36c-3.1,5.5-5.99,11.19-8.67,17.04-1.78,3.89-3.43,7.8-4.97,11.73l16.53,6.45c1.41-3.62,2.94-7.23,4.58-10.81l5.39,2.46c-2.39,5.24-4.54,10.52-6.44,15.85l-27.81-9.95c2.19-6.1,4.65-12.16,7.39-18.16,3.67-8.03,7.74-15.74,12.18-23.13l16.38,9.85,24.13,14.59s.02-.04.04-.06h.01c.44-.72.88-1.45,1.33-2.17.01-.02.03-.05.04-.07.34-.55.68-1.09,1.03-1.63,4.71-7.35,9.99-14.46,15.88-21.26,3.44-3.97,7.01-7.75,10.71-11.35l-28.93-29.71c-4.53,4.41-8.9,9.04-13.11,13.91-2.8,3.23-5.49,6.52-8.07,9.86l14.05,10.85c2.38-3.08,4.86-6.11,7.44-9.09l4.48,3.88c-3.77,4.35-7.32,8.82-10.65,13.39l-23.88-17.39c3.82-5.24,7.88-10.36,12.21-15.35,5.78-6.67,11.86-12.92,18.2-18.76l12.95,14.07,19.04,20.8s.03-.03.05-.05h0c.63-.57,1.26-1.14,1.89-1.7.02-.02.04-.04.06-.05.48-.43.96-.85,1.45-1.27,6.59-5.73,13.66-11.06,21.23-15.92,4.42-2.84,8.91-5.46,13.47-7.87l-19.39-36.66c-5.58,2.95-11.09,6.17-16.5,9.65-3.6,2.31-7.1,4.71-10.52,7.19l10.42,14.37c3.15-2.28,6.38-4.49,9.7-6.62l3.2,4.98c-4.84,3.11-9.51,6.4-13.99,9.85l-18.01-23.41c5.14-3.95,10.48-7.72,16.03-11.29,7.42-4.77,15.02-9.06,22.75-12.87l8.46,17.15,12.41,25.32s.04-.02.06-.03h0c.76-.36,1.53-.73,2.29-1.1.03-.01.05-.03.08-.04.58-.28,1.16-.54,1.74-.81,7.94-3.64,16.23-6.76,24.85-9.3,5.04-1.48,10.09-2.73,15.14-3.76l-8.27-40.64c-6.19,1.26-12.38,2.8-18.55,4.61-4.1,1.2-8.14,2.52-12.12,3.93l5.95,16.72c3.67-1.3,7.39-2.51,11.17-3.62l1.67,5.68c-5.52,1.62-10.93,3.46-16.2,5.51l-10.69-27.53c6.04-2.34,12.23-4.45,18.56-6.31,8.47-2.49,16.96-4.46,25.46-5.94l3.28,18.84,4.78,27.79s.04,0,.07-.01h0c.84-.13,1.68-.27,2.52-.41.03,0,.05,0,.08-.01.63-.1,1.27-.2,1.9-.29,8.64-1.26,17.48-1.92,26.47-1.92,5.25,0,10.45.22,15.59.66l3.51-41.32c-6.3-.53-12.66-.81-19.1-.81-4.27,0-8.52.12-12.74.36l1,17.72c3.88-.22,7.8-.33,11.74-.33v5.92c-5.76,0-11.46.24-17.09.72l-2.5-29.43c6.46-.55,12.99-.83,19.59-.83,8.82,0,17.53.5,26.1,1.47l-2.23,19.61-3.18,27.4s.04,0,.07,0h0c.85.11,1.69.21,2.54.32.02,0,.05,0,.07,0,.64.08,1.28.17,1.92.26,8.64,1.23,17.31,3.08,25.93,5.62,5.04,1.48,9.96,3.16,14.77,5.02l15.01-38.66c-5.89-2.29-11.92-4.34-18.1-6.15-4.1-1.2-8.21-2.29-12.32-3.25l-4.03,17.28c3.79.88,7.57,1.88,11.35,2.99l-1.67,5.68c-5.52-1.62-11.06-2.99-16.6-4.12l5.9-28.94c6.35,1.29,12.7,2.87,19.03,4.73,8.47,2.49,16.68,5.42,24.63,8.76l-7.42,17.63-11.01,25.96s.04.02.06.03h0c.79.34,1.57.68,2.35,1.02.02.01.05.02.07.03.59.26,1.18.52,1.76.79,7.95,3.61,15.74,7.83,23.3,12.69,4.42,2.84,8.67,5.84,12.76,8.98l25.29-32.87c-5.01-3.85-10.22-7.52-15.63-11-3.6-2.31-7.23-4.51-10.91-6.59l-8.74,15.45c3.39,1.92,6.74,3.94,10.05,6.07l-3.2,4.98c-4.84-3.11-9.77-5.99-14.77-8.63l13.81-26.11c5.73,3.03,11.38,6.33,16.93,9.9,7.42,4.77,14.48,9.9,21.16,15.35l-12.08,14.81-17.88,21.81s.03.03.05.04h0c.66.55,1.31,1.09,1.97,1.64.02.02.04.04.07.05.49.41.98.83,1.47,1.25,6.61,5.71,12.89,11.95,18.78,18.75,3.44,3.97,6.67,8.04,9.71,12.21l33.53-24.41c-3.72-5.11-7.69-10.1-11.9-14.96-2.8-3.23-5.67-6.36-8.61-9.39l-12.74,12.36c2.71,2.79,5.36,5.68,7.93,8.65l-4.48,3.88c-3.77-4.35-7.69-8.5-11.74-12.45l20.61-21.16c4.64,4.52,9.13,9.28,13.45,14.26,5.78,6.67,11.1,13.58,15.98,20.69l-15.77,10.81-23.3,15.89s.02.04.04.06h-.01c.48.71.96,1.42,1.43,2.13.01.02.03.04.04.07.36.54.71,1.08,1.06,1.61,4.73,7.34,9,15.1,12.74,23.28,2.18,4.78,4.14,9.6,5.88,14.45l39.05-13.97c-2.13-5.95-4.53-11.85-7.2-17.71-1.78-3.89-3.65-7.7-5.62-11.44l-15.7,8.27c1.81,3.44,3.54,6.96,5.18,10.54l-5.39,2.46c-2.39-5.24-4.98-10.32-7.76-15.25l25.73-14.5c3.18,5.65,6.15,11.47,8.89,17.48,3.67,8.03,6.83,16.16,9.5,24.35l-18.18,5.93-26.83,8.68s.01.04.02.06h-.01c.26.82.52,1.63.78,2.44,0,.02.02.05.02.07.19.61.37,1.23.56,1.85,2.48,8.37,4.39,17.02,5.67,25.92.75,5.2,1.27,10.38,1.57,15.52l41.4-2.41c-.37-6.31-1.01-12.65-1.92-19.02-.61-4.23-1.33-8.42-2.17-12.56l-17.4,3.51c.77,3.81,1.44,7.67,2,11.57l-5.86.84c-.82-5.7-1.87-11.31-3.15-16.82l28.78-6.66c1.46,6.31,2.67,12.74,3.6,19.27,1.26,8.74,2,17.43,2.26,26.04l-19.11.57-28.19.77s0,.04,0,.07h-.01c.03.85.04,1.7.06,2.55,0,.03,0,.05,0,.08,0,.64.01,1.29.02,1.93.02,8.73-.59,17.57-1.87,26.47-.75,5.2-1.71,10.31-2.87,15.34l40.4,9.36c1.42-6.16,2.6-12.42,3.51-18.79.61-4.23,1.09-8.45,1.46-12.66l-17.68-1.53c-.34,3.88-.78,7.77-1.34,11.66l-5.86-.84c.82-5.7,1.39-11.38,1.72-17.02Z"/><path class="cls-1" d="M246.91,70.87c-97.22,0-176.03,78.81-176.03,176.03s78.81,176.03,176.03,176.03,176.03-78.81,176.03-176.03-78.81-176.03-176.03-176.03ZM246.91,416.86c-93.86,0-169.95-76.09-169.95-169.95S153.04,76.95,246.91,76.95s169.95,76.09,169.95,169.95-76.09,169.95-169.95,169.95Z"/><path class="cls-1" d="M246.91,0C110.54,0,0,110.54,0,246.91s110.54,246.91,246.91,246.91,246.91-110.54,246.91-246.91S383.27,0,246.91,0ZM246.91,488c-133.15,0-241.1-107.94-241.1-241.1S113.75,5.81,246.91,5.81s241.1,107.94,241.1,241.1-107.94,241.1-241.1,241.1Z"/></g></svg>