<?xml version="1.0" encoding="UTF-8"?>
<svg xmlns="http://www.w3.org/2000/svg" version="1.1" viewBox="0 0 622.2 622.2">
  <defs>
    <style>
      .cls-1 {
        fill: #7bff47;
      }
    </style>
  </defs>
  <!-- Generator: Adobe Illustrator 28.6.0, SVG Export Plug-In . SVG Version: 1.2.0 Build 709)  -->
  <g>
    <g id="Layer_1">
      <g id="Layer_2">
        <g id="Layer_1-2">
          <path class="cls-1" d="M441.1,264.2c10.3,11.2,15.4,25.2,15.4,41.8s-5.1,30.8-15.4,42c-10.1,11.2-23.6,16.8-40.2,16.8s-30.1-5.5-40.2-16.8c-10.1-11.2-15.2-25.2-15.2-42,.2-16.8,5.3-30.6,15.4-41.8s23.4-17,40-17,30.1,5.7,40.2,17h0ZM375.4,310.5c2.5,14.8,6.9,26.6,13.1,35.9,6.3,9.3,13.7,13,22.3,11.6,17.3-3.5,20.4-29.4,15.8-56.6-2.5-14.8-6.9-26.6-13.1-35.9-6.3-9.3-13.7-13-22.1-11.6-17.9,3.6-20.8,29.4-16,56.6h0Z"/>
          <rect class="cls-1" x="367.1" y="373.3" width="74.9" height="6.5"/>
          <path class="cls-1" d="M355,361.7c1.9,4.2.9,8.4-3.4,12.2-4.3,3.8-10.5,5.8-18.4,5.8h-93.2c-3.4,0-4.1-1.5-1.9-4.4l73.5-118.3h-33.9c-8.1,0-13.9.9-17.6,2.6-3.4,1.6-6.4,5.5-9,11.5-1.1,2-2.6,2.9-4.3,2.7-2.8,0-3.9-1.3-3.2-3.6,1.9-6,3.4-12.2,4.7-18.8.4-2.2,1.9-3.1,4.7-2.7,7.5.6,14.8.9,22.3.9h73.7c2.8,0,4.1,1.5,2.4,3.8l-73.9,118.8h39.2c7.5,0,12-3.6,13.7-7.3,1.7-3.6,6-7.9,12.2-8.8,6.4-.7,10.5,1.1,12.4,5.5h0Z"/>
          <path class="cls-1" d="M234,369.9c-5.5,7.8-13.9,11.7-25.2,11.7-19.3,0-28.8-10.1-28.8-30.2v-93.5h-7.8c-2.4,0-3.5-1.6-3.5-4.8s.7-4.6,3.5-4.6h2.9c6.4,0,12.6-2.5,18.4-7.3,6-5,10-11,12.2-18.1.7-2.1,2-3,4-3s3.8,1.1,3.8,3.7v24.8h17.7c2.2,0,3.3,1.6,3.3,4.6s-1.1,4.8-3.3,4.8h-17.7v95.1c0,8.9,2.2,13.8,6.9,14.7,1.3.2,4.4-.5,9.1-2.1,2.4-1.4,4-1.6,4.9-.7s1.1,2.8-.2,5h-.2Z"/>
          <path class="cls-1" d="M502.8,338.6c-.3,1.8-.5,3.7-.9,5.5l17.5,3c.3-2,.7-4,.9-6,.3-2,.5-4,.8-6l5.9.7c-.2,2-.5,4.1-.8,6.1-.6,4.1-1.3,8.2-2.1,12.2l-29-5.9c.7-3.5,1.3-7,1.8-10.6,1.3-9,1.9-17.9,1.9-26.7h47.3v-6.7h0c-.3-8.9-1-17.8-2.3-26.8-1.3-9-3.1-17.7-5.3-26.3l-40.1,10.5c1.9,7.1,3.3,14.3,4.4,21.7.3,1.8.5,3.7.7,5.5l17.6-2c-.2-2-.5-4-.8-6s-.6-4-.9-6l5.8-1c.4,2,.7,4.1,1,6.1.6,4.1,1.1,8.2,1.4,12.3l-29.5,2.6c-.3-3.6-.7-7.1-1.2-10.7-1.3-9-3.2-17.7-5.7-26.1l24.6-7.2,20.9-6.1c-.6-2.1-1.3-4.3-2-6.4h0c-2.8-8.4-6-16.8-9.8-25s-7.9-16.1-12.5-23.7l-35.5,21.3c3.8,6.3,7.2,12.8,10.3,19.6.8,1.7,1.5,3.4,2.2,5.1l16.3-6.9c-.8-1.9-1.6-3.7-2.4-5.5s-1.7-3.7-2.6-5.5l5.3-2.6c.9,1.9,1.8,3.7,2.7,5.6,1.7,3.8,3.3,7.6,4.8,11.4l-27.6,10.8c-1.3-3.3-2.7-6.6-4.2-9.9-3.8-8.2-8-16.1-12.8-23.5l21.5-13.9,18.3-11.7c-1.2-1.9-2.4-3.8-3.7-5.6h0c-5-7.3-10.5-14.4-16.4-21.3-5.9-6.8-12.2-13.3-18.7-19.2l-28,30.5c5.4,4.9,10.5,10.2,15.4,15.9,1.2,1.4,2.4,2.8,3.6,4.2l13.7-11.2c-1.3-1.6-2.6-3.1-3.9-4.6s-2.7-3-4-4.5l4.4-4c1.4,1.5,2.8,3.1,4.1,4.6,2.7,3.2,5.4,6.3,7.9,9.6l-23.4,18.1c-2.2-2.8-4.4-5.6-6.8-8.3-5.9-6.8-12.2-13.2-18.9-18.9l16.8-19.4,14.2-16.4c-1.7-1.5-3.4-2.9-5.1-4.3h0c-6.9-5.6-14.1-10.9-21.8-15.8-7.6-4.9-15.4-9.3-23.3-13.2l-18.3,37.1c6.5,3.2,13,6.9,19.3,10.9,1.6,1,3.1,2,4.6,3.1l10-14.7c-1.7-1.1-3.3-2.2-5-3.3-1.7-1.1-3.4-2.2-5.1-3.2l3-5c1.8,1.1,3.5,2.2,5.3,3.3,3.5,2.2,6.9,4.6,10.2,7l-17.4,23.9c-2.9-2.1-5.8-4.1-8.9-6.1-7.6-4.9-15.5-9.2-23.5-12.8l10.6-23.3,9-19.8c-2-.9-4.1-1.8-6.1-2.7h0c-8.2-3.4-16.6-6.4-25.3-9-8.7-2.5-17.4-4.6-26.1-6.1l-7.1,40.8c7.2,1.2,14.4,2.9,21.6,5,1.8.5,3.5,1.1,5.3,1.6l5.5-16.9c-1.9-.6-3.8-1.2-5.8-1.8s-3.9-1.1-5.8-1.6l1.5-5.7c2,.5,4,1.1,6,1.7,4,1.2,7.9,2.5,11.8,3.8l-9.9,27.9c-3.4-1.2-6.8-2.3-10.2-3.3-8.7-2.6-17.4-4.5-26.1-5.7l3.5-24.7,3.2-22.1c-2.2-.3-4.4-.6-6.7-.9h0c-8.8-1-17.8-1.5-26.8-1.5s-18,.5-26.8,1.5l4.7,41.2c7.2-.8,14.6-1.2,22.1-1.2s3.7,0,5.5,0l.5-17.7h-12l-.2-5.9h6.2c4.2,0,8.3,0,12.4.4l-1.7,29.5c-3.6-.2-7.1-.3-10.7-.3-9.1,0-18,.6-26.7,1.9l-3.7-25.3-3.1-21.5c-2.2.3-4.4.7-6.6,1h0c-8.7,1.6-17.5,3.6-26.2,6.1s-17.1,5.6-25.3,9l16.1,38.2c6.7-2.8,13.7-5.3,20.9-7.4,1.8-.5,3.6-1,5.3-1.5l-4.5-17.2c-1.9.5-3.9,1-5.8,1.6s-3.9,1.2-5.8,1.8l-1.8-5.6c2-.6,3.9-1.2,5.9-1.8,4-1.2,8-2.2,12-3.2l6.7,28.8c-3.5.8-6.9,1.7-10.4,2.7-8.7,2.6-17.1,5.7-25.1,9.3l-10.7-23.3-9-19.8c-2,.9-4.1,1.9-6.1,2.9h0c-7.9,3.9-15.8,8.3-23.4,13.2-7.6,4.9-14.9,10.2-21.7,15.7l26.2,32.1c5.7-4.6,11.6-9,17.9-13,1.6-1,3.1-2,4.7-2.9l-9.2-15.2c-1.7,1-3.4,2.1-5.1,3.2-1.7,1.1-3.4,2.2-5,3.3l-3.3-4.9c1.7-1.2,3.4-2.3,5.2-3.4,3.5-2.2,7-4.4,10.6-6.4l14.6,25.8c-3.1,1.8-6.2,3.6-9.2,5.6-7.6,4.9-14.8,10.3-21.4,16l-16.8-19.3-14.2-16.4c-1.7,1.5-3.4,2.9-5,4.5h0c-6.5,6-12.8,12.4-18.7,19.3-5.9,6.8-11.4,13.9-16.4,21.2l34.2,23.4c4.1-6,8.6-11.9,13.5-17.5,1.2-1.4,2.4-2.8,3.7-4.1l-13.1-12c-1.4,1.5-2.7,3-4,4.5s-2.6,3.1-3.9,4.6l-4.6-3.7c1.3-1.6,2.6-3.2,4-4.7,2.7-3.2,5.5-6.2,8.4-9.1l21.2,20.6c-2.5,2.6-4.9,5.2-7.3,7.9-5.9,6.8-11.3,14-16.1,21.4l-21.6-13.8-18.3-11.8c-1.2,1.9-2.4,3.8-3.6,5.7h0c-4.6,7.6-8.8,15.5-12.5,23.8-3.8,8.2-7,16.6-9.8,25l39.4,12.8c2.3-6.9,4.9-13.8,8-20.6.8-1.7,1.6-3.4,2.4-5l-15.9-7.8c-.9,1.8-1.8,3.6-2.6,5.5-.8,1.8-1.7,3.7-2.4,5.5l-5.4-2.3c.8-1.9,1.6-3.8,2.5-5.7,1.7-3.8,3.5-7.5,5.5-11.1l26.2,13.8c-1.7,3.1-3.2,6.4-4.7,9.6-3.8,8.2-6.9,16.6-9.4,25.1l-24.6-7.2-20.9-6.1c-.6,2.1-1.2,4.3-1.8,6.5h0c-2.2,8.6-4,17.4-5.3,26.4s-2.1,17.9-2.3,26.7l41.4,1.2c.2-7.3.8-14.7,1.9-22.1.3-1.8.5-3.7.9-5.5l-17.5-3c-.3,2-.7,4-.9,6-.3,2-.5,4-.8,6l-5.9-.7c.2-2.1.5-4.1.8-6.1.6-4.1,1.3-8.2,2.1-12.2l29,5.9c-.7,3.5-1.3,7-1.8,10.6-1.3,9-1.9,17.9-1.9,26.7h-47.3v6.7h0c.3,8.9,1,17.8,2.3,26.8s3.1,17.7,5.3,26.3l40.1-10.5c-1.8-7.1-3.3-14.3-4.4-21.7-.3-1.8-.5-3.7-.7-5.5l-17.6,2c.2,2,.5,4,.8,6s.6,4,.9,6l-5.8,1c-.3-2-.7-4.1-1-6.1-.6-4.1-1.1-8.2-1.4-12.3l29.5-2.6c.3,3.5.7,7.1,1.2,10.7,1.3,9,3.2,17.7,5.7,26.1l-24.6,7.2-20.9,6.1c.6,2.1,1.3,4.3,2,6.4h0c2.8,8.4,6,16.8,9.8,25s7.9,16.1,12.5,23.7l35.5-21.3c-3.8-6.3-7.2-12.8-10.3-19.6-.8-1.7-1.5-3.4-2.2-5.1l-16.3,6.9c.8,1.9,1.6,3.7,2.4,5.5s1.7,3.7,2.6,5.5l-5.3,2.6c-.9-1.9-1.8-3.7-2.7-5.6-1.7-3.8-3.3-7.6-4.8-11.4l27.6-10.8c1.3,3.3,2.7,6.6,4.2,9.9,3.8,8.2,8.1,16.1,12.8,23.5l-21.5,13.9-18.3,11.7c1.2,1.9,2.4,3.8,3.7,5.6h0c5,7.3,10.5,14.4,16.4,21.2,5.9,6.8,12.2,13.3,18.7,19.2l28-30.5c-5.4-4.9-10.5-10.2-15.4-15.9-1.2-1.4-2.4-2.8-3.6-4.2l-13.7,11.2c1.3,1.5,2.6,3.1,3.9,4.6s2.7,3,4,4.5l-4.3,4c-1.4-1.5-2.8-3.1-4.1-4.6-2.7-3.1-5.3-6.4-7.9-9.6l23.4-18.1c2.2,2.8,4.4,5.6,6.8,8.3,5.9,6.9,12.2,13.2,18.9,18.9l-16.8,19.4-14.2,16.4c1.7,1.5,3.4,2.9,5.1,4.3h0c6.9,5.6,14.1,10.9,21.8,15.8,7.6,4.9,15.4,9.3,23.3,13.2l18.3-37.1c-6.6-3.2-13-6.9-19.3-10.9-1.6-1-3.1-2-4.6-3.1l-10,14.6c1.7,1.1,3.3,2.2,5,3.3,1.7,1.1,3.4,2.2,5.1,3.2l-3.1,5c-1.8-1.1-3.5-2.2-5.3-3.3-3.5-2.2-6.9-4.6-10.2-7l17.4-24c2.9,2.1,5.8,4.1,8.9,6.1,7.6,4.9,15.5,9.2,23.5,12.9l-10.6,23.3-9.1,19.8c2,.9,4.1,1.8,6.1,2.7h0c8.2,3.4,16.6,6.4,25.3,9,8.7,2.5,17.4,4.6,26.1,6.1l7.1-40.8c-7.2-1.2-14.4-2.9-21.6-5-1.8-.5-3.5-1.1-5.3-1.6l-5.5,16.9c1.9.6,3.8,1.2,5.8,1.8s3.9,1.1,5.8,1.6l-1.5,5.7c-2-.5-4-1.1-6-1.7-4-1.2-7.9-2.5-11.8-3.8l9.9-27.9c3.4,1.2,6.8,2.3,10.2,3.3,8.7,2.5,17.4,4.5,26.1,5.7l-3.5,24.7-3.2,22.1c2.2.3,4.4.6,6.7.9h0c8.8,1,17.8,1.5,26.8,1.5s18-.5,26.8-1.5l-4.7-41.1c-7.2.8-14.6,1.2-22.1,1.2s-3.7,0-5.5,0l-.5,17.7h12l.2,5.9h-6.2c-4.2,0-8.3-.1-12.4-.4l1.7-29.5c3.6.2,7.1.3,10.7.3,9.1,0,18-.6,26.7-1.9l3.7,25.4,3.1,21.5c2.2-.3,4.4-.7,6.6-1h0c8.7-1.5,17.5-3.6,26.2-6.1,8.7-2.5,17.1-5.6,25.3-9l-16.1-38.2c-6.7,2.8-13.7,5.3-20.9,7.4-1.8.5-3.6,1-5.3,1.5l4.5,17.2c1.9-.5,3.9-1,5.8-1.6s3.9-1.2,5.8-1.8l1.8,5.6c-2,.6-3.9,1.2-5.9,1.8-4,1.2-8,2.2-12,3.2l-6.7-28.8c3.5-.8,6.9-1.7,10.4-2.7,8.7-2.5,17.1-5.7,25.1-9.3l10.7,23.3,9,19.8c2-.9,4.1-1.9,6.1-2.9h0c7.9-3.9,15.8-8.3,23.4-13.2,7.6-4.9,14.9-10.2,21.7-15.7l-26.2-32.1c-5.7,4.6-11.6,9-17.9,13-1.6,1-3.1,2-4.7,2.9l9.2,15.2c1.7-1,3.4-2.1,5.1-3.2s3.4-2.2,5-3.3l3.3,4.9c-1.7,1.2-3.4,2.3-5.2,3.4-3.5,2.2-7,4.4-10.6,6.4l-14.6-25.8c3.1-1.8,6.2-3.6,9.2-5.5,7.6-4.9,14.8-10.3,21.4-16l16.8,19.4,14.2,16.4c1.7-1.5,3.4-3,5-4.5h0c6.5-6,12.8-12.4,18.7-19.3,5.9-6.8,11.4-13.9,16.4-21.2l-34.2-23.4c-4.1,6-8.6,11.9-13.5,17.5-1.2,1.4-2.4,2.8-3.7,4.1l13.1,12c1.4-1.5,2.7-3,4-4.5s2.6-3.1,3.9-4.6l4.6,3.7c-1.3,1.6-2.6,3.2-4,4.7-2.7,3.1-5.5,6.2-8.4,9.1l-21.2-20.6c2.5-2.5,4.9-5.2,7.3-7.9,5.9-6.9,11.3-14,16.1-21.4l21.6,13.8,18.3,11.8c1.2-1.9,2.4-3.8,3.6-5.7h0c4.6-7.6,8.8-15.5,12.5-23.8,3.8-8.2,7-16.6,9.8-25l-39.4-12.8c-2.3,6.9-4.9,13.8-8,20.6-.8,1.7-1.6,3.4-2.4,5l15.9,7.8c.9-1.8,1.8-3.6,2.6-5.5s1.6-3.7,2.4-5.5l5.4,2.3c-.8,1.9-1.6,3.8-2.5,5.7-1.7,3.8-3.5,7.5-5.5,11.1l-26.2-13.8c1.7-3.1,3.2-6.4,4.7-9.6,3.8-8.2,6.9-16.6,9.4-25.1l24.6,7.2,20.9,6.1c.6-2.1,1.2-4.3,1.8-6.5h0c2.2-8.6,4-17.4,5.3-26.4s2-17.9,2.3-26.7l-41.4-1.2c-.2,7.3-.9,14.7-1.9,22.1h0v-.2ZM510.4,322.4l29.5,1.7c-.4,6.5-1,13-2,19.5-1.3,8.7-3,17.3-5.2,25.6l-18.5-4.8-27.3-7.2h0c-.2.8-.4,1.6-.7,2.5h0c-.2.6-.4,1.2-.5,1.9-2.4,8.4-5.5,16.7-9.2,24.9-2.2,4.8-4.5,9.4-7.1,13.9l36.1,20.4c3.1-5.5,6-11.2,8.7-17,1.8-3.9,3.4-7.8,5-11.7l-16.5-6.5c-1.4,3.6-2.9,7.2-4.6,10.8l-5.4-2.5c2.4-5.2,4.5-10.5,6.4-15.9l27.8,10c-2.2,6.1-4.6,12.2-7.4,18.2-3.7,8-7.7,15.7-12.2,23.1l-16.4-9.9-24.1-14.6h0c-.4.7-.9,1.5-1.3,2.2h0c-.3.5-.7,1.1-1,1.6-4.7,7.4-10,14.5-15.9,21.3-3.4,4-7,7.8-10.7,11.4l28.9,29.7c4.5-4.4,8.9-9,13.1-13.9,2.8-3.2,5.5-6.5,8.1-9.9l-14-10.9c-2.4,3.1-4.9,6.1-7.4,9.1l-4.5-3.9c3.8-4.4,7.3-8.8,10.6-13.4l23.9,17.4c-3.8,5.2-7.9,10.4-12.2,15.4-5.8,6.7-11.9,12.9-18.2,18.8l-13-14.1-19-20.8h0c-.6.6-1.3,1.1-1.9,1.7h0c-.5.4-1,.9-1.5,1.3-6.6,5.7-13.7,11.1-21.2,15.9-4.4,2.8-8.9,5.5-13.5,7.9l19.4,36.7c5.6-3,11.1-6.2,16.5-9.6,3.6-2.3,7.1-4.7,10.5-7.2l-10.4-14.4c-3.1,2.3-6.4,4.5-9.7,6.6l-3.2-5c4.8-3.1,9.5-6.4,14-9.9l18,23.4c-5.1,4-10.5,7.7-16,11.3-7.4,4.8-15,9.1-22.8,12.9l-8.5-17.1-12.4-25.3h0c-.8.4-1.5.7-2.3,1.1h0c-.6.3-1.2.5-1.7.8-7.9,3.6-16.2,6.8-24.9,9.3-5,1.5-10.1,2.7-15.1,3.8l8.3,40.6c6.2-1.3,12.4-2.8,18.5-4.6,4.1-1.2,8.1-2.5,12.1-3.9l-6-16.7c-3.7,1.3-7.4,2.5-11.2,3.6l-1.7-5.7c5.5-1.6,10.9-3.5,16.2-5.5l10.7,27.5c-6,2.3-12.2,4.5-18.6,6.3-8.5,2.5-17,4.5-25.5,5.9l-3.3-18.8-4.8-27.8h0c-.8.1-1.7.3-2.5.4h0c-.6.1-1.3.2-1.9.3-8.6,1.3-17.5,1.9-26.5,1.9s-10.4-.2-15.6-.7l-3.5,41.3c6.3.5,12.7.8,19.1.8s8.5-.1,12.7-.4l-1-17.7c-3.9.2-7.8.3-11.7.3v-5.9c5.8,0,11.5-.2,17.1-.7l2.5,29.4c-6.5.5-13,.8-19.6.8s-17.5-.5-26.1-1.5l2.2-19.6,3.2-27.4h0c-.9-.1-1.7-.2-2.5-.3h0c-.6,0-1.3-.2-1.9-.3-8.6-1.2-17.3-3.1-25.9-5.6-5-1.5-10-3.2-14.8-5l-15,38.7c5.9,2.3,11.9,4.3,18.1,6.1,4.1,1.2,8.2,2.3,12.3,3.2l4-17.3c-3.8-.9-7.6-1.9-11.4-3l1.7-5.7c5.5,1.6,11.1,3,16.6,4.1l-5.9,28.9c-6.4-1.3-12.7-2.9-19-4.7-8.5-2.5-16.7-5.4-24.6-8.8l7.4-17.6,11-26h0c-.8-.3-1.6-.7-2.4-1h0c-.6-.3-1.2-.5-1.8-.8-7.9-3.6-15.7-7.8-23.3-12.7-4.4-2.8-8.7-5.8-12.8-9l-25.3,32.9c5,3.9,10.2,7.5,15.6,11,3.6,2.3,7.2,4.5,10.9,6.6l8.7-15.5c-3.4-1.9-6.7-3.9-10.1-6.1l3.2-5c4.8,3.1,9.8,6,14.8,8.6l-13.8,26.1c-5.7-3-11.4-6.3-16.9-9.9-7.4-4.8-14.5-9.9-21.2-15.4l12.1-14.8,17.9-21.8h0c-.7-.5-1.3-1.1-2-1.6h0c-.5-.4-1-.8-1.5-1.2-6.6-5.7-12.9-12-18.8-18.7-3.4-4-6.7-8-9.7-12.2l-33.5,24.4c3.7,5.1,7.7,10.1,11.9,15,2.8,3.2,5.7,6.4,8.6,9.4l12.7-12.4c-2.7-2.8-5.4-5.7-7.9-8.6l4.5-3.9c3.8,4.4,7.7,8.5,11.7,12.5l-20.6,21.2c-4.6-4.5-9.1-9.3-13.4-14.3-5.8-6.7-11.1-13.6-16-20.7l15.8-10.8,23.3-15.9h0c-.5-.7-1-1.4-1.4-2.1h0c-.4-.5-.7-1.1-1.1-1.6-4.7-7.3-9-15.1-12.7-23.3-2.2-4.8-4.1-9.6-5.9-14.5l-39,14c2.1,6,4.5,11.9,7.2,17.7,1.8,3.9,3.7,7.7,5.6,11.4l15.7-8.3c-1.8-3.4-3.5-7-5.2-10.5l5.4-2.5c2.4,5.2,5,10.3,7.8,15.2l-25.7,14.5c-3.2-5.6-6.2-11.5-8.9-17.5-3.7-8-6.8-16.2-9.5-24.4l18.2-5.9,26.8-8.7h0c-.3-.8-.5-1.6-.8-2.4h0c-.2-.6-.4-1.2-.6-1.9-2.5-8.4-4.4-17-5.7-25.9-.8-5.2-1.3-10.4-1.6-15.5l-41.4,2.4c.4,6.3,1,12.6,1.9,19,.6,4.2,1.3,8.4,2.2,12.6l17.4-3.5c-.8-3.8-1.4-7.7-2-11.6l5.9-.8c.8,5.7,1.9,11.3,3.2,16.8l-28.8,6.7c-1.5-6.3-2.7-12.7-3.6-19.3-1.3-8.7-2-17.4-2.3-26l19.1-.6,28.2-.8h0v-2.6h0v-2c0-8.7.6-17.6,1.9-26.5.8-5.2,1.7-10.3,2.9-15.3l-40.4-9.4c-1.4,6.2-2.6,12.4-3.5,18.8-.6,4.2-1.1,8.4-1.5,12.7l17.7,1.5c.3-3.9.8-7.8,1.3-11.7l5.9.8c-.8,5.7-1.4,11.4-1.7,17l-29.5-1.7c.4-6.5,1-13,2-19.5,1.3-8.7,3-17.3,5.2-25.6l18.5,4.8,27.3,7.2h0c.2-.8.4-1.6.7-2.5h0c.2-.6.3-1.2.5-1.9,2.4-8.4,5.5-16.7,9.2-24.9,2.2-4.8,4.5-9.4,7.1-13.9l-36.1-20.4c-3.1,5.5-6,11.2-8.7,17-1.8,3.9-3.4,7.8-5,11.7l16.5,6.4c1.4-3.6,2.9-7.2,4.6-10.8l5.4,2.5c-2.4,5.2-4.5,10.5-6.4,15.9l-27.8-9.9c2.2-6.1,4.6-12.2,7.4-18.2,3.7-8,7.7-15.7,12.2-23.1l16.4,9.9,24.1,14.6h0c.4-.7.9-1.4,1.3-2.2h0c.3-.6.7-1.1,1-1.6,4.7-7.4,10-14.5,15.9-21.3,3.4-4,7-7.8,10.7-11.3l-28.9-29.7c-4.5,4.4-8.9,9-13.1,13.9-2.8,3.2-5.5,6.5-8.1,9.9l14.1,10.8c2.4-3.1,4.9-6.1,7.4-9.1l4.5,3.9c-3.8,4.3-7.3,8.8-10.7,13.4l-23.9-17.4c3.8-5.2,7.9-10.4,12.2-15.3,5.8-6.7,11.9-12.9,18.2-18.8l12.9,14.1,19,20.8h0c.6-.6,1.3-1.2,1.9-1.8h0c.5-.4,1-.8,1.4-1.3,6.6-5.7,13.7-11.1,21.2-15.9,4.4-2.8,8.9-5.5,13.5-7.9l-19.4-36.7c-5.6,3-11.1,6.2-16.5,9.6-3.6,2.3-7.1,4.7-10.5,7.2l10.4,14.4c3.1-2.3,6.4-4.5,9.7-6.6l3.2,5c-4.8,3.1-9.5,6.4-14,9.8l-18-23.4c5.1-4,10.5-7.7,16-11.3,7.4-4.8,15-9.1,22.8-12.9l8.5,17.1,12.4,25.3h0c.8-.4,1.5-.8,2.3-1.1h0c.6-.3,1.2-.5,1.7-.8,7.9-3.6,16.2-6.8,24.9-9.3,5-1.5,10.1-2.7,15.1-3.8l-8.3-40.6c-6.2,1.3-12.4,2.8-18.6,4.6-4.1,1.2-8.1,2.5-12.1,3.9l5.9,16.7c3.7-1.3,7.4-2.5,11.2-3.6l1.7,5.7c-5.5,1.6-10.9,3.5-16.2,5.5l-10.7-27.5c6-2.3,12.2-4.5,18.6-6.3,8.5-2.5,17-4.5,25.5-5.9l3.3,18.8,4.8,27.8h0c.8,0,1.7-.3,2.5-.4h0c.6,0,1.3-.2,1.9-.3,8.6-1.3,17.5-1.9,26.5-1.9s10.5.2,15.6.7l3.5-41.3c-6.3-.5-12.7-.8-19.1-.8s-8.5,0-12.7.4l1,17.7c3.9-.2,7.8-.3,11.7-.3v5.9c-5.8,0-11.5.2-17.1.7l-2.5-29.4c6.5-.5,13-.8,19.6-.8s17.5.5,26.1,1.5l-2.2,19.6-3.2,27.4h0c.9,0,1.7.2,2.5.3h0c.6,0,1.3.2,1.9.3,8.6,1.2,17.3,3.1,25.9,5.6,5,1.5,10,3.2,14.8,5l15-38.7c-5.9-2.3-11.9-4.3-18.1-6.2-4.1-1.2-8.2-2.3-12.3-3.2l-4,17.3c3.8.9,7.6,1.9,11.4,3l-1.7,5.7c-5.5-1.6-11.1-3-16.6-4.1l5.9-28.9c6.4,1.3,12.7,2.9,19,4.7,8.5,2.5,16.7,5.4,24.6,8.8l-7.4,17.6-11,26h0c.8.3,1.6.7,2.4,1h0c.6.3,1.2.5,1.8.8,8,3.6,15.7,7.8,23.3,12.7,4.4,2.8,8.7,5.8,12.8,9l25.3-32.9c-5-3.8-10.2-7.5-15.6-11-3.6-2.3-7.2-4.5-10.9-6.6l-8.7,15.5c3.4,1.9,6.7,3.9,10,6.1l-3.2,5c-4.8-3.1-9.8-6-14.8-8.6l13.8-26.1c5.7,3,11.4,6.3,16.9,9.9,7.4,4.8,14.5,9.9,21.2,15.3l-12.1,14.8-17.9,21.8h0c.7.6,1.3,1.1,2,1.6h0c.5.4,1,.8,1.5,1.2,6.6,5.7,12.9,11.9,18.8,18.8,3.4,4,6.7,8,9.7,12.2l33.5-24.4c-3.7-5.1-7.7-10.1-11.9-15-2.8-3.2-5.7-6.4-8.6-9.4l-12.7,12.4c2.7,2.8,5.4,5.7,7.9,8.7l-4.5,3.9c-3.8-4.3-7.7-8.5-11.7-12.4l20.6-21.2c4.6,4.5,9.1,9.3,13.5,14.3,5.8,6.7,11.1,13.6,16,20.7l-15.8,10.8-23.3,15.9h0c.5.7,1,1.4,1.4,2.1h0c.4.5.7,1.1,1.1,1.6,4.7,7.3,9,15.1,12.7,23.3,2.2,4.8,4.1,9.6,5.9,14.4l39-14c-2.1-5.9-4.5-11.9-7.2-17.7-1.8-3.9-3.6-7.7-5.6-11.4l-15.7,8.3c1.8,3.4,3.5,7,5.2,10.5l-5.4,2.5c-2.4-5.2-5-10.3-7.8-15.2l25.7-14.5c3.2,5.6,6.1,11.5,8.9,17.5,3.7,8,6.8,16.2,9.5,24.4l-18.2,5.9-26.8,8.7h0c.3.8.5,1.6.8,2.4h0c.2.6.4,1.2.6,1.9,2.5,8.4,4.4,17,5.7,25.9.8,5.2,1.3,10.4,1.6,15.5l41.4-2.4c-.4-6.3-1-12.6-1.9-19-.6-4.2-1.3-8.4-2.2-12.6l-17.4,3.5c.8,3.8,1.4,7.7,2,11.6l-5.9.8c-.8-5.7-1.9-11.3-3.1-16.8l28.8-6.7c1.5,6.3,2.7,12.7,3.6,19.3,1.3,8.7,2,17.4,2.3,26l-19.1.6-28.2.8h0v2.6h0v2c0,8.7-.6,17.6-1.9,26.5-.8,5.2-1.7,10.3-2.9,15.3l40.4,9.4c1.4-6.2,2.6-12.4,3.5-18.8.6-4.2,1.1-8.5,1.5-12.7l-17.7-1.5c-.3,3.9-.8,7.8-1.3,11.7l-5.9-.8c.8-5.7,1.4-11.4,1.7-17h.3Z"/>
          <path class="cls-1" d="M311.1,135.1c-97.2,0-176,78.8-176,176s78.8,176,176,176,176-78.8,176-176-78.8-176-176-176ZM311.1,481c-93.9,0-169.9-76.1-169.9-169.9s76.1-170,169.9-170,169.9,76.1,169.9,169.9-76.1,169.9-169.9,169.9h0Z"/>
          <path class="cls-1" d="M311.1,64.2c-136.4,0-246.9,110.5-246.9,246.9s110.5,246.9,246.9,246.9,246.9-110.5,246.9-246.9-110.5-246.9-246.9-246.9ZM311.1,552.2c-133.1,0-241.1-107.9-241.1-241.1s107.9-241.1,241.1-241.1,241.1,107.9,241.1,241.1-107.9,241.1-241.1,241.1h0Z"/>
        </g>
      </g>
    </g>
  </g>
</svg>