<?xml version="1.0" encoding="UTF-8"?><svg id="Layer_2" xmlns="http://www.w3.org/2000/svg" viewBox="0 0 34.87 34.76"><defs><style>.cls-1{fill:#1a1a1a;}</style></defs><g id="Layer_1-2"><path class="cls-1" d="M3.21,0C1.43,0,0,1.43,0,3.21v28.35h0c0,1.77,1.43,3.21,3.21,3.21h28.46c1.77,0,3.21-1.43,3.21-3.21V3.21h0c0-1.77-1.43-3.21-3.21-3.21H3.21ZM34.26,3.82v10.05c0,1.77-1.43,3.21-3.21,3.21H3.82c-1.77,0-3.21-1.43-3.21-3.21V3.82C.61,2.05,2.05.61,3.82.61h27.23c1.77,0,3.21,1.43,3.21,3.21ZM.61,30.94v-10.05c0-1.77,1.43-3.21,3.21-3.21h27.23c1.77,0,3.21,1.43,3.21,3.21v10.05c0,1.77-1.43,3.21-3.21,3.21H3.82c-1.77,0-3.21-1.43-3.21-3.21Z"/></g></svg>