<?xml version="1.0" encoding="UTF-8"?><svg id="Layer_2" xmlns="http://www.w3.org/2000/svg" viewBox="0 0 34.76 34.76"><defs><style>.cls-1{fill:#1a1a1a;}</style></defs><g id="Layer_1-2"><path class="cls-1" d="M29.5.72c-1.07-.47-2.25-.72-3.48-.72H8.75c-1.24,0-2.42.26-3.48.72h24.23ZM34.04,5.27v24.23c.47-1.07.72-2.25.72-3.48V8.75c0-1.24-.26-2.42-.72-3.48Z"/><path class="cls-1" d="M8.75,0c-1.24,0-2.42.26-3.48.72C3.24,1.61,1.61,3.24.72,5.27c-.47,1.07-.72,2.25-.72,3.48v26.01h26.01c1.24,0,2.42-.26,3.48-.72,2.03-.88,3.66-2.51,4.54-4.54.47-1.07.72-2.25.72-3.48V0H8.75ZM34.04,26.01c0,4.43-3.6,8.03-8.03,8.03H8.75c-4.43,0-8.03-3.6-8.03-8.03V8.75C.72,4.32,4.32.72,8.75.72h17.26c4.43,0,8.03,3.6,8.03,8.03v17.26Z"/></g></svg>