<?xml version="1.0" encoding="utf-8"?>
<!-- Generator: Adobe Illustrator 27.9.0, SVG Export Plug-In . SVG Version: 6.00 Build 0)  -->
<svg version="1.1" id="Layer_1" xmlns="http://www.w3.org/2000/svg" xmlns:xlink="http://www.w3.org/1999/xlink" x="0px" y="0px"
	 viewBox="0 0 102 51.6" style="enable-background:new 0 0 102 51.6;" xml:space="preserve">
<style type="text/css">
	.st0{fill:#A7A9AC;}
	.st1{fill:#ED1C24;}
	.st2{fill:#9BC13C;}
</style>
<g>
	<path class="st0" d="M93,0c-7.2,0-11.3,2.8-12.8,8.7c0,0.1-0.1,0.5-0.3,1C78.8,3.1,75,0,67.7,0H30.1C19.3,0,12.2,5.5,9.5,15.8
		L0.2,51.6h13.6c3.1,0,6.9-2.2,8.2-7c0,0,0.3-1.2,0.5-2c0.7,1.3,1.4,2.6,2.4,3.6c4.8,5,11.8,5.4,13.9,5.4h18.8c4,0,7.6-2.9,8.7-7
		c0,0,0.3-1.1,0.3-1.2c0.3,2.3,1.2,8.2,1.2,8.2l8.7,0c7.6,0,13.8-6.4,16.8-17.6c0,0,8.4-34,8.4-34L93,0L93,0z M91.9,33.6
		c-2.9,10.5-8.5,16.5-15.4,16.5h-7l-0.4,0c0,0-1.6-10.6-2.1-14c-0.2,0.8-0.4,1.7-0.4,1.7c-0.7,2.6-1.2,4.8-1.7,6.4
		c-1,3.4-4.1,5.9-7.2,5.9H38.8c-1.9,0-8.5-0.3-12.8-4.9c-2-2.1-3.2-4.7-3.6-7.8c-0.5,1.9-0.9,3.8-1.8,6.8c-1.1,4.1-4.2,5.9-6.7,5.9
		H2.1l8.8-34C13.4,6.5,20,1.4,30,1.4h37.6c6.8,0,10,2.7,10.9,8.9c0,0,0.5,3.2,0.9,6.7c0.8-2.9,2.1-8,2.1-8C83,3.7,86.4,1.4,93,1.4
		h6.9C99.8,1.4,91.9,33.6,91.9,33.6L91.9,33.6z"/>
	<path class="st1" d="M92,4.2c-4.4,0-6.7,1.4-7.8,5.4l-5.6,20.2L76,10.6c-0.8-4.8-3.5-6.4-7.7-6.4h-7.1l-5.5,20.5
		c0.7,0.1,3.4-0.5,4.6-1.7c1.5,2.6-0.3,8.3-4.6,9.6c-0.2,4-3.3,10.2-5,11.5l-0.9,3.3h6.8c1.7,0,5.1-1.1,6-4.4
		c0.3-1.1,5.4-19.3,5.4-19.3l3.6,23.8h3.9c7.8,0,12-6.8,14.2-14.7l6.9-28.6L92,4.2L92,4.2z"/>
	<path class="st1" d="M32.3,14.2h4.9c2.9,0,4.5-0.8,5.4-3.9l1.7-6.1H29.9c-9.4,0-14.4,4.8-16.3,12.4L5.5,47.4h7.3
		c4.5,0,5.3-3.7,5.9-5.8c0.6-2.1,2.9-10.3,2.9-10.3h6.7c2.2,0,5-0.8,5.7-3.1c0.3-1.2,1.5-5.2,1.5-5.2H23.3l0.7-2.1
		C25,18.1,26.7,14.2,32.3,14.2L32.3,14.2z"/>
	<path class="st2" d="M44.7,30.2c-1.3,1.5-1.2,1.6,0.5,1.5c1.2-0.1,1.4,0.3,1.4,0.5c0,0.1,0,0.2-0.2,0.7c-1.2,3.5-3.9,7.2-8.1,6.9
		c-5.8-0.5-0.4-13.6,12.2-14.8c1.1-1.7,1.6-5.1,1.5-6.1c0,0-6.4,0.8-5.5-4.7c0.3-2.2,2.2-4,7.6-3.3c2.1,0.2,3.2,0.2,3.8-1.6
		c0.1-0.5,1.3-5.1,1.3-5.1c-2.7-0.6-11-0.5-13,0l-1.9,6.6c-1.1,3.5-3.3,5.2-7.1,5.2H36c-0.2,3.8,3.1,5.4,5,5.9
		c-1.2,0.2-3.5,0.8-3.6,1.2c-0.3,1.4-1,3.9-2,6.6c-1.2,3-4.2,3.8-7,3.8c0,0-2.1,0-3.7,0c-0.7,4.2,1.5,8.3,3.9,10.7
		c4.2,4.2,13.9,5.1,19.6,0.2c4.1-3.6,5.9-9.8,6.5-12.8c3.4-1,4.5-4.9,4.7-6.2c-1.9,1.8-5,1.3-7.9,1.7C48.7,27.3,46.5,28.3,44.7,30.2
		z M52.8,30.2c2.5-0.1,4.7-2.6,5.5-3.6c0-0.1,0.1-0.1,0.2-0.1c0,0,0.1,0.1,0,0.1l-0.1,0.1c-0.3,0.6-0.7,1.6-2,2.7
		c-0.7,0.6-1.9,1.1-3,1.1c-0.2,0-0.5,0-0.7-0.1c-0.1,0-0.1-0.1-0.1-0.1C52.7,30.2,52.7,30.1,52.8,30.2L52.8,30.2z M37.7,46.4
		c-10.1,0-11.9-9.5-11.9-9.5c2.6,6.8,8.6,7.8,13.5,7.6C49,44,52.5,34.2,52.5,34.2C50.9,40.3,47.2,46.3,37.7,46.4z"/>
</g>
</svg>
