<?xml version="1.0" encoding="UTF-8"?><svg id="Layer_2" xmlns="http://www.w3.org/2000/svg" viewBox="0 0 474.22 678.29"><defs><style>.cls-1{fill:#40321a;}.cls-1,.cls-2,.cls-3,.cls-4,.cls-5,.cls-6,.cls-7,.cls-8{fill-rule:evenodd;}.cls-2{fill:#d5d0c9;}.cls-4{fill:#271d0f;}.cls-5{fill:#746343;}.cls-6{fill:#59492a;}.cls-7{fill:#736348;}.cls-9{fill:#e3e1e1;}.cls-8{fill:#a59e91;}</style></defs><g id="Layer_1-2"><path class="cls-7" d="M398.8,52.42c-22.69-7.32-47.68,4.46-68.87,11.74-30.15,10.37-62.39,11.18-93.73,15.3-69.42,9.13-137.07,34.32-203.97,54.06-7.41,2.19-8.92,9.46-6.57,14.96-4.85.95-9.7,1.87-14.57,2.71-13.94,2.42-7.59,23.46,6.2,21.07,35.06-6.08,69.44-15.14,103.56-25.16,33.76-9.91,67.41-22.96,101.95-29.83,15.78-3.14,31.95-3.98,47.82-6.54,15.6-2.52,30.62-7.18,45.95-10.88,29.02-7,59.02-12.78,85.38-27.43,8.89-4.94,5.31-17.27-3.15-20Z"/><path class="cls-6" d="M397.92,45.25c-2.05-1.3-5.04.55-4.87,2.95.51,7.32-.99,14.18-8.45,17.23-1.6.66-2.68,1.45-3.65,2.43-1.15.16-2.31.38-3.45.64-15.4.29-30.81-.42-46.22.35-19.06.96-37.61,6.54-55.78,12-20.14,6.05-39.6,14.63-59.25,22.09-21.4,8.13-43.07,14.6-65.28,20.1-31.14,7.72-62.06,16.43-93.32,23.6-11.12,2.55-22.25,5.29-32.99,9.2-5.28,1.92-14.05,4.88-15.28,11.28-.38,2,1.04,4.22,3.26,4.09,8.14-.48,16.16-1.76,24.11-3.49-.15.07-.31.14-.46.21-3.85,1.77-.34,7.35,3.47,5.6,18.23-8.36,36.92-16.01,55.92-22.99,7.28-2.09,14.57-3.95,21.94-5.35,39.14-7.4,76.99-19.03,114.74-31.65,3.48-1.17,6.95-2.38,10.42-3.58,24.19-3.53,48.79-5.03,72.18-12.16,13.22-4.02,26.2-8.99,39.32-13.32,2.3-.76,4.66-1.78,7.07-2.87,12.33-.29,28.29-.97,35.16-8.1.76.2,1.58.11,2.34-.47,7.59-5.83,7.34-22.56-.94-27.79ZM335.25,75.26c6.66-.33,13.34-.35,20-.29-13.17,1.27-26.29,3-39.31,5.42-25.81,4.79-50.76,14.13-75.62,23.12-4.26.68-8.5,1.42-12.74,2.27-1.04.21-2.07.45-3.1.66,17.51-6.73,34.96-13.62,52.89-19.26,18.87-5.94,38.07-10.92,57.88-11.92ZM39.14,158.12c9.92-2.86,20.02-5.08,30.09-7.34,2.88-.65,5.77-1.33,8.65-2.01-18.81,6.02-37.55,12.59-56.99,15.04,5.85-2.95,15-4.76,18.25-5.69ZM274.82,98.7c4.85-1.68,9.7-3.32,14.58-4.9,15.01-4.86,30.57-7.83,46.2-9.96-3.77,1.27-7.53,2.54-11.27,3.87-16.16,5.75-32.77,8.65-49.51,11Z"/><path class="cls-4" d="M377.21,15.73c-14.76-15.32-41.8-8.51-59.63-4.13-21.46,5.27-42.1,13.41-63.31,19.55-37.89,10.97-75.99,21.14-113.52,33.29-12.47,3.19-24.71,6.94-36.84,11.45-6.64,1.92-13.31,3.78-20.03,5.44-8.96,2.21-18.09,4.29-27.32,4.86-9.93.62-19.42.16-29.3,1.87-8.02,1.38-12.52,10.54-11.61,18.1-1.82,1.84-3.28,4.23-4.15,7.26-4.13,14.37,6.56,24.32,20.01,25.36,8.8.68,19-3.74,27-6.99,15.25-6.19,29.64-13.92,44.66-20.54,1.8-.79,3.61-1.55,5.43-2.3,9.68-2.73,19.27-5.76,28.82-8.8,7.16-2.29,14.33-4.51,21.5-6.73,37.22-8.36,75.01-12.93,111.78-23.55,18.66-5.39,37.56-9.73,56.52-13.88,16.41-3.6,32.39-6.15,47.39-14.25,9.78-5.28,9.6-18.75,2.61-26Z"/><path class="cls-8" d="M375.36,84.02c-4.21-8.71-15.69-9.61-23.04-5.62-21.01,11.42-44.86,16.62-67.95,22.07-26.21,6.19-51.97,13.86-78.05,20.56-55.42,14.24-111.61,25.29-166.8,40.48-20.17,5.55-11.63,36.54,7.9,33.04,7.29,5.23,12.05,14.22,16.33,21.87,5.89,10.53,10.48,21.71,15.02,32.87,13.16,32.31,23.02,65.69,32.82,99.14,10.25,35,22.52,69.07,34.2,103.59,11.78,34.8,21.48,70.35,33.92,104.93,10.47,29.11,23.11,59.69,39.12,86.2,16.62,27.52,50.03,9.31,70.39-1.88,14.37-7.9,31.13-11.18,46.76-15.78l54.4-16.01c13.96-4.11,27.96-6.06,42.06-9.38,11.66-2.75,23.31-9.44,27.59-21.13,1.97-5.38,2.05-12.54,2.54-19.24.68-9.27-.12-18.43-1-27.67-1.99-21.11-1.44-42.18-4.16-63.29-5.83-45.13-19.8-88.36-29.86-132.61-10.54-46.36-20.93-92.76-29.81-139.48-7.15-37.62-5.38-77.5-22.39-112.66Z"/><path class="cls-4" d="M398.56,206.01c-18.52-6.25-39.77,1.47-57.7,6.55-24.5,6.94-49.7,11.47-74.33,18.07-55.41,14.88-109.79,33.34-164.81,49.59-3.98,1.18-6.82,3.34-8.67,5.99-7.79,2.37-14.57,12.18-11.04,20.41,6.51,15.16,13.99,29.7,22.1,44.06,9.15,16.2,16.06,32.26,21.57,50.05,7.76,25.07,8.45,55.24,31.84,71.44,10.44,7.23,25.23,4.2,36.23.46,15.79-5.35,31.66-10.16,47.67-14.82,34.07-9.91,68.28-19.37,102.85-27.42-.05.01,9.02-1.67,8.22-1.74.82-.08,1.65-.17,2.48-.25,4.22-.39,8.45-.68,12.67-1,10.41-.78,20.84-1.55,31.18-3.02,8.16-1.16,17.92-2.17,23.93-8.57,10.09-10.73,6.66-25.46,2.79-38.02-4.47-14.52-5.99-30.05-7.67-45.09-1.97-17.75-3.85-35.73-4.57-53.56-.6-15.03,1.47-29.97,1.45-44.97-.01-12.98-2.49-23.54-16.2-28.16Z"/><path class="cls-2" d="M376.07,95.44c-5.66.37-11.23,1.23-16.76,2.31-.29-1.36-1.36-2.55-3.16-2.55-16.66-.07-32.76,4.03-48.6,9.1-12.89,2.57-25.62,6.94-38.27,10.32-16.69,4.47-33.46,8.7-50.36,12.34-.02-1.97-1.66-3.98-4.13-3.27-17.48,4.99-35.37,8.45-52.85,13.5-6.87,1.99-23.05,5.18-30.63,12.14-.15-.02-.27-.07-.43-.07-11.88-.28-23.04,4.24-33.53,9.83-19.05,5.22-37.94,10.92-55.82,19.51-1.5.72-2.08,3.22-1.06,4.54.39.5.74,1.02,1.11,1.53-1.43,1.25-2.66,2.86-3.63,5.03-4.29,9.49,5.97,26.14,9.81,34.43,7.31,15.81,14.31,32.24,27.3,44.28-1.38,3.49-2.01,7.36-2.83,11.11-.64,2.95,3.53,5.91,5.6,3.05,2.34-3.21,4.52-6.49,6.58-9.81,3.76,5.01,7.74,9.6,13.21,13.38,2.53,1.75,5.37-1.31,4.74-3.82-2.49-9.98-4.39-20.64-6.96-31.1,7.65-18.87,10.85-39.07,8.67-60.27-.53-5.16-.21-9.27.75-12.61.9-.46,1.79-.95,2.67-1.45,7.86-1,15.74-1.93,23.54-3.37,17.96-3.3,35.62-8.03,53.14-13.11,33.39-9.69,66.18-21.19,99.91-29.68,31.84-8.01,63.92-15.19,93.8-29.2,2.99-1.4,1.32-6.3-1.79-6.1ZM65.65,195.45c.35-1.24.93-2.38,1.64-3.45.15,2.96.36,5.92.62,8.87-.73-1.81-1.47-3.62-2.26-5.42ZM79.44,257.03c-.36-1.76-.76-3.52-1.22-5.28.5,1.43,1.04,2.83,1.56,4.24-.11.35-.23.69-.34,1.03ZM74.69,186.09c.21.94.42,1.9.63,2.86,1.04,6.12.67,12.15-.11,18.18-.47-5.18-.91-10.36-1.32-15.55-.17-2.2-.14-3.87.15-5.17.22-.1.42-.22.65-.32ZM72.69,173.22c-.31.2-.62.42-.93.64-5.34,2.89-10.88,5.3-17.08,6.25-.26.04-.53.08-.79.12,6.17-2.6,12.45-4.91,18.8-7.01ZM63.73,184.65c-.64.61-1.24,1.24-1.74,1.95-.22.29-.37.62-.56.93-1.97-1.25-5.25.24-5.09,2.86.2,3.2.55,6.38.96,9.54-1.74-4.38-3.74-8.64-6.15-12.73,4.19-1.18,8.42-1.5,12.58-2.55ZM61.79,237.94c-10.21-17.29-19.96-38.22-16.02-46.81,8.24,14.34,11.52,30.84,16.02,46.81ZM67.41,247.05c1.06-.1,2.04-.65,2.54-1.6.7,2.36,1.35,4.73,1.94,7.12.03.43.06.87.09,1.3-1.44-2.07-2.97-4.34-4.56-6.82ZM93.73,274.02c-1.52-1.71-2.92-3.52-4.28-5.39,1.07-.67,1.67-1.87.99-3.42-.26-.59-.48-1.2-.72-1.8.44-.84.88-1.67,1.3-2.51.94,4.42,1.81,8.82,2.71,13.12ZM87.94,252.34c-.05-.47-.1-.96-.15-1.43.13-.69.27-1.38.38-2.08.17.63.35,1.25.51,1.89-.24.55-.49,1.08-.74,1.62ZM98.14,197.17c1.11,9.57.45,18.29-1.37,27.79-1.03,5.36-2.48,10.64-4.24,15.81-1.01-3.26-2.17-6.44-3.44-9.56-.26-8.84-1.36-17.67-2.37-25.92-.03-.34-.08-.67-.12-1-.07-.61-.15-1.23-.22-1.83,0,0-.01,0-.02,0-.04-.29-.07-.58-.12-.88-.23-1.42-1.32-2.13-2.54-2.27-.44-3.86-1.11-7.71-1.91-11.52-.19-1.16-.43-2.32-.72-3.49,5.36.22,10.79-.78,16.08-2.65-.41,5.14.41,10.5,1,15.51ZM266.66,128.43c-37.93,10.08-74.76,23.86-112.86,33.4-11.34,2.84-22.72,4.9-34.18,6.65,1.86-1.52,3.65-3.09,5.34-4.68,7-1.45,14.73-2.28,21.5-4.67,4.89-1.07,9.38-3.23,12.71-7.33.59-.71.81-1.61.77-2.47.16-.25.35-.48.51-.74.22-.35.32-.7.39-1.05,8.67-2.34,17.23-5.06,25.77-7.85,1.19-.19,2.37-.41,3.55-.6-3.2,1.02-6.4,2.03-9.6,3.07-4.13,1.33-2.24,7.05,1.86,6.32,29.52-5.27,57.64-15.76,86.21-24.56,3.93-.95,7.86-1.89,11.79-2.8,16.48-3.81,33.09-7.09,49.75-10,3.46-.61,6.87-1.35,10.28-2.14-24.22,7.68-49.26,12.93-73.78,19.45Z"/><path class="cls-2" d="M225.83,493.61c.77-6.33-.03-12.9-4.43-16.67-5.07-4.35-15.41-.04-21.31.6-7.63.83-18.62,2.05-21.86,10.26-.09.24-.14.47-.21.71-3.39-2.15-7.27-3.58-11.81-3.91-1.46-.1-2.79,1.17-3.14,2.5-4.77,18.32,4.93,33.35,13.93,48.55,2.68,4.51,9.14,21.87,17.38,20.13.8,9.46,2.64,18.72,5.98,27.26.21,11.93,1.3,23.72,6.26,34.72.32.71.7,1.37,1.12,2,1.32,6.74,2.96,13.43,5.13,20.04,1.14,3.47,6.62,2.82,6.46-.99-.17-3.78-.52-7.53-1-11.25.73-.53,1.27-1.33,1.38-2.35,1.38-.35,2.73-1.04,3.97-2.13,1.17,3.65,2.36,7.3,3.52,10.96,1.29,4.07,7.28,2.26,6.32-1.86-1.62-6.96-3.05-13.92-4.07-20.94,1.44-7.69.55-16.69-1.8-22.36-1.37-3.31-6.46-2.95-6.45.98,0,1.43.04,2.85.09,4.28-.89-2.75-1.78-5.49-2.67-8.24.12-10.84-.5-21.53-4.75-31.6,1.14-.47,2-1.48,1.85-2.97-1.06-10.17-1.54-20.36-2.56-30.49,3.92-4.62,7.02-10.09,9.27-14.97.6-1.3,1.19-2.84,1.71-4.51.06.04.12.08.18.11,2.77,1.57,6.34-1.89,4.38-4.62-.85-1.2-1.81-2.27-2.86-3.25ZM204.97,509.66c-.16.43-.31.85-.46,1.28-.56.23-1.13.39-1.72.47.29-2.81.64-5.61,1.03-8.4.26,1.23.51,2.45.74,3.67.17.99.27,1.99.41,2.98ZM210.06,588.35c-.32-3.31-.61-6.62-.89-9.93.22.56.44,1.11.66,1.67.9,2.82,1.8,5.63,2.71,8.44-.02,1.24-.05,2.48-.09,3.73-.85-1.27-1.65-2.59-2.39-3.92ZM211.88,493.64c-.86,1.76-1.7,3.53-2.5,5.33-1.21-1.58-3.68-1.27-4.99.15.33-2.03.72-4.03,1.15-6,2.06-.13,4.23.05,6.35.52ZM197.03,506.74c-.09-.11-.17-.23-.26-.34-.8-.96-1.64-1.91-2.47-2.85.22-2.71,1.69-5.49,3.66-7.44-.46,3.61-.62,7.32-.93,10.62ZM219,487.32c-1.69-1.77-3.47-3.48-5.23-4.82,2.75-.21,4.44.58,5.23,4.82ZM201.97,484c-.77,1.07-1.4,2.24-1.92,3.49-.79.17-1.58.38-2.36.61-4.11,1.25-7.06,4.62-8.61,8.63-.26-.34-.5-.7-.77-1.02-.38-.46-.82-.7-1.27-.84-.84-1.1-1.67-2.22-2.43-3.37-2.76-4.22,9.82-6.51,17.35-7.49ZM187.95,541.93c-2.16-3.62-3.99-7.44-6.14-11.07-7.32-12.36-15.45-24.57-12.97-39.26,5.74,1.23,10.22,5.09,13.83,10.13,0,.72,0,1.46,0,2.22-2.41-1.46-6.3.33-4.94,3.48,5.28,12.3,10.49,24.67,16.14,36.83,0,1.17.03,2.34.06,3.51-1.37,2.7-4.79-3.85-5.97-5.83ZM218.87,618.69c-.49-4.17-.67-8.4-.67-12.65,1.06,3.28,2.1,6.56,3.16,9.83-.62,1.33-1.43,2.32-2.49,2.82Z"/><path class="cls-1" d="M162.12,439.23c.36-.89.39-1.92-.09-2.9-2.49-5.07-5.7-9.67-9.02-14.19-2.86-9.88-5.81-19.71-9.34-29.46-6.34-17.52-13.13-34.82-19.14-52.46-5.11-14.98-10.8-29.63-18.91-43.14-.46-2.1-.95-4.14-1.5-6.11-.51-1.82-2.04-2.46-3.48-2.25-.31-.65-.61-1.3-.93-1.94-1.6-3.24-5.84-1.08-6.1,1.79-.04.47-.03.94-.06,1.42-1.2-2.18-2.48-4.3-3.93-6.35-1.28-1.82-4.67-2.3-5.69.16-6.12,14.74,3.48,33.39,16.38,43.92,1.67,4.56,3.57,9.07,5.56,13.54.1.32.2.63.3.94-2.18-4.47-4.31-8.96-6.34-13.48-1.52-3.41-7.18-.8-5.96,2.66,3.79,10.76,9.02,20.74,14.68,30.51,8.68,17.3,17.48,34.57,24.34,52.58-1.05.78-1.73,2.07-1.33,3.51,5.47,19.44,8.38,53.03,32.08,59.16,2.19.57,3.96-1.17,4.09-3.26.05-.9.02-1.79-.04-2.67,1.55,1.09,3.2,2.02,5,2.72,2.12.84,5.07-.21,4.88-2.95-.85-11.98-8.35-22.26-15.45-31.75ZM146.51,428.8c.5.78,1.03,1.56,1.57,2.34.09.37.18.75.27,1.13-1.68-2.4-3.19-5.09-4.53-7.94.87,1.51,1.74,3.02,2.68,4.48ZM134.23,386.61c-1.07-2.4-2.17-4.8-3.27-7.2-.46-1.84-.93-3.68-1.4-5.51,1.81,4.82,3.63,9.64,5.44,14.46-.26-.58-.51-1.16-.77-1.75ZM88.5,294.15c2.11,3.66,3.99,7.42,5.79,11.23.42,2.73,1.01,5.47,1.69,8.2-4.33-6.02-7.35-13-7.48-19.44ZM143.27,439.33c1.06,1.93,2.19,3.83,3.49,5.71,2.06,3,4.6,6.22,6.95,9.6,1.99,3.34,3.88,6.74,5.53,10.28.17.37.38.65.61.89.37,1.04.66,2.09.88,3.15-9.53-5.09-14.29-17.31-17.46-29.62ZM160.87,448.72c.14-.04.26-.13.39-.19,3.49,4.9,6.53,10,8.26,15.38-3.97-3.94-6.64-9.51-8.65-15.19Z"/><path class="cls-5" d="M436.19,497.77c-.03-7.31-.52-14.62-1.49-21.85,1.67-20.38.51-40.3-9.51-58.25-.2-.36-.48-.63-.78-.86-2.07-3.05-4.9-5.7-8.75-7.77-1.54-.82-3.66-.29-4.47,1.31-1.14,2.27-2.07,4.61-2.92,7-1.57-2.46-6.25-1.84-6.08,1.74,1.09,22.42.16,44.88.97,67.3-.08.9-.16,1.8-.22,2.69-1.12,17.15,1.58,35.04,5.76,51.65,1.19,4.74,3.45,11.3,3.59,17.21-16.97,2.38-33.19,8.82-49.24,14.64-4.21,1.53-8.41,3.04-12.56,4.65-4.63.5-9.25,1.1-13.82,1.93-30.61,5.61-60.34,15.8-88.86,28.37-6.07.75-12.07,1.71-17.78,3.27-4.94,1.35-6.45,4.43-5.99,7.83-.11.06-.22.1-.33.16-3.02,1.49-1.29,6.17,1.79,6.1.42,0,.83-.02,1.25-.03.32.44.65.88,1,1.29,6.95,8.19,23.73,2.65,31.93.25,1.14-.34,1.87-1.26,2.16-2.31,3.87-.4,7.74-1.06,11.57-1.78,15.84-3.01,31.33-8.01,46.75-12.64,14.96-4.49,30.51-8.45,45.66-13.38,12.54-3.58,24.91-7.76,37.15-12.05,1.31-.46,2.03-1.61,2.19-2.81,6.7-2.13,13.99-3.19,20.52-5.76,3.27,5.14,12.04,9.54,17.44,5.28,9.17-7.24,9.15-18.82,7.8-29.47-2.31-18.17-9.97-35.98-14.7-53.65l-.02-.07ZM370.53,581.87c-1.15.59-2.23,1.21-3.2,1.87-11.74,2.69-23.36,5.9-34.96,9.21,6.38-3.83,13.26-6.83,20.3-9.54,5.91-.6,11.89-1.03,17.87-1.53ZM420.83,518.62c.05,1.73.1,3.46.16,5.19.05,1.52.09,3.08.11,4.65-.2,1.56-.38,3.15-.56,4.75-2.18-5.5-4.27-11-5.06-16.21-2.4-15.71-2.85-31.18-3.76-46.96.22-1.56.44-3.12.64-4.68,2.22,11.31,4.16,22.69,5.74,34.12.77,5.56,1.98,12.27,2.73,19.14ZM316.02,596.94c-.34.31-.68.61-1.02.93-2.43.69-4.86,1.34-7.3,2-.64.11-1.27.19-1.9.3,3.39-1.14,6.8-2.21,10.22-3.23ZM430.88,541.52c1.11-3.99,2.01-8.14,2.73-12.42.23-1.37.44-2.76.64-4.14,1.55,8.15,2.4,16.33,1.69,24.23-1.39-2.62-3.14-5-5.05-6.89,0-.27-.01-.52-.02-.79ZM412.72,435.89c-.29-1.63-.65-3.25-1.09-4.88.75-4.87,1.95-9.64,3.84-14.21,1.35,1.09,2.47,2.33,3.41,3.68-.64,4-1,8.06-1.12,12.16-.29.49-.44,1.1-.36,1.83.14,1.24.23,2.48.36,3.72.11,5.56.58,11.17,1.32,16.76.29,4.99.5,10,.67,15-2.06-11.39-4.41-22.73-7.02-34.05ZM411.16,564.76c-.04.11-.11.2-.15.31-.91,1-1.84,1.98-2.84,2.93-.66.3-1.33.59-2.01.88-.83.27-1.65.54-2.44.78-9.06,2.86-18.4,4.27-27.82,5.25,11.52-4.2,23.2-8.23,35.26-10.15ZM442.79,571.52c-3.32,7.51-8.47,4.23-11.1,1.11.59-.39,1.17-.8,1.74-1.24.59-.16,1.15-.44,1.57-.85.77-.75,1.38-1.58,1.92-2.43.65-.28,1.21-.74,1.47-1.39,3.33-8.17,4.3-16.75,3.99-25.41,2.9,10.19,4.53,20.86.42,30.21Z"/><path class="cls-5" d="M383.01,97.48c-.98-3.34-5.27-2.72-6.24-.15-.89-.25-1.89-.18-2.69.19-1.32-1.64-2.75-3.23-4.37-4.74-2.14-2-5.5-.37-5.56,2.45-.1,5.34,0,10.68.21,16,0,.17,0,.35.02.54.36,8.51,1.03,17,1.82,25.49-1.62.44-2.96,1.93-2.37,4.01.58,2.02,1.13,4.06,1.68,6.1,1.1,4.16,2.08,8.34,2.85,12.54.69,7.51,1.3,15.01,1.68,22.54.02,1.23.07,2.43.15,3.61.04.92.09,1.84.12,2.76.02.63.19,1.15.44,1.59,1.24,6.06,4.54,10.11,13.39,7.94,13.39-3.29,17.24-13.69,14.08-25.86-.7-2.69-1.44-5.36-2.21-8.03-.61-22.82-6.63-45.14-13.02-66.98ZM382.08,141.94c.1,1.45.2,2.9.3,4.33.82,11.65-1.11,23.91-.45,35.65-1.94-5.79-3.61-11.65-5.18-17.55.07-2.34.13-4.67.17-7,.27-15.87-1.04-31.26-5.97-46.39-.1-2.3-.15-4.61-.19-6.92,1.22,1.76,2.31,3.59,3.27,5.49,2.02,10.96,4.87,21.7,8.05,32.39ZM389.25,188.22c-.32-1.81-.49-3.64-.55-5.48.54-2.62.94-5.26,1.25-7.93.66.95,1.61,1.46,2.6,1.55.36,4.64-.44,8.83-3.3,11.86Z"/><path class="cls-4" d="M449.25,580c-15.79-3.6-32.33,5.67-47.78,8.1-26.28,4.13-51.65,10.44-77.28,17.45-22.42,6.13-46.45,10.49-67.17,21.42-10.51,5.54-21.67,6.38-32.29,11.13-7,3.13-12.6,7.83-11.36,16.13,2.27,15.29,20.34,18.97,32.69,15.63,9.21-2.49,15.79-9.44,23.34-14.78,5.03-3.55,11.25-5.9,17.73-7.71.47-.08.9-.19,1.29-.35,7.47-2.02,15.23-3.41,21.91-5.22,11.23-3.02,22.56-5.81,33.71-9.14,11.94-3.56,22.98-9.7,34.5-14.35,22.59-9.14,47.38-9.64,69.25-21.12,2.67-1.4,3.1-4.37,2.05-6.75,4.7-1.89,4.74-9.23-.59-10.44ZM254.69,646.76c-4.18,1.57-8.37,2.89-12.56,3.66,4.18-1.23,8.36-2.45,12.56-3.66Z"/><path class="cls-3" d="M404.75,52.85c10.69,15.92.41,21.89-18.87,26.09-15.25,3.31-29.94,3.41-46.12,6.41-46.47,8.57-89.57,20.13-133.03,31.61-19.05,5.03-38.86,9.8-56.79,15.56-30.99,9.98-65.69,20.43-95.13,30.84-12.85,4.52-43.14,19.76-46.04,1.24-1.9-12.1,19.74-22.73,31.16-26.29,18.72-5.83,40.79-9.89,62.95-15.65,18.23-4.74,35.95-14.05,52.44-16.82,28.12-4.76,53.63-19.74,85.09-23.86,4.42-.57,8.8.12,13.3-.37,46.76-5.08,93.89-25.68,134.2-30.8,6.65-.84,13.08,3.53,15.19-6.91-1.93-4.75-9.49-1.37-13.85-2.6-4.61-20.2-15.72-30.94-27.11-41.29-28.88,6.58-57.64,19.93-90.7,26.92-24.8,5.25-49.93,11.87-75.88,18.03-24.24,5.77-46.49,13.99-68.36,19.75-33.59,8.86-78.06,11.33-102.81,28.11-14.41,9.8-12.01,25.4-5.46,43.17-13.01,7.55-22.2,17.7-17.84,37.23,5.55,5.38,13.39,7.45,21.28,9.46,28.25,68.76,65.58,132.35,93.6,201.86,3.92,9.71,5.93,20.19,9.64,30.12,9,24.03,23.26,45.84,31.42,70.31,15.84,47.47,40.02,93.71,50.63,147.03,2.35,4.52-5.55,1.96-4.06,5.88,11.18,7.31,10.51,31.79,20.78,40.41,72.53-24.05,145.63-58.79,228.32-72.73,4.59.47,5.83,5.81,11.22,5.13,1.53-5.02,9.23-5.8,10.29-11.15-4.65-4.76-7.28-1.23-10.41-6.32-1.97-3.2.77-10.78-2.29-18.09,5.57-2.53,14.03-3.06,12.47-10.51-2.73-5.24-10.93,1.1-14.48-.44-11.35-54.93-15.07-96.19-19.69-146.53.35-4.11,5.28-5.05,4.33-10.03-9.76-4.27-12.13-20.34-13.72-35.54-2.76-26.34-3.87-55.42-7.56-86.03-8.22-68.22-14.75-135.95-27.38-199.63,20.56-2.12,24.89-13.57,21.12-30.61-2.05-3.31-8.84-5.06-11.85-2.96ZM76.12,83.32c24.19-5.27,40.66-8.78,60.14-14.1,64.38-17.57,120.98-30.12,179.69-46.36,13.93-3.84,35.12-13.5,44.23-11.2,13.06,3.33,16.22,26.67,24.12,30.55.33.81-.22,1.02-.81,1.19-41.18,9.03-82.95,24.89-124.09,29.96-13.21,1.63-26.32,1.9-39.16,5.13-13.31,3.35-25.74,9.17-38.69,13.28-14,4.41-28.52,6.17-42.42,9.83-11.02,2.91-21.22,7.86-31.91,10.99-28.13,8.29-55.28,11.95-80.67,19.96-20.55-31.28,15.06-41.69,49.58-49.23ZM455.22,596.84c-63.42,9.99-120.76,34.13-180.22,54.69-16.92,5.84-32.68,12.32-50.19,12.3-1.82-6.03-5.99-14.49-5.65-19.55,39.27-5.27,74.04-23.52,109.06-33.39,42.19-11.87,82.33-21.35,125.33-34.29,1.27,8.52,3.89,16,1.67,20.24ZM452.9,567.45c-27.08,11.26-56.19,16.38-83.91,24.66-36.03,10.75-70.64,23.58-105.7,34.81-14.39,4.62-30.47,5.98-45.58,9.4-1.38-8.93-5.57-13.77-6.37-23.51,8.33-3.55,28.23-5.01,32.36-14.17-8.32-4.72-27.86,7.24-34.27,9.38-.55-2.99-1.1-5.98-1.65-8.96,5.46-.93,10.38-5.69,16-8.08,5.25-2.22,14.29-1.18,15.01-7.89-8.96-8.13-21.86,7.75-33.28,9.19-2.57-4.68-4.59-10.15-6.09-16.37,6-6.58,20.36-7.39,23.85-15.69-7.8-6.97-15.68,6.6-26.68,5.91-1.81-5.35-4.72-9.1-5.91-15.37,8.65-2.79,22.18-4.9,26.41-13.05-7.36-8.78-18.85,7.9-27.68,6.1-4.76-2.32-6.22-9.43-8.08-16,7.45-5.3,23.03-4.98,26.39-13.08-7.01-9.02-20.27,8.01-31.01,4.67-1.97-1.35-1.87-5.71-2.65-8.78,6.13-5.62,19.56-6.21,24.41-12.71-7.89-7.73-19.71,3.36-27.67,6.12-2.53-5.14-5.17-10.16-6.27-17.37,34.03-15.74,75.23-24.05,115.2-33.49,37.97-8.96,75.1-25.3,111.41-31.74,4.51-.81,9.97.24,14.28-.59,8.57-1.57,16.73-7.81,26.06-3.72.81-.34,1.01.19,1.17.8,4.41,45.06,11.07,103.34,20.23,149.51ZM430.3,405.01c-80.06,16.7-157.87,41.1-235.97,63.16-1.7,1.79-22.38,7.19-23.1,6.59-3.05.81-6.38,1.42-9.52,2.17-28.68-60.02-53.34-125.88-81.55-186.6,20.9-8.47,42.66-11.15,63.58-17.85,12.22-3.9,24.17-10.36,36.52-13.89,16.73-4.8,33.9-8.84,51.01-13.46,16.66-4.53,32.84-12.46,49.46-16.29,38.02-8.74,78.5-14.61,121-24.25.77-.33.81-1.19,1.81-1.37.7-.67,1.42-1.33,2.8-1.55,11.47,72.74,13.04,138.86,23.94,203.35ZM405.7,192.54c-36.61,11.22-84.5,21.4-132.84,32.6-27.34,6.34-55.71,16.96-83.92,24.66-30.51,8.31-58.43,20.85-83.55,26.62-17.58,4.06-30.38,9.15-34.84-4.9,6.87-6.85,27.05-4.52,25.66-17.06-7.88-3.66-28.73,20.3-33.74,1.05,4-9.69,22.04-9.71,27.47-18.42-7.99-10.09-20.88,6.92-32.47,8.03-2.29-3.84-5-7.03-5.54-13.39,7.96-6.09,23.99-6.62,26.85-16.24-7.49-6.28-21.6,8.37-30.66,6.64-2.99-5.74-5.59-12.04-7.63-19.16,4.52-7,20.35-6.22,24.22-13.7-7.84-8.56-19.84,5.33-28.48,7.3-1.73-5.07-3.53-10.01-4.91-15.55,23.7-10.07,48.66-18.71,74.42-26,55.3-15.66,111.87-34.65,170.18-47.68,38.13-8.51,76.06-14.6,110.79-18.28,8.63,35.74,14.24,70.29,18.99,103.47Z"/><path class="cls-1" d="M373.45,18.14c-2.99-5.49-11.85-4.56-13.02,1.24-1.39-1.6-2.63-3.33-3.57-5.18-1.2-2.34-4.13-1.82-5.45-.11-.87-1.25-1.79-2.46-2.86-3.61-1.59-1.7-5.13-.81-5.46,1.61-3.08,22.52-27.46,28.77-46.37,33.14-10.81,2.5-21.47,5.2-32.1,8.03-10.67,1.69-21.33,3.44-31.88,5.82-17.82,4.03-35.4,9.71-52.96,14.76-31.52,9.05-62.77,18.54-93.88,28.86-4.78.53-9.57,1.1-14.38,1.79-7.51,1.07-22.57,2.41-31.97,7.91-.32.09-.64.18-.96.27-4.67.06-9.93.4-12.98,2.86-3.67,2.96-.57,6.47,2.55,8.04.26.13.52.2.78.32.84,8.12,9.47,11.02,16.6,11.31,4.25.18,4.11-6.42-.12-6.59-2.73.36-4.85-.25-6.4-1.78,13.74-.84,27.65-6.88,40.56-10.81,6.22-1.9,12.43-3.83,18.64-5.74,1.79-.21,3.57-.38,5.36-.62,28.71-3.91,56.81-11.36,84.61-19.35,21.81-6.27,43.59-12.54,65.45-18.63,12.44-3.03,24.89-6.02,37.32-9.09,24.48-6.05,53.91-6.61,75.75-20.28,1.06,2.03,2.2,3.97,3.38,5.71,2.14,3.14,6.76.95,5.96-2.67-.87-3.94-2.67-7.98-5.09-11.81,7.13-.79,4.99-10.77,2.47-15.39ZM349.43,23.44c1.1,2.2,2.08,4.46,3.05,6.72-1.98-1.66-2.78-4.1-3.05-6.72ZM343.89,28.16c.58,1.91,1.42,3.67,2.58,5.18-3.51.93-6.99,2-10.45,3.16,3.04-2.41,5.69-5.19,7.87-8.34ZM367.67,25.62l-.12-.39c-1-2.96-.39-2.69,1.82.82.08.53-.73.17-1.71-.43Z"/><path class="cls-9" d="M236.93,364.13l.51.05.08.48-.15.55-.78.94.57,1.04.26.02.05.39.71,1.1.72-.12.38-.42.23-.68-.14-.87-.43-.37h-.63s.06-1.04.06-1.04l.26-.18-.14-.46-.2-.24-.03-.29.23-.07.88.44.05.39.62.82.2.44.09-.33h.31s-.14-.46-.14-.46l-.88-.64.06-.83-.2-.24-.29.09-.62-.82-.4-.08-.34-.3-.38.42-.48-.36-.2-.44.66-.3.57.43.17-.26.09-1.14.4.48.11.37.2-.16.03-.31-.42-1.18-.52.97v.61s-.26-.02-.26-.02l-.34-.5-.32-2.52.29-.09.31.61.23.13.26-.18-.03-.29-.34-.71-.05-.39-.17-.15-.49.05.03-.31.23-.07-.11-.37-.43-.58-2.11-.97v.41s.17.35.17.35l.43.38-.03.51-.83.35-.18.86.08.48-.14.15-.45-.47.13,1.07.2.24.49-.25.02.7-.77.13.23.33.17.76.37.39-.09.33.14.66.25.43.29-.9.35-.31.34.1-.25-1.03.52-.36-.22-.74.06-.22.2.04.34.5.28.72-.6-.12.31.81-.21,1.17-.54-.14-.52.76-.26-.02-.24,1.28-.35.1.11.37-.49.25-.59-1.33-.19-1.46-.59-1.33-.11-.77.18-.46-.62-1.43-.68-.6h-.31s-.17-.56-.17-.56l.29-.9-.22-.94.03-.72.12-.24.77.47v-.4s-.71-.69-.71-.69l-.05-.39-2.84.15-1.12.24-.25-.43-1.49.45-.7,1.02-1.89.57-.77-.07-.06.62-.44,1.04-.2.16.25.83-.12.44-.2.16-.37-.8-.43.23-.19-1.05.23.13.26-.38-.11-.37.26.43.32-.4.03-.31-.49.05-.51-.25.02.7-.15.55-.4.32-.37-.59-.05-.39-.54.06-.31-1.02-.2.16.05.99-.57-.43-.33-1.11-.4-.28-.2.16.03.29.6.53-.29.49-.83-.05.36,1.2.23.33.6.32.23-.07.09-.33.89.44.05.39-.75.23-.06.62.14.46.75-.83.29.12.12-1.25.32-.4.17.35.08.68-.23.47-.49.25-.41,1.13-.13,1.45.05.79.26.02.15-.35.56,1.44.14,1.07-.09.73.8-.24.53,1.55.38-.42-.19-1.05.37-.21.64-.8.23-.07-.03.72-.32.6-.6.28.17.35.46.47.17.35.26-.18.09-.33-.11-.77.78-.74-.17-.35-.29-.12-.23-.33.35-.51-.43-.38-1.03-.29-.23-.33.57.03.17-.25-.17-.35-.46-.06-.26-.43.4-.12-.62-1.22-.02-.5-.43-.17.09-.33.46-.34.26.02.66.51.23-.07-.03-.29-.26-.23-.2-.44h.32s.2.25.2.25l.26.02-.47-1.97.26.23.14.46.26.22.13,1.47.28.72.26.22-.12.64.65.91v1.01s1.78,5.91,1.78,5.91l1.46,4.2.37.39-.04,1.73.36,1.4.76,1.28,1.42,4.71.65,1.11.38,2.51-.18.46-1.21.97-1.01.4-1.23.07-1.07.83-.49.05-.68-.4-1.63-4.55-.88-1.45-.02-.7-.59-2.14-.08-.88-.73-1.39-.05-.99-.9-1.74-.25-1.44-1.31-4.14-.02-.7-1.56-5.17.04-.92-.4-.28-.05-.79-.4-.69.03-.31-.81-2.27-.08-.68.09-.33-.37-.59-.42-1.59.4-.12-.74-1.19-.45-1.07-.05-.99.88.84.46.27.08.48.26.23.15-.55-.19-1.46.97.11.49-.25,1.11,1.38-.26.38-.4-.28-.14-.46-.49-.16-.75.02.14.46.65.71v.41s-.2-.24-.2-.24l-.52-.04-.35.31-.03.31.4.49.46.26.6-.08,1.85,1.36v-.61s.12-.24.12-.24l.17.15.31.81.2.24-.39-1.7-.42-.58-.23-.13v.61s.11.37.11.37l-.46-.27-.31-.61.72-.32.09-.33.8.36.4-.32.23-.47.14.26.17.96.29.12-.06.42-.2.16-.6-.32-.2.16.43.58.49-.05.78-.54-.31-.61-.05-.39.23-.07.43.38.32-.4.09-.53-.72-.09-.26.18-.48-.36-1.52.16-.08-.48.32-.4-.23-.33-.17.05-.2-.65.69-.21-.51-.45-.98.3v-.4s-.53-.74-.53-.74l-.08-.48.29-.09.64-.8-.31-.81-.91-.93-.05-.59-.77.13v-.4s-.79-.97-.79-.97l.69-.21-.96-1.93-.26.18.2.44.23.13.17.35-.66.5-.26-.22-.05-.79-.14-.26-.54-.34-.23.47.66.1-.3,1.5,1,.2.22.74.6.73-.37.21-.18,1.26.2.04.17-.25.2.04.05.39-.43.03-.03.72-.14.14-.29-.12.2.44-.02,2.22-.54.06-.86-.34-.2.16-.9-2.15-.22-1.55-.4-.49-.9-2.75.29-.69-.74-.58.07-1.03-.26-.22-.87-2.66-.34-.7.09-.53-.54-1.15-.47-2.18-1.37-4.52-.02-1.1-.84-2.77.12-1.25.26-.58.72-.72.54.14,2.64-1,.75-.02.23.33.29.12,1.06,3.11.53,2.16-.06.83.65,1.32.42,1.79.31.41.72,3.01.53,1.55.25,1.24-.18.66.73,1.39.26.22.81,3.29,1.65,5.04.37.19v.81s.22.74.22.74l-.26.38-.03.31.14.46.17-.25v-.81s.7-.21.7-.21l.29.11.2-.16.03-.31.2-.16.42,1.18.4-.32-.11-.77h.31s.71.7.71.7l.12-.84h1s1.41-.53,1.41-.53l3.31-2.11-.25-.43-.49.45-.28-.72-.1-1.38-.57-.63-.75-2.9-.37-.59.06-.62-.53-2.16-.16-1.36-.54-.95-.72-3.01-.79-1.37-.95-2.94-1.42-5.92-.7-2.11v-.4s.21-.57.21-.57l.78-.54,1.69-.21,1.78-.94.86-.06.46.26.79,1.17,1.7,6.24,1.43,4.71-.04,1.12.59,1.33,1.7,6.04.81,2.27v.4s.37.59.37.59l.5,2.07.28.72.45.47.73,2.2.22,1.55.42.78,1.57,4.77.36,1.4.19,1.86.71,1.3.05.79.28.72.08.68.31.81-.09.53.71,1.1.19,1.45.68,1.21.61,2.64.2.24.58,2.14.37.59.17.76.79,1.58.08.68-.09.33.28.52.28,1.12-.04,1.12.65,1.72.3,1.42-.06.62-.2.36-.75.43-2.7.41-.72.52-.91-.33-.43-.38-.74-1.19-.48-1.37.03-.72-1.68-5.14.15-.35-.57-.84-.05-1.19-1.69-4.13.06-.62-.21-2.15.03-.71.26.02.28.92.14-.14.12-.64.14-.15.63.62.52-.16.09-.73v-.4ZM208.21,328.06l.34-.1-.11-.37-.23.07v.4ZM208.94,326.12l-.29-.12.17.55.12-.44ZM209.16,326.86l-.34-.3.06.19.29.12ZM210,330.44l.6.12.26.22-.31-1.02-.57.17.02.5ZM210.11,327.08l.2-.16.8.16.09-.33-1.11-.37v.4s.02.29.02.29ZM210.12,333.33l.17.35.23.13.29-.09-.05-.39-.28-.52-.26.18-.09.33ZM210.76,331.92l-.05-.39-.17-.15.11.37.11.17ZM211.48,334.93l-.46.14.03.29,1,.4.06-.42-.65-1.32-.51-.25.4.69.14.46ZM211.25,339.34v-.2s-.25-.22-.25-.22l.25.43ZM212.11,334.74l.66-.3-.37-.19-.03-.29-.4-.69-.26-.23h-.31s.37.59.37.59l.34,1.11ZM212.32,337.7l-.48-.36-.4-.08v.4s.25.02.25.02l.97.72.43-.23-.23-.33-.26-.02-.29-.12ZM211.64,329.44l.29-.09.15-.95-.4.32-.09.33.05.39ZM211.72,340.91l.17-.05-.08-.28-.17.05.08.28ZM211.64,336.49l.28.52.37-.21-.08-.68-.4.12-.17.25ZM211.82,343.5l.29-.09.06-.62-.17-.35-.23.07v.61s.05.39.05.39ZM212.79,340.28l.07,2.1.23-.07.26-.58-.23-.33v-1.01s-.25-.22-.25-.22l.57-.17.17.35.02,1.3.57.03-.22-1.34-.17-.35.15-.75-.11-.37-.15.55-.54-.34-.89.17-.23-.13.05.39.48.56.2.24ZM212.15,326.56l.23-.07-.14-.26-.17.05.08.28ZM213.04,337.38l.4-.32-.11-.37-.4-.49-.26-.02v.4s.19.45.19.45l.17.35ZM213.08,343.52l.17-.05-.08-.28-.17.05.08.28ZM213.03,335.07l.34.3.17.35.32-.4.06-.62-.26-.02-.4.32-.23.07ZM213.69,338.7l-.25-.43-.2.16.2.24.26.02ZM213.55,334.3l-.31-.21.17.35.14-.14ZM214.11,346.94l.2-.16-.14-.66-.2-.24-.23.07.2.65.17.35ZM215,339.92l.04-1.32-.42-.78.37-.21-.4-.48-.8-.16.22.74.4.08.2.24-.12,1.25-.26-.02.57.43.2.24ZM214.33,336.49l-.17-.55-.29.09.2.24.26.22ZM214.43,349.87l.49-.05.17-.25-.11-.37-.43-.38-.49-.16.31.81.06.39ZM214.47,340.88l.17.35.34-.1-.05-.39-.26-.02-.2.16ZM214.62,348.2l.17.35.43-.03-.08-.48h-.31s-.2.16-.2.16ZM215.18,353.77l.06-.62-.34-.1-.03.31.14.26.17.15ZM215.3,341.94l.26.02.12-.24-.17-.35-.17.25-.03.31ZM215.7,356.13l.92-.68-.31-.61-.54.07-.29.49.05.39.17.35ZM216.41,358.04l-.05-.39-.29-.12.11.37.23.13ZM216.95,346.38l.2.24.05.99.2.24.49-.25.23.33-.43.23-.09.73h-.32s-.32.39-.32.39v.41s-.32,0-.32,0l-.4-.28-.12.24.12-.64.61-.89-.37-1,.38-.42.09-.33ZM216.72,349.98l.17.76-.43-.17-.17-.35.14-.14.29-.09ZM216.4,343.32l.17-.05-.08-.28-.17.05.08.28ZM216.88,360.01l.41-.93.29-.09-.17-.35-.23-.13-.37.21-.15.95.23.33ZM216.84,349.94l.66-.1.14.46-.03.31-.54-.34-.23-.33ZM217.43,343.21l-.14-.26-.32.2.31.21.14-.14ZM217.03,344.14l.14.46-.06.22.11.17.52-.76-.22-.74-.23.07-.03.31-.23.27ZM217.16,357.21l.23-.07.46.26.17.35-.69-.2-.17-.35ZM217.45,360.25l.17.35.57.23.2-.16-.23-.33-.51-.25-.2.16ZM217.69,362.09l.11.37.17-.25-.2-.24-.09.13ZM217.97,363.62l.17-.05-.08-.28-.17.05.08.28ZM218.52,366.07l.26.23.38-.42-.17-.35-.02-.7-.23-.33-.21,1.17v.4ZM218.91,356.78l.25.43-.21.57-.23-.13-.05-.39.2-.16.03-.31ZM220.98,362.4l.38,2.1-.03.31-.52.16-.51-.45-.05-.79-.88-1.45.63-.39.69.2.28.32ZM219.48,360.74l.29.12.14.26-.03.31-.23-.13-.17-.55ZM220.46,363.57l-.11-.37.17-.46-.37-.39-.23.07.31.81.23.33ZM220.03,375.6l.26.22-.12.24-.14-.46ZM220.17,360.73h.32s.23.34.23.34l-.34.1-.2-.45ZM220.86,371.11l-.26.18.14.26.17-.25-.06-.18ZM221.23,352.45l-.05-.39-.29-.12.17.35.17.15ZM221.13,369.51l-.23.07.2.24.03-.31ZM222.43,368.21l-.68-.6-.34.1.37.59.52.05.14-.14ZM221.56,369.28l.28.52.2-.16v-.41s-.37-.19-.37-.19l-.12.24ZM221.94,372.8l.26-.38-.03-.29-.54-.14.14.46.17.35ZM222.18,374.64l.17.15.49-.05-.17-.55-.46.14-.03.31ZM222.5,363.05l.03-.31-.29-.11.25.43ZM222.31,373.39l.08.28.49.15-.14-.46-.2-.24-.03.31-.2-.04ZM222.57,372.81l.26-.58.63-.39-.17-.35-.83-.25v1.21s.1.37.1.37ZM222.74,369.23l.09-.13.26.23-.14-.46-.34.1.14.26ZM222.77,361.05l.23-.07.03-.31-.4-.08.14.46ZM222.74,323.86l.57.03-.02-.5-.46.14-.09.33ZM223.59,367.06l-.14-.67-.2-.04.05.39.28.32ZM223.91,369.78l-.37-.59-.29.09.4.48.26.02ZM223.5,324.74l.15-.14v-.4s-.28.09-.28.09l.14.46ZM224.16,371.22l-.4-.89-.23.07.08.68.26.23.29-.09ZM223.59,327.94l.17.35.26.02.46-.34-.23-.33-.46.14-.2.16ZM224.19,366.37l-.05-.79-.49.05.25.63.29.12ZM224.86,377.06l.23-.67-.51-.25-.26.18-.6-.32.11.37.77.47.26.22ZM223.8,326.76l.57-.17-.37-.39-.23.27.03.29ZM224.67,371.87l-.26-.02-.2-.24-.26-.02.51.65.52-.56v-.4s-.34-.1-.34-.1l.05.39-.03.31ZM224.33,373.89l.32-.4-.05-.39-.2-.24-.43.03.14.66.23.33ZM224.1,375.37l.71.29-.17-.76-.52.16-.03.31ZM224.19,366.98l.17-.05-.08-.28-.17.05.08.28ZM224.93,351.83l-.2-.65-.17.25.08.28.29.11ZM224.64,321.87l.14.46.4-.12v-.4s-.42-.17-.42-.17l-.12.24ZM225.68,381.24l-.43-.58-.49.05.05.59.86-.06ZM225.51,377.36l.17.15-.15.35.2.24-.54.06-.37-.19.11.37.4.28.55-.47.18-.66-.4-.48-.15.35ZM224.91,323.81l.23.13-.11-.37-.2-.04.08.28ZM224.94,327.63l.28.32.35-.91-.43.03-.09.33-.12.24ZM226.19,325.54l-.85-.75-.26-.02-.09.73.34.7.26.22.4.08.2-.16.03-.31-.03-.5ZM225.53,332.9l-.43.03.17.35.23-.07.03-.31ZM225.21,379.67l.26.02.06-.42-.29.09-.03.31ZM225.32,323.89l.17.35.71.29-.2-.65-.48-.36-.06.22-.14.15ZM225.53,329.77l.46-.34.38-1.23-.11-.57-.43.23-.38,1.23.05.39.03.29ZM226.47,330.39l-.23-.13-.6.28-.09.33.49.15.4.48.26-.38.49.15-.2-.44.18-.66-.2-.24-.43.23-.06.22ZM225.67,333.36l.17.35-.1,1.34.29.12.32-.6-.2-.65.06-.22,1.05.59.14-.14-.2-.44-.74-.38-.2-.44-.29.09-.03.31-.29.09ZM225.91,336.61l.2-.57-.17-.55-.26.58.03.3.2.24ZM225.97,384.48l.06-.42-.29-.12.11.37.11.17ZM226.03,373.48l.2-.16-.11-.37-.26-.02.03.3.14.26ZM226.81,376.47l-.14-.66-.46-.27-.23.07.57.84.26.02ZM226.21,323.11l.23-.07.03-.31-.29.09.03.29ZM226.71,374.68l-.43.03.17.35.26.02v-.4ZM226.34,381.75l.31.61.2.04.12-.24-.05-.59-.23-.33-.35.51ZM226.46,335.54l.26.02.41-.73-.14-.46-.58.78.05.39ZM227.68,332.95l-.77-.27-.2.16.29-.09.48.76.26.02-.03-.29.2-.57-.03-.29-.12.24-.09.33ZM227.35,327.3l-.31-1.02-.2-.04.25.83.26.23ZM226.96,337.81l.4.49.49-.45-.71-.29-.17.25ZM226.99,329.43l.65.51-.2-.65h-.31s-.14.14-.14.14ZM227.23,385.31l.17-.05-.11-.37-.17.05.11.37ZM227.47,333.92l.28.72-.55.67.33,1.31.17.15.35-1.11.2-.16.45.67.05.39.2-.16.17.35.92-.48.12-.24-.48-.56.32-.4-.14-.46-.2.16-.29.9-.26.18-.2-.44.21-.97-.34-.7-.21.56-.03.72-.17.25-.23-.13-.13-1.07.26-.18-.23-.34-.37.21-.2.16ZM227.23,350.33l.23.33.35-.31-.05-.39-.23.07-.06.22-.23.07ZM227.85,378.87l-.05-.79-.54-.14.14.66.2.24.26.02ZM227.26,324.71l.29-.09.09-.33-.2-.24-.18.66ZM228.08,329.3l-.34-.5-.26-.02.14.46.17.15.29-.09ZM227.61,331.46h.32s.68.4.68.4l-.4-.69-.48-.36-.12.24v.41ZM227.72,343.63l.29-.09-.14-.26-.23.07.08.28ZM227.85,341.17l.52.05-.14-.46-.23-.13-.12.24-.03.31ZM227.87,342.07l.23-.07-.17-.55-.06.62ZM227.96,379.45l.17-.05-.08-.28-.17.05.08.28ZM228.35,338.9l.29-.09-.14-.26-.26-.02.11.37ZM228.28,349l.26.02.06-.22-.26-.02-.06.22ZM229.25,342.06l-.09.33.28.72v.61s-.12.24-.12.24l-.68-1h-.31s.79,1.17.79,1.17l.71.49.11.37.23.13-.18.66.08.48.46-.14-.17-.35-.02-1.3-.4-.08v-.61s.12-.24.12-.24l.17.35.43-.03-.08-.48.4-.12.09-.33-.2-.24-.43-.17-.17-.35.06-.22.23-.07-.11-.37-.54-.14-.12.64-.23.07h-.32ZM229.08,341.3l.4.08.2-.16-.62-1.43-.2-.24-.29.09.5,1.66ZM228.79,345.52l.48.36-.02-.7-.43.03-.03.31ZM230.19,337.74l-.25-.63h-.31s-.73,1.32-.73,1.32l.48.76.29.12-.17.05.03.29,1.55-.07-.2-.44-.45-.47v-.81s-.22-.13-.22-.13ZM229.19,348.93l.34.7.49-.05-.42-.98-.23.07-.17.25ZM229.5,342.89l.6-.08.23.33-.4-.08-.03.31-.26-.02-.14-.46ZM229.56,337.93l.34-.1.11.98-.23.07-.11-.57-.11-.37ZM229.97,333.06l.23-.47-.14-.26-.2.36.11.37ZM229.98,351.11l.17.35.29-.09v-.4s-.28-.12-.28-.12l-.17.25ZM230.57,340.85l-.05-.39-.2-.24-.26-.02.11.37.17.15.23.13ZM230.19,349.53l.2.65.29-.49v-.4s-.14-.26-.14-.26l.03.29-.23.07-.14.14ZM232.45,353.69l.06-.22.59,1.13-.32,1.21.19.85.46-.14-.08-.68.32-.8.25.63.38-.42.15-.95-.29-.12-.17-.55.12-.64-.8-.16-.15.35-.31-.41.21-.57.54.34-.17-.35v-1.41s-.19-.04-.19-.04l-.4.32-.26-.02-.2-.24-.13-1.47-.28-.72.29-.49-.25-1.64.15-.55-.39-1.09-.48-.56.41-.73-.08-.48-.49.45v.81s.27,1.33.27,1.33l-.55.47-.15.55.02.7.58-.38.23.13-.21.97-.68-.4.11.37-.03.51.23-.07.28.72.21-.57.26-.18.14.87-.09.73-.57-.03.19,1.05h.32s.17.36.17.36l.05.79.29-.09.2.24.14.46-.15.55.08.28ZM230.65,338.2l.57.03-.03.31.14.26.46-.14-.62-.82-.4.12-.12.24ZM231.15,336.94l.09-.73-.23-.13-.09.73.23.13ZM231.15,352.27l.17.35.49-.05-.17-.35-.29-.11-.2.16ZM231.94,341.24l.29-.09.09-.33-.11-.37-.42-.58-.26-.02.45,1.08-.03.31ZM232.82,346.42l.21-.77.14.66-.06.62-.49,1.06-.12.64.05.39.43.17.46.47.34.7.08.48.35-.31v-.61s-.56-1.44-.56-1.44l.32-.4-.17-.76-.17.25-.29-.12-.05-.39.38-.42.68.4.23-.47-.08-.68-.29.09-.26.38-.37-.39.15-.55-.2-.04-.11-.37-1.29.09.2.24.22.74.28.32ZM232.61,344.06l.29-.09.37.39.26.02.03-.51-.4-.28-.74-.18.2.65ZM233.46,341.89l-.31-.41.14.26.17.15ZM233.69,360.67l-.25-.43-.14.14.2.24.2.04ZM233.91,361.82l-.17-.35-.29-.11.2.45.26.02ZM234,357.55l.03-.51-.4-.08.2.45.17.15ZM234.02,354.32l.05.39-.35.31-.05-.39.14-.14.2-.16ZM235.41,352.89l.14-.14-.14-.87-.37-.59-.23.07-.03.51h-.32s-.51-.46-.51-.46l.45.87.77.47.23.13ZM234.18,348.63l.29-.09-.11-.17-.26-.02.08.28ZM234.74,354.41l.23-.07-.03-.29-.17-.15.03.29-.06.22ZM234.9,347.7l.14-.15-.11-.37-.17.05.14.46ZM235.24,360.61l.05.39-.2.16.03-.31.12-.24ZM235.73,355.42l.29-.09.4.28.17-.05-.17-.35.06-1.03-.57-.43-.4.12-.06.62.28.92ZM236.38,352.8l-.39-.89-.29.09.08.68.23.13h.37ZM235.76,366.7l.37.39.32-.4-.08-.48-.46.14-.15.35ZM235.78,364.68l.12-.64.72-1.13.25.43v.61s-.32.4-.32.4l-.55.27-.23.07ZM236.53,356.59v.61s-.29-.12-.29-.12l-.17-.55.14-.14.31.21ZM236.92,357.28l.08.48-.09.33-.35.31-.09.33-.17-.35.03-.51.38-.42.2-.16ZM236.79,370.72l.17.55.23.13-.05-.79-.23-.13-.12.24ZM238.69,369.95l-.09,1.14h-.32s-.35.3-.35.3h-.31s.22.73.22.73l.23-.07.48.36.65.91-.55.47-.34-.5-.23.07.08.28.48.56.63.21.38-.42-.22-.74.37.19-.03.31.34.7-.49.65.22.74.14-.15v-.4s.43.38.43.38l-.09.33.05.99-.4-.08.05.39.65,1.32.32-.2-.59-1.33.34-.1.54.34.14-.14.34.5.2.04.12-.24-.22-.94-.57-.03-.54-.34.03-.31.2-.16-.65-1.32-.11-.77.04-.92.29-.09.23.13.12-.24-.23-.54-.6-.32-.55.47-.65-1.52-.03-.29.57.03.06-.22-.46-.47-.17-.35-.52.36-.08-.48-.2-.24-.29.49-.34.1.25.83.34.5.18-.66.2-.16.29-.09ZM238.21,376.04l.43.17.09-.53-.49.05-.03.31ZM239.23,366.96l-.21.57-.52-.05-.14-.26.86-.26ZM238.69,362.49l.17-.05-.14-.46-.29.09.25.43ZM238.7,372.06l.29-.09.14.46-.29.09-.14-.46ZM239.49,378.17l.29-.49-.05-.39-.26-.02-.2.57.23.33ZM239.54,370.5l.22.74.12-.24.6-.08.12-.24-.34-.7-.29.09-.23.47-.2-.04ZM239.67,369.25l.2.24,1.06.39.45.47.17.35-.2.16-.26.79.14.26-.2.57.48.96.34-.1.12-.64-.28-.32-.08-.28.43-.23-.36-1.81-2.02-1.5-.03.31.05.39ZM239.97,367.34l.17-.05-.08-.28-.17.05.08.28ZM240.39,380.32l.23-.07-.03-.29-.17.05-.03.31ZM240.8,367.39l.23-.68-.6-.12.14.46.23.33ZM242.06,379.21l-.37-.59-.03.31.14.26.26.02ZM242.3,381.05h.31s-.05-.79-.05-.79h-.37s.03.31.03.31l.08.48ZM242.71,379.32l.17-.05-.03-.29-.17.05.03.29Z"/><path class="cls-9" d="M241.29,329.24l.2.04.25.63-.46.14.26.23-.09.33-.46.14.48.56.36,1.4.05.79.74.38.09-.33-.48-.96.17-.25-.51-.85-.05-.39.34-.1-.11-.77.26-.18.17.35.02.9.28.32-.15.55.22.74.45.67.17-.25-.02-.7-.42-.58v-1.91s.21-.07.21-.07l.34.5.03-.31-.28-1.13.44-1.04v-.4s-.68-1.21-.68-1.21l-.03-.29.26.02.03-.31-.17-.35-.23.07-.17-.15-.05-.39.55-.27.03.3.9,2.35.02.7.65,1.11.98,2.83,1.03,4.02-.67.71.48.96.69-.21.2.44-.03.31-.72.12-.29.49.02.7-.57-.03-.14.14.22.74-.89.17-.25-1.64.06-.62.29-.49-1.33-1.71-.76-1.28.23-.07.37.39.26.02.12-.24-.08-.28-.68-.6-.49.05-.58.58.28.72.27,1.73.55-.47.25.43,1.03.29v.4s-.27.58-.27.58l-.46-.47-.32.4.08.48.6-.28.23.13-.47,1.15-.58.38-.29-.12.14.46.2.24,1.46-.34.02.7-.15.95-.26-.02-.17-.35-.26-.02-.2.36.4.28.17.35-.49.65.28,1.13.48.36.12-.64h.37s.11.36.11.36l.15-.35-.17-.55-.23-.33.24-1.69.51.25h.37s.08.47.08.47l-.57-.23.65,1.32-.06.42.17.35.6.12.11.77-.21,1.17.14.26.46.06.26.22.14.46.34.3.08.48.29-.09.06-.62-.14-.46-.85-.75-.34-.71.2-.16.49.16.31,1.02,1.06.18.31.21.09-.33-.08-.68.63-.19.25.83-.33,1.61.28.32.2.04.35-.91.49.16.28.72-.55.47-.72-.09-.2.36,1.04,2.61.92,3.25.25,1.64.87,2.87,1.15,2.57,1.26,4.56.59,1.13.26.23,1.18-.26,1.06.39,1.95-.39.78-.74,2.01-.61.54.14,1.18-.86,1.61-.49h2.01s.49.15.49.15l.4.48.34.71.7,2.31.71,1.1v.61s.75,3.1.75,3.1l-.23.47-.69.61-2.76.83-.26.38-.95.19-.55.47-1.89.37-2.41-.08-2.62,1.3-.92.08-.49-.16-.69.81-2.85,1.37-1.26-.02-.37-.59-2.13-6.01-.79-1.78-.05-.39.29-.09-1.07-2.9-.39-1.49-.22-1.34-.26.38-.05-.79-.23-.54-.26-.22-.09-2.79-.2-.24-.54.06-.02-.7-.36-1.61-1.26-4.16-.59-1.33-.39-2.1-1.57-4.16-.11-.77-.65-1.11-.48-1.57-.38-2.3.12-.64-.54-.75v-.4s-.56-1.24-.56-1.24l-.42-1.59-.31-.41-.62-1.83.17-.25-.37-.6-.28-1.13-.34-.7-.29-.12-.14-.46.26.02-.17-.76v-1.01s-.45-.67-.45-.67l-.69-3.32-.31-.61-.43-.38-1.82-6-.14-1.07-.45-.87.03-.72.2-.57.69-.61,1.95-.59,1.6-.08.32-.2.21-.57v-.4s.51.65.51.65l3.68-1.11,1.75-.23.72-.32.55-.67,1.92-.28,2.3-.9,1.54.74,1.08,1.08.95,2.74.33,1.71.02.7-.18,1.06-.23.47-.64.6-.89.37-2.23.07-1.84.35-1.84.76-.48-.36-.17.25-.75.02-.55.67-.43.03-.63-.21-.23.27-.31-.21-.35.31-.26-.02.68,1.21.05.39-.26.78-.23-.13-.14.14-.12.64-.23.07-.43-.17-.12,1.25-.23.47-.43.23-.49.86-.29.09-.21.57.08.68-.43.23-.15.55.11.57.23.33.15-.95.2.24.74.18.26-.38-.05-.39ZM239.29,324.9l-.2-.44-.75.23-.28-.52-.74-.78-.4.12.43.58.51.25-.06.62.45.87.08.48.57-.17-.51-.85.43-.23.57.63.17.35.26-.18v-.81s-.34-.1-.34-.1l-.2-.04ZM237.67,318.54l-.28-.52-.23-.13.2.65h.31ZM237.57,321.69h-.32s.14.25.14.25l.17-.25ZM238.53,319.69l-.24,1.28-.87,1.88.46.26.37.59.23.13.15-.55.91.73.65,1.32.08.48.43.17.89-.57-.28-.72v-.61s.21-.57.21-.57l1.26.02-.08-.68-.55.27-.68-.4-.37-.8.66-.5-.53-1.35-.2.16.19,1.05-.26.18-.23.47.02,1.51.2-.16.14.26-.43.23-.28-.72-.52.56-.11-.37v-.81s.27-1.19.27-1.19l-.02-.7-.4-.69.35-.31.2.24.02.7.59.93-.3-1.62-.39-1.29-.95.39-.49.45-.54-.54.2.65.26.23ZM237.92,320.38l.17-.25-.37-.39.2.65ZM238.05,318.52l.4.28-.2-.65-.17.05-.03.31ZM238.16,326.96l.26.22.06-.42-.34-.1.03.29ZM239.38,320.24l.33,1.31-.43.23-.26.38.14.67-.85-.55.03-.72.23-.68.58-.58.23-.07ZM238.69,328.71l.46-.14-.25-.83-.23-.13-.17.25.03.3.17.55ZM238.79,329.69l.37.8.29.11.03-.31-.28-.92-.29.09-.12.24ZM239.18,328.06l.66.51-.14.15.23-.07.15-.55-.51-1.06-.43-.17-.12.64.17.55ZM239.25,318.16l.29-.09v-.61s-.28.09-.28.09l-.03.31.03.3ZM239.58,331.47l.23-.07v-.61s-.26.38-.26.38l.03.29ZM240.54,326.74l-.2-.44-.54-.14.17.35.29.11-.03-.29.14.26.17.15ZM240.25,334.29l.74.18.15-.14.28.32.34.7.46-.54-.42-.98-1.26-.22-.26.38-.03.31ZM240.3,323.89l.29-.09.48,1.37-.46-.27-.28-.72-.03-.3ZM241.15,332.91l.04-.92-.54-.14-.12.24.14.67.17.15h.31ZM240.54,318.88l.23.13.37.59.29.11-.28-1.53-.49.45-.12.24ZM241.25,322.49l.22.54-.32.2-.11-.37.06-.22.14-.14ZM241.45,338.26l.31.61.2.04v-.61s-.11-.37-.11-.37l-.26.18-.14.14ZM241.72,336.47l.2.04-.08-.28-.23-.13.11.37ZM241.86,318.48l.26.02.09-.33-.11-.77-.48-.56.2.44-.04.92.08.28ZM241.79,316.58l.2.04.17-.25-.46-.06.08.28ZM242.23,326.33l.91.73.34.7-1.03-.09-.43.23-.09.33-.22-.74.58-.38.03-.31-.08-.48ZM242.24,339.43l.54.34.03-.31.2.04.03-.31-.26-.22-.52.16-.03.31ZM242.9,328.55l-.15.95-.2.16-.17-.35.06-.62.2-.16.26.02ZM242.49,317.68l.14.46.26.23.05.79.14.26.2-.16.57.23.09-.33-.28-.72-.2-.24.26-.58-.2-.44-.29.09-.21.57-.11-.37-.17-.15-.12.24-.14.14ZM242.63,325.81l.23.13.17.35-.26-.02-.14-.46ZM243.13,320.82l.46-.14-.17-.35-.29-.12-.06.22.05.39ZM243.12,337.76l.34.1-.08-.48-.17.05-.09.33ZM243.36,336.27l.06-.22.17.35-.14.14-.08-.28ZM243.71,343.02l.23.13-.11-.37-.2-.04.08.28ZM244.16,321.31l-.02-.5-.26-.02-.15.35.2.04.23.13ZM243.86,330.48l.46-.14-.08-.28-.26.18-.12.24ZM244.1,332.52l.34.1-.17-.35-.14-.06-.03.31ZM244.31,319.55l.46.06.12-.24-.31-.61-.26-.02-.09.33.08.48ZM245.05,336.27l-.14-.46-.37.21.23.13.29.12ZM244.93,317.85l-.11-.37-.23-.13.14.46.2.04ZM244.97,334.78l.23.33.58-.58-.28-1.13-.29-.12-.07,1.43-.17.05ZM244.98,317.83l.26-.18-.26-.23v.4ZM245.42,335.65l-.37-.39.2.24.17.15ZM245.16,317.38l.52-.36-.17-.35-.26-.02v.4s-.09.33-.09.33ZM245.3,321.77l.26.02.17.35-.29.09-.14-.46ZM245.32,338.2l.14.46.2.24.03-.31.6-.08.09-.33-.2-.24-.03-.29-.63.39-.2.16ZM245.56,336.11l-.05-.39-.17.25.23.13ZM245.47,344.91l.17.76-.12.44.05.39.46-.34.6.73.2-.16-.05-.79-.57-.03-.37-.19.06-.62-.14-.46-.29.29ZM245.52,318.78l.2.04.17-.25-.08-.48-.32.4.03.29ZM246.08,316.7l-.06-.39-.34-.1.23.33.17.15ZM245.81,336.94l.32-.4h-.37s.05.4.05.4ZM245.76,313.77l.26-.18-.26-.22v.4ZM245.99,348.28l.29-.09-.14-.26-.26-.02.11.37ZM246.29,320.06l.14-.14-.08-.28-.2-.04.14.46ZM246.19,317.07h.37s-.17-.36-.17-.36l-.17.05-.03.31ZM246.42,347.44l.29-.09-.14-.46-.17.05.02.5ZM246.68,317.02l.48.36-.26-.02-.49.65v.4s.14.26.14.26l.23-.47.72-.32-.39-1.29-.6-.32.05.39.11.37ZM247.54,339.34v.4s-.27.58-.27.58l.05.39.28.52.75-.23.68,1.21.62,1.42-.49-.16-.37-.59-.14-.46-.26.38.16,1.16-.23-.13v.4s-.35.1-.35.1l.09-.33-.11-.37-.77-.27-.11-.57.43-.64-.43-.58.03-.72-.2-.24-.26.38-.23-.13-.03-.29.23-.07.21-.97.43-.23.26.02ZM246.83,351.05l.29-.49-.05-.39-.26-.23-.18.66.2.44ZM247.15,353.78l.17-.25.03-.71h-.63s.28.71.28.71l.14.26ZM247.04,356.33l.17-.05-.08-.28-.17.05.08.28ZM247.4,347.35l.37.59.26.02.17-.25-.11-.37-.31-.21-.23.07-.14.15ZM247.45,352.07l.89.44.29-.09-.02-1.1-.23.07-.18.46-.29.09-.14-.46-.2-.24-.09.53-.03.31ZM248.14,355.39l-.25-.63-.43.03.4.69.29-.09ZM247.55,349.52l.26.02.26-.38-.05-.39-.46.14-.06.22.05.39ZM247.72,342.62l.14.26.4-.12-.17-.35-.2-.04-.17.26ZM248.33,341.93l.14-.14-.08-.28-.2-.04.14.46ZM248.22,356.68l.29-.09.03-.31-.29.09-.03.31ZM248.8,354.89l-.08-.28.1-1.34-.49.05.05,1.2.14.26.29.12ZM249.38,350.58l-.34.1-.65-.51.08.48.62.62.23-.07.06-.22v-.4ZM248.57,313.73l.17-.05-.05-.39-.23.07.11.37ZM249.02,345.25v.61s-.18-.15-.18-.15v-.41s.18-.05.18-.05ZM249.01,357.85l.32-.8h.32s-.05-.79-.05-.79l-.72.93.05.39.08.28ZM250,355.33l.12-.24-.14-.46-.8-.36.31.81.26.23.26.02ZM249.69,354.32l.12-.24-.05-.79-.34-.5-.23.07.45,1.07.05.39ZM255.11,346.93v.61s-.12.24-.12.24l-.54-.14-.33-1.11-.26-.02-.26.38.71.89-1.06.62-.52-.05-.54-.54.12-1.04-1.25-1.84.66-.5.11.17.06-.83.69.4v-.61s-.48-.36-.48-.36l-1.52-.25-.31-.21v-.4s-.31-.41-.31-.41l-.52-.05-.2-.44-.02-.9.43-.03.51.45.68,1-.02-.7-.45-1.07.17-.25.46-.14.8.16.25.83-.05-.79,1.09-.13,1.24-1.49.4-.12.54.14.32-.4.92-.28.12-.24,1.4.69,1.13,1.47.59,1.74.41,2.6-.21,1.58-.32.4-1.49.45-1.75.83-1.12-.17-.17-.15ZM249.43,359.04l.34.5.15-.95-.34-.1-.03.31-.12.24ZM249.79,314.87l-.05-.39-.26-.23.05.39.26.23ZM249.59,364.53l.35-.31-.03-.29-.31-.21-.09.33.08.48ZM250.45,349.15l-.46-.26-.17-.35.03-.31-.2.16-.13,1.65.2.24.57.03-.11-.37-.23-.13-.2-.45.26-.18.23.13.2-.16ZM250.25,344.57l.14.87h-.31s.03.29.03.29l-.37-.39.06-.62.2-.16.26.02ZM249.91,356.27v-.61s-.17.05-.17.05v.4s.17.15.17.15ZM250.44,361.75l1,.2-.34-.7-.54-.74-.02-.7-.26-.02-.41.53.49.36.17.76-.09.33ZM250.04,357.74l.14-.14-.03-.29.23-.07-.14-.26-.26-.02-.09.33.14.46ZM250.34,351.9l.23-.07-.02-.7-.26.38.05.39ZM250.46,358.52l.17-.05-.03-.5-.29.09.14.46ZM250.43,343.71l.46.06.11.37-.46.14-.08-.28-.03-.29ZM250.83,366.37l.46.06-.05-.39.2-.16-.08-.48-.35.31-.29-.12.11.77ZM251.19,315.96l-.34.1.14.46.34-.1-.14-.46ZM250.98,354.84l.17-.05-.08-.28-.17.05.08.28ZM251.69,359.26l-.11-.57-.2-.24-.23.07.28.72.26.02ZM251.73,361.06l-.11-1.18-.31-.21.05.79.17.35.2.24ZM251.68,365.01l.49.16-.31-.61-.08-.48-.34-.1.05.59.2.44ZM251.55,363.34h.37s-.05-.6-.05-.6l-.43.03.03.29.08.28ZM251.44,361.75l.17.35.54.14.29-.49-.14-.46-.29-.12-.32.4-.26.18ZM251.47,369.1l.2.04.63-.59-.34-.91-.43.23-.09.94.03.29ZM252.64,347.68l.86.14.14-.14-.59-.93.12-.64-.42-.78.09-.33-.68-.4-.12.64.53,1.35.14.66-.06.42ZM252.22,361.01l.26.02.32-.4-.14-.87-.43.23-.15.55.14.46ZM252.79,365.18l-.51-.25v.2s.8.57.8.57l-.11-.37.06-.42.45.67.29.11-.42-1.99-.49-.15.14.46-.18.86-.03.31ZM252.41,369.93l.4-.12.15-.55-.2-.24-.43.23-.03.31.11.37ZM252.4,314.38l.14.26.26.02-.05-.39-.2-.04-.14.14ZM253.35,317.72l-.22-.74-.29.09.31.61.2.04ZM253.54,341.76l-.23.27.26.22v.2s-.51-.65-.51-.65l-.17.25.02,1.1.51,1.05.51.45.52.05-.56-1.65-.24-2.24-.23.07.08.48.05.39ZM252.98,366.83l.71.29.09-.33-.2-.04-.43-.58-.2-.04v.4s.02.29.02.29ZM253.4,345.64l.23-.07.09-.33.14.26-.03-.29-.31-.21-.2-.44-.35.31.2.04.22.74ZM253.3,342.84l.37.39.11.57-.37-.19-.11-.77ZM253.44,362.76l.23-.07.06-.22-.11-.37-.23.07-.06.22.11.37ZM253.4,372.15l.42.58.19.85.26-.18v-.61s-.19-.65-.19-.65l-.49-.15-.2.16ZM253.54,368.28l.49-.05.94.42.23-.07-.05-.39-.34-.71-1.06-.18v.4s-.18.25-.18.25l-.03.31ZM253.86,371.61l.34-.1-.28-.32-.17.05.11.37ZM253.81,366.28l.2.44.54.34-.31-1.02-.29.09-.14.15ZM253.91,369.27l.17.35.43-.03-.17-.55-.23.07-.2.16ZM254.35,370.96l-.14-.67-.29.29.43.38ZM254.64,375.21l-.37-.6-.2-.04-.03.31.45.47.14-.14ZM254.74,372.25l.12-.24-.2-.65-.46.14.31.61.23.13ZM254.84,343.79l.49-.25.09-.53-.23-.33-.37.21-.15.55.17.35ZM254.76,346.84l.17-.05-.08-.28-.17.05.08.28ZM254.99,374.09l.49.36-.22-.74-.23.07-.03.31ZM255.24,344.47l.23.13-.11-.37-.2-.04.08.28ZM255.43,376.17l.2-.16-.14-.66-.29.09.05.39.17.35ZM256.48,369.5l-.17-.76-.4-.69-.23-.13.19.85.31.61.29.12ZM256.18,341.97l.23-.07.03-.72-.37-.59.17.76-.06.62ZM256.51,376.85l.57-.17-.23-.33-.2-.04-.12.24-.03.31ZM257.34,373.58l-.17-.35h-.37s.17.36.17.36l.23.13.14-.14ZM257.7,371.86l.03-.51-.14-.46-.49.05.37.59.23.33ZM257.35,341.31l.43-.03-.17-.76h-.37s.11.38.11.38v.4ZM257.48,370.11l.23-.07-.14-.26-.2-.04.11.37ZM257.89,376.23l-.11-.37h-.37s.2.46.2.46l.29-.09ZM258.15,368.8l.06-.42-.29.09.23.33ZM258.11,374.46l.17-.05-.08-.28-.17.05.08.28ZM258.09,369.62l.26.02.12-.24-.26-.02-.12.24ZM258.83,370.41l.57.23.18-.66-.63.19-.12.24ZM260.55,373.21l-.25-.63-.43-.17v.4s.17.35.17.35l.23.13.29-.09ZM260.48,375.45l-.25-.83-.29.09.31.61.23.13ZM261.53,372.72l.43-.23-.14-.46-.32.4.03.3ZM262.5,372.62l-.2.16.03.29.37.8.17-.25-.31-1.02.35-.71-.08-.48-.8.24.31.61.17.35ZM263.84,370.81l.2-.36-.37-.59-.26-.02.19.85.23.13ZM264.17,372.32l.26-.18v-.4s-.4.12-.4.12l.14.46ZM265.22,373.11l-.2-.65-.2-.04-.03.31.2.24.23.13ZM265.58,371.39l-.57-.03.11.37.29.12.2-.16-.03-.29ZM265.66,368.34l-.28-.92-.29.09.34.7.23.13ZM266.64,371.17l.14-.14-.14-.66-.18.46.17.35ZM267.8,372.73l.38-.42.09-.33-.11-.57-.32.4-1.03-.29.37.59.48.36.14.26ZM267.56,370.28l.23-.07.03-.31-.14-.46-.23.07-.25-.63-.2-.04.39,1.09.17.35ZM267.3,370.87l.08.28.17-.25-.2-.24-.06.22ZM270.23,369.98l.29-.29-.17-.35-.2-.04v.4s.08.28.08.28Z"/><path class="cls-9" d="M264.86,307.49l2.02,5.84,1.59,6.07.53,1.55.56,1.24.81,3.08,1.01,2.52-.03.51.62,1.43.48,1.57.46.47.23-.07.08.68-.18,1.27.3,1.42-.06.22.59,1.33.89,3.36-.18,1.06.99,1.82.65,1.52.36,1.61-.2.16-.29-.12-.15.35.57.43.03-.31.91.93.28,1.53,1.01,2.92.02.9,1.18,3.07.25,1.44-.06.62-.23.47-.46.34.2.24,1.06-.02.91.73,1.75.18.46-.54.92.13,1.01-.4.29-.49.43-.23,2.52-.16.41-.73.52.04,2.04-.72.92-.07.77.47.65,1.32.19,1.45.28,1.12.48.56.25,1.44.42,1.39.24,1.84-.26.38-.87.66-1.58.38-.66-.31-1.95.79-1.03.11-.37-.19-.69.81-.83.15-2.21,1.17-1.03.11-.32.4-.15.55-.51-.25-1.49.05-1.84.76-.89.17-.94-.42-.4-.48-1.89-4.37-.37-.59.09-.53-.22-1.35-.76-2.29-.47-1.97-.45-.47v-.61s-.69-2.92-.69-2.92l-.4-.69-.71-.69.06-.62-.21-1.95.14-.14.25.63.26.02v-.4s-.22-.33-.22-.33l-.6-.32-.17.05-.14-.26.15-.35-.79-1.98v-.4s.35-.71.35-.71l-.66-.1-.34-.71-.33-1.51-.51-1.06-.05-.79-.45-1.48-.02-.7-.42-.78-1.82-6-.78-2.99-.76-2.09-.25-1.44-.79-1.37-.78-2.59.12-.64-1.02-2.11-.34-1.11.06-.62-.99-2.22-.33-1.11-.51-.25.09-1.14-.25-1.44-1.26-4.36.2-.36,1.7-1.02,2.24-.68.92-.08.63.21.23.13ZM261.08,318.41l.08.48-.17.25-.26-.02-.05-.39.12-.24.29-.09ZM262.56,312.72l-.17-.55-.2-.04.17.35.2.24ZM262.33,311.78l.46-.14-.17-.35h-.32s.03.49.03.49ZM262.6,313.92v-.4s-.28.09-.28.09l.28.32ZM263.37,314.79h-.37s.17.37.17.37l.17-.05.03-.31ZM264.2,318.78l-.14-.46-.35.31.23.13.26.02ZM263.78,314.06l.34.5.2.04.21-.57-.14-.46-.46.34-.14.15ZM263.93,317.04l.29-.09.49.15-.05-.39-.4-.69-.35.31-.03.31.05.39ZM264.34,311.17l.46.06-.08-.48-.4-.08.02.5ZM264.63,322.88l.83-.56-.66-.51h-.31s-.03.71-.03.71l.17.35ZM264.66,318.43l.51.25.6.73.32-.4.09-.53-.46-.26-.11-.37-.2.16-.66-.1-.14.14.05.39ZM265.33,320.65l-.14-.26-.29-.12.17.35.26.02ZM265.87,321.4l-.72-.09.17.35.37.19.14-.14.03-.31ZM266.22,324.21l-.57-.84-.2-.04.03.29.48.56.26.02ZM265.54,315.95l.43-.03-.2-.44-.23-.13-.03.31.03.29ZM265.65,327.92l.17-.05-.08-.28-.17.05.08.28ZM266.21,329.36l-.37.21.26.02.12-.24ZM266.57,323.1l.09-.33-.57-.63-.17.05.45.87.2.04ZM266.12,326.16l.14-.14v-.4s-.28.09-.28.09l.14.46ZM266.61,326.52l.17.35.26.02.12-.24-.14-.46-.23.07-.17.25ZM267.07,329.7l.09-.53-.43.03.17.35.17.15ZM266.99,328.42l.2-.16-.02-.5-.29-.11-.06.42.17.35ZM267,331.34l.29-.09-.14-.46-.29.09.14.46ZM268.4,320.83l.03-.31-.28-.72-.23.07v.4s.22.33.22.33l.26.23ZM268.17,324.43l.29-.09-.14-.26-.23.07.08.28ZM268.94,328.84l.12-.84-.2-.04-.32.4-.34-.3.25.63.23.13.26.02ZM268.31,332.15l.23.34.17-.05v-.4s-.4.12-.4.12ZM268.48,335.63l.29.11.12-.24-.08-.48-.35.31.03.29ZM268.93,329.64l-.2-.24-.26-.02.11.37.29.11.06-.22ZM268.84,334.71l.17-.05-.08-.28-.17.05.08.28ZM269.58,331.36l-.02-.5-.49-.16.2.65h.31ZM269.67,338.5l-.08-.48-.17.05.03.29.23.13ZM270,332.14v.2s-.23.07-.23.07l.14.46.4.48.54.14-.42-.58-.51-1.06.08.28ZM269.9,337.62l.26.02.11.98.72.09.17.35.49.16-.19-1.05-.17-.15-.12.24-.29.09-.17-.35-.46-.47.57-.17-.28-.52-.63.39v.4ZM270.69,324.47l.09-.13.23.34-.2.16-.11-.37ZM270.9,341.35l.15-.15v-.4s-.31-.41-.31-.41v.61s.16.35.16.35ZM270.95,342.74l.17-.05-.17-.55-.17.05.17.55ZM270.93,334.79l.12-.24-.26-.22.14.46ZM270.86,335.61l.29.11.65,1.32.26.23-.05-.79-.71-1.1-.26-.23-.12.24-.06.22ZM271.08,344.62l.76,1.48.23.13-.3-1.42-.45-.47-.03.31-.2-.04ZM271.57,333.59l.03-.51-.29.09.25.43ZM271.61,343.05l.29-.09.07-1.03.46.06.45,1.27.26-.18.38-1.02.52.04-.59-.93.26-.38-.03-.29-.74-.18-.12.64-.52.16-.17.25-.17-.35-.37-.19-.2.57v.81s.25.83.25.83ZM271.4,332.22l.35-.31-.2-.24-.17.05.03.5ZM271.97,348.79l.45.47.2-.16.03-.31-.26-.23-.23.07-.2.16ZM272.83,351.85l.35-.31.23.33.29-.09.15-.55-.06-.39-.49.25-.17.25.03.09-.83-.66-.29.09.34.7.46.27ZM272.93,339.12l-.43.23.11.77.29-.09.21-.97.29-.09.09-.33-.26-.23-.94-.22.11.37.43.17.11.37ZM272.74,344.72l-.39,1.83.08.88.81-.45.29.12v-.41s-.39-1.29-.39-1.29l.58-.78-.34-.3-.35.31-.29.09ZM272.78,335.94l-.11-.57-.26.58.2.04.17-.05ZM272.94,348.7l-.14-.87-.29-.12.22.74.2.24ZM273.18,351.55l-.03-.09.06-.02-.03.11ZM273.48,353.17l.37-.21-.05-.39-.52-.04.2.65ZM273.72,348.56l.08.48.37.39.29-.49.27-.99-.49.05-.38.42-.14.14ZM274.4,345.63l.43-.23-.45-.47-.29-.11-.17.25.28.32.2.24ZM274.21,354.56l.54.14.17.76.79,1.17-.35.31.05.39h.37s.32-.41.32-.41h.32s-.99-1.81-.99-1.81l-.22-.74-.03-.5-.43-.38-.26-.02-.32.4-.03.31.05.39ZM274.43,344.51l-.11-.77-.15.55.26.22ZM274.6,352.33l.4-.12-.14-.66-.26-.23-.29.09.28.92ZM274.78,355.8l-.08-.28-.23-.13.03.29.29.12ZM275.78,347.94l-.08-.88-.43-.17-.57.17.14.46.4.48.26.02.29-.09ZM274.85,350.03l.14.46.46-.14-.2-.45-.2-.04-.2.16ZM275.21,359.5l.14-.15-.17-.55-.2-.04.05.39.17.35ZM275.17,345.3l.2.04.03-.31h-.32s.08.27.08.27ZM275.21,351.64l.31.81.26.02v-.81s-.13-.26-.13-.26l-.2.16-.23.07ZM275.45,353.48l.23.33.26.02.03-.31-.31-.21-.2.16ZM275.87,355.47l.51.04.4-.32-.11-.17.12-.44-.83.55-.09.33ZM276.33,351l.17-.05-.08-.28-.17.05.08.28ZM276.64,359.07l.35-.31-.48-1.17-.26-.22v.61s.28.72.28.72l.11.37ZM276.94,361.5l-.37-.59-.23-.13-.09.13.34.5.34.1ZM276.44,359.63l.14.26.49.16.49-.25.09-.53-1.21.37ZM276.72,364.49l1.23-.27.2.44.05.79.75-.43.09-.33-.08-.48-1.09-.28-.26-.23-.32.6-.25-.43-.26-.02-.12.24.05.39ZM277.11,346.12l-.2.37-.11-.17.32-.2ZM277.56,362.72l.51.25-.13-1.07-.29.09-.09.33v.4ZM277.78,356.81l1.08,1.29.4-.12.09-.33-.83-.25.04-1.93-.8.24.02.7v.4ZM277.97,358.67l.26.02.03-.31-.2-.44-.26-.02.03.29.14.46ZM278.94,362.71l-.3-1.42-.46.14.25.83.28.52.23-.07ZM278.85,359.71l.32-.4-.02-.7-.29.09-.18.66.17.35ZM278.94,361.7l.2-.16.03-.51-.37-.39-.03.72.17.35ZM278.81,367.49l.46.26.23-.27.26.23-.12.24.05.39.46.06.26-.58-.14-1.07-.75.43-.17-.76-.23-.13-.21.97-.12.24ZM279.64,360.08l.08,1.29-.23.47h-.31s.07,1.48.07,1.48l.45.87-.12.64.08.48.37.19.43-.23-.25-.83-.54-.75.03-.31-.31-.81.29-.09.32-.6.31.41-.15.55.08.88.37.8.33-1.61.4-.32.12-.84-.49.05-.37-.59-.66.1.03-.31.32-.2.51.25-.13-1.47-.69.61-.34-.1ZM279.55,357.08l-.05-.39-.26-.22.05.39.26.22ZM281.16,367.38l.09-.33-.17-.35-.51-.25.37.8.23.13ZM280.98,365.72l.11.37.77.67-.1-1.58-.29-.12.11.57-.12.24-.2-.04-.29-.11ZM281.51,370.4l.09-.94-.11-.37-.23-.13.05,1.19.2.24ZM281.73,364.08l-.2-.65-.2-.04.2.65.2.04ZM281.67,361.38l.17.35.74.58.05.39-.71-.49-.15.55.14.46.49-.05.6-.49.45,1.48-.5,1.46,1.37,1-.22-.74.14-.15.26.22.49-.05.63-.6-.68-.4-.45-1.07h-.32s-.48-.56-.48-.56l.06-.83-1.06-.59-.68-.8-.2.16-.14.14ZM288,301.09l.14.46v.61s1.09,2.79,1.09,2.79l1.51,5.39,1.84,6.1.79,2.18.37.39.22,1.55,1.04,3.01.9,1.94.52,2.97,1.09,3.8.1,1.38-.06.62.4.48.65,1.32,1.09,3.2.62,1.43.2.24.67,2.82,1.79,5.91.42,1.59.34.91,1.05.79.57.23.66-.1.87-.66,1.43-.03.37-.21.35-.51.86-.26,1,.2,1.87-.67,2.73-1.53.29.11.48.56h.32s.51,1.06.51,1.06l.75,3.1.37.59,1,4.54-.72.72-.92.48-1.58.17-.43-.17-.38.62-.89-.03-1.03.31-.89-.03-2.56,1.48-1.81.45-1.24.68-1.6.08-1.9.98-.89.17-.91-.53-1.19-1.86-3.58-11.82-.14-.87-.45-1.48-.6-.73-.44-2.08.03-.51-.42-.78-.05-.79-.54-1.15-.27-1.53-.37-.59-.59-2.14-.4-.69-.13-1.47-.59-2.14-1.15-2.98-.84-2.97-.84-2.17-.07-1.49-.79-2.18-.08-.68-.43-.58-.76-2.29-.31-.61-.05-.79.09-.33-.26-.23-.45-1.48-.65-1.31-.17-.76.06-.42-1.07-2.9-1.67-6.15-.42-1.39.95-.99,2.99-.9.83-.35.57.23.77.67ZM282.13,368.9l.78-.74.29-.89-.52-.05-.61.49-.03.71.08.48ZM282.34,364l.25.43.32-.2-.23-.34-.2-.04-.14.14ZM283.15,370.21l-.2-.44-.29-.11.25.63.23-.07ZM283.91,367.35l-.31-.61-.26-.02.14.46.17.15.26.02ZM283.98,369.45l.14-.14-.08-.28-.2-.04.14.46ZM284,364.3l.2.24.14.46-.03.31-.37-.19-.08-.48.17-.05-.03-.29ZM284.65,368.74l-.05-.59-.46-.06.31.61.2.04ZM285.09,363.97l.07-1.43-.46-.26h-.31s.53,1.55.53,1.55l.17.15ZM285.69,303.6l-.08-.68-.4.12.2.44.29.12ZM285.76,365.38l.2.04.12-.24-.05-.79-.2.16-.12.44.05.39ZM286.29,367.95l-.17-.35h-.31s.17.35.17.35h.32ZM286.39,366l-.14-.46-.29.29.23.13.2.04ZM286.66,364.2l-.04.92.26.02.06-.22-.22-1.14-.52-.04-.12.24.57.23ZM286.45,361.24l.11.37.17-.05.09-.33-.26-.23-.12.24ZM286.87,310.2l.54-.06.23.13-.05-.39-.4-.69-.23-.13-.18.66.08.48ZM287.91,365.03l.17-.25-.02-.7-.34-.7-.48-.36-.26-.02.91,1.54.02.5ZM287.56,359.29l.2-.36-.23.07.03.29ZM287.58,360.4l.2.04.15-.35-.26-.02-.09.33ZM287.77,320.21l.17-.05-.08-.48-.23.07.14.46ZM288.36,314.09l-.05-.39-.46-.27.25.63.26.02ZM288.34,361.27l-.11-.37h-.37s.17.36.17.36h.32ZM287.96,363.31l.2-.16,1.03.7.2-.16-.25-.63-.83-.25-.2.16-.15.35ZM288.07,366.6l.2-.16-.08-.48-.2.16.08.48ZM288.75,314.98l-.37-.39.03-.31-.34.1.14.46.23.13h.32ZM288.33,318.13l.23.33.29.12.09-.33-.25-.43.38-1.22-.23-.34-.02-.7-.14-.26-.46.14.31.81-.19,1.87ZM289.67,314.7l.23-.07-.14-.46-.23-.13.03.29.11.37ZM289.75,319.92l.2-.16v-.4s-.4-.08-.4-.08l.17.35.03.29ZM289.98,361.08l-.05-.59-.29.09.11.37.23.13ZM289.82,362.44l.26.02.21-.57-.17-.35-.26.18-.03.31v.4ZM289.89,364.94l.8.36-.19-1.45.21-.77.63.21.15-.14-.17-.35-.46-.26-.37.21-.52.76-.12,1.05.05.39ZM289.97,324.59l.34-.1-.17-.35-.23.07.05.39ZM290.05,359.65l.26-.18v-.4s-.2-.24-.2-.24v.4s-.06.42-.06.42ZM291.16,318.38l-.03-.29-.29-.32.17.35.14.26ZM291.21,365.15l.17-.05-.11-.37-.17.05.11.37ZM291.39,325.77l.2-.16-.11-.37-.26-.02.17.55ZM291.43,328.79l.4.08.09-.53-.51-.05.02.5ZM291.87,319.07l.14.46.06-.42-.2-.04ZM292.18,324.43l.29-.09.03-.31-.46-.06.14.46ZM292.12,331.5l.46.06.12-.24.8.57.17.35.46-.54-.46-.06-.54-.34-.69-.2-.14.14-.17.25ZM292.98,328.32l-.26-.23.06.18.2.04ZM292.93,326.31l.43-.03.14.26-.11-.37-.57-.63.03.29.08.48ZM292.93,330.45h.37s-.11-.38-.11-.38l-.23.07-.03.31ZM293.96,337.8l.14.46.37-.21.06-.22-.11-.37-.29.09-.17.25ZM294.52,332.79v-.4s-.28.09-.28.09l.28.32ZM294.69,336.27l.29-.09.06-.62-.4-.69-.34.1.2.44.02.5.17.35ZM294.85,330.17l-.13-1.27-.26-.02.16.96.23.33ZM295.12,333.11l-.23.27.14.26.17-.25-.08-.28ZM295.31,334.16l.2.65-.49.25.43.38.49-.05-.05-.39.12-.84-.08-.48-.29.09-.12.24-.2.16ZM295.91,341.54l-.05-.39-.4-.28.2.65.26.02ZM295.61,331.85l.29-.09-.14-.26-.23.07.08.28ZM295.63,329.63l.2-.36-.17.05-.03.31ZM296.27,339.82l-.22-.74-.4.12.37.59.26.02ZM296,338.29l-.05-.59-.29.09.11.37.23.13ZM296.09,344.61l.35-.31-.11-.37-.35.31.11.37ZM296.11,345.31l.23.13v.2s.26-.38.26-.38l-.17-.35-.23.07-.09.33ZM297.04,343.42l-.17-.35-.26-.02.17.35.26.02ZM296.71,341.91l.11.37.23.13.29-.09-.17-.76-.26.38-.2-.04ZM296.9,339.43l.08.48.14-.15-.14-.46-.26.18.17-.05ZM297.54,338.43l-.43.03.17.35.23-.07.03-.31ZM297.65,343.34l.2-.16.25.43-.19-.85.06-.62-.29.09-.29.49.03.29.23.33ZM297.64,340.82l.14-.14v-.4s-.28.09-.28.09l.14.46ZM298.35,341.11l.26.02-.17-.35-.09.33ZM298.81,344.9l-.11-.57-.23.27.08.28.26.02ZM298.76,339.57l.17-.05-.17-.35-.17.25.17.15ZM298.68,346.75l.23-.07.03-.31-.34.1.08.28ZM299.12,349.85l-.11-.37-.2-.04.03.29.29.11ZM299.56,347.8l.17-.05-.11-.37-.17.05.11.37ZM300.96,348.89l-.11-.37-.23-.13.05.39.29.12ZM300.99,345.05l.23-.07-.11-.57-.29.09.17.55ZM301.76,348.85l-.43-.38.14.46.17.15.12-.24ZM301.51,355.48l.17-.05-.08-.28-.17.05.08.28ZM301.58,357.98l.32-.2-.11-.37-.29.09.08.48ZM302.19,356.88l.37.19.06-.83-.26-.02-.12.24-.06.42ZM302.61,357.87l.28.52.06-.42-.23-.33-.12.24ZM306.32,356.04l.29-.09-.11-.17-.26-.02.08.28ZM307.2,357.28l.11.37.46-.14.18-.66-.63.19-.12.24ZM308.19,358.9l-.03-.5-.29.09.14.26.17.15ZM308.52,356.68l.37-.21.35-.91-.29-.12-.46.34-.06.62.08.28ZM309.03,353.81l.45.87.49-.25.35-.71-1.15-.06-.14.15ZM309.1,359.83l.2.65.2.04.03-.31.66.1.1-1.14-.29.09-.61.69-.29-.12ZM309.82,358.71l.23-.07.06-.22-.17-.35-.23-.13-.03.31.14.46ZM310.46,357.51l.29-.09-.11-.37-.23.07.05.39ZM311.45,355.19l.26-.38-.11-.37-.34.1.2.65ZM311.33,356.44l.23-.07.03-.31-.26-.02v.4ZM313.55,358.18l-.17-.35h-.32s-.17.25-.17.25l.43.17.23-.07ZM314.31,360.07l-.4-.49-.46-.27.63.62.23.13ZM314.42,357.12l.17-.05-.25-.83-.2-.24-.06.62.11.37.23.13ZM315.08,359.94l.17-.05-.08-.28-.17.05.08.28Z"/><path class="cls-9" d="M319.69,292.31l1,.61.83.25.28.72,1.28,1.33.42.78,1.93,2.04,1.16,1.56.25.83,2.09,4.21.59.93.98,2.83,1.1,1.99.53,1.55.3,1.62.7,2.11.71.9.81,2.88.36,2.01.59.93v.61s.39,1.5.39,1.5l.76,1.89.25,1.23.2.44.26.23.05.39-.26.79.87,2.86.71,5.23.41,2.19-.03.72.42,1.39.02,1.51-.31,2.71-.93,5.22-.49.25-.32.4-.56,2.49-.44.84-.4.33-.54-.14-.32.6-.95.19-.97-.31-.61.49-.89.17-.75.43-1.03-.09-2.14-1.27-.94-.83-.96-1.12-.57-.23-.97-.72-.94-1.03-1.56-2.25-.51-.25-.62-1.43-1.1-1.58-.53-1.35-.82-1.06-1.26-3.55-.85-1.36v-.4s-.22-.74-.22-.74l-1.16-1.97-.28-.72-.11-.77-1.01-2.92-1.83-4.18v-.61s-.27-1.53-.27-1.53l-.87-2.26-.19-1.45-1.06-3.91-.16-1.36-.95-3.75-.56-5.98-.12-3.7.46-3.67.56-2.29.49-1.06.12-1.05.46-.14-.05-.39-.31-.61.09-.33.74.58.66-.71,1.7-1.02,1.95-.59,2.72-.32.45.47.71.29,1.12-.04.23.54ZM308.09,303.07l.26.02.12-.24-.29-.11-.09.33ZM308.64,306.13l.29-.09-.14-.46-.29.09.14.46ZM309.07,310.44l.17-.05-.11-.37-.2-.04.14.46ZM309.05,309.34l.02.5.09-.33-.11-.17ZM309.05,301.47h.32s.17-.25.17-.25l-.23-.13-.2.16-.06.22ZM309.98,311.58l.14.46.89.24.14.46h.37s-.03.5-.03.5l.4.69.29-.09.51.65.29-.09.03-.71.23-.68-.49.25-.41.53-.34-1.11v-.4s.29-.09.29-.09l.23.13-.42-1.38.09-.33.48.56.66.31.12-.44-.08-.48-.54.06-.66-.31-.17.05.03-.31-.14-.46-.2.16-.09.53.11.37-.35.51-.23.88.51.25-.6-.12-.25-.63.04-.92-.26-.02-.14-.26-.2-.04-.17.25-.03.72-.52-.05-.18.46.23.13.2-.16.23-.07ZM309.47,306.18l.2.45.6.73.08.48.26.23.43-.23.15-.55-.51-.25-.79-1.17-.26.18-.14.14ZM309.7,302.79l.26-.18-.2-.65-.12.44.05.39ZM309.94,305.24l.46-.34-.11-.57h-.31s-.18.65-.18.65l.14.26ZM310.39,298.45l-.14-.46-.26.18.23.13.17.15ZM310.38,315.19l.38-.42.3-1.7-.54.06-.32.4-.09.53.14.66.14.46ZM310.37,308.94l-.02-.5-.23.27.26.23ZM310.14,316.06l.29-.09-.08-.68-.23.47.03.29ZM311.08,316.89l-.95-.02.23.34.49.15.14-.14.09-.33ZM310.33,303.2l.23-.07.09-.33-.2-.24-.03.31-.09.33ZM310.49,320.09l.17.35.23-.27-.11-.37-.29.29ZM310.57,305.65l.34-.1-.08-.68-.23.07.05.39-.09.33ZM311.05,298.55l-.46-.06.2.44.02.7-.12.44.26.23.8-.04.26.23-.4.32-.28-.32-.18.66.08.48,1.09-.33-.27,1.19.05.39.4-.12.61-.89-.17-.35-.74-.58.6-.08-.14-.87-1-.2-.68-.6.06-.62ZM310.71,302.18l.26-.18.09-.33-.11-.37-.23.07-.09.33.08.48ZM310.96,322.07l.49-.85-.69.21.2.65ZM310.93,318.25l.48.56-.14-.66-.23-.13-.12.24ZM311.52,316.25l-.17-.35-.29-.12.22.54.23-.07ZM311.54,309.09l-.19-.85-.26-.02.22.74.23.13ZM311.45,306.9l-.05-.39-.2-.24.05.39.2.24ZM311.95,304.63v-.4s-.42-.78-.42-.78l-.2-.04v.61s.42.58.42.58l.2.04ZM311.43,305.8l.4-.32.12-.64-.26-.02-.26.58v.4ZM311.77,316.48l.16.96.54.14.14.46.29-.09-.25-1.24.34.3.26.02.18-1.06.52-.16-.34-.5-.49.45-.43.03-.28-1.13h-.31s.07,1.48.07,1.48l-.12.24-.29.09ZM312.4,297.64l.32-1.01v-.4s-.17.25-.17.25h-.69s.37.8.37.8l.17.35ZM312.52,319.98l.26-.18.29-1.1-.29.09-.91-.73v.4s.5,1.26.5,1.26l.14.26ZM312.84,323.52l.14.46v2.11s.24-.07.24-.07l.31.21-.12.24.11.37.28.32.2.04-.14-.46.15-.55.4-.53.48.76.2-.16.03-.72.43.17.14-.15-.42-.58-.48-.36-1-.4-.48-.36-.71-1.1-.45-.47.11.77.26.22.31.21ZM312.17,325.03l.43-.03-.37-.8v.4s-.06.42-.06.42ZM312.4,305.5l.54.14.29-.09-.11-.37-.51-.25-.17.25-.03.31ZM312.43,309.12l.4.49.46.06-.02-.5-.43-.38-.23.07-.17.25ZM312.7,303.8l.35-.1.03-.72-.43.43.05.39ZM314.36,322.95l-.03-.29-.43-.38-.65-1.32.14-.15-.02-.7-.4.12-.29.49-.03.31.29.12.05.99.51.05.68.4.17.35ZM312.71,299.26l.23.33.2.04-.05-.59-.2.16-.17.05ZM313.36,319.43l.17.35.23.13.2.44-.12.84.17.35.4-.12-.7-2.31-.23.07-.12.24ZM319.75,299.75l-1.94-1.23-1.31-.41-1.06.22-1.67,1.72-.33,2.62.13,1.47.28,1.33-.06.83.31.61.55,2.45.17.35-.64,1.4v.4s.23.13.23.13l.4-.32.2.04.37.8.47,1.57.69,3.12.56,1.24.46.47-.09.53.48,1.57-.18.46.25.43.22.74.05.79.64,2.33.4.48.59,1.94-.09.73.93,2.04.33,1.51,1.32,2.93.19,1.05-.34.1-.03.31.34-.1,2.39,5.83.84,2.16.54.14.14.26.05.79.34.7,1.3,1.82,1.4.89.74.18,2.82-1.26.51-2.47-.04-2.61-.19-2.06-.2-.24-.31-.81.15-.55.6.12-.2-.44-.48-.36-.23-.33-.58-2.34-.62-1.63-.2-.04-.23-.33-.32-3.13-.28-.52-.56-2.25-.08-1.09-1.12-2.89-.39-2.1-1.96-5.86-.2-.44.18-.86-.57-.43-.23-.33-.59-2.14.03-.71-.65-1.11-1.71-4.42.26-.78-.08-.48-.4.12-.17-.15-.31-.81-1.13-1.88-.25-.63v-.61s-.68,0-.68,0l-.17-.55ZM313.86,324.62l.39,1.09-.23-.13-.4-.69.23-.27ZM313.75,308.52l.11.37.12-.24-.2-.24-.03.11ZM313.77,318.09l.42.58,1.06.18-.14-.46-.46-.47-.17-.35-.55.47-.17.05ZM314.68,315.3l.09-.53.31.41.14.46.23-.07.06-.22-.28-.52-.17.05-.14-.26.34-.1-.2-.65-.63.19-.4-.48-.26-.02.05.79.4.69.26.23.2.04ZM314.76,327.57l-.68-.6.31.81.2.04.17-.25ZM314.38,316.8l.83.46-.08-.28-.79-.97v.4s.05.39.05.39ZM314.58,320.57l.34.1.04-1.32-.37-.19.05.39-.12.64.05.39ZM314.77,325.15l.05.39-.29.09.03-.31.2-.16ZM314.61,323.79l.14.26.63-.19.03-.31-.28-.52-.49.45-.03.31ZM314.65,322.06l.62,1.02.23-.47v-1.01s-.57-.03-.57-.03l-.2.16-.09.33ZM315.32,295.04l-.17-.15-.23.07.11.37.26.02.03-.31ZM316.54,329.96l.63-.39-.03-.29-1.54-1.15-.54-.14.14.46.51.65.68.6.14.26ZM315.14,337.34l.12-.24.28.32-.17.05-.23-.13ZM315.33,331.53l.68,1.21-.06.42.43-.23.61-.89.46-.34-.6-.12-.51-.45-.06.42-.95-.02ZM315.47,297.82l.17-.05-.02-.5-.29.09.14.46ZM315.76,334.63l.14-.14-.08-.68-.23.07-.06.22.11.17.11.37ZM316.67,324.78l-.77-.88-.17.05.77,1.08.17-.25ZM315.91,295.77l.23-.07-.08-.28-.23.07.08.28ZM316.14,325.74l.23.34.29-.09.09-.33-.43-.17-.17.25ZM316.22,327.43l.11.37.34.5.46-.34-.05-.39-.45-.47-.23.07-.17.25ZM316.87,294.57l-.2-.65-.17.26.11.37.26.02ZM316.88,296.89l-.06-.39-.23-.13.05.39.23.13ZM316.65,323.67l.29-.09-.25-.43-.06.22.03.29ZM316.87,336.21l.2.04.55-.47-.43-.38-.05-.59h-.37s.05,1,.05,1l.05.39ZM317.09,325.56l.35-.31-.11-.37-.23.07-.06.22.05.39ZM317.14,327.36l.37.19.12-.84-.31-.21-.03.31-.2.16.05.39ZM317.59,339.22l-.34.1.11.37.23-.07v-.4ZM317.51,335.01l.34-.1-.51-.45.17.55ZM317.35,332.84l.4.69.14-.14-.02-.7h-.32s-.2.16-.2.16ZM317.64,331.94l.86.14-.17-.35-.48-.36h-.37s.11.18.11.18l.05.39ZM317.75,329.59l.6.32.2-.16.12-.64-.57-1.04-.43-.38-.1,1.34.17.55ZM317.92,336.8l.31.61.23-.07-.08-.68.09-.73-.2.16-.15.55-.2.16ZM318.46,326.96l-.08-.28-.23-.13.03.29.29.11ZM318.5,340.35l.03-.31.23-.07-.37-.39.26-.38-.34.1.05.79.14.26ZM318.56,331.66l.12-.24.46.06.14-.15-.23-.33-.46-.26-.29.09.14.66.11.17ZM318.35,333.04l.42.58.57.23-.14-.46-.02-.7-.23-.13-.12.24-.29.09-.2.16ZM318.64,290.91l.12-.24.23.33-.17.05-.17-.15ZM319.18,337.63l-.41,1.13.14.66.29-.09.12-.84.29-.09-.2-.44-.23-.33ZM318.77,334.62l.77.27.14-.14-.45-.47h-.37s-.09.34-.09.34ZM318.96,329.02l.26-.18v-.2s-.23-.13-.23-.13l-.03.31v.2ZM319.1,298.63l.08.28.14-.15-.23-.33v.2ZM320.12,330.59l-.31-.61-.43.03.11.37.43.17.2.04ZM319.51,343.27l.26-.58-.08-.48-.29.09v.61s.11.37.11.37ZM319.58,291.73l-.12.03-.03-.09.14.06ZM319.47,336.73l.29-.09v-.4s-.17.25-.17.25l-.12.24ZM319.6,338.81l.23.33.23-.07.06-.22-.11-.37-.4-.08v.4ZM320.07,291.69l-.14.14-.29-.12.43-.03ZM319.73,340.08l.48.36.04-.92-.49.25-.03.31ZM320.2,335.4l.12-.64-.05-.39-.34.1.08.68.2.24ZM320.08,297.73h.32s-.03-.29-.03-.29l-.2-.24-.03.31-.06.22ZM320.55,337.82l-.23-.33.15-.55-.05-.39-.32.4.11.77.17.15.17-.05ZM320.47,344.19l.35-.31-.05-.39h-.37s-.03.32-.03.32l.11.37ZM320.7,295.43h-.31s.2.24.2.24l.12-.24ZM320.78,345.21v-.61s-.34-.1-.34-.1l.11.57.23.13ZM320.49,341.97l.08.28.2-.16-.2-.24-.09.13ZM320.57,296.88l.34-.1-.11-.37-.29.09.05.39ZM320.78,300.04l.26-.18.03-.51-.35.3.05.39ZM320.96,341.22l.37-.21.12-1.04-.4-.08.06.39-.21.57.05.39ZM321.12,333.91l.23.13.03-.31-.23-.13-.03.31ZM321.46,335.42l-.21.57.14.46.4-.33.12-.64-.05-.39-.31-.61-.31-.21.02.7.2.44ZM321.98,345.65l-.2-.24-.35.31.11.37.86-.26.43-.43-.85-1.56-.08-.48-.51-.25.56,1.44.17.76-.15.35ZM321.73,337.16l.22.54.32-.4-.03-.29h-.32s-.2.16-.2.16ZM322.26,342.84l-.05-.59-.29-.12.11.57.23.13ZM322.84,300.43l-.43.23.25,1.23.38-.82.03-.72-.34-1.11-.26-.23.19,1.05.17.35ZM322.85,344.18l-.17-.76-.2.16.14.26.23.33ZM323.12,347.12l-.28-.72-.23-.13.03.5.2.24.29.12ZM323.46,343.29l-.28-.32.05.39.23-.07ZM323.44,303.87l.23.13.17.55-.46.34.25.63.46-.14-.05-.39.38-.62-.2-.24h-.32s-.11-.38-.11-.38l-.26-.22-.09.33ZM326.68,304l-1.4-.89-.31-1.02-.54.06-.2-.24-.05-.79.21-1.17-.05-.39-.43.23-.35.71.2.44v1.01s.13.46.13.46l.46.06.12-.24.65.91-.58.38.17.35.86.35.14.26-.14.14-.57-.23.45,1.48.08.68-.17.25.57-.17-.06.62h.69s-.34-.91-.34-.91l-.11-.77.21-1.17.17-.25.2-.16ZM323.88,348.61l.17-.05-.03-.5-.29.09.14.46ZM324.01,346.15l.17-.25-.11-.37-.29-.12.22.74ZM324.21,350.32l-.17-.76-.03.31.2.44ZM324.09,347.23l.37-.21.43.38.11.37.26-.18.09-.73-1.03-.5-.29.29.05.59ZM324.14,344.9l.43.38.31.61.32-.8-.11-.77-.86-.14v.4s-.09.33-.09.33ZM324.69,344.03l.06-.22-.37-.8-.2.36.11.37.26.02.14.26ZM324.72,306.01l-.35.31.11.17.26-.18-.03-.29ZM324.96,308.25l1.09.28.29-.09-.25-.43-.69-.4-.14-.46-.46.14.11.37-.06.22.11.37ZM325.21,301.42l-.11-.37-.09.13.2.24ZM328.57,311.29l.29-.49v-.61s-.22-.74-.22-.74l-.23-.34.12-.24.49.15.43.58.19.85.52.05.2-.16.03-.31-.46-.47-.31-.81-.46.14.06-.22.23-.07-.08-.28-.45-.47-.14-.46-.84,1.57-.03.31.4.48.28.92-.2.16-.37-.8-.71-.29.46-.14-.14-.46-.26-.23-.81.85-.42-.78-.29.09-.58.78.14,1.07.23.13.09-.53.23-.07.14.67-.27,1.19.08.68.32-.4.29-.9-.19-1.05.23-.27.37.39.14.66.71.9.08.28-.2.16-.49-.16-.54.06.03.29.28.32.11.77.23.33.41-.93.29-.09.14.46.08,1.09.29-.09.15-.95.2-.16.37.39h.31s.35-.91.35-.91l.26-.18.03-.31h-.31s-.32.39-.32.39l-.28-.32.29-.9-.08-.48-.26-.02-.5,1.06-.29.09-.2-.24-.05-.79-.66-.31-.05-.39.94.22.2.24ZM325.99,349.38l-.26-.23.2.44.06-.22ZM325.96,349.29l.29-.09.15-.35-.05-.39-.2-.04-.23.47.05.39ZM326.66,302.7v-.4s-.23-.13-.23-.13l.05.39.17.15ZM326.7,350.27l.29-.09.03-.72-.29-.12-.2.16.03.29.14.46ZM326.59,308.06l.63-.19-.25-1.23-.23.07-.18.86.02.5ZM329.78,314.86l.57.43.23.33-.4.12-.31-.61v1.01s-.12.24-.12.24l-.31-.41v-.61s-.14-.46-.14-.46l-1.29.69-.49.65-.22-.74-.17-.15-.12.64.05.39.97.31.63.62.08.88.62,1.43.54.14v-.4s.64-1,.64-1l.2.65-.12.24.37.59-.03.31-.48-.36-.29.09.02,1.71.77,1.08-.12.64.02,1.3.2-.36.23-.07.43.37-.12.84.11.37.63.21-.2-.44.4-.12.03-.31-1.39-1.9.18-.66.2-.16.59,1.13.26.23h.32s-.48-1.56-.48-1.56l.15-.55,1,.6.79.97.2.04.12-.24-1.05-1.19.03-.72-.22-.74.03-.31.57-.17-.31-1.02-.49.05-.57-.63.53-1.77-.2-.04-.03-.29-.2-.04.02.7-.15.55-.2.16-.31-.61-.43-.38-.23.07.14.46.46.27.17.35-.46.34-.11-.37-.85-.75-.17-.35.43-.43.21-.97.42.78.4-.12-.17-.76v-.81s-.22-.13-.22-.13l-.31-.61-.2.16.05.79-.09.33-.23.07-.33-1.11-.69.82.03.29ZM327.04,305l.2-.16v-.2s-.17.05-.17.05l-.03.31ZM327.18,310.2l.17-.05.03.29-.2.16v-.4ZM327.55,317.65l.26.23.26-.18.06-.42-.54.06-.03.31ZM327.77,319.2l.26-.18v-.4s-.4.12-.4.12l.14.46ZM327.97,349.28l.43.17-.25-.83-.29.09.11.37v.2ZM328.08,315.88l.29.12.23.33.05.39-.43-.38-.14-.46ZM328.34,319.03l.4.69-.09.94.2-.16.15-.75-.29-.12-.17-.35-.2-.24ZM328.85,316.76h.69s-.09.32-.09.32l.48.96-.2.16-.15.55-.29-.11-.25-.63-.14-.87-.05-.39ZM329.97,323.17l-.11-.37.32-1-.23-.13-.42-.78-.23.07.27,1.73.14.26.26.22ZM329.58,351.72l.45.67.77.47-.05-.39-.54-.54-.17-.35h-.31s-.14.14-.14.14ZM330.28,317.13l.17-.05.14.46-.29.09-.03-.5ZM330.72,311.55l-.31-.41.05.39.26.02ZM331.61,330.44l-.14-.46-.49-.16.37.59.26.02ZM331.2,327.23l.23.13.6-.08.09-.33-.68-.6.09-.53-.14-.26-.2.16.02,1.1v.4ZM333.03,320.03l-.29.09-.51-.65-.35.71h-.31s-.34-.71-.34-.71v-.4s.49-.25.49-.25h.69s.4.48.4.48l.22.74ZM331.56,329.24l.35-.31.15-.55-.23-.13-.54.06.08.68.2.24ZM331.88,336.3l-.14.15-.26-.23.23-.27.17.35ZM332.31,320.95l-.4.12v-.4s.18-.05.18-.05l.23.33ZM331.92,353.83l.14.26.43-.23-.03-.3-.4.12-.14.14ZM331.97,331.64l.63.41-.14-.46-.46-.26-.03.31ZM332.44,352.26l-.08-.48-.37-.39.02.7.17.15.26.02ZM332.49,315.96l-.17-.35-.29-.12.2.45.26.02ZM332.42,333.12l.14-.15-.31-.61.05.39.11.37ZM332.74,324.65l-.03.72.19.85-.41.73.05.39.26.02.69-.81.29-.09-.28-.92.2-.16-.31-.81-.17-.15-.17.25h-.32ZM332.66,335.57l.29.12.09-.33-.14-.26h-.31s.08.47.08.47ZM332.58,331.15l.29.12.09-.33-.23-.33-.03.31-.12.24ZM333.17,328.76l.29-.29-.17-.35-.29-.11-.14.14.17.35.14.26ZM332.99,330.02l.23-.07.03-.51-.26-.23-.09.33.08.48ZM333.43,350.35l.2.04v-.4s-.14.14-.14.14l-.06.22ZM333.92,330.85l-.23.27.6.12.41-.73.05.39-.35.91v.4s.28.11.28.11l.66-.3.34.5.23.13-.22-.74-.03-.5-.54-.54-.05-.79-.4-.28-.09.33-.63.39-.03.31ZM334.4,351.47l-.28-.52-.34.1.17.35.31.21.14-.14ZM334.2,336.11l.15-.75-.28-.72-.29.09.2.24.02.9.2.24ZM334.2,324.92v-.4s-.22-.33-.22-.33l-.14.14.17.35.2.24ZM334.41,350.26l-.08-.68-.46.14.11.37.17.15.26.02ZM333.91,339.72l.2.24.11.57-.09.33.2.24.37-.21.09-.53-.51-.45.21-.97-.05-.39-.34.1.08.48-.17.25-.09.33ZM334.14,329.27l-.14.14.4-.32.15-.55-.05-.39-.46.14.08.68.03.3ZM335.47,335.32v.4s-.38.42-.38.42l-.31-.41-.46.34.2.65-.43.64.22.74.17.15.34-.1.1-1.34-.14-.46.54.54.51.25-.32.6.14.26.43-.23.49-.65-.45-.67-.31-.21.2-.16,1,.4-.06-.39-.31-.61-.43-.37-1.29-.52.11.37.23.13.2.24ZM334.28,344.85l.2.04.41-.73.2.04.28.32-.03-.5-.74-.99.03-.51-.52-.04.21,1.95-.06.42ZM334.42,334.12l.03-.71-.23.07v.4s.2.24.2.24ZM334.79,348.63l-.02-.9-.34-.1.02.7.14.26.2.04ZM335.42,333.92l-.11-.77.06-.42-.2.16-.71-.29.28.92.43.38.26.02ZM334.81,346.61l-.17-.55-.14.14.11.17.2.24ZM334.83,328.25l.29-.9-.43.03-.09.53.23.33ZM334.79,325.85l.34.3.26.02-.4-.69-.17.05-.03.31ZM335.53,341.75l.29-.09.23-.47-.05-.39-.52.36-.51-.25.37.59.2.24ZM335.82,329.67l-.37-1-.43-.38.31.81.31.41.17.15ZM335.49,325.03l.03-.31-.25-.83-.23.27.31.61.14.26ZM336.32,348.07l-.12,1.25.43-.23.43-.64-.23-.33-.19-.85.03-.31-.43.03-.17-.15.03-.31-.28-.72-.77-.67,1.1,2.79.17.15ZM335.49,339.34v-.4s-.17-.35-.17-.35l-.17.25.08.28.26.22ZM335.73,349.66l.83-.15-.57-.23-.23.07-.03.31ZM335.97,351.7l.34-.1-.11-.37-.43-.17.2.65ZM336.13,331.29l.46-.54.09-.33-.4-.28-.29.09.02.7.11.37ZM337.35,344.23l-.68-.6-.02-.7-.34-.71-.29-.12.05.79.25.83.45.67.49.16.09-.33ZM336.86,328.75l-.51-.85-.2-.04.28.92.2.04.23-.07ZM336.36,346.14l.29-.09-.14-.46-.23.07.08.48ZM336.43,333.52h.63s.05.4.05.4l.26-.18.15-.55-.08-.48-1.12-.17v.61s.11.37.11.37ZM336.73,334.94l.12-.24-.11-.37-.29.09.17.35.11.17ZM336.47,350.85l.34.1-.31-.41-.03.31ZM336.48,345.3l.66.1-.14-.46-.4-.28-.12.24v.41ZM336.87,342.25l.32-.2v.4s.22.33.22.33l.29-.49-.05-.39-.66-.1.15-.35-.05-.39-.4-.08-.12.24.08.68.23.33ZM336.92,339.52l.23-.07.15-.55-.22-1.14-.4-.08.07,1.49.17.35ZM336.89,343.36l.48.36.26-.18.45.47.34.1-.2-.65-1.29-.32-.06.22ZM337.6,340.52l.38-.42-.02-.7-.37.21-.06.42.08.48ZM337.78,347.32l.38-.42-.17-.35-.2-.04-.21.57.2.24ZM337.74,337.86l.46.06.23-.27-.11-.37-.23-.13-.38.42.03.29ZM339,342.01l-.11-.37-.31-.21.17.55.26.02Z"/></g></svg>